<svg width="96" height="96" viewBox="0 0 96 96" fill="none" xmlns="http://www.w3.org/2000/svg">
<path d="M48 96C74.5097 96 96 74.5097 96 48C96 21.4903 74.5097 0 48 0C21.4903 0 0 21.4903 0 48C0 74.5097 21.4903 96 48 96Z" fill="white" fill-opacity="0.5"/>
<path d="M77.893 59.3504L59.3496 77.894C58.1869 79.0566 56.3011 79.0566 55.1377 77.8932L18.106 40.8616C16.9427 39.6982 16.9427 37.8123 18.1052 36.6497L36.6488 18.1062C37.8122 16.9428 39.698 16.9428 40.8614 18.1062L77.893 55.1378C79.0564 56.3012 79.0564 58.1871 77.893 59.3504Z" fill="url(#paint0_linear)"/>
<path d="M51.5548 74.3109L74.3103 51.5554L43.0216 20.2667L20.2661 43.0222L51.5548 74.3109Z" fill="url(#paint1_linear)"/>
<path d="M33.0671 27.3783L29.5116 30.9338C29.1183 31.3271 28.4826 31.3271 28.0894 30.9338C27.6961 30.5406 27.6961 29.9049 28.0894 29.5116L31.6449 25.9561C32.0382 25.5628 32.6739 25.5628 33.0671 25.9561C33.4604 26.3493 33.4604 26.985 33.0671 27.3783Z" fill="url(#paint2_linear)"/>
<path d="M27.378 33.0669L26.6669 33.778C26.2736 34.1712 25.6379 34.1712 25.2446 33.778C24.8514 33.3847 24.8514 32.749 25.2446 32.3558L25.9558 31.6447C26.349 31.2514 26.9847 31.2514 27.378 31.6447C27.7712 32.0379 27.7712 32.6736 27.378 33.0669Z" fill="url(#paint3_linear)"/>
<path d="M67.9111 63.6445C69.0894 64.8228 69.0894 66.7329 67.9111 67.9112C66.7328 69.0895 64.8228 69.0896 63.6445 67.9112C62.4662 66.7329 62.4662 64.8228 63.6445 63.6445C64.8228 62.4661 66.7328 62.4662 67.9111 63.6445Z" fill="url(#paint4_linear)"/>
<path d="M55.9271 40.1949C55.5027 40.076 55.0444 40.3307 54.9256 40.789L54.1107 43.8446L53.907 44.6255L56.5892 47.3077L57.3191 47.121C57.3361 47.104 57.3531 47.121 57.3701 47.104L60.3748 46.3061C60.5275 46.2891 60.6803 46.2043 60.7992 46.0854C61.1217 45.7629 61.1217 45.2536 60.7992 44.9311L58.5244 42.6563L56.3006 40.3986C56.1987 40.2967 56.0799 40.2118 55.9271 40.1949Z" fill="url(#paint5_linear)"/>
<path d="M43.7556 50.6354C45.2664 49.1245 45.2664 46.68 43.7556 45.1692C42.2448 43.6584 39.8003 43.6584 38.2894 45.1692C36.7786 46.68 36.7786 49.1245 38.2894 50.6354C39.7833 52.1632 42.2448 52.1462 43.7556 50.6354ZM39.9021 46.7819C40.5302 46.1538 41.5318 46.1708 42.1429 46.7819C42.771 47.41 42.754 48.4116 42.1429 49.0227C41.5318 49.6338 40.5132 49.6338 39.9021 49.0227C39.257 48.4116 39.274 47.41 39.9021 46.7819Z" fill="url(#paint6_linear)"/>
<path d="M50.8345 43.8617C50.6138 44.5237 50.2573 45.1518 49.7311 45.6781C49.086 46.3232 48.2882 46.7476 47.4394 46.9173L45.5041 48.8525C45.3344 49.7013 44.91 50.4992 44.2649 51.1443C43.7387 51.6705 43.1275 52.044 42.4485 52.2477C42.2788 52.8588 42.4485 53.5718 42.9238 54.0471L47.0659 58.1892C47.8298 58.9531 49.069 58.9361 49.816 58.1892L56.793 51.2122C57.5569 50.4483 57.5399 49.209 56.793 48.4621L52.6509 44.32C52.1586 43.8617 51.4456 43.6919 50.8345 43.8617Z" fill="url(#paint7_linear)"/>
<path d="M49.2213 45.1686C50.7321 43.6578 50.7321 41.2133 49.2213 39.7025C47.7104 38.1916 45.2659 38.1916 43.7551 39.7025C42.2442 41.2133 42.2442 43.6578 43.7551 45.1686C45.2659 46.6795 47.7104 46.6795 49.2213 45.1686ZM45.3678 41.3151C45.9959 40.687 46.9974 40.704 47.6086 41.3151C48.2367 41.9432 48.2197 42.9448 47.6086 43.5559C46.9974 44.1671 45.9789 44.1671 45.3678 43.5559C44.7397 42.9278 44.7397 41.9432 45.3678 41.3151Z" fill="url(#paint8_linear)"/>
<defs>
<linearGradient id="paint0_linear" x1="25.8355" y1="14.8898" x2="24.9473" y2="68.5573" gradientUnits="userSpaceOnUse">
<stop stop-color="#FFDAC1"/>
<stop offset="1" stop-color="#FAB072"/>
</linearGradient>
<linearGradient id="paint1_linear" x1="12.1542" y1="34.9103" x2="38.8093" y2="11.4867" gradientUnits="userSpaceOnUse">
<stop stop-color="#0469B3"/>
<stop offset="0.953125" stop-color="#4894C7"/>
</linearGradient>
<linearGradient id="paint2_linear" x1="30.8224" y1="26.2947" x2="32.3573" y2="28.4271" gradientUnits="userSpaceOnUse">
<stop stop-color="#FEB483"/>
<stop offset="1" stop-color="#F7A058"/>
</linearGradient>
<linearGradient id="paint3_linear" x1="25.8714" y1="31.2452" x2="26.8907" y2="33.5151" gradientUnits="userSpaceOnUse">
<stop stop-color="#FEB483"/>
<stop offset="1" stop-color="#F7A058"/>
</linearGradient>
<linearGradient id="paint4_linear" x1="63.945" y1="61.8927" x2="65.7759" y2="68.5836" gradientUnits="userSpaceOnUse">
<stop stop-color="#FFB381"/>
<stop offset="1" stop-color="#EB7F26"/>
</linearGradient>
<linearGradient id="paint5_linear" x1="53.8869" y1="39.5847" x2="59.9126" y2="48.5021" gradientUnits="userSpaceOnUse">
<stop stop-color="#0069B7"/>
<stop offset="1" stop-color="#02518A"/>
</linearGradient>
<linearGradient id="paint6_linear" x1="38.7001" y1="42.7556" x2="45.247" y2="50.9708" gradientUnits="userSpaceOnUse">
<stop stop-color="#0069B7"/>
<stop offset="1" stop-color="#02518A"/>
</linearGradient>
<linearGradient id="paint7_linear" x1="47.743" y1="44.1131" x2="56.2819" y2="54.1227" gradientUnits="userSpaceOnUse">
<stop stop-color="#0069B7"/>
<stop offset="1" stop-color="#02518A"/>
</linearGradient>
<linearGradient id="paint8_linear" x1="44.1658" y1="37.2888" x2="50.7127" y2="45.504" gradientUnits="userSpaceOnUse">
<stop stop-color="#0069B7"/>
<stop offset="1" stop-color="#02518A"/>
</linearGradient>
</defs>
</svg>
