<svg width="96" height="96" viewBox="0 0 96 96" fill="none" xmlns="http://www.w3.org/2000/svg">
<path d="M48 96C74.5097 96 96 74.5097 96 48C96 21.4903 74.5097 0 48 0C21.4903 0 0 21.4903 0 48C0 74.5097 21.4903 96 48 96Z" fill="white" fill-opacity="0.5"/>
<path d="M26.4976 50.6393L24.4947 48.5124C18.7831 42.2233 19.1564 32.5196 25.3344 26.688C31.5123 20.8564 41.2215 21.043 47.1709 27.1076L47.8385 27.8172L56.4817 30.8006L70.6625 49.1629C71.5324 50.0852 72.4337 50.8997 72.3946 52.6604C72.3454 54.235 71.3543 55.6257 69.8819 56.186C68.4095 56.7464 66.7446 56.3666 65.6609 55.2232C66.6367 56.2327 66.9945 57.6888 66.5975 59.0356C66.2005 60.3823 65.1101 61.4116 63.7428 61.7304C62.3754 62.0492 60.9423 61.6082 59.9907 60.5758C61.4151 62.079 61.4144 64.4339 59.989 65.9362C58.5637 67.4385 56.212 67.5629 54.6361 66.2194L26.4976 50.6393Z" fill="url(#paint0_linear)"/>
<path d="M38.7416 48.131C38.7433 49.2034 38.3014 50.2286 37.5208 50.9638L32.5611 55.6469C31.4251 56.7089 29.7677 56.9969 28.34 56.3803C26.9123 55.7637 25.9857 54.3597 25.98 52.8046C25.9783 51.7303 26.4241 50.7039 27.2104 49.9718L32.17 45.2888C33.3038 44.224 34.9617 43.9344 36.3892 44.5518C37.8168 45.1693 38.7411 46.5757 38.7416 48.131Z" fill="#0469B3"/>
<path d="M38.6936 48.7223C38.5666 49.5804 38.1531 50.3703 37.5204 50.9637L32.5608 55.6468C31.7153 56.442 30.5599 56.82 29.4079 56.678C28.2559 56.5361 27.2268 55.889 26.5996 54.9124C26.7305 54.0562 27.1474 53.2696 27.7823 52.6805L32.742 47.9974C33.5846 47.2018 34.7376 46.8226 35.8879 46.9627C37.0383 47.1028 38.0666 47.7477 38.6936 48.7223Z" fill="url(#paint1_linear)"/>
<path d="M44.0917 53.7966C44.0934 54.8689 43.6515 55.8942 42.8709 56.6293L37.9112 61.3124C36.7764 62.3733 35.1213 62.662 33.6944 62.0478C32.2676 61.4336 31.3395 60.0331 31.3301 58.4797C31.3284 57.4054 31.7742 56.3789 32.5605 55.6469L37.5201 50.9638C38.6523 49.8993 40.3084 49.6085 41.7355 50.2237C43.1626 50.8389 44.0883 52.2426 44.0917 53.7966Z" fill="#0469B3"/>
<path d="M43.4433 55.9521C43.1104 56.4614 43.1572 56.3593 37.9113 61.3123C36.8562 62.3003 35.3422 62.6256 33.9744 62.1584C32.6066 61.6911 31.6081 60.5075 31.3779 59.0805C31.7108 58.5721 31.6641 58.6751 36.9099 53.7202C37.6616 53.009 38.6656 52.6264 39.7 52.6568C40.7344 52.6873 41.7141 53.1282 42.4227 53.8824C42.9054 54.4924 43.2532 55.1978 43.4433 55.9521Z" fill="url(#paint2_linear)"/>
<path d="M54.7932 65.1369C54.792 66.2114 54.3508 67.2386 53.5723 67.9792L48.6127 72.6623C47.0424 74.1172 44.5929 74.0344 43.1244 72.4769C41.6559 70.9194 41.7173 68.4693 43.2619 66.9873L48.2216 62.3042C49.3538 61.2396 51.0099 60.9489 52.437 61.564C53.8641 62.1792 54.7898 63.5829 54.7932 65.1369Z" fill="#0469B3"/>
<path d="M54.7556 65.671C54.6345 66.5522 54.2175 67.3661 53.5729 67.9791L48.6132 72.6622C47.8009 73.4235 46.7027 73.8025 45.5937 73.7041C44.4848 73.6058 43.4704 73.0395 42.8047 72.1472C42.9234 71.2659 43.3449 70.4533 43.9969 69.8485L48.9566 65.1655C49.7684 64.4087 50.863 64.0317 51.9685 64.1281C53.0741 64.2245 54.087 64.7852 54.7556 65.671Z" fill="url(#paint3_linear)"/>
<path d="M70.6629 49.163L55.9174 33.5381C55.57 33.1698 55.0904 32.9546 54.5843 32.9402C54.0782 32.9257 53.5871 33.113 53.2192 33.4608L46.1001 40.1793C43.1081 43.0101 38.3392 40.8813 38.4165 37.8826C38.4461 37.1096 38.7755 36.3786 39.3349 35.8443L49.2543 26.4753C55.5193 20.5635 65.3906 20.8498 71.3024 27.1148C77.2143 33.3799 76.9279 43.2511 70.6629 49.163Z" fill="url(#paint4_linear)"/>
<path d="M72.4384 47.1677C71.9062 47.8837 71.3119 48.5514 70.6625 49.163L55.917 33.5382C55.5696 33.1698 55.09 32.9547 54.5839 32.9402C54.0778 32.9257 53.5866 33.113 53.2187 33.4609L48.0311 38.3548C47.9205 38.2298 47.1613 39.0224 55.07 31.5448C55.8397 30.8246 57.0469 30.863 57.7692 31.6306L72.4384 47.1677Z" fill="url(#paint5_linear)"/>
<path d="M59.9909 61.5296C59.7281 61.5297 59.4768 61.4214 59.2965 61.2301L46.5883 47.7618C46.3544 47.5139 46.2705 47.16 46.3682 46.8335C46.4659 46.507 46.7304 46.2574 47.0621 46.1787C47.3937 46.1001 47.7421 46.2043 47.9761 46.4522L60.6843 59.9206C60.946 60.1974 61.0179 60.6035 60.8671 60.9533C60.7164 61.3032 60.3718 61.5298 59.9909 61.5296Z" fill="url(#paint6_linear)"/>
<path d="M65.6608 56.177C65.3982 56.1773 65.147 56.0693 64.9665 55.8784L52.2573 42.4101C51.9037 42.0258 51.9249 41.4286 52.3048 41.0703C52.6848 40.712 53.2822 40.7259 53.6451 41.1015L66.3552 54.5689C66.6164 54.8459 66.6878 55.2517 66.5369 55.6013C66.3859 55.9508 66.0416 56.1771 65.6608 56.177Z" fill="url(#paint7_linear)"/>
<path d="M49.4431 59.462C49.4341 60.5348 48.9941 61.559 48.2222 62.3042L43.2626 66.9873C41.6923 68.4422 39.2428 68.3595 37.7743 66.802C36.3058 65.2444 36.3672 62.7943 37.9118 61.3123L42.8715 56.6292C44.004 55.5656 45.6596 55.2754 47.0863 55.8904C48.513 56.5054 49.4388 57.9083 49.4431 59.462Z" fill="#0469B3"/>
<path d="M49.4053 59.977C49.2929 60.8664 48.8748 61.6891 48.2226 62.3042L43.2629 66.9873C42.4471 67.7484 41.3453 68.1252 40.2342 68.0232C39.1232 67.9212 38.1085 67.3501 37.4448 66.4532C37.5552 65.5631 37.9736 64.7398 38.6275 64.126L43.5872 59.4429C45.1565 57.9712 47.6199 58.0437 49.1 59.605C49.2137 59.7187 49.316 59.8433 49.4053 59.977Z" fill="url(#paint8_linear)"/>
<defs>
<linearGradient id="paint0_linear" x1="58.915" y1="14.8285" x2="35.5053" y2="62.5184" gradientUnits="userSpaceOnUse">
<stop stop-color="#FFDAC1"/>
<stop offset="1" stop-color="#FAB072"/>
</linearGradient>
<linearGradient id="paint1_linear" x1="26.5996" y1="44.4003" x2="39.8036" y2="45.85" gradientUnits="userSpaceOnUse">
<stop stop-color="#0469B3"/>
<stop offset="0.953125" stop-color="#4894C7"/>
</linearGradient>
<linearGradient id="paint2_linear" x1="31.3779" y1="50.1369" x2="44.5495" y2="51.5885" gradientUnits="userSpaceOnUse">
<stop stop-color="#0469B3"/>
<stop offset="0.953125" stop-color="#4894C7"/>
</linearGradient>
<linearGradient id="paint3_linear" x1="42.8047" y1="61.6228" x2="55.8508" y2="63.0629" gradientUnits="userSpaceOnUse">
<stop stop-color="#0469B3"/>
<stop offset="0.953125" stop-color="#4894C7"/>
</linearGradient>
<linearGradient id="paint4_linear" x1="38.4155" y1="15.2375" x2="78.8484" y2="20.1831" gradientUnits="userSpaceOnUse">
<stop stop-color="#0469B3"/>
<stop offset="0.953125" stop-color="#4894C7"/>
</linearGradient>
<linearGradient id="paint5_linear" x1="66.0869" y1="27.9445" x2="57.4826" y2="48.3092" gradientUnits="userSpaceOnUse">
<stop stop-color="#FEB483"/>
<stop offset="1" stop-color="#F7A058"/>
</linearGradient>
<linearGradient id="paint6_linear" x1="57.1521" y1="43.5377" x2="48.1743" y2="58.5022" gradientUnits="userSpaceOnUse">
<stop stop-color="#FEB483"/>
<stop offset="1" stop-color="#F7A058"/>
</linearGradient>
<linearGradient id="paint7_linear" x1="62.824" y1="38.1969" x2="53.8528" y2="53.1528" gradientUnits="userSpaceOnUse">
<stop stop-color="#FEB483"/>
<stop offset="1" stop-color="#F7A058"/>
</linearGradient>
<linearGradient id="paint8_linear" x1="37.4448" y1="55.8818" x2="50.5027" y2="57.3171" gradientUnits="userSpaceOnUse">
<stop stop-color="#0469B3"/>
<stop offset="0.953125" stop-color="#4894C7"/>
</linearGradient>
</defs>
</svg>
