<svg width="96" height="96" viewBox="0 0 96 96" fill="none" xmlns="http://www.w3.org/2000/svg">
<path d="M48 96C74.5097 96 96 74.5097 96 48C96 21.4903 74.5097 0 48 0C21.4903 0 0 21.4903 0 48C0 74.5097 21.4903 96 48 96Z" fill="white" fill-opacity="0.5"/>
<path d="M56.6809 37.5413C55.9399 28.4546 48.3355 21.3334 39.0555 21.3334C29.26 21.3334 21.3333 29.2601 21.3333 39.0556C21.3333 43.8244 23.2345 48.1746 26.2954 51.3645L21.3333 56.7778H37.5412H39.0555C48.8509 56.7778 56.7777 48.8511 56.7777 39.0556C56.7777 38.5401 56.7455 38.0245 56.6809 37.5413Z" fill="url(#paint0_linear)"/>
<path d="M39.3191 55.319C40.0601 46.2323 47.6645 39.1111 56.9445 39.1111C66.74 39.1111 74.6667 47.0378 74.6667 56.8333C74.6667 61.6021 72.7655 65.9523 69.7046 69.1422L74.6667 74.5555H58.4588H56.9445C47.1491 74.5555 39.2223 66.6288 39.2223 56.8333C39.2223 56.3178 39.2545 55.8022 39.3191 55.319Z" fill="url(#paint1_linear)"/>
<path d="M50.4305 55.4579L53.7822 58.8097C55.1718 60.1992 57.4221 60.1992 58.8105 58.81C60.1992 57.4213 60.1992 55.1708 58.8108 53.7824L52.1061 47.0777C50.7177 45.6893 48.4672 45.6893 47.0788 47.0777C46.616 47.5406 45.8655 47.5406 45.4027 47.0777C44.9398 46.6149 44.9398 45.8644 45.4027 45.4016C47.7168 43.0875 51.4681 43.0875 53.7822 45.4016L60.4868 52.1062C62.8009 54.4203 62.8009 58.1716 60.4868 60.4857C58.173 62.8011 54.4214 62.8011 52.1061 60.4857L48.7543 57.134C48.2915 56.6712 48.2915 55.9207 48.7543 55.4579C49.2171 54.995 49.9677 54.9951 50.4305 55.4579Z" fill="url(#paint2_linear)"/>
<path fill-rule="evenodd" clip-rule="evenodd" d="M42.1142 47.1415C41.6668 47.8278 41.2658 48.5472 40.9157 49.2953L35.5134 43.893C33.1993 41.5789 33.1993 37.8275 35.5134 35.5134C37.8275 33.1993 41.5801 33.1993 43.8942 35.5134L47.9155 39.5348C48.3784 39.9976 48.3784 40.7481 47.9155 41.2109C47.4527 41.6737 46.7023 41.6737 46.2394 41.2109L42.2181 37.1895C40.8297 35.8011 38.578 35.8011 37.1895 37.1895C35.8011 38.5779 35.8011 40.8285 37.1895 42.2168L42.1142 47.1415Z" fill="url(#paint3_linear)"/>
<path fill-rule="evenodd" clip-rule="evenodd" d="M42.0876 47.1112L44.5372 49.5609C45.9257 50.9493 48.1762 50.9493 49.5646 49.5609C50.0274 49.098 50.7778 49.098 51.2407 49.5609C51.7035 50.0237 51.7035 50.7741 51.2407 51.237C48.9265 53.5511 45.1752 53.5511 42.8611 51.237L40.8892 49.265C41.2392 48.5169 41.6402 47.7975 42.0876 47.1112Z" fill="url(#paint4_linear)"/>
<defs>
<linearGradient id="paint0_linear" x1="21.3333" y1="12.1441" x2="60.1916" y2="15.5918" gradientUnits="userSpaceOnUse">
<stop stop-color="#0469B3"/>
<stop offset="0.953125" stop-color="#4894C7"/>
</linearGradient>
<linearGradient id="paint1_linear" x1="48.4198" y1="33.0827" x2="68.6066" y2="68.48" gradientUnits="userSpaceOnUse">
<stop stop-color="#FFDAC1"/>
<stop offset="1" stop-color="#FAB072"/>
</linearGradient>
<linearGradient id="paint2_linear" x1="49.5102" y1="40.51" x2="60.4805" y2="58.306" gradientUnits="userSpaceOnUse">
<stop stop-color="#FFB381"/>
<stop offset="1" stop-color="#EB7F26"/>
</linearGradient>
<linearGradient id="paint3_linear" x1="44.7625" y1="30.9348" x2="42.0965" y2="54.3735" gradientUnits="userSpaceOnUse">
<stop stop-color="#0062AA"/>
<stop offset="1" stop-color="#00406F"/>
</linearGradient>
<linearGradient id="paint4_linear" x1="48.8116" y1="46.1143" x2="46.6035" y2="53.1817" gradientUnits="userSpaceOnUse">
<stop stop-color="#FFB381"/>
<stop offset="1" stop-color="#EB7F26"/>
</linearGradient>
</defs>
</svg>
