<svg width="180" height="180" viewBox="0 0 180 180" fill="none" xmlns="http://www.w3.org/2000/svg">
<g clip-path="url(#clip0)">
<path d="M60.2312 169.828L38.8447 157.481L60.2312 145.129V169.828Z" fill="#EBEBEB"/>
<path d="M120.679 177.214L86.209 157.302L120.684 137.427L120.679 177.214Z" fill="#EBEBEB"/>
<path d="M31.3001 140.954C31.3581 135.953 27.8674 125.549 22.755 118.989C17.6427 112.429 9.53984 107.585 3.71673 109.496C-1.70624 111.275 -1.20606 118.367 5.29097 123.143C11.788 127.918 21.5599 133.931 24.3451 142.081L30.2682 152.111L31.3001 140.954Z" fill="url(#paint0_linear)"/>
<path d="M31.5901 147.804C31.4321 147.788 31.2952 147.673 31.2636 147.504C28.1204 130.387 14.4735 116.34 6.23904 113.176C6.0495 113.102 5.95473 112.892 6.02844 112.702C6.10215 112.513 6.30748 112.418 6.50229 112.492C14.8895 115.719 28.7891 129.993 31.9797 147.372C32.0165 147.572 31.8849 147.762 31.6848 147.799C31.6533 147.809 31.6217 147.809 31.5901 147.804Z" fill="white"/>
<path d="M28.9098 158.708C28.1412 155.886 24.761 151.205 19.2538 147.304C13.1569 142.992 5.40682 140.949 3.65357 137.627C1.54757 133.636 4.93297 129.929 11.2352 130.788C17.5374 131.646 28.5308 140.391 30.1524 153.38L28.9098 158.708Z" fill="#0469B3"/>
<path d="M30.168 155.77C30.0311 155.76 29.9048 155.665 29.8574 155.523C24.7977 140.834 13.6991 135.563 8.53409 134.831C8.33402 134.805 8.19713 134.616 8.22345 134.421C8.24978 134.221 8.42879 134.084 8.63412 134.11C14.3414 134.921 25.3769 140.291 30.5471 155.291C30.6103 155.481 30.5103 155.691 30.3207 155.755C30.2681 155.77 30.2154 155.776 30.168 155.77Z" fill="white"/>
<path d="M29.4154 162.436C28.8204 162.436 28.4624 161.941 28.4624 161.114V72.5566L136.916 9.93976V98.1446C136.916 99.4977 135.964 101.151 134.789 101.825L30.2788 162.167C29.9735 162.341 29.6734 162.436 29.4154 162.436Z" fill="#FAFAFA"/>
<path d="M136.611 10.4715V98.1445C136.611 99.3765 135.706 100.94 134.637 101.562L30.1262 161.899C29.8683 162.046 29.6208 162.125 29.4155 162.125C28.831 162.125 28.7679 161.419 28.7679 161.114V72.7303L136.611 10.4715ZM137.227 9.40271L28.1519 72.3775V161.119C28.1519 162.151 28.6678 162.746 29.4155 162.746C29.7208 162.746 30.0683 162.646 30.4316 162.436L134.942 102.093C136.201 101.367 137.222 99.5977 137.222 98.1445L137.227 9.40271Z" fill="#E0E0E0"/>
<path d="M28.1519 72.3775V87.1933L137.227 24.2237V9.40271L28.1519 72.3775Z" fill="url(#paint1_linear)"/>
<path d="M36.7075 73.1671V75.2942C36.7075 75.7312 37.0129 75.9049 37.392 75.6891L70.9249 56.3296V52.623L37.392 71.9825C37.0182 72.1984 36.7075 72.7354 36.7075 73.1671Z" fill="#FAFAFA"/>
<path d="M74.5208 50.5488C74.8999 50.333 75.2053 50.5067 75.2053 50.9437V53.0708C75.2053 53.5078 74.8999 54.0395 74.5208 54.2554L70.9248 56.3298V52.6232L74.5208 50.5488Z" fill="#1D232B"/>
<path d="M28.1519 67.6022C28.1519 66.149 29.1733 64.38 30.4316 63.6534L134.947 3.31107C136.206 2.5845 137.227 3.17418 137.227 4.62732V9.40269L28.1519 72.3775V67.6022Z" fill="url(#paint2_linear)"/>
<path d="M125.102 11.4721C124.512 11.8144 124.033 12.641 124.033 13.3254C124.033 14.0099 124.512 14.2837 125.102 13.9414C125.692 13.5992 126.171 12.7726 126.171 12.0881C126.171 11.409 125.697 11.1352 125.102 11.4721Z" fill="#27DEBF"/>
<path d="M128.493 9.51352C127.903 9.85575 127.424 10.6824 127.424 11.3668C127.424 12.0513 127.903 12.325 128.493 11.9828C129.082 11.6406 129.561 10.814 129.561 10.1295C129.561 9.45034 129.082 9.17656 128.493 9.51352Z" fill="#27DEBF"/>
<path d="M131.878 7.5549C131.288 7.89713 130.809 8.72373 130.809 9.40819C130.809 10.0926 131.288 10.3664 131.878 10.0242C132.468 9.68197 132.947 8.85536 132.947 8.17091C132.947 7.49172 132.468 7.21794 131.878 7.5549Z" fill="#27DEBF"/>
<g opacity="0.1">
<path opacity="0.1" d="M103.005 33.8692C101.715 34.6169 100.667 36.428 100.667 37.918C100.667 39.408 101.715 40.0135 103.005 39.2659C104.295 38.5182 105.342 36.7071 105.342 35.2171C105.342 33.7323 104.3 33.1269 103.005 33.8692Z" fill="black"/>
<path opacity="0.1" d="M92.3113 40.0451C91.0214 40.7927 89.9736 42.6039 89.9736 44.0939C89.9736 45.5839 91.0214 46.1894 92.3113 45.4417C93.6012 44.6941 94.649 42.8829 94.649 41.3929C94.649 39.9029 93.6065 39.2975 92.3113 40.0451Z" fill="black"/>
<path opacity="0.1" d="M113.698 27.6985C112.408 28.4461 111.36 30.2573 111.36 31.7473C111.36 33.2373 112.408 33.8427 113.698 33.0951C114.988 32.3475 116.036 30.5363 116.036 29.0463C116.036 27.5563 114.993 26.9508 113.698 27.6985Z" fill="black"/>
<path opacity="0.1" d="M124.391 21.5121C123.101 22.2598 122.053 24.0709 122.053 25.5609C122.053 27.0509 123.101 27.6564 124.391 26.9088C125.681 26.1611 126.729 24.35 126.729 22.86C126.729 21.37 125.686 20.7645 124.391 21.5121Z" fill="black"/>
</g>
<path d="M38.9873 88.3462L64.3699 73.6936C65.6283 72.9671 66.6497 73.5567 66.6497 75.0099V99.3817C66.6497 100.835 65.6283 102.604 64.3699 103.33L38.9873 117.983C37.7289 118.71 36.7075 118.12 36.7075 116.667V92.2949C36.7075 90.8418 37.7289 89.078 38.9873 88.3462Z" fill="#E0E0E0"/>
<path d="M75.3476 67.3599L128.53 36.6543C129.788 35.9278 130.809 36.5174 130.809 37.9706V62.3423C130.809 63.7955 129.788 65.5645 128.53 66.2911L75.3476 96.9967C74.0893 97.7232 73.0679 97.1335 73.0679 95.6804V71.3087C73.0679 69.8502 74.0893 68.0865 75.3476 67.3599Z" fill="#E0E0E0"/>
<path d="M38.9873 125.391L79.3383 102.093C80.5967 101.367 81.6181 101.883 81.6181 103.246C81.6181 104.61 80.5967 106.305 79.3383 107.032L38.9873 130.33C37.7289 131.056 36.7075 130.54 36.7075 129.177C36.7075 127.813 37.7289 126.118 38.9873 125.391Z" fill="#E0E0E0"/>
<path d="M38.9873 134.036L79.3383 110.739C80.5967 110.012 81.6181 110.528 81.6181 111.892C81.6181 113.255 80.5967 114.951 79.3383 115.677L38.9873 138.975C37.7289 139.701 36.7075 139.185 36.7075 137.822C36.7075 136.458 37.7289 134.763 38.9873 134.036Z" fill="#E0E0E0"/>
<path d="M38.9873 142.676L79.3383 119.378C80.5967 118.652 81.6181 119.168 81.6181 120.532C81.6181 121.895 80.5967 123.59 79.3383 124.317L38.9873 147.615C37.7289 148.341 36.7075 147.825 36.7075 146.462C36.7075 145.098 37.7289 143.403 38.9873 142.676Z" fill="#E0E0E0"/>
<path d="M58.0936 113.371C58.0936 112.497 58.7044 111.439 59.4625 111.002L129.44 70.5979C130.193 70.161 131.42 70.161 132.178 70.5979L133.72 71.4877C134.473 71.9247 135.089 72.983 135.089 73.857V127.497C135.089 128.366 134.473 129.429 133.72 129.866L63.7377 170.27C62.9848 170.707 61.7528 170.707 60.9999 170.27L59.4573 169.38C58.7044 168.948 58.0884 167.88 58.0884 167.011L58.0936 113.371Z" fill="url(#paint3_linear)"/>
<path opacity="0.4" d="M58.4937 112.023L62.374 114.261L134.684 72.5092C134.436 72.0827 134.094 71.7089 133.72 71.4878L132.172 70.6032C131.419 70.161 130.193 70.161 129.44 70.6032L59.4624 111.002C59.0833 111.223 58.7411 111.597 58.4937 112.023Z" fill="white"/>
<path opacity="0.1" d="M58.0938 113.371V167.011C58.0938 167.885 58.7098 168.943 59.4679 169.38L61.0106 170.275C61.1264 170.338 61.2475 170.396 61.3844 170.444C61.5581 170.502 61.7477 170.549 61.9477 170.575C62.3058 170.623 62.6796 170.607 63.0271 170.539C63.1166 170.517 63.2061 170.491 63.2903 170.465C63.3482 170.444 63.4009 170.428 63.4535 170.402C63.2008 170.491 62.9797 170.481 62.8007 170.391C62.5427 170.254 62.3795 169.944 62.3795 169.491V115.84C62.3795 115.277 62.6638 114.851 63.0902 114.677L62.3795 114.261L58.4992 112.023C58.2464 112.45 58.0938 112.934 58.0938 113.371Z" fill="black"/>
<path opacity="0.2" d="M62.374 114.261L94.7802 126.37C97.0915 127.228 99.6872 126.375 101.03 124.312L106.232 116.34L134.936 72.3616L107.269 116.64L135.079 127.523C135.073 127.965 134.91 128.455 134.652 128.887L107.195 116.761L101.146 126.439C99.7556 128.66 96.9441 129.524 94.5538 128.466L90.247 126.565L62.7952 170.38C62.5372 170.244 62.374 169.933 62.374 169.48V168.585L90.1154 126.507L62.374 114.261Z" fill="black"/>
<path d="M120.116 52.681V175.83C120.116 177.283 121.137 177.873 122.395 177.146L177.72 145.203C178.979 144.477 180 142.707 180 141.254V18.1109C180 16.6578 178.979 16.0681 177.72 16.7947L122.395 48.7322C121.137 49.4588 120.116 51.2278 120.116 52.681Z" fill="#FAFAFA" stroke="#E0E0E0" stroke-width="1.1698" stroke-miterlimit="10"/>
<path d="M123.322 54.9764C123.322 54.6342 123.586 54.2077 123.917 54.0182L130.219 50.3801C130.546 50.1905 130.814 50.3169 130.814 50.6538C130.814 50.9961 130.551 51.4225 130.219 51.6121L123.917 55.2502C123.591 55.4397 123.322 55.3186 123.322 54.9764Z" fill="url(#paint4_linear)"/>
<path d="M123.322 57.4299C123.322 57.0877 123.586 56.6612 123.917 56.4717L130.219 52.8336C130.546 52.644 130.814 52.7704 130.814 53.1073C130.814 53.4496 130.551 53.876 130.219 54.0656L123.917 57.7037C123.591 57.8932 123.322 57.7721 123.322 57.4299Z" fill="url(#paint5_linear)"/>
<path d="M123.322 59.8835C123.322 59.5412 123.586 59.1148 123.917 58.9252L130.219 55.2871C130.546 55.0976 130.814 55.2239 130.814 55.5609C130.814 55.9031 130.551 56.3296 130.219 56.5191L123.917 60.1572C123.591 60.3468 123.322 60.2257 123.322 59.8835Z" fill="url(#paint6_linear)"/>
<path d="M175.72 28.304V27.3195C175.72 27.2616 175.678 27.2352 175.625 27.2563L174.867 27.5985C174.814 27.6248 174.756 27.5985 174.74 27.5406C174.698 27.4037 174.64 27.2774 174.572 27.1668C174.54 27.1141 174.535 27.0352 174.561 26.9825L175.067 25.9611C175.093 25.9084 175.072 25.84 175.019 25.8137L174.472 25.4978C174.419 25.4662 174.356 25.482 174.319 25.5346L173.687 26.4823C173.656 26.5297 173.582 26.5666 173.524 26.5666C173.392 26.5613 173.256 26.5771 173.113 26.6087C173.056 26.6192 173.008 26.5876 172.998 26.5297L172.913 25.7031C172.908 25.6452 172.861 25.6189 172.813 25.6505L171.96 26.1401C171.908 26.1717 171.866 26.2401 171.86 26.2981L171.776 27.2458C171.771 27.3037 171.729 27.3827 171.687 27.4248C171.523 27.5775 171.36 27.7459 171.213 27.9249C171.176 27.9723 171.102 27.9934 171.044 27.9723L170.497 27.7828C170.439 27.7617 170.37 27.7881 170.344 27.8407L169.717 28.9253C169.686 28.978 169.702 29.0464 169.744 29.0885L170.181 29.4676C170.223 29.5045 170.244 29.5834 170.223 29.6361C170.144 29.8572 170.076 30.0783 170.028 30.2942C170.018 30.3521 169.965 30.4258 169.918 30.4574L169.138 31.005C169.091 31.0366 169.049 31.1155 169.049 31.1735V32.158C169.049 32.2159 169.091 32.2423 169.144 32.2212L169.902 31.879C169.954 31.8526 170.012 31.879 170.028 31.9369C170.07 32.0738 170.128 32.2001 170.197 32.3107C170.228 32.3634 170.233 32.4423 170.207 32.495L169.702 33.5164C169.675 33.569 169.696 33.6375 169.749 33.6638L170.297 33.9797C170.349 34.0113 170.412 33.9955 170.449 33.9429L171.081 32.9952C171.113 32.9478 171.186 32.9109 171.244 32.9109C171.376 32.9162 171.513 32.9004 171.655 32.8688C171.713 32.8583 171.76 32.8899 171.771 32.9478L171.855 33.7744C171.86 33.8323 171.908 33.8586 171.96 33.827L172.813 33.3374C172.866 33.3058 172.908 33.2373 172.913 33.1794L172.998 32.2317C173.003 32.1738 173.045 32.0948 173.087 32.0527C173.25 31.9 173.414 31.7316 173.561 31.5525C173.598 31.5052 173.672 31.4841 173.729 31.5052L174.277 31.6947C174.335 31.7158 174.403 31.6894 174.43 31.6368L175.056 30.5522C175.088 30.4995 175.072 30.4311 175.03 30.389L174.593 30.0099C174.551 29.973 174.53 29.8941 174.551 29.8414C174.63 29.6203 174.698 29.3992 174.746 29.1833C174.756 29.1254 174.809 29.0517 174.856 29.0201L175.635 28.4725C175.683 28.4357 175.72 28.3619 175.72 28.304ZM172.392 31.3946C171.597 31.8526 170.955 31.4788 170.955 30.5627C170.955 29.6466 171.597 28.5304 172.392 28.0724C173.187 27.6143 173.829 27.9829 173.829 28.9042C173.829 29.8204 173.187 30.9365 172.392 31.3946Z" fill="url(#paint7_linear)"/>
<path d="M150.058 52.5756C156.524 48.8427 161.762 51.8701 161.762 59.3306C161.762 66.7912 156.524 75.8733 150.058 79.6009C143.593 83.3338 138.354 80.3065 138.354 72.8407C138.354 65.3854 143.593 56.3085 150.058 52.5756Z" fill="#1D232B"/>
<path d="M149.974 58.4515C152.069 57.2405 153.77 58.2198 153.77 60.6417C153.77 63.0636 152.069 66.0068 149.974 67.2177C147.878 68.4287 146.178 67.4494 146.178 65.0275C146.178 62.6056 147.878 59.6624 149.974 58.4515Z" fill="url(#paint8_linear)"/>
<path d="M157.461 71.3613C157.461 67.3809 154.665 65.7698 151.222 67.76L149.068 69.0026C145.625 70.9927 142.829 75.8313 142.829 79.8064V80.891C143.45 81.0963 144.124 81.2016 144.84 81.2016C146.409 81.2069 148.184 80.6856 150.058 79.601C152.864 77.9794 155.444 75.3469 157.461 72.2774V71.3613Z" fill="url(#paint9_linear)"/>
<path d="M139.497 90.71L160.625 78.511C161.257 78.1477 161.768 78.4057 161.768 79.0902C161.768 79.7746 161.257 80.617 160.625 80.9856L139.497 93.1846C138.865 93.5479 138.354 93.2899 138.354 92.6054C138.354 91.921 138.865 91.0733 139.497 90.71Z" fill="url(#paint10_linear)"/>
<path d="M137.227 99.4342L162.889 84.6026C163.52 84.2394 164.031 84.4973 164.031 85.1818C164.031 85.8662 163.52 86.7086 162.889 87.0772L137.227 101.909C136.595 102.272 136.084 102.014 136.084 101.33C136.084 100.645 136.595 99.8027 137.227 99.4342Z" fill="#1D232B"/>
<path d="M163.573 96.5594L170.76 92.4106C171.139 92.1948 171.444 92.2948 171.444 92.6318C171.444 92.974 171.139 93.4268 170.76 93.6426L163.573 97.7915C163.194 98.0073 162.889 97.9073 162.889 97.5703C162.889 97.2334 163.199 96.7806 163.573 96.5594Z" fill="#37474F"/>
<path d="M127.671 114.824L138.222 108.732C138.854 108.369 139.365 108.664 139.365 109.39V116.635C139.365 117.362 138.854 118.246 138.227 118.609L127.676 124.701C127.044 125.064 126.534 124.769 126.534 124.043V116.798C126.534 116.072 127.044 115.187 127.671 114.824Z" fill="url(#paint11_linear)"/>
<path d="M129.356 115.835L136.543 111.686C136.922 111.47 137.227 111.57 137.227 111.907C137.227 112.249 136.922 112.702 136.543 112.918L129.356 117.067C128.977 117.283 128.671 117.182 128.671 116.846C128.671 116.509 128.977 116.056 129.356 115.835Z" fill="#FAFAFA"/>
<path d="M128.671 119.489V121.616C128.671 122.053 128.977 122.227 129.356 122.011L136.543 117.862C136.922 117.646 137.227 117.114 137.227 116.677V114.55C137.227 114.113 136.922 113.939 136.543 114.155L129.356 118.304C128.977 118.525 128.671 119.052 128.671 119.489Z" fill="#FAFAFA"/>
<path d="M144.782 104.947L155.333 98.8552C155.965 98.4919 156.476 98.7867 156.476 99.5133V106.758C156.476 107.485 155.965 108.369 155.333 108.732L144.782 114.824C144.15 115.187 143.64 114.892 143.64 114.166V106.921C143.64 106.195 144.15 105.31 144.782 104.947Z" fill="url(#paint12_linear)"/>
<path d="M146.467 105.958L153.653 101.809C154.032 101.593 154.338 101.688 154.338 102.03C154.338 102.372 154.032 102.825 153.653 103.041L146.467 107.19C146.088 107.405 145.782 107.311 145.782 106.968C145.782 106.631 146.088 106.173 146.467 105.958Z" fill="#FAFAFA"/>
<path d="M145.782 109.612V111.739C145.782 112.176 146.088 112.349 146.467 112.134L153.653 107.985C154.032 107.769 154.338 107.237 154.338 106.8V104.673C154.338 104.236 154.032 104.062 153.653 104.278L146.467 108.427C146.088 108.643 145.782 109.175 145.782 109.612Z" fill="#FAFAFA"/>
<path d="M161.893 95.0644L172.445 88.9727C173.076 88.6094 173.587 88.9043 173.587 89.6309V96.8755C173.587 97.6021 173.076 98.4866 172.445 98.8499L161.893 104.942C161.262 105.305 160.751 105.01 160.751 104.283V97.0387C160.751 96.3122 161.262 95.4276 161.893 95.0644Z" fill="url(#paint13_linear)"/>
<path d="M163.573 96.0806L170.759 91.9318C171.138 91.7159 171.444 91.816 171.444 92.1529C171.444 92.4952 171.138 92.948 170.759 93.1638L163.573 97.3126C163.194 97.5285 162.888 97.4337 162.888 97.0915C162.888 96.7493 163.194 96.2965 163.573 96.0806Z" fill="#FAFAFA"/>
<path d="M162.888 99.7343V101.861C162.888 102.298 163.194 102.472 163.573 102.256L170.759 98.1074C171.138 97.8916 171.444 97.3598 171.444 96.9228V94.7958C171.444 94.3588 171.138 94.185 170.759 94.4009L163.573 98.5497C163.194 98.7656 162.888 99.2973 162.888 99.7343Z" fill="#FAFAFA"/>
<path d="M128.813 131.451L171.302 106.921C172.56 106.194 173.582 106.71 173.582 108.074C173.582 109.438 172.56 111.133 171.302 111.86L128.813 136.389C127.555 137.116 126.534 136.6 126.534 135.236C126.534 133.873 127.555 132.177 128.813 131.451Z" fill="#E0E0E0"/>
<path d="M128.813 141.328L171.302 116.798C172.56 116.072 173.582 116.588 173.582 117.951C173.582 119.315 172.56 121.01 171.302 121.737L128.813 146.266C127.555 146.993 126.534 146.477 126.534 145.113C126.534 143.75 127.555 142.054 128.813 141.328Z" fill="#E0E0E0"/>
<path d="M142.645 145.693L157.476 137.132C158.108 136.768 158.619 137.063 158.619 137.79V142.565C158.619 143.292 158.108 144.176 157.476 144.54L142.645 153.101C142.013 153.464 141.502 153.169 141.502 152.442V147.667C141.502 146.94 142.013 146.056 142.645 145.693Z" fill="url(#paint14_linear)"/>
<path d="M129.74 132.177C129.151 132.519 128.671 133.346 128.671 134.03C128.671 134.715 129.151 134.989 129.74 134.646C130.33 134.304 130.809 133.478 130.809 132.793C130.809 132.114 130.33 131.835 129.74 132.177Z" fill="#FAFAFA"/>
<path d="M133.131 130.219C132.541 130.561 132.062 131.388 132.062 132.072C132.062 132.756 132.541 133.03 133.131 132.688C133.721 132.346 134.2 131.519 134.2 130.835C134.2 130.156 133.721 129.876 133.131 130.219Z" fill="#FAFAFA"/>
<path d="M136.516 128.26C135.926 128.602 135.447 129.429 135.447 130.113C135.447 130.798 135.926 131.072 136.516 130.729C137.106 130.387 137.585 129.561 137.585 128.876C137.585 128.197 137.106 127.918 136.516 128.26Z" fill="#FAFAFA"/>
<path d="M139.902 126.301C139.312 126.644 138.833 127.47 138.833 128.155C138.833 128.839 139.312 129.113 139.902 128.771C140.491 128.429 140.971 127.602 140.971 126.917C140.976 126.238 140.497 125.959 139.902 126.301Z" fill="#FAFAFA"/>
<path d="M143.292 124.343C142.703 124.685 142.224 125.512 142.224 126.196C142.224 126.881 142.703 127.154 143.292 126.812C143.882 126.47 144.361 125.643 144.361 124.959C144.361 124.28 143.882 124.001 143.292 124.343Z" fill="#FAFAFA"/>
<path d="M146.678 122.384C146.088 122.727 145.609 123.553 145.609 124.238C145.609 124.922 146.088 125.196 146.678 124.854C147.267 124.511 147.746 123.685 147.746 123C147.746 122.321 147.267 122.042 146.678 122.384Z" fill="#FAFAFA"/>
<path d="M150.068 120.426C149.479 120.768 149 121.595 149 122.279C149 122.963 149.479 123.237 150.068 122.895C150.658 122.553 151.137 121.726 151.137 121.042C151.137 120.363 150.658 120.084 150.068 120.426Z" fill="#FAFAFA"/>
<path d="M129.74 142.065C129.151 142.407 128.671 143.234 128.671 143.918C128.671 144.603 129.151 144.877 129.74 144.534C130.33 144.192 130.809 143.365 130.809 142.681C130.809 142.002 130.33 141.723 129.74 142.065Z" fill="#FAFAFA"/>
<path d="M133.131 140.106C132.541 140.449 132.062 141.275 132.062 141.96C132.062 142.644 132.541 142.918 133.131 142.576C133.721 142.233 134.2 141.407 134.2 140.722C134.2 140.043 133.721 139.764 133.131 140.106Z" fill="#FAFAFA"/>
<path d="M136.516 138.148C135.926 138.49 135.447 139.317 135.447 140.001C135.447 140.686 135.926 140.96 136.516 140.617C137.106 140.275 137.585 139.448 137.585 138.764C137.585 138.085 137.106 137.806 136.516 138.148Z" fill="#FAFAFA"/>
<path d="M139.902 136.189C139.312 136.532 138.833 137.358 138.833 138.043C138.833 138.727 139.312 139.001 139.902 138.659C140.491 138.316 140.971 137.49 140.971 136.805C140.976 136.126 140.497 135.847 139.902 136.189Z" fill="#FAFAFA"/>
<path d="M143.292 134.231C142.703 134.573 142.224 135.4 142.224 136.084C142.224 136.769 142.703 137.042 143.292 136.7C143.882 136.358 144.361 135.531 144.361 134.847C144.361 134.168 143.882 133.889 143.292 134.231Z" fill="#FAFAFA"/>
<path d="M146.678 132.272C146.088 132.614 145.609 133.441 145.609 134.125C145.609 134.81 146.088 135.084 146.678 134.741C147.267 134.399 147.746 133.573 147.746 132.888C147.746 132.209 147.267 131.93 146.678 132.272Z" fill="#FAFAFA"/>
<path d="M150.068 130.314C149.479 130.656 149 131.482 149 132.167C149 132.851 149.479 133.125 150.068 132.783C150.658 132.441 151.137 131.614 151.137 130.93C151.137 130.25 150.658 129.971 150.068 130.314Z" fill="#FAFAFA"/>
</g>
<defs>
<linearGradient id="paint0_linear" x1="-1.23667e-06" y1="97.9173" x2="34.4424" y2="100.14" gradientUnits="userSpaceOnUse">
<stop stop-color="#007AD3"/>
<stop offset="0.953125" stop-color="#2FA6F7"/>
</linearGradient>
<linearGradient id="paint1_linear" x1="108.923" y1="-3.82789" x2="72.9933" y2="84.5122" gradientUnits="userSpaceOnUse">
<stop stop-color="#FFDAC1"/>
<stop offset="1" stop-color="#FAB072"/>
</linearGradient>
<linearGradient id="paint2_linear" x1="110.87" y1="-9.7109" x2="103.734" y2="95.9557" gradientUnits="userSpaceOnUse">
<stop stop-color="#0062AA"/>
<stop offset="1" stop-color="#00406F"/>
</linearGradient>
<linearGradient id="paint3_linear" x1="58.0884" y1="44.2594" x2="142.778" y2="50.0265" gradientUnits="userSpaceOnUse">
<stop stop-color="#007AD3"/>
<stop offset="0.953125" stop-color="#2FA6F7"/>
</linearGradient>
<linearGradient id="paint4_linear" x1="129.004" y1="49.3668" x2="128.481" y2="56.2304" gradientUnits="userSpaceOnUse">
<stop stop-color="#0069B7"/>
<stop offset="1" stop-color="#02518A"/>
</linearGradient>
<linearGradient id="paint5_linear" x1="129.004" y1="51.8203" x2="128.481" y2="58.6839" gradientUnits="userSpaceOnUse">
<stop stop-color="#0069B7"/>
<stop offset="1" stop-color="#02518A"/>
</linearGradient>
<linearGradient id="paint6_linear" x1="129.004" y1="54.2739" x2="128.481" y2="61.1375" gradientUnits="userSpaceOnUse">
<stop stop-color="#0069B7"/>
<stop offset="1" stop-color="#02518A"/>
</linearGradient>
<linearGradient id="paint7_linear" x1="174.108" y1="23.9216" x2="172.462" y2="35.3281" gradientUnits="userSpaceOnUse">
<stop stop-color="#0069B7"/>
<stop offset="1" stop-color="#02518A"/>
</linearGradient>
<linearGradient id="paint8_linear" x1="151.8" y1="56.2648" x2="145.604" y2="64.6776" gradientUnits="userSpaceOnUse">
<stop stop-color="#FFDAC1"/>
<stop offset="1" stop-color="#FAB072"/>
</linearGradient>
<linearGradient id="paint9_linear" x1="153.664" y1="64.4759" x2="145.62" y2="78.9127" gradientUnits="userSpaceOnUse">
<stop stop-color="#FFDAC1"/>
<stop offset="1" stop-color="#FAB072"/>
</linearGradient>
<linearGradient id="paint10_linear" x1="138.354" y1="74.4568" x2="163.738" y2="77.9717" gradientUnits="userSpaceOnUse">
<stop stop-color="#0469B3"/>
<stop offset="0.953125" stop-color="#4894C7"/>
</linearGradient>
<linearGradient id="paint11_linear" x1="126.534" y1="104.356" x2="140.642" y2="105.343" gradientUnits="userSpaceOnUse">
<stop stop-color="#0469B3"/>
<stop offset="0.953125" stop-color="#4894C7"/>
</linearGradient>
<linearGradient id="paint12_linear" x1="143.64" y1="94.479" x2="157.754" y2="95.4663" gradientUnits="userSpaceOnUse">
<stop stop-color="#0469B3"/>
<stop offset="0.953125" stop-color="#4894C7"/>
</linearGradient>
<linearGradient id="paint13_linear" x1="160.751" y1="84.5965" x2="174.865" y2="85.5839" gradientUnits="userSpaceOnUse">
<stop stop-color="#0469B3"/>
<stop offset="0.953125" stop-color="#4894C7"/>
</linearGradient>
<linearGradient id="paint14_linear" x1="141.502" y1="132.756" x2="160.252" y2="134.505" gradientUnits="userSpaceOnUse">
<stop stop-color="#007AD3"/>
<stop offset="0.953125" stop-color="#2FA6F7"/>
</linearGradient>
<clipPath id="clip0">
<rect width="180" height="180" fill="white"/>
</clipPath>
</defs>
</svg>
