<svg width="180" height="180" viewBox="0 0 180 180" fill="none" xmlns="http://www.w3.org/2000/svg">
<g clip-path="url(#clip0)">
<path fill-rule="evenodd" clip-rule="evenodd" d="M85.7969 54.8305C85.6636 54.9078 85.4826 54.9654 85.2687 55.0773C84.5727 56.7507 84.3094 57.241 84.4476 57.4089C84.5595 57.5454 84.5463 57.4714 84.6072 57.8087C84.6878 58.2678 83.0803 60.2521 82.8318 60.8823C82.608 61.4484 82.5784 61.9749 82.7759 62.5524C83.128 63.5858 83.7236 64.596 84.4888 65.4549C85.1255 66.1723 85.8298 66.6281 86.4419 66.4916C87.1955 66.3221 87.0671 65.6458 86.9552 64.9778C86.9141 64.7392 86.46 64.211 86.4962 63.9757C86.6969 62.6363 87.6776 61.4665 88.3966 60.3064C89.0137 59.7322 90.0536 59.1283 90.6295 58.4636C91.4621 57.5043 91.6184 56.494 90.5851 55.9049C90.256 55.7174 89.4267 54.7844 89.0022 54.819C88.186 54.8864 86.8253 54.2299 85.7969 54.8305Z" fill="#202249"/>
<path fill-rule="evenodd" clip-rule="evenodd" d="M113.616 50.9916C114.176 52.5153 113.74 53.8661 112.516 54.4486C112.507 54.4569 112.499 54.4634 112.491 54.4717C112.443 54.4881 112.392 54.5062 112.343 54.5227C112.216 54.572 112.083 54.6148 111.941 54.6494C110.477 55.0838 108.287 55.4787 106.947 55.7337C101.606 56.7539 93.6459 57.3906 89.9092 58.8172C88.4431 57.7395 88.0087 55.7403 88.968 54.5408C93.0453 52.5975 98.5525 50.0734 100.863 49.2178C101.393 49.022 102.061 48.9282 102.791 48.8937C99.3506 45.7904 95.706 42.4305 94.2893 39.5658C93.2872 37.5386 93.1259 34.7233 92.4283 32.9611C98.0457 34.6048 99.1202 31.2153 100.154 30.024C101.039 31.3206 101.017 31.0803 101.912 32.4674C104.942 37.1569 109.407 43.806 112.445 48.7456C112.943 49.4531 113.419 50.2791 113.616 50.9916Z" fill="#1D232B"/>
<path opacity="0.3" fill-rule="evenodd" clip-rule="evenodd" d="M95.2865 51.6037C97.5769 50.5671 99.6551 49.6654 100.861 49.2178C101.391 49.022 102.059 48.9282 102.79 48.8937C99.349 45.7904 95.7044 42.4305 94.2877 39.5658C93.2857 37.5386 93.1244 34.7233 92.4268 32.9611C94.0097 33.4234 95.2306 33.4876 96.1931 33.3132L96.0417 34.4107C100.376 38.7266 108.257 48.7555 108.991 55.3042C106.342 55.9213 99.1055 56.8493 97.9439 56.9793C97.6427 55.0377 96.3741 53.4893 95.2865 51.6037ZM99.2372 31.3025C99.6008 30.8121 99.8789 30.3399 100.152 30.024C100.715 30.85 100.911 31.0524 101.21 31.4489L99.2372 31.3025Z" fill="#1E2353"/>
<path fill-rule="evenodd" clip-rule="evenodd" d="M95.9879 76.578C95.1998 77.6722 97.3273 83.163 97.8456 84.3197C98.303 85.3399 98.1566 85.9652 97.0756 85.9816C96.2232 85.9948 94.8707 84.787 94.048 83.9972C92.5013 82.5164 92.4141 81.0075 91.9649 80.3642L91.4383 80.1947C91.0533 79.9775 89.9147 78.49 89.8522 77.9273C89.9756 77.5472 90.1961 76.889 90.4379 76.397C91.2787 74.8454 91.463 75.5233 92.572 74.5739C93.8357 75.4921 92.939 75.859 95.9879 76.578Z" fill="#202249"/>
<path fill-rule="evenodd" clip-rule="evenodd" d="M106.074 57.7577C103.767 62.225 98.0281 72.2983 96.0009 76.7771C94.214 77.1539 92.4008 76.1107 92.2444 74.7039C93.5493 70.411 95.6669 63.3406 96.7134 61.088C97.4045 59.5989 98.6961 57.6113 99.8611 56.0958C96.4518 51.3258 91.0499 43.8144 89.49 39.4129C87.3674 33.4236 89.8043 30.006 93.0737 28.1237C94.2354 27.4556 95.4876 28.5268 96.0783 27.811C97.4736 30.5342 98.734 34.238 99.5518 37.5717C100.69 42.2183 106.122 52.0794 106.532 55.3965C106.584 56.0843 106.474 56.7342 106.206 57.2723C106.171 57.4286 106.129 57.5899 106.074 57.7577Z" fill="#1D232B"/>
<path fill-rule="evenodd" clip-rule="evenodd" d="M46.9003 72.6631L147.813 13.3161C149.722 12.2585 151.54 13.2736 151.877 15.5759L152.209 104.513C152.547 106.815 151.278 109.542 149.37 110.6L48.0564 168.561C46.148 169.618 44.3256 168.605 43.9894 166.304L44.0562 78.7527C43.7178 76.4505 44.9919 73.7217 46.9003 72.6631Z" fill="url(#paint0_linear)"/>
<path fill-rule="evenodd" clip-rule="evenodd" d="M47.7606 73.5239L148.674 14.1769C150.582 13.1194 152.4 14.1345 152.737 16.4367L153.07 105.374C153.407 107.676 152.138 110.403 150.23 111.46L48.9168 169.421C47.0084 170.479 45.1859 169.466 44.8497 167.165L44.9165 79.6136C44.5782 77.3113 45.8522 74.5826 47.7606 73.5239Z" fill="url(#paint1_linear)"/>
<mask id="mask0" mask-type="alpha" maskUnits="userSpaceOnUse" x="44" y="12" width="110" height="157">
<path fill-rule="evenodd" clip-rule="evenodd" d="M47.7606 72.6631L148.674 13.3161C150.582 12.2585 152.4 13.2736 152.737 15.5759L153.07 104.513C153.407 106.815 152.138 109.542 150.23 110.6L48.9168 168.561C47.0084 169.618 45.1859 168.605 44.8497 166.304L44.9165 78.7527C44.5782 76.4505 45.8522 73.7217 47.7606 72.6631Z" fill="url(#paint2_linear)"/>
</mask>
<g mask="url(#mask0)">
<rect width="158.39" height="13.773" transform="matrix(0.866025 -0.5 2.20305e-08 1 17.3027 86.9334)" fill="url(#paint3_linear)"/>
<ellipse rx="1.72162" ry="1.72163" transform="matrix(0.866025 -0.499999 2.20305e-08 1 137.586 25.8077)" fill="white"/>
<ellipse rx="1.72162" ry="1.72163" transform="matrix(0.866025 -0.500027 2.20293e-08 1 142.059 23.2252)" fill="white"/>
<ellipse rx="1.72162" ry="1.72163" transform="matrix(0.866025 -0.499999 2.20305e-08 1 146.532 20.6429)" fill="white"/>
</g>
<path fill-rule="evenodd" clip-rule="evenodd" d="M126.366 3.56579C129.55 5.43498 128.025 9.75092 125.132 14.3153C121.028 20.79 130.962 28.0793 117.459 31.7666C118.866 27.8143 113.015 26.368 110.139 20.9727C106.822 14.7464 108.661 8.5004 112.923 3.1824C116.393 -1.14999 122.741 -1.09404 126.366 3.56579Z" fill="url(#paint4_linear)"/>
<path fill-rule="evenodd" clip-rule="evenodd" d="M120.062 44.484L119.284 47.4194C119.039 48.048 118.892 48.2174 117.989 47.8094C117.495 47.5708 117.652 46.5424 117.788 45.7921C117.938 44.9661 117.846 44.2503 117.754 43.9393C117.648 43.5806 117.426 43.3602 117.188 43.1676C116.648 42.7349 116.018 42.4453 116.406 41.0681C116.609 40.349 116.561 39.8143 116.576 39.0673L118.456 38.9438C118.414 40.6222 119.159 41.7542 119.936 43.1676C120.311 43.8488 120.227 43.7205 120.062 44.484Z" fill="url(#paint5_linear)"/>
<path fill-rule="evenodd" clip-rule="evenodd" d="M113.363 25.8528L113.376 25.759C113.378 25.6241 113.399 25.4875 113.435 25.3559C113.913 22.1638 114.885 16.7849 115.642 13.9794C116.963 9.08101 121.156 10.7742 121.113 13.6981C121.072 16.464 118.498 22.4534 117.906 25.0498C118.117 26.9404 118.906 36.3835 118.633 38.0322C118.581 38.3465 118.444 38.5505 118.459 38.8977C118.47 39.1593 118.541 39.2646 118.618 39.5805C117.878 39.6793 117.138 39.7829 116.409 39.9557C116.381 39.7533 116.364 39.4078 116.298 39.2202C116.172 38.8648 115.846 38.6838 115.7 38.3827C114.977 36.9034 113.783 29.142 113.453 26.6146C113.396 26.3908 113.365 26.1407 113.363 25.8528Z" fill="url(#paint6_linear)"/>
<path opacity="0.05" fill-rule="evenodd" clip-rule="evenodd" d="M113.91 28.8393C113.628 28.1614 113.311 26.0487 113.314 25.1108C113.321 23.1659 114.056 21.555 114.283 20.3193L121.081 13.5533C121.038 14.8203 119.559 18.1967 118.953 20.6879C118.009 24.5777 115.952 27.9261 113.91 28.8393Z" fill="black"/>
<path fill-rule="evenodd" clip-rule="evenodd" d="M92.8813 29.3019C93.8406 32.471 98.3391 34.9671 102.849 33.9749C103.925 32.777 104.245 33.1505 105.23 32.1846C106.127 31.306 107.233 30.1048 108.779 28.5351C109.64 27.1842 113.033 26.633 114.53 26.0456C116.222 25.3825 117.722 23.9987 118.421 21.3117C118.76 20.0085 120.238 16.0217 120.768 14.6922C122.303 10.8501 118.973 9.41366 116.72 10.837C115.277 11.4392 112.098 12.1944 110.525 12.4873C109.587 12.6617 109.003 12.7769 107.777 12.8954C105.906 13.0764 103.874 14.4421 102.421 15.5988C98.5201 18.707 93.2235 24.9563 92.8813 29.3019Z" fill="url(#paint7_linear)"/>
<path fill-rule="evenodd" clip-rule="evenodd" d="M115.485 9.28485C115.074 10.9582 114.101 12.5675 112.805 13.8065C113.282 15.5128 116.537 16.7419 117.573 15.5885C117.654 15.3597 117.762 14.8497 117.874 14.6835C118.045 14.1833 118.215 13.7439 118.361 13.3935L115.485 9.28485Z" fill="url(#paint8_linear)"/>
<path fill-rule="evenodd" clip-rule="evenodd" d="M124.939 7.00458C124.779 8.30117 124.366 9.39373 123.247 10.511C122.963 10.794 122.849 11.026 122.777 11.2942C122.352 12.8425 122.02 13.1584 121.026 13.8676C120.06 14.5571 119.698 15.0326 119.147 15.0918C118.581 15.1511 118.059 14.845 117.645 14.5472C116.796 13.94 115.845 12.2781 115.399 11.1807C115.068 10.3678 115.274 10.1621 115.483 9.39044C115.238 7.97044 116.22 7.87994 116.547 8.056C117.485 8.5595 116.855 9.59941 117.168 10.1967C120.465 10.924 123.876 7.96715 124.939 7.00458Z" fill="#FFA698"/>
<path fill-rule="evenodd" clip-rule="evenodd" d="M124.939 7.00458C123.108 10.0535 119.075 10.8236 117.168 10.195C120.465 10.924 123.876 7.96715 124.939 7.00458Z" fill="#FF9080"/>
<path opacity="0.05" fill-rule="evenodd" clip-rule="evenodd" d="M103.62 33.1915C103.646 33.1981 103.674 33.203 103.702 33.208C104.201 32.8789 104.563 32.8377 105.229 32.1845C106.126 31.3059 107.232 30.1047 108.779 28.535C109.218 27.8472 110.314 27.3667 111.482 26.9817C111.298 23.8274 111.38 16.6172 110.345 15.6793C108.918 14.3843 106.954 13.5238 105.313 15.2087C102.22 18.3893 105.3 30.159 103.62 33.1915Z" fill="black"/>
<path d="M117.725 120.214L80.1032 143.21C78.2566 143.686 76.7002 142.455 76.7002 140.675V115.096C76.7002 113.317 77.9501 111.15 79.493 110.26L117.725 88.1864C119.268 87.2967 121.415 87.9364 121.415 89.7186L120.518 115.378C120.518 117.161 119.268 119.324 117.725 120.214Z" fill="#E0E0E0"/>
<path d="M118.959 120.861L80.7274 142.935C79.1845 143.825 77.9346 143.105 77.9346 141.323V115.743C77.9346 113.964 79.1845 111.797 80.7274 110.908L118.959 88.8335C120.502 87.9438 121.752 88.6642 121.752 90.4464V116.026C121.749 117.805 120.499 119.972 118.959 120.861Z" fill="url(#paint9_linear)"/>
<path d="M91.9362 122.891L82.5738 128.966C81.1787 129.541 79.8857 128.875 79.8857 127.67V115.932C79.8857 114.73 80.5954 112.709 81.6356 112.109L91.8018 106.239C92.842 105.637 95.0516 106.169 95.0516 107.373L93.8205 119.625C93.8205 120.829 92.9764 122.289 91.9362 122.891Z" fill="#BDBDBD"/>
<path d="M93.2296 122.891L83.0635 128.762C82.0232 129.364 81.1792 128.875 81.1792 127.673V115.935C81.1792 114.733 82.0232 113.271 83.0635 112.669L93.2296 106.798C94.2699 106.196 95.1139 106.685 95.1139 107.887V119.625C95.1139 120.83 94.2699 122.289 93.2296 122.891Z" fill="#FAFBFF"/>
<path d="M116.825 109.268L99.9951 118.983C98.9549 119.585 98.1108 119.096 98.1108 117.894V106.155C98.1108 104.954 98.9549 103.492 99.9951 102.89L116.825 93.175C117.865 92.5729 118.709 93.0621 118.709 94.2636V106.002C118.712 107.206 117.868 108.666 116.825 109.268Z" fill="url(#paint10_linear)"/>
<path d="M117.672 114.276L82.2195 134.743C81.6442 135.073 81.1792 134.804 81.1792 134.14C81.1792 133.477 81.6442 132.67 82.2195 132.339L117.672 111.873C118.247 111.542 118.712 111.811 118.712 112.472C118.712 113.134 118.244 113.943 117.672 114.276Z" fill="#E0E0E0"/>
<path d="M112.65 121.265L87.237 135.936C86.6618 136.267 86.1968 135.998 86.1968 135.337C86.1968 134.673 86.6618 133.866 87.237 133.536L112.65 118.865C113.225 118.534 113.69 118.803 113.69 119.464C113.69 120.125 113.225 120.932 112.65 121.265Z" fill="#E0E0E0"/>
<path d="M115.706 101.868C115.706 103.914 114.271 106.4 112.499 107.424C110.728 108.446 109.292 107.618 109.292 105.572C109.292 103.527 110.728 101.04 112.499 100.016C114.271 98.9948 115.706 99.8227 115.706 101.868Z" fill="white"/>
<path d="M91.3526 114.722C91.3526 116.768 88.1458 123.128 88.1458 123.128C88.1458 123.128 84.939 120.472 84.939 118.426C84.939 116.381 86.3744 113.894 88.1458 112.87C89.9172 111.846 91.3526 112.677 91.3526 114.722Z" fill="url(#paint11_linear)"/>
<path d="M89.7941 115.773C89.7941 116.824 89.0575 118.101 88.1463 118.628C87.2377 119.152 86.4985 118.727 86.4985 117.676C86.4985 116.625 87.2351 115.348 88.1463 114.822C89.0549 114.295 89.7941 114.722 89.7941 115.773Z" fill="#FAFBFF"/>
<path d="M63.3271 146.905L28.5924 168.575C27.2189 169.368 25.2539 167.6 25.2539 166.014V142.319C25.2539 140.733 26.3667 138.803 27.7403 138.01L63.3244 117.465C64.698 116.672 66.7463 117.019 66.7463 118.605L65.8135 142.598C65.8135 144.182 64.7007 146.109 63.3271 146.905Z" fill="#F2F2F2"/>
<path d="M64.4936 147.681L28.9068 168.226C27.5333 169.019 26.4204 168.377 26.4204 166.791V143.096C26.4204 141.51 27.5333 139.58 28.9068 138.787L64.4936 118.242C65.8672 117.449 66.98 118.092 66.98 119.678V143.373C66.98 144.961 65.8672 146.888 64.4936 147.681Z" fill="#E0E0E0"/>
<path d="M45.7429 151.418C49.5523 144.82 49.5523 137.688 45.743 135.489C41.9337 133.289 35.7576 136.855 31.9482 143.453C28.1389 150.051 28.1388 157.182 31.9481 159.382C35.7574 161.581 41.9336 158.015 45.7429 151.418Z" fill="#FAFBFF"/>
<path d="M44.0231 139.994L34.3677 145.566L39.0368 146.536L44.0231 139.994Z" fill="url(#paint12_linear)"/>
<path d="M39.0272 147.364L33.6699 146.248V154.122L44.3951 147.931V140.319L39.0272 147.364Z" fill="url(#paint13_linear)"/>
<path d="M63.7488 127.341L54.3757 132.755C53.8085 133.083 53.3516 132.817 53.3516 132.164C53.3516 131.51 53.8112 130.715 54.3757 130.387L63.7488 124.976C64.316 124.648 64.773 124.914 64.773 125.567C64.7757 126.22 64.316 127.016 63.7488 127.341Z" fill="#FAFBFF"/>
<path d="M63.7488 136.002L54.3757 141.416C53.8085 141.744 53.3516 141.478 53.3516 140.825C53.3516 140.171 53.8112 139.376 54.3757 139.048L63.7488 133.637C64.316 133.309 64.773 133.575 64.773 134.228C64.7757 134.881 64.316 135.677 63.7488 136.002Z" fill="#FAFBFF"/>
<path d="M63.7513 144.665L54.3781 150.076C53.811 150.404 53.354 150.138 53.354 149.485C53.354 148.832 53.8137 148.036 54.3781 147.708L63.7513 142.297C64.3185 141.969 64.7754 142.235 64.7754 142.889C64.7754 143.542 64.3158 144.337 63.7513 144.665Z" fill="#FAFBFF"/>
<path d="M164.622 88.9284L134.827 106.129C133.626 106.823 132.653 106.261 132.653 104.874V84.9394C132.653 83.5524 133.626 81.8643 134.827 81.1708L164.622 63.9701C165.823 63.2766 167.656 63.9002 167.656 65.2872L166.796 85.1598C166.799 86.5495 165.823 88.2349 164.622 88.9284Z" fill="#EBEEF7"/>
<path d="M165.592 89.7078L135.798 106.909C134.596 107.602 133.623 107.04 133.623 105.653V85.7188C133.623 84.3318 134.596 82.6437 135.798 81.9502L165.592 64.7495C166.793 64.056 167.766 64.6178 167.766 66.0048V85.9392C167.766 87.3263 166.793 89.0143 165.592 89.7078Z" fill="#E0E0E0"/>
<path d="M145.539 91.2885L137.617 95.8635C136.805 96.3313 136.149 95.9523 136.149 95.0168V85.8695C136.149 84.934 136.808 83.7943 137.617 83.3266L145.539 78.7516C146.35 78.2839 147.006 78.6629 147.006 79.5983V88.7456C147.009 89.6811 146.35 90.8208 145.539 91.2885Z" fill="#FAFBFF"/>
<path d="M164.31 80.2946L151.195 87.8667C150.383 88.3345 149.727 87.9555 149.727 87.02V77.8727C149.727 76.9372 150.386 75.7975 151.195 75.3298L164.31 67.7576C165.121 67.2899 165.777 67.6689 165.777 68.6043V77.7517C165.777 78.6871 165.119 79.8242 164.31 80.2946Z" fill="#447BB8"/>
<path d="M165.068 80.6737L151.953 88.2458C151.141 88.7135 150.485 88.3345 150.485 87.3991V78.2517C150.485 77.3163 151.144 76.1766 151.953 75.7089L165.068 68.1367C165.88 67.669 166.536 68.048 166.536 68.9834V78.1308C166.536 79.0662 165.88 80.2059 165.068 80.6737Z" fill="url(#paint14_linear)"/>
<path d="M157.364 76.4749V82.1251L161.536 76.8942L157.364 76.4749Z" fill="white"/>
<path d="M164.586 84.574L136.959 100.525C136.51 100.783 136.147 100.573 136.147 100.057C136.147 99.5409 136.51 98.9119 136.959 98.6539L164.586 82.7031C165.035 82.4451 165.398 82.6547 165.398 83.1708C165.398 83.6869 165.035 84.3159 164.586 84.574Z" fill="white"/>
<path d="M160.676 90.0226L140.87 101.457C140.421 101.715 140.059 101.506 140.059 100.99C140.059 100.474 140.421 99.8446 140.87 99.5866L160.676 88.1517C161.125 87.8936 161.488 88.1033 161.488 88.6194C161.488 89.1355 161.125 89.7645 160.676 90.0226Z" fill="white"/>
<path d="M16.7472 137.377L88.926 94.6695C90.6894 93.6508 92.1194 91.1751 92.1194 89.1376L92.8828 65.448C92.8828 63.4105 90.6894 62.1444 88.926 63.1632L16.5106 104.97C14.7473 105.989 13.0001 108.473 13.0001 110.51V134.64C13.0001 136.675 14.9838 138.396 16.7472 137.377Z" fill="#E0E0E0"/>
<path d="M17.2901 137.255L89.7056 95.4454C91.4689 94.4267 92.8989 91.951 92.8989 89.9135V65.783C92.8989 63.7455 91.4689 62.9203 89.7056 63.9391L17.2901 105.746C15.5268 106.765 14.0968 109.24 14.0968 111.278V135.408C14.0968 137.446 15.5268 138.271 17.2901 137.255Z" fill="url(#paint15_linear)"/>
<path d="M72.5744 85.135V94.6022C72.5744 97.3333 74.4479 99.1558 76.8215 97.7849L85.45 92.1239C87.5413 90.9169 89.2885 88.1778 89.6649 85.6753C89.7159 85.3393 89.7428 85.0087 89.7428 84.6915L90.396 75.1624C90.396 72.4314 87.8236 71.3831 85.45 72.754L76.8672 77.7107C74.4936 79.0789 72.5744 82.404 72.5744 85.135Z" fill="#BDBDBD"/>
<path d="M73.833 85.9733V95.4405C73.833 98.1716 75.7523 99.2871 78.1258 97.9189L86.7087 92.9622C88.8 91.7553 90.5472 89.0162 90.9235 86.5136C90.9746 86.1776 91.0015 85.847 91.0015 85.5298V76.0626C91.0015 73.3315 89.0822 72.2241 86.7087 73.595L78.1258 78.5517C75.7523 79.9172 73.833 83.2423 73.833 85.9733Z" fill="white"/>
<path d="M76.4054 83.5893C76.4054 84.8957 77.322 85.4252 78.4564 84.7721C79.588 84.1189 80.5073 82.5302 80.5073 81.2212C80.5073 79.9148 79.5907 79.3852 78.4564 80.0384C77.3247 80.6943 76.4054 82.2829 76.4054 83.5893Z" fill="url(#paint16_linear)"/>
<path d="M17.8596 116.063L67.0693 87.6537V85.7694L17.8596 114.179V116.063Z" fill="#E0E0E0"/>
<path d="M17.8596 120.063L67.0693 91.6507V89.7664L17.8596 118.179V120.063Z" fill="#E0E0E0"/>
<path d="M17.8596 124.06L67.0693 95.6504V93.7661L17.8596 122.176V124.06Z" fill="#E0E0E0"/>
<path d="M17.8596 128.06L67.0693 99.6501V97.7658L17.8596 126.176V128.06Z" fill="#E0E0E0"/>
<path d="M28.2274 126.074L67.0693 103.647V101.763L28.2274 124.189V126.074Z" fill="#E0E0E0"/>
<path d="M73.8329 95.2123V95.4408C73.8329 98.1718 75.7521 99.2873 78.1256 97.9191L86.7085 92.9624C88.7998 91.7555 90.547 89.0164 90.9233 86.5139L85.1656 82.4092L80.4723 91.2421L76.8408 89.5809L73.8329 95.2123Z" fill="url(#paint17_linear)"/>
<path d="M143.21 69.7805L100.978 96.2539C98.4155 97.7468 95.6382 94.7815 95.6382 91.7958V64.4238C95.6382 61.438 98.1369 57.8405 100.7 56.3477L143.207 31.5955C145.77 30.1026 148.959 31.2998 148.959 34.2855L147.854 61.6722C147.854 64.6579 145.773 68.2877 143.21 69.7805Z" fill="black" fill-opacity="0.1"/>
<path d="M144.715 70.7334L101.165 95.8755C98.5396 97.3919 96.4077 96.1639 96.4077 93.1282V65.325C96.4077 62.2922 98.5366 58.6024 101.165 57.086L144.715 31.9439C147.34 30.4275 149.472 31.6555 149.472 34.6912V62.4944C149.472 65.5272 147.343 69.217 144.715 70.7334Z" fill="url(#paint18_linear)"/>
<path d="M123.209 69.1755C124.196 68.1319 124.895 66.8771 125.371 65.5421C125.879 64.219 126.233 62.8364 126.673 61.4658C127.104 60.0951 127.627 58.7125 128.448 57.4697C128.861 56.8661 129.292 56.2387 130.03 55.7927C130.398 55.5757 130.904 55.4835 131.341 55.5965C131.778 55.7035 132.129 55.9295 132.438 56.1644C133.045 56.6669 133.491 57.2199 133.981 57.7372C134.463 58.2605 134.945 58.772 135.468 59.209C135.988 59.6461 136.559 60.0029 137.192 60.1753C137.823 60.3448 138.501 60.3389 139.167 60.214C140.534 60.0386 141.572 59.0187 142.306 57.8324C143.062 56.6461 143.546 55.2873 143.921 53.9077C143.722 55.3259 143.311 56.7263 142.642 58.0286C142.297 58.6709 141.869 59.2863 141.313 59.7977C141.04 60.0594 140.716 60.2705 140.377 60.4519C140.198 60.5262 140.017 60.6094 139.839 60.6659L139.3 60.8176C138.572 60.99 137.781 61.0346 137.02 60.8473C136.259 60.66 135.581 60.2556 134.998 59.7888C134.412 59.319 133.91 58.7838 133.419 58.2635C132.926 57.7462 132.456 57.1902 131.95 56.7828C131.698 56.5836 131.427 56.4201 131.165 56.3547C130.907 56.2893 130.66 56.3279 130.41 56.4647C129.902 56.7501 129.468 57.324 129.072 57.8829C128.275 59.0098 127.752 60.324 127.262 61.656C126.777 62.994 126.337 64.3677 125.73 65.6819C125.121 67.002 124.321 68.2627 123.209 69.1755Z" fill="white"/>
<path d="M145.256 42.9299L134.749 48.8795V44.042L145.256 38.0924V42.9299Z" fill="white"/>
<path d="M131.692 50.3428L121.185 56.2893V51.4518L131.692 45.5023V50.3428Z" fill="white"/>
<path d="M116.081 69.2394C119.339 63.5967 119.339 57.4974 116.081 55.6164C112.823 53.7354 107.541 56.7848 104.283 62.4276C101.025 68.0703 101.025 74.1695 104.283 76.0506C107.541 77.9316 112.823 74.8821 116.081 69.2394Z" fill="black" fill-opacity="0.1"/>
<path d="M117.403 69.7936C120.661 64.1509 120.661 58.0516 117.403 56.1706C114.145 54.2896 108.863 57.339 105.605 62.9818C102.347 68.6245 102.347 74.7237 105.605 76.6048C108.863 78.4858 114.145 75.4363 117.403 69.7936Z" fill="white"/>
<path d="M143.868 67.2992L102.26 91.3204C101.564 91.7218 100.999 91.3977 100.999 90.592C100.999 89.7892 101.564 88.811 102.26 88.4096L143.868 64.3884C144.564 63.987 145.129 64.3111 145.129 65.1168C145.129 65.9226 144.564 66.8978 143.868 67.2992Z" fill="#FAFBFF"/>
<path opacity="0.6" d="M102.125 90.4284C101.971 90.5176 101.843 90.3748 101.843 90.1072C101.843 89.8396 101.971 89.5512 102.125 89.462L130.101 73.3112C130.255 73.222 130.383 73.3647 130.383 73.6323C130.383 73.8999 130.258 74.1883 130.101 74.2775L102.125 90.4284Z" fill="#1D232B"/>
<path d="M108.578 62.6935V73.4568L116.519 63.4903L108.578 62.6935Z" fill="url(#paint19_linear)"/>
<rect opacity="0.2" width="36.6486" height="23.906" transform="matrix(0.866024 0.500002 -0.866024 0.500002 119.316 149.723)" fill="url(#paint20_linear)"/>
<path fill-rule="evenodd" clip-rule="evenodd" d="M135.473 166.388C135.052 166.379 133.63 165.044 132.284 165.718C130.666 166.528 127.597 165.811 126.047 166.183C125.771 166.249 125.232 166.046 125.125 166.236C124.791 166.829 124.468 167.717 125.289 168.299C125.894 168.726 127.187 169.292 128.035 169.592C128.936 169.911 130.477 170.413 131.509 170.574C132.652 170.754 133.174 170.828 133.602 171.158C134.215 171.467 134.846 171.599 135.199 171.542C135.953 171.422 136.833 170.98 137.235 170.121C137.364 169.846 137.366 168.646 137.219 167.867C137.103 167.252 136.767 166.552 136.498 165.899L135.473 166.388Z" fill="white"/>
<path fill-rule="evenodd" clip-rule="evenodd" d="M132.167 163.515C132.679 164.744 132.521 166.644 133.734 167.303C134.544 167.743 135.813 167.747 136.366 166.489C136.675 165.786 136.266 164.588 136.356 163.045L132.167 163.515Z" fill="#FFA495"/>
<path fill-rule="evenodd" clip-rule="evenodd" d="M131.829 165.417C130.9 165.687 128.336 165.506 126.714 165.638C126.018 165.694 125.393 165.689 125.067 166.321C124.768 166.904 124.925 167.402 125.603 167.881C126.208 168.309 127.232 168.796 128.081 169.097C128.981 169.416 130.522 169.918 131.554 170.08C132.698 170.258 133.219 170.333 133.648 170.662C134.26 170.971 134.892 171.103 135.244 171.046C135.999 170.926 136.878 170.395 137.28 169.535C137.408 169.26 137.413 168.149 137.265 167.37C137.236 167.221 137.195 167.068 137.146 166.911C137.018 165.691 136.615 165.198 136.235 165.406C135.715 165.692 135.519 166.207 135.321 166.63C135.153 166.987 134.902 167.212 134.614 167.304C133.993 167.5 133.424 167.153 133.058 166.619C132.852 166.263 132.731 165.831 132.631 165.383C132.63 165.342 132.629 165.301 132.63 165.259C132.509 164.192 131.989 164.285 132.068 164.51C132.14 164.719 132.111 165.2 131.829 165.417Z" fill="url(#paint21_linear)"/>
<path fill-rule="evenodd" clip-rule="evenodd" d="M125.391 166.141C125.403 166.553 124.773 166.592 124.955 167.317C124.651 167.02 125.075 166.165 125.262 166.034C125.338 165.982 125.404 165.961 125.391 166.141Z" fill="white"/>
<path fill-rule="evenodd" clip-rule="evenodd" d="M124.908 162.16C124.515 162.006 123.639 160.262 122.143 160.433C121.54 160.501 120.569 160.344 119.585 160.065C118.014 159.618 115.826 158.215 115.452 158.444C114.639 158.944 114.574 159.857 115.145 160.685C115.565 161.294 116.359 162.104 117.053 162.678C117.788 163.287 118.832 164.219 119.746 164.725C120.61 165.204 120.897 165.162 121.512 165.992C121.981 166.492 122.528 166.789 122.878 166.858C123.776 167.033 125.081 166.457 125.55 165.855C125.848 164.889 126.366 163.975 126.034 162.525L124.908 162.16Z" fill="white"/>
<path fill-rule="evenodd" clip-rule="evenodd" d="M122.832 158.046C122.857 159.377 122.012 161.086 122.897 162.145C123.488 162.853 124.666 163.323 125.644 162.355C126.189 161.815 126.25 160.55 126.901 159.149L122.832 158.046Z" fill="#FFA495"/>
<path fill-rule="evenodd" clip-rule="evenodd" d="M119.987 159.667C119.898 159.644 119.809 159.619 119.718 159.594C118.148 159.147 116.049 158.066 115.675 158.295C114.862 158.795 114.707 159.387 115.278 160.215C115.699 160.825 116.492 161.634 117.185 162.208C117.92 162.818 118.964 163.749 119.877 164.255C120.741 164.735 121.028 164.692 121.643 165.522C122.112 166.022 122.659 166.319 123.01 166.388C123.907 166.564 125.251 165.981 125.719 165.379C125.942 164.66 126.245 163.975 126.27 163.072C126.4 161.889 126.319 161.287 125.805 161.303C124.848 161.331 124.452 161.835 124.057 162.081C123.206 162.612 122.635 161.926 122.495 161.078C122.47 160.721 122.512 160.341 122.573 159.957C122.586 159.917 122.601 159.878 122.617 159.84C122.896 158.803 122.379 158.7 122.37 158.937C122.349 159.476 122.012 159.778 121.58 159.843C121.066 159.922 120.408 159.703 119.987 159.667Z" fill="url(#paint22_linear)"/>
<path fill-rule="evenodd" clip-rule="evenodd" d="M115.771 158.427C115.605 158.805 115.018 158.568 114.871 159.301C114.725 158.902 115.476 158.312 115.702 158.276C115.793 158.261 115.862 158.27 115.771 158.427Z" fill="white"/>
<path fill-rule="evenodd" clip-rule="evenodd" d="M123.737 122.123C123.393 125.978 121.461 138.286 121.998 141.665C122.807 146.747 122.575 152.886 122.566 158.279C122.703 160.544 125.819 161.729 126.726 160.289C127.454 155.469 128.49 151.247 128.911 148.569C129.383 145.57 129.228 141.927 128.467 139.956C128.779 137.803 130.247 132.249 131.474 128.4C131.917 127.011 134.424 122.524 131.829 118.062L123.737 122.123Z" fill="url(#paint23_linear)"/>
<path fill-rule="evenodd" clip-rule="evenodd" d="M122.515 156.832C122.513 157.232 122.528 157.841 122.527 158.233C122.664 160.499 125.818 161.729 126.725 160.289C126.779 159.933 126.857 159.581 126.914 159.233C125.694 160.548 123.303 158.841 122.515 156.832Z" fill="url(#paint24_linear)"/>
<path opacity="0.15" fill-rule="evenodd" clip-rule="evenodd" d="M121.915 139.373C122.93 144.468 125.804 151.275 127.374 156.4C128.19 152.009 130.234 144.533 128.467 139.958C128.645 138.732 129.198 136.402 129.867 133.913C128.507 131.334 129.806 129.277 129.164 125.647C125.564 125.019 130.997 120.626 123.38 125.253C122.698 130.721 122.058 134.161 121.915 139.373Z" fill="black"/>
<path fill-rule="evenodd" clip-rule="evenodd" d="M123.985 144.206C126.063 148.906 129.894 158.13 131.932 163.899C132.986 165.431 136.746 165.272 136.738 163.842C135.908 159.017 134.932 151.577 133.202 147.347C132.672 146.053 130.716 142.936 130.011 142.012C129.464 139.884 128.776 134.133 128.247 131.021C128.722 128.447 130.799 124.142 126.809 120.4C125.2 121.546 120.222 122.261 117.964 120.986C117.598 131.156 120.095 135.398 123.985 144.206Z" fill="url(#paint25_linear)"/>
<path fill-rule="evenodd" clip-rule="evenodd" d="M131.51 162.894C131.6 163.146 131.781 163.656 131.867 163.896C132.952 165.473 136.821 165.309 136.815 163.838C136.774 163.599 136.732 163.355 136.691 163.104C135.767 164.045 132.977 164.057 131.51 162.894Z" fill="url(#paint26_linear)"/>
<path fill-rule="evenodd" clip-rule="evenodd" d="M111.254 65.7608C111.401 66.0721 111.543 66.3872 111.697 66.6959L112.332 67.9669C112.468 67.3444 112.965 67.1054 113.348 67.4193C113.464 67.5136 113.58 67.6531 113.658 67.8352C113.718 67.6647 114.2 67.2824 114.85 68.2072C115.255 68.1633 115.47 68.3351 115.64 68.6632C115.742 68.8595 115.831 69.0946 115.913 69.3297C116.029 69.6616 116.104 69.9432 116.103 70.2326C116.099 70.8448 116.072 71.51 116.09 72.2411C116.109 73.0355 117.009 74.0417 117.499 74.6204L114.55 75.5556C114.099 74.9898 113.856 74.5804 113.402 74.1205C112.939 73.6516 112.354 73.5961 111.912 73.2344C111.666 73.0316 111.524 72.7643 111.104 72.1688C110.756 71.6767 110.567 71.1445 110.235 70.6059C109.912 70.0478 109.931 70.1706 109.899 69.5454C109.873 69.0623 109.717 68.5857 109.678 68.2925C110.284 67.9902 110.762 68.7381 110.756 69.4666C111.104 69.6616 111.331 70.1396 111.41 70.354C111.892 69.7236 111.605 69.4614 111.41 68.6515C111.104 68.0897 110.886 67.5949 110.716 67.0279C110.622 66.7786 110.528 66.5203 110.427 66.2426C110.29 65.7892 110.466 65.4675 110.603 65.3784C110.715 65.3022 111.007 65.3358 111.254 65.7608Z" fill="url(#paint27_linear)"/>
<path fill-rule="evenodd" clip-rule="evenodd" d="M110.025 68.2266C110.455 68.2886 110.76 68.8827 110.756 69.464C111.08 69.6461 111.301 70.0776 111.393 70.3062C111.216 70.0788 110.766 69.5932 110.618 69.535C110.571 68.9745 110.372 68.5159 110.025 68.2266ZM112.278 67.8559L112.332 67.9656C112.365 67.8106 112.421 67.6802 112.492 67.5756C112.51 68.0005 112.745 68.3041 112.912 68.5107C112.532 68.3389 112.38 68.1349 112.278 67.8559ZM113.66 67.8236C113.68 67.7745 113.735 67.7099 113.816 67.6647C113.895 68.0393 113.981 68.2149 114.147 68.5094C113.878 68.3002 113.748 68.0716 113.66 67.8236ZM114.835 68.1865L114.849 68.2059C114.918 68.1982 114.98 68.1969 115.038 68.202C115.096 68.6102 115.18 68.8634 115.383 69.1463C115.07 68.8414 114.911 68.6334 114.835 68.1865Z" fill="#FF8978"/>
<path fill-rule="evenodd" clip-rule="evenodd" d="M122.388 82.7955C120.904 80.2096 119.743 76.9713 117.669 74.3441C117.496 74.1258 117.09 73.9579 116.94 73.7266C116.723 73.3921 116.507 73.064 116.293 72.7411C115.322 72.7579 114.127 73.259 113.308 74.0857C113.424 74.4319 113.538 74.7768 113.651 75.1191C113.783 75.5182 113.531 76.3733 113.645 76.7724C114.667 80.3646 115.772 83.3794 117.281 86.677C119.337 89.3302 128.476 106.358 133.255 100.179C133.685 97.9806 133.103 96.1528 131.997 94.3742C131.385 93.3899 130.455 92.531 129.829 91.8812C128.326 90.326 124.645 85.1219 122.388 82.7955Z" fill="#455A64"/>
<path fill-rule="evenodd" clip-rule="evenodd" d="M132.556 108.314C132.221 111.33 133.128 114.295 132.204 117.048C132.163 117.333 132.137 118.449 132.088 118.752C131.48 122.318 123.936 125.927 117.646 122.506C117.611 122.064 117.651 121.602 117.617 120.783C117.734 120.018 117.403 119.198 117.406 118.731C117.415 116.791 118.019 115.798 117.728 113.638C117.139 109.245 114.705 105.023 116.052 101.565C116.341 100.824 116.586 99.4241 117.159 98.9629C118.646 97.7681 126.597 94.8921 128.929 94.6157C135.696 93.74 132.919 105.043 132.556 108.314Z" fill="#455A64"/>
<path opacity="0.15" fill-rule="evenodd" clip-rule="evenodd" d="M117.047 110.453C116.173 107.224 115.034 104.177 116.051 101.565C116.34 100.823 116.846 100.463 117.42 100.002C118.907 98.8072 118.71 102.02 121.04 101.743C121.49 106.037 119.368 109.94 117.047 110.453Z" fill="black"/>
<path fill-rule="evenodd" clip-rule="evenodd" d="M121.792 93.2674C121.871 94.3395 121.819 95.8831 121.62 96.9707C123.824 96.8984 126.888 96.3223 127.222 94.6818C127.207 94.4855 127.193 94.2853 127.182 94.0902C127.212 94.0631 127.242 94.0399 127.273 94.0192C128.063 93.4935 129.37 93.1034 130.211 92.1424C131.555 90.6066 132.268 88.5437 131.214 86.4667C129.289 82.6743 124.634 82.6097 122.04 85.6762C121.534 86.2755 121.904 86.8956 121.616 87.4729C121.56 87.5866 121.353 87.6357 121.113 87.8346C120.781 88.1084 119.813 90.4787 119.838 91.7161C119.848 92.2147 120.993 92.9161 121.501 93.1912C121.545 93.2158 121.654 93.2416 121.792 93.2674Z" fill="#FFA698"/>
<path fill-rule="evenodd" clip-rule="evenodd" d="M121.792 93.2676C121.871 94.3397 121.819 95.8832 121.62 96.9708C123.824 96.8985 126.888 96.3224 127.222 94.682C127.207 94.4856 127.193 94.2854 127.182 94.0904C127.212 94.0632 127.246 94.0452 127.273 94.0193C128.948 92.4512 126.707 90.6545 123.876 92.2019C123.416 92.9356 122.701 93.3167 121.792 93.2676Z" fill="url(#paint28_linear)"/>
<path fill-rule="evenodd" clip-rule="evenodd" d="M119.839 91.7172C119.85 91.9355 120.751 92.2636 121.129 92.314C120.871 89.9722 123.101 89.6131 122.765 87.3268C122.564 85.9524 123.977 85.4551 123.423 84.4489C122.923 84.777 122.455 85.1865 122.042 85.676C121.535 86.2754 121.906 86.8954 121.618 87.4727C121.561 87.5864 121.355 87.6355 121.114 87.8344C120.781 88.1082 119.781 90.4798 119.839 91.7172Z" fill="url(#paint29_linear)"/>
<path fill-rule="evenodd" clip-rule="evenodd" d="M122.877 90.7654C122.921 90.241 123.133 90.1402 123.309 90.2797C123.501 90.4321 123.666 90.8868 123.614 91.4254C123.528 92.296 122.721 93.0749 122.166 92.3709C122.774 92.6926 123.059 91.9137 123.085 91.3634C123.103 90.9914 123.009 90.6775 122.877 90.7654Z" fill="#FFB49C"/>
<path fill-rule="evenodd" clip-rule="evenodd" d="M123.07 91.099C122.748 91.3441 122.598 91.5092 122.603 91.646C122.607 91.7415 122.687 91.8847 122.971 91.7853C123.079 91.5621 123.096 91.3183 123.07 91.099Z" fill="#FF9D8E"/>
<path opacity="0.15" fill-rule="evenodd" clip-rule="evenodd" d="M127.249 94.6227C127.901 94.8242 128.511 95.4946 128.391 95.9247C127.741 98.5778 122.773 98.9632 119.2 97.9424C119.2 97.9424 121.172 97.1102 121.752 96.9216C123.655 97.1089 126.661 96.1895 127.249 94.6227Z" fill="black"/>
<path fill-rule="evenodd" clip-rule="evenodd" d="M127.483 94.4583C128.289 93.5981 129.653 93.1873 130.529 92.1863C131.392 91.1994 132.337 89.6843 131.761 88.1278C132.778 84.9296 129.303 82.394 126.376 81.8179C124.281 81.4059 123.029 83.6521 123.939 85.1711C123.153 86.0495 123.181 87.2107 123.235 87.5091C123.403 88.4223 123.378 88.5373 123.086 89.2206C122.856 89.7605 122.282 91.0651 123.321 90.2384C123.994 89.7049 124.463 90.8843 124.236 91.6993C124.133 92.07 124.006 92.5389 124.09 93.2752C124.286 94.9866 127.035 94.9363 127.483 94.4583Z" fill="#1D232B"/>
<path fill-rule="evenodd" clip-rule="evenodd" d="M130.791 86.6786C131.485 83.5812 127.412 82.0131 125.82 81.9769C124.208 81.9394 122.944 84.5925 124.856 85.4851C126.158 86.0948 128.739 84.9038 130.791 86.6786Z" fill="#1D232B"/>
<path fill-rule="evenodd" clip-rule="evenodd" d="M98.5042 91.0648C98.5998 91.3012 98.6037 91.4381 98.636 91.6913C98.7948 92.0762 98.8865 92.3733 98.9395 92.6407C99.039 93.1419 99.0015 93.5371 99.017 94.2049C99.0261 94.5911 98.964 94.7901 98.8814 95.1659C99.2728 95.9306 99.8876 96.4008 100.462 97.0324L98.6011 98.452C97.8157 97.934 97.2022 97.3902 96.5254 96.9394C95.9764 96.7224 95.7839 96.5997 95.6186 96.4279C95.1872 95.9784 93.9174 94.6428 93.8451 94.1184C93.7637 93.5358 93.92 92.1886 94.0518 91.4485C94.3876 89.5613 95.1071 87.5799 95.2298 88.4544C95.4093 88.6636 95.2621 90.3686 95.3758 90.6218C95.8162 91.1294 96.0268 91.3374 96.5783 91.9432C96.9206 92.1382 97.1467 92.3423 97.312 92.3862C97.5019 92.4379 97.6078 92.3049 97.6142 92.1382C97.622 91.9509 97.5019 91.6203 97.4037 91.132C97.405 90.3234 97.6039 89.8649 98.0366 89.9075C98.2588 89.9295 98.3867 90.047 98.4422 90.286C98.4848 90.4733 98.4732 90.7342 98.5042 91.0648Z" fill="url(#paint30_linear)"/>
<path fill-rule="evenodd" clip-rule="evenodd" d="M117.269 98.9819C114.705 99.3771 109.76 102.197 106.348 103.726C104.445 101.014 101.947 97.7625 100.406 96.6685C100.229 96.5432 99.7781 96.2874 99.6399 96.1182C99.4165 95.8444 99.1982 95.5628 98.9876 95.2734C98.0253 95.4078 96.6303 96.609 96.6484 97.1774C96.8034 97.4616 96.961 97.7573 97.1211 98.0635C97.2309 98.2727 97.1909 98.7326 97.2555 98.9677C97.7786 100.866 100.659 105.254 102.002 107.211C102.779 108.343 103.051 109.005 103.577 109.344C104.42 109.886 105.552 109.589 107.732 109.042C109.567 108.58 115.491 107.503 118.217 106.064C120.139 105.05 121.614 103.222 120.849 101.12C120.361 99.7724 118.917 98.7274 117.269 98.9819Z" fill="#455A64"/>
<path fill-rule="evenodd" clip-rule="evenodd" d="M112.07 42.1703C112.546 42.9651 112.296 44.6878 112.45 45.5072C112.572 46.1506 112.931 47.3748 113.179 47.8997C113.28 48.1103 116.439 50.9174 116.623 50.7759C117.039 50.455 117.311 48.2386 116.763 47.5936C116.205 46.9371 115.754 46.3201 115.661 45.7919C115.567 45.2538 115.598 43.5113 115.369 43.2415C114.851 42.6294 114.31 42.4352 114.078 41.6701L112.07 42.1703Z" fill="url(#paint31_linear)"/>
<path fill-rule="evenodd" clip-rule="evenodd" d="M105.921 31.4472C105.874 31.2793 105.836 31.095 105.803 30.8927C104.98 27.4899 104.144 21.6668 104.251 18.2937C104.334 15.7169 105.587 13.5368 108.61 14.3759C109.54 14.6343 110.614 15.3401 110.751 16.5627C110.915 18.0271 110.696 20.459 110.558 22.9436C110.448 24.9297 110.458 28.5101 110.382 29.9614C110.395 30.0058 110.408 30.0502 110.42 30.0963C111.387 32.0231 113.64 38.3135 114.112 40.3538C114.191 40.6944 114.117 41.0614 114.121 41.2967C114.122 41.4958 114.2 41.7393 114.366 42.0552C113.681 42.6459 113.076 42.9322 112.294 43.1231C112.21 42.9141 111.99 42.5587 111.871 42.3761C111.741 42.1753 111.136 41.9861 110.899 41.7047C109.647 40.2041 106.341 33.3443 105.938 31.5196C105.93 31.4949 105.926 31.4718 105.921 31.4472Z" fill="url(#paint32_linear)"/>
</g>
<defs>
<linearGradient id="paint0_linear" x1="58.6232" y1="42.1649" x2="103.136" y2="160.835" gradientUnits="userSpaceOnUse">
<stop stop-color="#F3FAFF"/>
<stop offset="1" stop-color="#B1DEFF"/>
</linearGradient>
<linearGradient id="paint1_linear" x1="81.7852" y1="26.6543" x2="31.7385" y2="72.0822" gradientUnits="userSpaceOnUse">
<stop offset="0.408369" stop-color="#D3EEFF"/>
<stop offset="1" stop-color="#95D2FF"/>
</linearGradient>
<linearGradient id="paint2_linear" x1="105" y1="-13.3271" x2="42.9795" y2="24.6143" gradientUnits="userSpaceOnUse">
<stop offset="0.229422" stop-color="#6FC2FF"/>
<stop offset="0.800395" stop-color="#99D6FF"/>
</linearGradient>
<linearGradient id="paint3_linear" x1="120.115" y1="-2.5234" x2="119.921" y2="18.5477" gradientUnits="userSpaceOnUse">
<stop stop-color="#0062AA"/>
<stop offset="1" stop-color="#00406F"/>
</linearGradient>
<linearGradient id="paint4_linear" x1="113.196" y1="-5.82008" x2="121.277" y2="41.4002" gradientUnits="userSpaceOnUse">
<stop stop-color="#0062AA"/>
<stop offset="1" stop-color="#00406F"/>
</linearGradient>
<linearGradient id="paint5_linear" x1="117.626" y1="43.5708" x2="118.656" y2="43.205" gradientUnits="userSpaceOnUse">
<stop stop-color="#FF8A78"/>
<stop offset="1" stop-color="#FFA799"/>
</linearGradient>
<linearGradient id="paint6_linear" x1="115.374" y1="5.93711" x2="130.135" y2="12.8368" gradientUnits="userSpaceOnUse">
<stop stop-color="#FEB483"/>
<stop offset="1" stop-color="#F7A058"/>
</linearGradient>
<linearGradient id="paint7_linear" x1="100.219" y1="6.23408" x2="112.588" y2="31.8996" gradientUnits="userSpaceOnUse">
<stop stop-color="#FFDAC1"/>
<stop offset="1" stop-color="#FAB072"/>
</linearGradient>
<linearGradient id="paint8_linear" x1="116.149" y1="12.8985" x2="114.904" y2="14.4118" gradientUnits="userSpaceOnUse">
<stop stop-color="#FF8A78"/>
<stop offset="1" stop-color="#FFA799"/>
</linearGradient>
<linearGradient id="paint9_linear" x1="83.1581" y1="80.583" x2="134.41" y2="132.881" gradientUnits="userSpaceOnUse">
<stop offset="0.424526" stop-color="white"/>
<stop offset="1" stop-color="#F2F2F2"/>
</linearGradient>
<linearGradient id="paint10_linear" x1="110.713" y1="67.5975" x2="108.828" y2="133.711" gradientUnits="userSpaceOnUse">
<stop stop-color="#F4FAFF"/>
<stop offset="1" stop-color="#007AD3"/>
</linearGradient>
<linearGradient id="paint11_linear" x1="84.939" y1="109.658" x2="92.0057" y2="110.034" gradientUnits="userSpaceOnUse">
<stop stop-color="#007AD3"/>
<stop offset="0.953125" stop-color="#2FA6F7"/>
</linearGradient>
<linearGradient id="paint12_linear" x1="34.3677" y1="138.298" x2="44.8565" y2="139.671" gradientUnits="userSpaceOnUse">
<stop stop-color="#1197F9"/>
<stop offset="0.953125" stop-color="#5CBEFF"/>
</linearGradient>
<linearGradient id="paint13_linear" x1="33.6699" y1="136.74" x2="45.4647" y2="137.553" gradientUnits="userSpaceOnUse">
<stop stop-color="#1197F9"/>
<stop offset="0.953125" stop-color="#5CBEFF"/>
</linearGradient>
<linearGradient id="paint14_linear" x1="150.485" y1="62.619" x2="168.135" y2="63.8444" gradientUnits="userSpaceOnUse">
<stop stop-color="#007AD3"/>
<stop offset="0.953125" stop-color="#2FA6F7"/>
</linearGradient>
<linearGradient id="paint15_linear" x1="83.5049" y1="52.8617" x2="17.299" y2="142.712" gradientUnits="userSpaceOnUse">
<stop offset="0.424526" stop-color="white"/>
<stop offset="1" stop-color="#F2F2F2"/>
</linearGradient>
<linearGradient id="paint16_linear" x1="80.5073" y1="78.3864" x2="75.9962" y2="78.6965" gradientUnits="userSpaceOnUse">
<stop stop-color="#007AD3"/>
<stop offset="0.953125" stop-color="#2FA6F7"/>
</linearGradient>
<linearGradient id="paint17_linear" x1="90.9233" y1="78.2365" x2="72.2054" y2="80" gradientUnits="userSpaceOnUse">
<stop stop-color="#007AD3"/>
<stop offset="0.953125" stop-color="#2FA6F7"/>
</linearGradient>
<linearGradient id="paint18_linear" x1="135.702" y1="20.1997" x2="95.1232" y2="78.083" gradientUnits="userSpaceOnUse">
<stop stop-color="#FFDAC1"/>
<stop offset="1" stop-color="#FAB072"/>
</linearGradient>
<linearGradient id="paint19_linear" x1="114.459" y1="60.8629" x2="107.566" y2="69.7804" gradientUnits="userSpaceOnUse">
<stop stop-color="#FFDAC1"/>
<stop offset="1" stop-color="#FAB072"/>
</linearGradient>
<linearGradient id="paint20_linear" x1="26.4677" y1="-6.46872" x2="24.3808" y2="32.5698" gradientUnits="userSpaceOnUse">
<stop stop-color="#007AD3"/>
<stop offset="1" stop-color="#F4FAFF"/>
</linearGradient>
<linearGradient id="paint21_linear" x1="127.931" y1="163.14" x2="128.514" y2="173.347" gradientUnits="userSpaceOnUse">
<stop stop-color="#0062AA"/>
<stop offset="1" stop-color="#00406F"/>
</linearGradient>
<linearGradient id="paint22_linear" x1="117.688" y1="156.769" x2="118.632" y2="169.176" gradientUnits="userSpaceOnUse">
<stop stop-color="#0062AA"/>
<stop offset="1" stop-color="#00406F"/>
</linearGradient>
<linearGradient id="paint23_linear" x1="124.583" y1="110.211" x2="147.617" y2="166.325" gradientUnits="userSpaceOnUse">
<stop stop-color="#0062AA"/>
<stop offset="1" stop-color="#00406F"/>
</linearGradient>
<linearGradient id="paint24_linear" x1="124.08" y1="158.14" x2="125.959" y2="160.836" gradientUnits="userSpaceOnUse">
<stop stop-color="#3773B9"/>
<stop offset="1" stop-color="#003C76"/>
</linearGradient>
<linearGradient id="paint25_linear" x1="122.474" y1="112.232" x2="138.616" y2="176.381" gradientUnits="userSpaceOnUse">
<stop stop-color="#0062AA"/>
<stop offset="1" stop-color="#00406F"/>
</linearGradient>
<linearGradient id="paint26_linear" x1="133.702" y1="163.635" x2="136.541" y2="164.361" gradientUnits="userSpaceOnUse">
<stop stop-color="#3773B9"/>
<stop offset="1" stop-color="#003C76"/>
</linearGradient>
<linearGradient id="paint27_linear" x1="115.928" y1="74.0594" x2="112.336" y2="68.9257" gradientUnits="userSpaceOnUse">
<stop stop-color="#FF8A78"/>
<stop offset="1" stop-color="#FFA799"/>
</linearGradient>
<linearGradient id="paint28_linear" x1="124.091" y1="93.2244" x2="124.859" y2="95.1537" gradientUnits="userSpaceOnUse">
<stop stop-color="#FF8A78"/>
<stop offset="1" stop-color="#FFA799"/>
</linearGradient>
<linearGradient id="paint29_linear" x1="121.491" y1="87.8231" x2="122.623" y2="89.9966" gradientUnits="userSpaceOnUse">
<stop stop-color="#FFB89E"/>
<stop offset="1" stop-color="#FFA799"/>
</linearGradient>
<linearGradient id="paint30_linear" x1="98.5501" y1="95.4402" x2="95.2002" y2="91.0147" gradientUnits="userSpaceOnUse">
<stop stop-color="#FF8A78"/>
<stop offset="1" stop-color="#FFA799"/>
</linearGradient>
<linearGradient id="paint31_linear" x1="113.76" y1="46.7446" x2="114.621" y2="46.3461" gradientUnits="userSpaceOnUse">
<stop stop-color="#FF8A78"/>
<stop offset="1" stop-color="#FFA799"/>
</linearGradient>
<linearGradient id="paint32_linear" x1="106.869" y1="9.27286" x2="123.937" y2="19.7458" gradientUnits="userSpaceOnUse">
<stop stop-color="#FEB483"/>
<stop offset="1" stop-color="#F7A058"/>
</linearGradient>
<clipPath id="clip0">
<rect width="180" height="180" fill="white"/>
</clipPath>
</defs>
</svg>
