<svg width="112" height="110" viewBox="0 0 112 110" fill="none" xmlns="http://www.w3.org/2000/svg">
<path d="M20.1263 97.248C1.79273 80.5255 -3.11978 52.7511 9.79736 30.3779C24.7091 4.55012 57.7349 -4.29914 83.5627 10.6125C105.18 23.0931 114.903 48.2628 108.756 71.281" stroke="url(#paint0_linear)" stroke-width="2"/>
<path d="M57 105C83.5097 105 105 83.5097 105 57C105 30.4903 83.5097 9 57 9C30.4903 9 9 30.4903 9 57C9 83.5097 30.4903 105 57 105Z" fill="#BFE5FF"/>
<path opacity="0.1" d="M57 74C47.6112 74 40 66.3888 40 57C40 47.6112 47.6112 40 57 40C66.3888 40 74 47.6112 74 57C74 66.3888 66.3888 74 57 74Z" fill="#128BE1"/>
<path d="M47.9847 45.024V36.12H63.4967V77H53.5287V45.024H47.9847Z" fill="white"/>
<path opacity="0.5" d="M44.9847 43.024H43.9847V44.024H44.9847V43.024ZM44.9847 34.12V33.12H43.9847V34.12H44.9847ZM60.4967 34.12H61.4967V33.12H60.4967V34.12ZM60.4967 75V76H61.4967V75H60.4967ZM50.5287 75H49.5287V76H50.5287V75ZM50.5287 43.024H51.5287V42.024H50.5287V43.024ZM45.9847 43.024V34.12H43.9847V43.024H45.9847ZM44.9847 35.12H60.4967V33.12H44.9847V35.12ZM59.4967 34.12V75H61.4967V34.12H59.4967ZM60.4967 74H50.5287V76H60.4967V74ZM51.5287 75V43.024H49.5287V75H51.5287ZM50.5287 42.024H44.9847V44.024H50.5287V42.024Z" fill="#128BE1"/>
<defs>
<linearGradient id="paint0_linear" x1="42.4327" y1="-21.4302" x2="124.708" y2="10.2953" gradientUnits="userSpaceOnUse">
<stop offset="0.0420291" stop-color="#6CC1FF"/>
<stop offset="1" stop-color="#8AD0FF"/>
</linearGradient>
</defs>
</svg>
