<svg width="113" height="112" viewBox="0 0 113 112" fill="none" xmlns="http://www.w3.org/2000/svg">
<path d="M93.7817 16.1257C112.115 32.8482 117.028 60.6226 104.111 82.9957C89.1989 108.824 56.173 117.673 30.3452 102.761C8.72828 90.2806 -0.995039 65.1109 5.15179 42.0926" stroke="url(#paint0_linear)" stroke-width="2"/>
<path d="M57 105C83.5097 105 105 83.5097 105 57C105 30.4903 83.5097 9 57 9C30.4903 9 9 30.4903 9 57C9 83.5097 30.4903 105 57 105Z" fill="#BFE5FF"/>
<path opacity="0.1" d="M57 74C47.6112 74 40 66.3888 40 57C40 47.6112 47.6112 40 57 40C66.3888 40 74 47.6112 74 57C74 66.3888 66.3888 74 57 74Z" fill="#128BE1"/>
<path d="M42.9029 47.656C43.0522 43.6613 44.3589 40.5813 46.8229 38.416C49.2869 36.2507 52.6282 35.168 56.8469 35.168C59.6469 35.168 62.0362 35.6533 64.0149 36.624C66.0309 37.5947 67.5429 38.92 68.5509 40.6C69.5962 42.28 70.1189 44.1653 70.1189 46.256C70.1189 48.72 69.5029 50.736 68.2709 52.304C67.0389 53.8347 65.6015 54.88 63.9589 55.44V55.664C66.0869 56.3733 67.7669 57.5493 68.9989 59.192C70.2309 60.8347 70.8469 62.944 70.8469 65.52C70.8469 67.8347 70.3055 69.888 69.2229 71.68C68.1775 73.4347 66.6282 74.816 64.5749 75.824C62.5589 76.832 60.1509 77.336 57.3509 77.336C52.8709 77.336 49.2869 76.2347 46.5989 74.032C43.9482 71.8293 42.5482 68.5067 42.3989 64.064H51.6949C51.7322 65.7067 52.1989 67.0133 53.0949 67.984C53.9909 68.9173 55.2975 69.384 57.0149 69.384C58.4709 69.384 59.5909 68.9733 60.3749 68.152C61.1962 67.2933 61.6069 66.1733 61.6069 64.792C61.6069 63 61.0282 61.712 59.8709 60.928C58.7509 60.1067 56.9402 59.696 54.4389 59.696H52.6469V51.912H54.4389C56.3429 51.912 57.8735 51.5947 59.0309 50.96C60.2255 50.288 60.8229 49.112 60.8229 47.432C60.8229 46.088 60.4495 45.0427 59.7029 44.296C58.9562 43.5493 57.9295 43.176 56.6229 43.176C55.2042 43.176 54.1402 43.6053 53.4309 44.464C52.7589 45.3227 52.3669 46.3867 52.2549 47.656H42.9029Z" fill="white"/>
<path opacity="0.5" d="M39.9029 45.656L38.9036 45.6186L38.8648 46.656H39.9029V45.656ZM43.8229 36.416L44.483 37.1672L44.483 37.1672L43.8229 36.416ZM61.0149 34.624L60.5744 35.5218L60.5811 35.525L61.0149 34.624ZM65.5509 38.6L64.6934 39.1145L64.6975 39.1214L64.7018 39.1283L65.5509 38.6ZM65.2709 50.304L66.0499 50.9311L66.0572 50.9218L65.2709 50.304ZM60.9589 53.44L60.6362 52.4935L59.9589 52.7244V53.44H60.9589ZM60.9589 53.664H59.9589V54.3848L60.6426 54.6127L60.9589 53.664ZM65.9989 57.192L66.7989 56.592L65.9989 57.192ZM66.2229 69.68L65.3669 69.1629L65.3638 69.1682L66.2229 69.68ZM61.5749 73.824L61.1342 72.9263L61.1277 72.9296L61.5749 73.824ZM43.5989 72.032L42.9597 72.8011L42.9651 72.8055L43.5989 72.032ZM39.3989 62.064V61.064H38.3647L38.3994 62.0976L39.3989 62.064ZM48.6949 62.064L49.6946 62.0413L49.6724 61.064H48.6949V62.064ZM50.0949 65.984L49.3601 66.6623L49.3667 66.6695L49.3735 66.6765L50.0949 65.984ZM57.3749 66.152L56.6522 65.4608L56.6515 65.4615L57.3749 66.152ZM56.8709 58.928L56.2795 59.7344L56.2946 59.7454L56.31 59.7559L56.8709 58.928ZM49.6469 57.696H48.6469V58.696H49.6469V57.696ZM49.6469 49.912V48.912H48.6469V49.912H49.6469ZM56.0309 48.96L56.5117 49.8369L56.5211 49.8316L56.0309 48.96ZM56.7029 42.296L57.41 41.5889L57.41 41.5889L56.7029 42.296ZM50.4309 42.464L49.6599 41.8271L49.6515 41.8373L49.6434 41.8477L50.4309 42.464ZM49.2549 45.656V46.656H50.1705L50.251 45.7439L49.2549 45.656ZM40.9022 45.6934C41.0437 41.9086 42.2692 39.1126 44.483 37.1672L43.1628 35.6648C40.4486 38.05 39.0608 41.414 38.9036 45.6186L40.9022 45.6934ZM44.483 37.1672C46.7172 35.2038 49.7998 34.168 53.8469 34.168V32.168C49.4566 32.168 45.8565 33.2976 43.1628 35.6648L44.483 37.1672ZM53.8469 34.168C56.5343 34.168 58.7648 34.634 60.5745 35.5218L61.4553 33.7262C59.3076 32.6726 56.7595 32.168 53.8469 32.168V34.168ZM60.5811 35.525C62.4468 36.4233 63.7996 37.6248 64.6934 39.1145L66.4084 38.0855C65.2862 36.2152 63.6149 34.766 61.4487 33.723L60.5811 35.525ZM64.7018 39.1283C65.6428 40.6406 66.1189 42.341 66.1189 44.256H68.1189C68.1189 41.9896 67.5496 39.9194 66.3999 38.0717L64.7018 39.1283ZM66.1189 44.256C66.1189 46.55 65.548 48.3326 64.4846 49.6862L66.0572 50.9218C67.4577 49.1393 68.1189 46.89 68.1189 44.256H66.1189ZM64.4919 49.677C63.3625 51.0801 62.0767 52.0024 60.6362 52.4935L61.2815 54.3865C63.1264 53.7576 64.7152 52.5892 66.0499 50.931L64.4919 49.677ZM59.9589 53.44V53.664H61.9589V53.44H59.9589ZM60.6426 54.6127C62.5964 55.2639 64.1002 56.3271 65.1989 57.792L66.7989 56.592C65.4335 54.7715 63.5774 53.4827 61.2751 52.7153L60.6426 54.6127ZM65.1989 57.792C66.2711 59.2217 66.8469 61.1045 66.8469 63.52H68.8469C68.8469 60.7835 68.1906 58.4477 66.7989 56.592L65.1989 57.792ZM66.8469 63.52C66.8469 65.6722 66.3456 67.543 65.367 69.1629L67.0788 70.1971C68.2655 68.233 68.8469 65.9971 68.8469 63.52H66.8469ZM65.3638 69.1682C64.4292 70.7369 63.0352 71.9931 61.1342 72.9263L62.0155 74.7217C64.2212 73.6389 65.9259 72.1324 67.082 70.1918L65.3638 69.1682ZM61.1277 72.9296C59.2801 73.8534 57.0324 74.336 54.3509 74.336V76.336C57.2693 76.336 59.8377 75.8106 62.0221 74.7184L61.1277 72.9296ZM54.3509 74.336C50.0341 74.336 46.6957 73.2768 44.2327 71.2585L42.9651 72.8055C45.8781 75.1925 49.7077 76.336 54.3509 76.336V74.336ZM44.238 71.2629C41.8667 69.2923 40.541 66.2758 40.3983 62.0304L38.3994 62.0976C38.5554 66.7375 40.0298 70.3663 42.9598 72.8011L44.238 71.2629ZM39.3989 63.064H48.6949V61.064H39.3989V63.064ZM47.6951 62.0867C47.7366 63.9112 48.2614 65.472 49.3601 66.6623L50.8297 65.3057C50.1364 64.5547 49.7278 63.5021 49.6946 62.0413L47.6951 62.0867ZM49.3735 66.6765C50.5139 67.8645 52.1181 68.384 54.0149 68.384V66.384C52.477 66.384 51.4678 65.9702 50.8163 65.2915L49.3735 66.6765ZM54.0149 68.384C55.6628 68.384 57.0759 67.9135 58.0982 66.8425L56.6515 65.4615C56.1059 66.0332 55.279 66.384 54.0149 66.384V68.384ZM58.0975 66.8432C59.1257 65.7683 59.6069 64.3859 59.6069 62.792H57.6069C57.6069 63.9607 57.2668 64.8183 56.6522 65.4608L58.0975 66.8432ZM59.6069 62.792C59.6069 60.7731 58.9404 59.1221 57.4317 58.1001L56.31 59.7559C57.116 60.3019 57.6069 61.2269 57.6069 62.792H59.6069ZM57.4622 58.1216C56.0803 57.1082 54.0035 56.696 51.4389 56.696V58.696C53.8769 58.696 55.4214 59.1051 56.2795 59.7344L57.4622 58.1216ZM51.4389 56.696H49.6469V58.696H51.4389V56.696ZM50.6469 57.696V49.912H48.6469V57.696H50.6469ZM49.6469 50.912H51.4389V48.912H49.6469V50.912ZM51.4389 50.912C53.4414 50.912 55.1561 50.5802 56.5117 49.8368L55.55 48.0832C54.591 48.6091 53.2444 48.912 51.4389 48.912V50.912ZM56.5211 49.8316C58.1063 48.9399 58.8229 47.3772 58.8229 45.432H56.8229C56.8229 46.8468 56.3448 47.6361 55.5406 48.0884L56.5211 49.8316ZM58.8229 45.432C58.8229 43.8987 58.3918 42.5707 57.41 41.5889L55.9958 43.0031C56.5073 43.5146 56.8229 44.2773 56.8229 45.432H58.8229ZM57.41 41.5889C56.4333 40.6123 55.128 40.176 53.6229 40.176V42.176C54.7311 42.176 55.4791 42.4864 55.9958 43.0031L57.41 41.5889ZM53.6229 40.176C51.9944 40.176 50.6092 40.678 49.6599 41.8271L51.2018 43.1009C51.6713 42.5326 52.414 42.176 53.6229 42.176V40.176ZM49.6434 41.8477C48.8332 42.8829 48.3848 44.1393 48.2587 45.5681L50.251 45.7439C50.3489 44.634 50.6845 43.7625 51.2184 43.0803L49.6434 41.8477ZM49.2549 44.656H39.9029V46.656H49.2549V44.656Z" fill="#128BE1"/>
<defs>
<linearGradient id="paint0_linear" x1="71.4753" y1="134.804" x2="-10.8004" y2="103.078" gradientUnits="userSpaceOnUse">
<stop offset="0.0420291" stop-color="#6CC1FF"/>
<stop offset="1" stop-color="#8AD0FF"/>
</linearGradient>
</defs>
</svg>
