<svg width="112" height="110" viewBox="0 0 112 110" fill="none" xmlns="http://www.w3.org/2000/svg">
<path d="M5.18952 73.0756C-2.32654 49.4267 7.3063 22.9171 29.6795 10C55.5073 -4.91169 88.5331 3.93757 103.445 29.7654C115.925 51.3823 111.761 78.0416 94.9287 94.9026" stroke="url(#paint0_linear)" stroke-width="2"/>
<path d="M57 105C83.5097 105 105 83.5097 105 57C105 30.4903 83.5097 9 57 9C30.4903 9 9 30.4903 9 57C9 83.5097 30.4903 105 57 105Z" fill="#BFE5FF"/>
<path opacity="0.1" d="M57 74C47.6112 74 40 66.3888 40 57C40 47.6112 47.6112 40 57 40C66.3888 40 74 47.6112 74 57C74 66.3888 66.3888 74 57 74Z" fill="#128BE1"/>
<path d="M43.1879 69.328C44.4572 68.32 45.0359 67.8533 44.9239 67.928C48.5826 64.904 51.4572 62.4213 53.5479 60.48C55.6759 58.5387 57.4679 56.504 58.9239 54.376C60.3799 52.248 61.1079 50.176 61.1079 48.16C61.1079 46.6293 60.7532 45.4347 60.0439 44.576C59.3346 43.7173 58.2706 43.288 56.8519 43.288C55.4332 43.288 54.3132 43.8293 53.4919 44.912C52.7079 45.9573 52.3159 47.4507 52.3159 49.392H43.0759C43.1506 46.2187 43.8226 43.568 45.0919 41.44C46.3986 39.312 48.0972 37.744 50.1879 36.736C52.3159 35.728 54.6679 35.224 57.2439 35.224C61.6866 35.224 65.0279 36.3627 67.2679 38.64C69.5452 40.9173 70.6839 43.8853 70.6839 47.544C70.6839 51.5387 69.3212 55.2533 66.5959 58.688C63.8706 62.0853 60.3986 65.408 56.1799 68.656H71.2999V76.44H43.1879V69.328Z" fill="white"/>
<path opacity="0.5" d="M40.1879 67.328L39.566 66.5449L39.1879 66.8452V67.328H40.1879ZM41.9239 65.928L41.2868 65.1572L42.4786 66.7601L41.9239 65.928ZM50.5479 58.48L49.8739 57.7412L49.8675 57.7472L50.5479 58.48ZM57.0439 42.576L56.2729 43.2129L56.2729 43.2129L57.0439 42.576ZM50.4919 42.912L49.6952 42.3076L49.6919 42.312L50.4919 42.912ZM49.3159 47.392V48.392H50.3159V47.392H49.3159ZM40.0759 47.392L39.0762 47.3685L39.0521 48.392H40.0759V47.392ZM42.0919 39.44L41.2397 38.9167L41.2331 38.9277L42.0919 39.44ZM47.1879 34.736L46.7598 33.8322L46.7536 33.8352L47.1879 34.736ZM64.2679 36.64L63.555 37.3413L63.5608 37.3471L64.2679 36.64ZM63.5959 56.688L64.376 57.3137L64.3793 57.3096L63.5959 56.688ZM53.1799 66.656L52.5699 65.8636L50.2418 67.656H53.1799V66.656ZM68.2999 66.656H69.2999V65.656H68.2999V66.656ZM68.2999 74.44V75.44H69.2999V74.44H68.2999ZM40.1879 74.44H39.1879V75.44H40.1879V74.44ZM40.8098 68.1111C41.4447 67.6069 41.9092 67.2363 42.2017 67.0004C42.3463 66.8838 42.4548 66.7953 42.5216 66.7392C42.5411 66.7228 42.5961 66.677 42.6406 66.6325C42.6494 66.6237 42.6643 66.6086 42.6816 66.5891C42.6931 66.5763 42.7331 66.5314 42.7748 66.4675C42.7938 66.4385 42.8395 66.3659 42.8768 66.2637C42.8993 66.2022 43.0097 65.8979 42.8622 65.5396C42.6678 65.0676 42.2383 64.945 42.0348 64.925C41.8538 64.9073 41.7144 64.9445 41.6737 64.9556C41.5719 64.9833 41.4976 65.0217 41.4835 65.0289C41.4556 65.043 41.4338 65.0556 41.4222 65.0625C41.3983 65.0767 41.3789 65.0895 41.3692 65.0959L42.4786 66.7601C42.4759 66.7619 42.4622 66.771 42.4426 66.7826C42.4331 66.7883 42.4131 66.7999 42.3867 66.8133C42.3741 66.8197 42.3009 66.8576 42.1999 66.8851C42.1597 66.8961 42.0205 66.9332 41.8397 66.9155C41.6365 66.8956 41.2071 66.773 41.0128 66.3012C40.8654 65.9431 40.9758 65.639 40.9981 65.5778C41.0353 65.4759 41.0809 65.4036 41.0996 65.375C41.1407 65.3119 41.1798 65.2682 41.1901 65.2567C41.2063 65.2386 41.2196 65.2251 41.2264 65.2183C41.2558 65.1889 41.2741 65.1752 41.2352 65.2078C41.1854 65.2497 41.0909 65.3269 40.9462 65.4436C40.66 65.6744 40.2005 66.0411 39.566 66.5449L40.8098 68.1111ZM42.561 66.6988C46.2262 63.6694 49.1175 61.1729 51.2284 59.2128L49.8675 57.7472C47.797 59.6697 44.939 62.1386 41.2868 65.1572L42.561 66.6988ZM51.2219 59.2188C53.4003 57.2314 55.2449 55.1393 56.7492 52.9407L55.0986 51.8113C53.6909 53.8687 51.9515 55.8459 49.8739 57.7412L51.2219 59.2188ZM56.7492 52.9407C58.2874 50.6926 59.1079 48.4271 59.1079 46.16H57.1079C57.1079 47.9249 56.4724 49.8034 55.0986 51.8113L56.7492 52.9407ZM59.1079 46.16C59.1079 44.4834 58.7193 43.034 57.8149 41.9391L56.2729 43.2129C56.7872 43.8354 57.1079 44.7753 57.1079 46.16H59.1079ZM57.8149 41.9391C56.8656 40.79 55.4804 40.288 53.8519 40.288V42.288C55.0608 42.288 55.8035 42.6446 56.2729 43.2129L57.8149 41.9391ZM53.8519 40.288C52.1365 40.288 50.7151 40.9632 49.6952 42.3076L51.2886 43.5164C51.9114 42.6955 52.73 42.288 53.8519 42.288V40.288ZM49.6919 42.312C48.7286 43.5964 48.3159 45.3346 48.3159 47.392H50.3159C50.3159 45.5668 50.6872 44.3183 51.2919 43.512L49.6919 42.312ZM49.3159 46.392H40.0759V48.392H49.3159V46.392ZM41.0756 47.4155C41.1474 44.3671 41.7912 41.8962 42.9507 39.9523L41.2331 38.9277C39.854 41.2398 39.1538 44.0702 39.0762 47.3685L41.0756 47.4155ZM42.9441 39.9633C44.1584 37.9856 45.7173 36.5552 47.6222 35.6368L46.7536 33.8352C44.4772 34.9328 42.6387 36.6384 41.2397 38.9167L42.9441 39.9633ZM47.616 35.6397C49.598 34.7009 51.8019 34.224 54.2439 34.224V32.224C51.5339 32.224 49.0338 32.7551 46.7598 33.8323L47.616 35.6397ZM54.2439 34.224C58.5254 34.224 61.5666 35.3197 63.555 37.3412L64.9808 35.9388C62.4892 33.4056 58.8478 32.224 54.2439 32.224V34.224ZM63.5608 37.3471C65.6245 39.4109 66.6839 42.1113 66.6839 45.544H68.6839C68.6839 41.6594 67.4659 38.4238 64.975 35.9329L63.5608 37.3471ZM66.6839 45.544C66.6839 49.2906 65.4122 52.7902 62.8126 56.0664L64.3793 57.3096C67.2303 53.7165 68.6839 49.7867 68.6839 45.544H66.6839ZM62.8159 56.0623C60.1499 59.3855 56.7388 62.6539 52.5699 65.8636L53.79 67.4484C58.0583 64.1621 61.5912 60.7851 64.3759 57.3137L62.8159 56.0623ZM53.1799 67.656H68.2999V65.656H53.1799V67.656ZM67.2999 66.656V74.44H69.2999V66.656H67.2999ZM68.2999 73.44H40.1879V75.44H68.2999V73.44ZM41.1879 74.44V67.328H39.1879V74.44H41.1879Z" fill="#128BE1"/>
<defs>
<linearGradient id="paint0_linear" x1="83.8465" y1="-18.5495" x2="139.237" y2="50.0635" gradientUnits="userSpaceOnUse">
<stop offset="0.0420291" stop-color="#6CC1FF"/>
<stop offset="1" stop-color="#8AD0FF"/>
</linearGradient>
</defs>
</svg>
