<svg width="180" height="180" viewBox="0 0 180 180" fill="none" xmlns="http://www.w3.org/2000/svg">
<path d="M18.0832 61.3094L109.826 8.32824C110.474 7.95405 111 8.25742 111 9.0058L111 90.3225C110.978 90.7297 110.86 91.126 110.656 91.4792C110.452 91.8323 110.168 92.1325 109.826 92.3552L18.0833 145.336C17.4352 145.711 16.9098 145.407 16.9098 144.659L16.9097 63.3421C16.9317 62.9349 17.0495 62.5386 17.2534 62.1855C17.4573 61.8323 17.7416 61.5322 18.0832 61.3094Z" fill="url(#paint0_linear)"/>
<path d="M16.9103 63.3432V73.7346L111 19.3257V9.00686C111 8.25864 110.473 7.95355 109.827 8.32765L18.0835 61.3092C17.7416 61.5319 17.4571 61.8322 17.2532 62.1857C17.0494 62.5391 16.9318 62.9357 16.9103 63.3432Z" fill="#1D232B"/>
<path d="M101.828 20.059C102.155 19.8458 102.427 19.5585 102.622 19.2204C102.817 18.8823 102.93 18.503 102.951 18.1132C102.951 17.3969 102.448 17.1066 101.828 17.4646C101.501 17.6778 101.229 17.9651 101.034 18.3032C100.838 18.6413 100.726 19.0206 100.704 19.4104C100.704 20.1269 101.207 20.4173 101.828 20.059Z" fill="#FAFAFA"/>
<path d="M105.517 17.9403C105.844 17.7271 106.117 17.4398 106.312 17.1017C106.507 16.7637 106.62 16.3843 106.641 15.9945C106.641 15.2782 106.138 14.9877 105.517 15.3459C105.19 15.5591 104.918 15.8464 104.723 16.1845C104.528 16.5226 104.415 16.9019 104.394 17.2917C104.394 18.008 104.897 18.2985 105.517 17.9403Z" fill="#FAFAFA"/>
<path d="M98.1401 22.1798C98.4671 21.9666 98.7392 21.6793 98.9344 21.3413C99.1296 21.0032 99.2423 20.6239 99.2634 20.2342C99.2634 19.5177 98.7606 19.2273 98.1401 19.5856C97.8131 19.7987 97.5409 20.086 97.3457 20.424C97.1505 20.7621 97.0378 21.1414 97.0167 21.5312C97.0168 22.2477 97.5197 22.538 98.1401 22.1798Z" fill="#FAFAFA"/>
<path d="M115.977 0.203663C115.768 0.211235 115.566 0.273189 115.389 0.383362L12.5195 59.7899C12.1365 60.0396 11.8177 60.3761 11.5891 60.7722C11.3604 61.1682 11.2284 61.6125 11.2037 62.0691L11.2038 153.248C11.2038 153.843 11.5002 154.187 11.9319 154.187C12.1401 154.18 12.3427 154.118 12.5196 154.007L115.389 94.6007C115.772 94.351 116.091 94.0145 116.319 93.6184C116.548 93.2224 116.68 92.7781 116.705 92.3215L116.705 1.14309C116.705 0.547789 116.408 0.203663 115.977 0.203663ZM115.977 2.21686e-05C116.543 2.21686e-05 116.908 0.448702 116.908 1.14309L116.908 92.3215C116.885 92.8142 116.744 93.2942 116.498 93.7214C116.251 94.1486 115.906 94.5105 115.491 94.7771L12.6214 154.184C12.4138 154.312 12.1759 154.384 11.9319 154.391C11.3659 154.391 11.0001 153.942 11.0001 153.248L11.0001 62.0691C11.0233 61.5764 11.1641 61.0964 11.4108 60.6692C11.6574 60.242 12.0027 59.8801 12.4177 59.6136L115.287 0.207033C115.495 0.0785279 115.732 0.00710854 115.977 0V2.21686e-05Z" fill="#455A64"/>
<g opacity="0.2">
<path opacity="0.2" d="M24.1643 73.4369C23.4522 73.8475 22.8757 74.846 22.8757 75.6673L22.8833 152.121L48.4508 137.367C49.1629 136.956 49.7393 135.958 49.7393 135.136L49.7318 58.6826L24.1643 73.4369Z" fill="black"/>
</g>
<path d="M27.642 75.5601C26.9383 75.9715 26.3687 76.9718 26.3687 77.7947L26.3761 154.391L51.6421 139.609C52.3458 139.198 52.9155 138.197 52.9155 137.375L52.9087 67.752C52.9084 64.6628 49.5553 62.7399 46.8888 64.2999L27.642 75.5601Z" fill="white"/>
<path d="M27.3408 149.74L27.3257 147.702C27.3219 147.163 27.6836 146.515 28.1358 146.255L46.5447 135.627C46.9968 135.367 47.3622 135.593 47.3622 136.131L47.366 138.181C47.366 138.72 47.0006 139.368 46.5522 139.628L28.1659 150.245C27.7138 150.505 27.3446 150.279 27.3408 149.74Z" fill="#EBEBEB"/>
<path d="M49.6999 133.995C50.6342 133.456 51.3953 133.893 51.3953 134.975C51.3953 136.056 50.638 137.367 49.6999 137.91C48.7655 138.448 48.0044 138.011 48.0044 136.93C48.0044 135.849 48.7655 134.534 49.6999 133.995Z" fill="url(#paint1_linear)"/>
<path d="M50.6577 135.302L49.859 134.534C49.8552 134.53 49.8477 134.53 49.8439 134.526C49.8251 134.507 49.8025 134.496 49.7761 134.485C49.7648 134.481 49.7535 134.481 49.7384 134.477C49.7234 134.473 49.7121 134.47 49.697 134.47C49.6894 134.47 49.6819 134.473 49.6706 134.473C49.6631 134.473 49.6593 134.47 49.6518 134.473C49.6442 134.473 49.6405 134.481 49.6329 134.481C49.6103 134.489 49.5915 134.496 49.5726 134.507C49.5613 134.515 49.5538 134.519 49.5463 134.526C49.5274 134.545 49.5124 134.564 49.4973 134.587C49.4935 134.59 49.4898 134.594 49.486 134.602L48.6872 136.293C48.6345 136.406 48.6835 136.546 48.7965 136.598C48.8266 136.614 48.8605 136.621 48.8945 136.621C48.9811 136.621 49.064 136.572 49.1017 136.489L49.4634 135.724V137.284C49.4634 137.412 49.5651 137.514 49.6932 137.514C49.8213 137.514 49.923 137.412 49.923 137.284V135.238L50.33 135.63C50.4204 135.717 50.5673 135.717 50.654 135.623C50.7519 135.536 50.7519 135.389 50.6577 135.302Z" fill="#FAFAFA"/>
<path d="M30.0478 80.9043C30.9144 80.4032 31.6152 80.8101 31.6152 81.8085C31.6152 82.807 30.9144 84.0202 30.0478 84.5213C29.185 85.0186 28.4842 84.6155 28.4805 83.617C28.4842 82.6148 29.185 81.4016 30.0478 80.9043Z" fill="url(#paint2_linear)"/>
<path d="M32.7064 81.4055L32.7027 81.1719C32.6989 80.6745 33.0568 80.0679 33.4713 79.8268L38.893 76.7072C39.3112 76.466 39.6465 76.677 39.6465 77.1743L39.6503 77.4268C39.6503 77.9241 39.3149 78.5232 38.8967 78.7643L33.4939 81.8689C33.0832 82.1138 32.7102 81.9028 32.7064 81.4055Z" fill="#EBEBEB"/>
<path d="M48.7036 76.6695C49.5701 76.1684 50.2709 76.5753 50.2709 77.5737C50.2709 78.5722 49.5701 79.7854 48.7036 80.2865C47.8408 80.7838 47.14 80.3807 47.1362 79.3822C47.1362 78.38 47.837 77.1668 48.7036 76.6695Z" fill="url(#paint3_linear)"/>
<path d="M48.708 106.065C49.5746 105.564 50.2753 105.971 50.2753 106.969C50.2753 107.968 49.5746 109.181 48.708 109.682C47.8452 110.183 47.1444 109.776 47.1406 108.778C47.1444 107.779 47.8452 106.566 48.708 106.065Z" fill="url(#paint4_linear)"/>
<path d="M34.8997 86.6804L34.9185 86.4392C34.9147 85.9419 35.2501 85.3429 35.6683 85.1017L45.2834 79.5632C45.7016 79.3221 46.0369 79.5331 46.0369 80.0304L46.0407 80.2829C46.0407 80.7802 45.7054 81.3793 45.2872 81.6204L35.6909 87.1476C35.2764 87.3887 34.9034 87.1777 34.8997 86.6804Z" fill="#EBEBEB"/>
<path d="M32.7071 97.6481V97.4069C32.7033 96.9096 33.0575 96.3105 33.4719 96.0694L41.7721 91.2807C42.1903 91.0396 42.5257 91.2506 42.5257 91.7479L42.5294 92.0003C42.5294 92.4977 42.1941 93.0967 41.7759 93.3379L33.4945 98.1153C33.0838 98.3564 32.7108 98.1492 32.7071 97.6481Z" fill="#EBEBEB"/>
<path d="M30.0478 93.9669C30.9144 93.4658 31.6152 93.8727 31.6152 94.8712C31.6152 95.8696 30.9144 97.0828 30.0478 97.5839C29.185 98.085 28.4842 97.6781 28.4805 96.6796C28.4842 95.6812 29.185 94.468 30.0478 93.9669Z" fill="url(#paint5_linear)"/>
<path d="M32.7071 94.4681V94.227C32.7033 93.7297 33.0575 93.1306 33.4719 92.8895L44.8315 86.3412C45.2497 86.1001 45.585 86.3111 45.585 86.8084L45.5888 87.0609C45.5888 87.5582 45.2535 88.1573 44.8352 88.3984L33.4945 94.9353C33.0838 95.1764 32.7108 94.9655 32.7071 94.4681Z" fill="#EBEBEB"/>
<path d="M34.9104 119.233V118.992C34.9067 118.495 35.2608 117.896 35.6753 117.655L45.2904 112.116C45.7086 111.875 46.0439 112.086 46.0439 112.583L46.0477 112.836C46.0477 113.333 45.7124 113.932 45.2942 114.173L35.6979 119.7C35.2872 119.942 34.9142 119.734 34.9104 119.233Z" fill="#EBEBEB"/>
<path d="M31.8443 117.824V117.583C31.8405 117.086 32.1947 116.487 32.6091 116.246L45.2836 108.948C45.7018 108.706 46.0447 108.914 46.0447 109.411V109.667C46.0447 110.165 45.7093 110.764 45.2911 111.005L32.6392 118.291C32.221 118.533 31.848 118.322 31.8443 117.824Z" fill="#EBEBEB"/>
<path d="M30.05 103.763C30.9166 103.262 31.6174 103.669 31.6174 104.667C31.6174 105.666 30.9166 106.879 30.05 107.38C29.1872 107.881 28.4827 107.474 28.4827 106.476C28.4827 105.477 29.1835 104.264 30.05 103.763Z" fill="url(#paint6_linear)"/>
<path d="M32.7071 104.264V104.042C32.7033 103.544 33.0575 102.927 33.4757 102.685L48.196 94.1969C48.6142 93.9557 48.9571 94.1554 48.9571 94.6527V94.9165C48.9571 95.4138 48.6218 96.0129 48.2036 96.254L33.502 104.731C33.0838 104.972 32.7108 104.761 32.7071 104.264Z" fill="#EBEBEB"/>
<path d="M30.0478 125.777C30.9144 125.276 31.6152 125.683 31.6152 126.682C31.6152 127.68 30.9144 128.893 30.0478 129.394C29.185 129.892 28.4842 129.489 28.4805 128.49C28.4842 127.492 29.185 126.279 30.0478 125.777Z" fill="url(#paint7_linear)"/>
<path d="M32.7064 126.279L32.7027 126.045C32.6989 125.548 33.0568 124.941 33.4713 124.7L38.893 121.581C39.3112 121.339 39.6465 121.55 39.6465 122.048L39.6503 122.3C39.6503 122.798 39.3149 123.397 38.8967 123.638L33.4939 126.742C33.0832 126.987 32.7102 126.78 32.7064 126.279Z" fill="#EBEBEB"/>
<path d="M48.7036 121.543C49.5701 121.042 50.2709 121.449 50.2709 122.447C50.2709 123.445 49.5701 124.659 48.7036 125.16C47.8408 125.661 47.14 125.254 47.1362 124.255C47.1362 123.257 47.837 122.044 48.7036 121.543Z" fill="url(#paint8_linear)"/>
<path d="M34.8997 131.557L34.9185 131.316C34.9147 130.819 35.2501 130.22 35.6683 129.979L45.2834 124.44C45.7016 124.199 46.0369 124.41 46.0369 124.907L46.0407 125.16C46.0407 125.657 45.7054 126.256 45.2872 126.497L35.6909 132.025C35.2764 132.266 34.9034 132.055 34.8997 131.557Z" fill="#EBEBEB"/>
<path d="M30.0478 138.844C30.9144 138.343 31.6152 138.75 31.6152 139.748C31.6152 140.746 30.9144 141.96 30.0478 142.461C29.185 142.962 28.4842 142.555 28.4805 141.557C28.4842 140.558 29.185 139.341 30.0478 138.844Z" fill="url(#paint9_linear)"/>
<path d="M32.7071 139.345V139.104C32.7033 138.606 33.0575 138.007 33.4719 137.766L44.8315 131.218C45.2497 130.977 45.585 131.188 45.585 131.685L45.5888 131.938C45.5888 132.435 45.2535 133.034 44.8352 133.275L33.4945 139.812C33.0838 140.053 32.7108 139.842 32.7071 139.345Z" fill="#EBEBEB"/>
<path d="M30.05 110.3C30.9166 109.799 31.6174 110.205 31.6174 111.204C31.6174 112.202 30.9166 113.416 30.05 113.917C29.1872 114.418 28.4864 114.011 28.4827 113.012C28.4864 112.014 29.1872 110.797 30.05 110.3Z" fill="url(#paint10_linear)"/>
<path opacity="0.2" d="M30.0461 80.9043C30.9127 80.4032 31.6135 80.8101 31.6135 81.8085C31.6135 82.807 30.9127 84.0202 30.0461 84.5213C29.1833 85.0186 28.4825 84.6155 28.4788 83.617C28.4825 82.6148 29.1833 81.4016 30.0461 80.9043Z" fill="white"/>
<path opacity="0.6" d="M30.0451 93.9669C30.9117 93.4658 31.6125 93.8727 31.6125 94.8712C31.6125 95.8696 30.9117 97.0828 30.0451 97.5839C29.1823 98.085 28.4816 97.6781 28.4778 96.6797C28.4816 95.6812 29.1823 94.468 30.0451 93.9669Z" fill="white"/>
<path opacity="0.2" d="M30.0495 103.763C30.9161 103.262 31.6169 103.669 31.6169 104.667C31.6169 105.666 30.9161 106.879 30.0495 107.38C29.1867 107.881 28.4822 107.474 28.4822 106.476C28.4822 105.478 29.183 104.264 30.0495 103.763Z" fill="white"/>
<path opacity="0.2" d="M30.0451 125.777C30.9117 125.276 31.6125 125.683 31.6125 126.682C31.6125 127.68 30.9117 128.893 30.0451 129.394C29.1823 129.892 28.4816 129.489 28.4778 128.49C28.4816 127.492 29.1823 126.279 30.0451 125.777Z" fill="white"/>
<path opacity="0.6" d="M30.0451 138.844C30.9117 138.343 31.6125 138.75 31.6125 139.748C31.6125 140.746 30.9117 141.96 30.0451 142.461C29.1823 142.962 28.4816 142.555 28.4778 141.557C28.4816 140.558 29.1823 139.341 30.0451 138.844Z" fill="white"/>
<path opacity="0.3" d="M30.0495 110.3C30.9161 109.799 31.6169 110.205 31.6169 111.204C31.6169 112.202 30.9161 113.416 30.0495 113.917C29.1867 114.418 28.4859 114.011 28.4822 113.012C28.4859 112.014 29.1867 110.797 30.0495 110.3Z" fill="black"/>
<path d="M32.7108 110.801L32.7071 110.571C32.7033 110.074 33.0575 109.463 33.4757 109.222L41.0902 104.848C41.5084 104.607 41.8512 104.807 41.8512 105.304V105.568C41.8512 106.065 41.5159 106.664 41.0977 106.905L33.5058 111.268C33.0876 111.509 32.7146 111.298 32.7108 110.801Z" fill="#EBEBEB"/>
<mask id="mask0" mask-type="alpha" maskUnits="userSpaceOnUse" x="26" y="61" width="27" height="93">
<path d="M26.3687 77.411C26.3687 76.6741 26.9068 75.7444 27.5472 75.374L51.4093 61.6409C52.0759 61.2572 52.908 61.7383 52.9081 62.5075L52.9155 137.06C52.9155 137.797 52.3773 138.726 51.7369 139.097L26.3762 153.692L26.3687 77.411Z" fill="#263238"/>
</mask>
<g mask="url(#mask0)">
<rect width="41.3452" height="5.90646" transform="matrix(0.866025 -0.5 2.20305e-08 1 17.2883 80.2786)" fill="#1D232B"/>
</g>
<path opacity="0.75" d="M120.369 82.6379C120.366 82.5974 120.36 82.5627 120.348 82.5251C120.351 82.5164 120.348 82.5077 120.345 82.5019C120.343 82.4614 120.328 82.4267 120.316 82.3949C120.302 82.34 120.276 82.2879 120.244 82.2387C120.236 82.2156 120.221 82.1953 120.204 82.1751C120.192 82.1577 120.183 82.1433 120.169 82.1317C120.146 82.0999 120.12 82.0767 120.088 82.0507C120.088 82.0507 120.085 82.0478 120.079 82.042C120.047 82.0189 120.01 81.9986 119.975 81.9813C119.755 81.8771 119.472 81.9061 119.154 82.0854L57.7917 117.393C57.1206 117.781 56.571 118.452 56.571 120.164V123.034C56.571 123.679 57.2682 124.081 57.8236 123.76L119.157 88.4492C119.828 88.0616 120.377 87.1157 120.377 86.3376V82.7883C120.377 82.7391 120.374 82.6871 120.369 82.6379Z" fill="url(#paint11_linear)"/>
<path opacity="0.9" d="M56.9915 123.763C57.0032 123.769 57.0091 123.774 57.0091 123.774L56.9915 123.763Z" fill="#263238"/>
<path d="M88.4721 105.305C89.6349 104.634 90.5779 102.999 90.5779 101.654C90.5779 100.312 89.6349 99.7652 88.4721 100.436C87.3092 101.107 86.3662 102.742 86.3662 104.087C86.3662 105.432 87.3092 105.979 88.4721 105.305Z" fill="url(#paint12_linear)"/>
<path fill-rule="evenodd" clip-rule="evenodd" d="M87.2774 104.437C87.3468 104.37 87.6766 104.043 87.7344 103.974C87.7923 103.907 87.8299 103.855 87.8212 103.745C87.8125 103.635 87.8125 103.352 87.8125 103.268C87.8125 103.181 87.8357 103.126 87.9051 103.06C87.9716 102.993 88.1683 102.753 88.4894 102.571C88.7382 102.432 88.9667 102.406 89.0361 102.403C89.1056 102.4 89.1027 102.473 89.0998 102.542C89.0969 102.606 89.0998 102.689 89.0998 102.765C89.0998 102.785 89.1027 102.802 89.1027 102.82C89.1056 102.857 89.1142 102.892 89.1229 102.935C89.1345 102.999 89.1663 103.011 89.1981 103.013C89.2299 103.016 89.5279 103.074 89.6494 103.094C89.7709 103.118 89.7969 103.025 89.8229 102.97C89.849 102.918 89.8866 102.863 89.9184 102.802C89.9502 102.742 89.9907 102.632 89.9936 102.499C89.9965 102.366 90.0196 102.015 89.8171 101.775C89.7709 101.72 89.713 101.683 89.6523 101.657C89.4613 101.576 89.2386 101.634 89.201 101.642C89.1518 101.657 88.42 101.729 87.7749 102.455C87.1299 103.184 87.1848 103.251 87.1039 103.424C87.0229 103.598 86.9216 104.078 86.9795 104.266C87.0344 104.457 87.1154 104.552 87.1443 104.552C87.1675 104.549 87.2109 104.503 87.2774 104.437Z" fill="white"/>
<path d="M93.0763 101.92C93.8921 101.448 94.5516 100.306 94.5516 99.3658C94.5516 98.4256 93.8921 98.0438 93.0763 98.5153C92.2606 98.9868 91.6011 100.129 91.6011 101.07C91.6011 102.007 92.2606 102.389 93.0763 101.92Z" fill="url(#paint13_linear)"/>
<path d="M93.1926 100.925L92.374 101.396C92.3277 101.422 92.293 101.393 92.293 101.335V100.042C92.293 99.9817 92.3306 99.9122 92.374 99.8862L93.1926 99.4147C93.2389 99.3887 93.2736 99.4176 93.2736 99.4754V100.768C93.2736 100.829 93.2389 100.899 93.1926 100.925Z" fill="white"/>
<path d="M93.7774 100.436L93.4852 100.372C93.4476 100.364 93.4187 100.306 93.4187 100.239V99.8373C93.4187 99.7737 93.4476 99.6782 93.4852 99.6261L93.7774 99.2269C93.815 99.1749 93.8439 99.1864 93.8439 99.2501V100.332C93.8468 100.398 93.815 100.445 93.7774 100.436Z" fill="white"/>
<path d="M83.8713 107.237C84.687 106.765 85.3465 105.622 85.3465 104.682C85.3465 103.742 84.687 103.36 83.8713 103.832C83.0555 104.303 82.396 105.446 82.396 106.386C82.396 107.323 83.0584 107.705 83.8713 107.237Z" fill="url(#paint14_linear)"/>
<path d="M83.891 105.788C84.0125 105.718 84.1108 105.547 84.1108 105.406C84.1108 105.267 84.0125 105.209 83.891 105.278C83.7695 105.348 83.6711 105.519 83.6711 105.66C83.6711 105.799 83.7695 105.857 83.891 105.788Z" fill="white"/>
<path d="M84.6102 105.371C84.7317 105.301 84.8301 105.131 84.8301 104.989C84.8301 104.85 84.7317 104.792 84.6102 104.862C84.4887 104.931 84.3904 105.102 84.3904 105.243C84.3904 105.385 84.4887 105.44 84.6102 105.371Z" fill="white"/>
<path d="M83.1693 106.201C83.2908 106.132 83.3891 105.961 83.3891 105.819C83.3891 105.68 83.2908 105.623 83.1693 105.692C83.0478 105.761 82.9495 105.932 82.9495 106.074C82.9495 106.216 83.0478 106.271 83.1693 106.201Z" fill="white"/>
<g opacity="0.2">
<path opacity="0.2" d="M55.768 53.8071L114.887 19.6632C115.306 19.4245 115.644 19.6167 115.644 20.0998V72.5004C115.644 72.9836 115.306 73.5715 114.887 73.8102L55.768 107.954C55.3489 108.193 55.0112 108.001 55.0112 107.517V55.117C55.0112 54.6396 55.3489 54.0516 55.768 53.8071Z" fill="black"/>
</g>
<path d="M60.6516 57.9107C60.6807 57.841 60.7155 57.7712 60.7504 57.7073H60.7562C60.7213 57.7712 60.6807 57.841 60.6516 57.9107Z" fill="#EBEBEB"/>
<path d="M119.904 23.5054C119.788 23.5054 119.659 23.5404 119.526 23.6219L61.3558 57.2127C60.8901 57.4805 60.5059 58.1383 60.5059 58.6797V110.824C60.5059 111.208 60.698 111.43 60.9774 111.43C61.0938 111.43 61.2219 111.395 61.3558 111.313L119.526 77.7223C119.991 77.4545 120.376 76.7967 120.376 76.2552V24.1109C120.376 23.7267 120.183 23.5054 119.904 23.5054Z" fill="#1D232B"/>
<path d="M60.5474 108.379L120.376 73.8333V26.5035L60.5474 61.0548V108.379Z" fill="#F2F2F2"/>
<mask id="mask1" mask-type="alpha" maskUnits="userSpaceOnUse" x="60" y="26" width="61" height="83">
<path d="M60.3235 108.494L120.152 73.9487V26.6188L60.3235 61.1702V108.494Z" fill="#F2F2F2"/>
</mask>
<g mask="url(#mask1)">
<path d="M96.2932 73.3137C98.9348 72.8996 101.506 74.444 102.342 76.982C102.847 78.5057 103.299 80.3689 103.473 82.4515C103.957 88.1859 104.09 91.0551 104.09 91.0551L109.512 92.7046C109.512 92.7046 106.168 94.131 106.379 98.524L99.7753 96.4003L96.2932 73.3137Z" fill="url(#paint15_linear)"/>
<path d="M104.09 91.0555C104.09 91.0555 102.993 91.3785 102.388 92.0989C102.388 92.0989 103.084 90.7781 104.057 90.3724L104.09 91.0555Z" fill="url(#paint16_linear)"/>
<path d="M82.3943 78.098C82.3943 78.098 86.245 76.0246 88.8367 74.9762C90.8693 74.1539 94.1446 73.1461 94.1446 73.1461C94.1446 73.1461 102.645 71.8088 99.4857 77.4562C100.38 82.1142 100.496 99.8184 100.496 99.8184L100.401 101.756C100.401 101.756 97.9455 108.637 89.1721 109.205C80.3986 109.772 78.6928 106.074 78.6928 106.074C78.6928 106.074 77.8068 82.6524 82.3943 78.098Z" fill="url(#paint17_linear)"/>
<mask id="mask2" mask-type="alpha" maskUnits="userSpaceOnUse" x="78" y="73" width="23" height="37">
<path d="M82.3943 78.098C82.3943 78.098 86.245 76.0246 88.8367 74.9762C90.8693 74.1539 94.1446 73.1461 94.1446 73.1461C94.1446 73.1461 102.645 71.8088 99.4857 77.4562C100.38 82.1142 100.496 99.8184 100.496 99.8184L100.401 101.756C100.401 101.756 97.9455 108.637 89.1721 109.205C80.3986 109.772 78.6928 106.074 78.6928 106.074C78.6928 106.074 77.8068 82.6524 82.3943 78.098Z" fill="url(#paint18_linear)"/>
</mask>
<g mask="url(#mask2)">
<path opacity="0.15" d="M101.007 72.1126C101.455 81.0656 102.35 100.046 102.35 104.343L95.1876 108.82L94.7399 79.7226L92.5017 72.1126H101.007Z" fill="url(#paint19_linear)"/>
<path d="M94.74 81.0656L94.74 103.448" stroke="black" stroke-width="0.25"/>
</g>
<path d="M109.512 94.0474L109.959 92.7044L107.273 93.5997L109.512 94.0474Z" fill="url(#paint20_linear)"/>
<path d="M105.483 98.5239V97.6286H106.826L105.483 98.5239Z" fill="url(#paint21_linear)"/>
<path d="M107.761 92.6745L113.33 95.287C115.562 95.8087 118.249 96.8066 118.249 96.8066C118.249 96.8066 122.124 98.3882 122.298 99.4274C122.476 100.467 119.392 102.967 116.68 101.75C116.133 101.506 115.148 101.009 114.419 100.93C113.69 100.852 111.533 100.512 109.968 99.0216L103.468 97.3324C103.472 97.3324 103.149 93.3204 107.761 92.6745Z" fill="#FFA8A7"/>
<path d="M111.367 100.442C112.013 101.133 113.851 102.876 114.253 103.377C114.654 103.882 115.602 102.587 113.938 100.657C113.938 100.657 111.727 99.8912 109.926 98.471C109.926 98.471 110.721 99.7504 111.367 100.442Z" fill="#FFA8A7"/>
<path d="M91.1582 104.343L91.6058 103L88.9199 103.896L91.1582 104.343Z" fill="url(#paint22_linear)"/>
<path d="M87.1293 109.267V107.924L88.9199 108.372L87.1293 109.267Z" fill="url(#paint23_linear)"/>
<path d="M89.7294 103.282L94.466 107.033C94.466 107.033 95.9648 107.178 96.8674 107.451C97.7742 107.725 100.151 108.598 100.78 108.735C101.409 108.872 100.598 109.952 98.95 109.559C98.95 109.559 102.403 111.923 102.358 112.979C102.312 114.031 98.7678 115.827 96.3747 114.064C95.8944 113.708 95.0332 113.016 94.3376 112.784C93.6421 112.557 91.605 111.766 90.3919 109.977L86.2515 107.82C86.2515 107.82 85.0839 102.943 89.7294 103.282Z" fill="#FFA8A7"/>
<path d="M84.5589 77.3221C84.5589 77.3221 87.3246 79.4669 85.6229 86.1163C83.9254 92.7698 83.0187 98.5042 83.0187 98.5042L90.2631 102.553C90.2631 102.553 86.4284 104.845 85.7866 108.372C85.7866 108.372 75.6736 103.663 75.4583 100.993C75.243 98.3262 77.6652 86.7705 78.0337 84.6464C78.4021 82.5224 80.2819 78.3283 84.5589 77.3221Z" fill="url(#paint24_linear)"/>
<path d="M83.0173 98.5043C83.0173 98.5043 81.6551 98.2145 80.4875 98.5291C80.4875 98.5291 81.5226 97.8874 83.0753 97.8874L83.0173 98.5043Z" fill="url(#paint25_linear)"/>
<path d="M105.483 98.5238L102.797 97.6285C102.797 97.6285 102.797 95.8379 104.14 94.0474C105.483 92.2568 106.826 91.8091 106.826 91.8091L109.959 92.7044C109.363 93.0028 108.169 93.5997 106.826 95.3903C106.051 96.4233 105.632 98.0762 105.483 98.5238Z" fill="url(#paint26_linear)"/>
<path d="M87.1291 109.267L84.8909 107.925C84.8909 107.925 84.8909 105.686 86.2338 103.896C87.5768 102.105 88.9197 101.657 88.9197 101.657L91.6056 103C91.0087 103.299 89.1883 104.612 88.472 105.686C87.7558 106.761 87.2783 108.82 87.1291 109.267Z" fill="url(#paint27_linear)"/>
<path d="M94.9989 80.9526C95.4857 80.5042 96.2945 78.6605 96.7143 78.7323C97.5887 78.8819 98.1882 79.4649 98.1858 79.0408C98.1834 78.6167 97.5342 77.7161 96.7439 76.4879C96.1375 75.5456 95.174 74.77 94.6046 74.6855L94.74 76.5891C94.9936 77.1083 95.1482 77.66 95.1975 78.2224C95.3789 79.1334 95.3109 80.0688 94.9989 80.9526Z" fill="url(#paint28_linear)"/>
<path d="M94.7393 81.0657C93.942 80.5819 90.5185 79.673 90.35 80.217C90.2314 80.6 89.8909 81.9922 89.2996 81.9605C87.5925 81.6449 86.0566 80.7479 84.9668 79.4301C84.4743 78.9075 84.1384 78.2634 83.9957 77.5679C83.9957 77.5679 84.6957 76.101 85.1272 75.4278C85.5556 74.7598 86.3827 73.946 86.8681 73.9034L87.1293 75.694C87.4914 76.314 87.4329 76.6164 88.0245 77.0369C89.444 78.035 93.306 79.3176 94.7393 81.0657Z" fill="url(#paint29_linear)"/>
<path d="M99.3638 61.3985C99.9769 60.9105 100.416 60.2381 100.617 59.4807C100.858 58.6088 100.914 57.696 100.779 56.8013C100.728 56.4844 100.63 56.1768 100.49 55.8882C100.372 55.7406 100.222 55.6212 100.052 55.5387C99.8823 55.4563 99.696 55.4129 99.5071 55.4116C99.2761 55.3815 99.0451 55.3557 98.8138 55.3342C99.2324 54.8668 99.5508 54.3187 99.7493 53.7235C99.873 53.2476 99.8659 52.747 99.7287 52.2747C99.6988 52.1457 99.6391 52.0256 99.5542 51.9239C99.4455 51.837 99.3142 51.7829 99.1758 51.7678C99.0374 51.7528 98.8976 51.7775 98.7727 51.839C97.1932 52.3085 95.5427 52.4935 93.8984 52.3853C92.5917 52.3434 91.9289 52.1919 90.1297 52.0618C89.4886 52.0005 88.8417 52.0691 88.2278 52.2636C87.6138 52.4581 87.0453 52.7745 86.5565 53.1938C86.0677 53.6132 85.6685 54.1268 85.3828 54.704C85.0971 55.2812 84.9308 55.9101 84.8939 56.5531C82.5295 57.0452 82.5021 61.2233 83.3057 62.9625C84.7857 66.1655 86.1351 68.274 86.9292 70.5889C87.0467 70.4906 94.734 65.2592 96.4784 63.8008L98.4393 62.1613C98.7538 61.8983 99.0703 61.6568 99.3638 61.3985Z" fill="#1D232B"/>
<path d="M84.4392 68.627C85.9412 69.7399 86.7962 68.6138 86.7962 68.6138C86.7962 68.6138 86.4004 73.4881 86.8839 76.1414C87.1287 77.4844 94.7387 80.6179 94.7387 80.6179C95.1863 80.6179 94.7387 76.1414 94.7387 76.1414L94.6213 73.7028C95.3511 73.7251 96.0813 73.6732 96.8007 73.5477C97.2454 73.4527 97.6664 73.2687 98.0382 73.0069C98.8809 72.3937 99.448 71.4732 99.6166 70.4448C99.9648 68.5846 100.069 66.687 99.926 64.7999C99.7897 62.5172 99.3878 59.5741 98.5916 58.0595C97.2494 56.8843 93.4731 56.8538 90.3656 57.9056C90.3627 58.7616 90.4906 59.5057 89.9174 60.4577C89.6279 60.8984 89.2342 61.2608 88.7711 61.5129C88.792 63.1743 88.7582 63.6234 88.5195 64.362C88.3879 64.7874 88.1139 65.4262 87.3125 65.1382C86.9343 65.0022 86.6048 64.1272 86.1861 63.5501C85.6231 62.7739 83.9866 62.441 83.3127 64.1656C83.0265 64.9358 82.9808 65.7748 83.182 66.5715C83.3832 67.3682 83.8216 68.085 84.4392 68.627Z" fill="#FFAAA8"/>
<path d="M95.0442 62.6801H95.9732" stroke="black" stroke-width="0.25"/>
<path d="M94.9195 63.609C94.9195 65.0793 93.7276 66.2712 92.2574 66.2712C90.7871 66.2712 89.5952 65.0793 89.5952 63.609C89.5952 62.1387 90.7871 60.9468 92.2574 60.9468C93.7276 60.9468 94.9195 62.1387 94.9195 63.609Z" stroke="black" stroke-width="0.25"/>
<path d="M101.423 63.609C101.423 65.0793 100.232 66.2712 98.7613 66.2712C97.291 66.2712 96.0991 65.0793 96.0991 63.609C96.0991 62.1387 97.291 60.9468 98.7613 60.9468C100.232 60.9468 101.423 62.1387 101.423 63.609Z" stroke="black" stroke-width="0.25"/>
<path d="M89.4698 64.0735L87.1472 64.5381" stroke="black" stroke-width="0.25"/>
<path d="M94.6316 73.7076C92.8151 73.5678 89.7285 73.1252 88.723 72.0578C87.7175 70.9906 87.1287 68.9792 87.1287 68.9792C87.1287 68.9792 87.3756 71.3077 88.1648 72.5174C88.9542 73.7271 90.5491 74.1879 91.7103 74.5061C92.7373 74.7353 93.5769 74.8837 94.6316 74.9497V73.7076Z" fill="#FF9090"/>
<path d="M95.6677 64.8598L95.4482 68.4039L97.564 67.8947L95.6677 64.8598Z" fill="#F28F8F"/>
<path d="M92.518 64.5368C92.4932 64.9343 92.7954 65.278 93.197 65.3028C93.5945 65.3277 93.9382 65.0254 93.963 64.6238C93.9879 64.2263 93.6856 63.8827 93.284 63.8578C92.8865 63.8371 92.5429 64.1394 92.518 64.5368Z" fill="#263238"/>
<path d="M97.3032 64.3258C97.2783 64.7232 97.5806 65.0669 97.9822 65.0917C98.3797 65.1166 98.7233 64.8143 98.7482 64.4127C98.773 64.0152 98.4708 63.6716 98.0692 63.6467C97.6717 63.6219 97.328 63.9283 97.3032 64.3258Z" fill="#263238"/>
<path d="M98.9967 62.918L97.6345 61.9905C97.6345 61.9905 98.21 61.4605 98.7317 61.8332C99.2493 62.2058 98.9967 62.918 98.9967 62.918Z" fill="#263238"/>
<path d="M93.0231 62.7564L91.5533 63.4975C91.5533 63.4975 91.3711 62.7357 91.9466 62.4624C92.5221 62.1892 93.0231 62.7564 93.0231 62.7564Z" fill="#263238"/>
<path d="M92.43 69.153L94.9482 70.1111C94.9001 70.2832 94.817 70.4436 94.704 70.5821C94.5911 70.7207 94.4507 70.8345 94.2918 70.9163C94.1329 70.9981 93.9588 71.0463 93.7804 71.0578C93.602 71.0692 93.4232 71.0438 93.2551 70.9829C92.912 70.8384 92.6363 70.5694 92.4833 70.23C92.3302 69.8906 92.3112 69.5059 92.43 69.153Z" fill="#C76668"/>
<path d="M92.5413 69.7047C92.896 69.7133 93.2344 69.8559 93.4882 70.1039C93.7421 70.3519 93.8926 70.6868 93.9094 71.0413C93.6902 71.0814 93.4642 71.0613 93.2555 70.983C93.003 70.8801 92.7849 70.7075 92.6267 70.4853C92.4685 70.2632 92.3768 70.0006 92.3622 69.7283C92.4212 69.7158 92.4811 69.708 92.5413 69.7047Z" fill="#FF9090"/>
<ellipse rx="0.447652" ry="0.447645" transform="matrix(0.86603 -0.499992 2.2031e-08 1 96.0222 89.3472)" fill="white"/>
<ellipse rx="0.447654" ry="0.447655" transform="matrix(0.866025 -0.5 2.20305e-08 1 96.0222 96.5095)" fill="white"/>
<ellipse rx="0.447652" ry="0.447645" transform="matrix(0.86603 -0.499992 2.2031e-08 1 96.0222 82.6324)" fill="white"/>
<path d="M112.93 68.5651C112.823 68.9794 112.347 70.34 112.137 71.6443C112.004 72.4473 111.999 73.5009 111.943 74.0687C111.825 75.2502 111.672 76.0788 110.961 77.1069C110.439 77.869 110.598 79.2731 110.659 80.3319L106.13 82.7707C106.13 81.7255 106.127 80.7078 106.137 79.8485C106.158 78.2066 106.281 77.1581 105.334 75.6645C105.058 75.2451 104.542 74.5393 104.189 73.8999C103.503 72.6775 103.109 71.7568 102.608 71.0407C102.25 70.5343 102.644 69.9768 103.657 70.3911C104.265 70.6417 104.726 71.3578 105.237 71.9818C105.785 72.6417 105.979 72.3041 106.04 71.5778C106.107 70.8514 106.352 67.2966 106.501 66.1714C106.588 65.5474 106.639 65.0819 106.884 64.9643C107.109 64.8517 107.871 64.9233 107.841 66.4066C107.805 68.0076 107.513 70.3604 107.626 70.3604C107.738 70.3604 107.882 68.826 108.163 67.225C108.419 65.7468 108.495 65.0972 108.68 64.6574C108.843 64.2686 109.605 63.9464 109.759 65.1586C109.83 65.7366 109.764 66.1407 109.483 68.3145C109.288 69.8234 109.314 70.3144 109.314 70.3144C109.442 70.386 109.667 69.2147 110.173 67.8337C110.633 66.5754 110.864 65.9156 111.155 65.5013C111.303 65.2916 111.82 65.5576 111.887 66.1509C111.922 66.4527 111.769 67.0153 111.564 67.7109C111.298 68.6521 111.283 68.8106 111.099 69.5318C110.971 70.0228 110.818 70.6724 110.899 70.7082C110.981 70.744 111.426 69.0101 112.234 67.7877C112.654 67.1432 113.099 67.9155 112.93 68.5651Z" fill="url(#paint30_linear)"/>
<path d="M106.467 72.8871C107.51 73.2759 108.891 74.974 109.147 76.3908C109.459 74.6518 108.063 72.9127 106.467 72.8871Z" fill="#F28F8F"/>
</g>
<path d="M116.816 27.429C117.067 27.2835 117.265 26.9342 117.265 26.6489C117.265 26.3637 117.061 26.2472 116.816 26.3869C116.566 26.5325 116.368 26.8818 116.368 27.167C116.368 27.4581 116.566 27.5746 116.816 27.429Z" fill="#FAFAFA"/>
<path d="M118.296 26.5793C118.547 26.4337 118.744 26.0845 118.744 25.7992C118.744 25.5139 118.541 25.3975 118.296 25.5372C118.046 25.6828 117.848 26.0321 117.848 26.3173C117.848 26.6084 118.052 26.7248 118.296 26.5793Z" fill="#FAFAFA"/>
<path d="M115.339 28.2849C115.589 28.1393 115.787 27.79 115.787 27.5048C115.787 27.2195 115.583 27.1031 115.339 27.2428C115.088 27.3883 114.891 27.7376 114.891 28.0229C114.885 28.3081 115.088 28.4246 115.339 28.2849Z" fill="#FAFAFA"/>
<path d="M64.1154 60.8453C64.9421 60.368 65.6057 60.758 65.6057 61.7069C65.6057 62.6559 64.9362 63.8144 64.1154 64.2917C63.2945 64.7691 62.625 64.3791 62.625 63.4301C62.6192 62.4754 63.2887 61.3227 64.1154 60.8453Z" fill="#1D232B"/>
<path d="M64.1037 62.7141C64.3715 62.557 64.5869 62.1844 64.5869 61.8758C64.5869 61.5673 64.3715 61.4392 64.1037 61.5964C63.8359 61.7536 63.6205 62.1262 63.6205 62.4347C63.6205 62.7432 63.8359 62.8655 64.1037 62.7141ZM64.2609 62.7782L63.9873 62.9354C63.5506 63.1915 63.1897 63.8086 63.1897 64.3151V64.4548C63.2712 64.4839 63.3527 64.4956 63.4458 64.4956C63.6438 64.4956 63.8708 64.4315 64.1095 64.2918C64.4705 64.0822 64.7965 63.7504 65.0526 63.3603V63.2439C65.0585 62.7316 64.6975 62.5278 64.2609 62.7782Z" fill="url(#paint31_linear)"/>
<path d="M67.1537 61.9572L71.5432 59.4248C71.8227 59.2618 72.0497 58.8717 72.0497 58.5515V58.3885C72.0497 58.0683 71.8227 57.9344 71.5432 58.0974L67.1537 60.6298C66.8743 60.7928 66.6472 61.1829 66.6472 61.5031V61.6661C66.6472 61.9863 66.8743 62.1144 67.1537 61.9572Z" fill="#1D232B"/>
<path d="M103.184 48.9866C103.167 48.9866 103.15 48.9808 103.138 48.975C103.109 48.9575 103.091 48.9284 103.091 48.8935V39.835C103.091 39.8001 103.109 39.771 103.138 39.7535L112.551 34.3219C112.581 34.3045 112.615 34.3045 112.65 34.3219C112.68 34.3394 112.697 34.3685 112.697 34.4034V43.4619C112.697 43.4968 112.68 43.5259 112.65 43.5434L103.237 48.975C103.219 48.9866 103.202 48.9866 103.184 48.9866ZM103.283 39.8932V48.7247L112.505 43.4037V34.5664L103.283 39.8932Z" fill="#E0E0E0"/>
<path d="M103.961 47.6536C103.943 47.6536 103.926 47.6478 103.914 47.642C103.885 47.6245 103.867 47.5954 103.867 47.5605V40.2834C103.867 40.2485 103.885 40.2194 103.914 40.2019L111.779 35.661C111.808 35.6436 111.843 35.6436 111.878 35.661C111.907 35.6785 111.925 35.7076 111.925 35.7426V43.0138C111.925 43.0487 111.907 43.0778 111.878 43.0953L104.013 47.6361C103.996 47.6478 103.978 47.6536 103.961 47.6536ZM104.06 40.3358V47.3858L111.732 42.9556V35.9056L104.06 40.3358Z" fill="#E0E0E0"/>
<path d="M104.758 46.2737C104.741 46.2737 104.723 46.2678 104.712 46.262C104.683 46.2445 104.665 46.2154 104.665 46.1805V44.37C104.665 44.3525 104.671 44.335 104.677 44.3234L106.761 40.7023C106.772 40.6791 106.796 40.6616 106.825 40.6558C106.854 40.6499 106.883 40.6558 106.901 40.6732L108.769 42.0995L108.531 41.7037C108.507 41.6687 108.513 41.6222 108.542 41.5931L109.625 40.3647C109.654 40.3298 109.707 40.3239 109.747 40.3472L111.081 41.1564C111.11 41.1739 111.127 41.203 111.127 41.2379V42.5886C111.127 42.6235 111.11 42.6526 111.081 42.6701L104.805 46.2678C104.787 46.2678 104.776 46.2737 104.758 46.2737ZM104.851 44.3874V46.0059L110.935 42.5187V41.2787L109.712 40.5393L108.729 41.6571L109.188 42.4255C109.212 42.4663 109.206 42.5187 109.171 42.5478C109.136 42.5769 109.084 42.5827 109.049 42.5536L106.871 40.8886L104.851 44.3874Z" fill="#E0E0E0"/>
<path d="M109.174 39.7477C109.099 39.7477 109.029 39.7302 108.971 39.6953C108.825 39.6138 108.744 39.4391 108.744 39.2179C108.744 38.7813 109.041 38.269 109.419 38.0478C109.611 37.9372 109.803 37.9197 109.949 38.0012C110.094 38.0827 110.176 38.2573 110.176 38.4786C110.176 38.9152 109.879 39.4275 109.5 39.6487C109.39 39.7127 109.279 39.7477 109.174 39.7477ZM109.745 38.1002C109.669 38.1002 109.588 38.1234 109.5 38.1758C109.169 38.368 108.907 38.8279 108.907 39.2121C108.907 39.3809 108.959 39.5032 109.052 39.5556C109.145 39.608 109.279 39.5963 109.425 39.509C109.757 39.3169 110.024 38.857 110.024 38.4727C110.024 38.3039 109.972 38.1817 109.879 38.1293C109.832 38.1118 109.792 38.1002 109.745 38.1002Z" fill="#E0E0E0"/>
<path d="M67.6542 88.1372C65.9718 87.6656 65.378 87.1417 64.6503 85.4941C63.9226 83.8466 62.8223 82.3621 62.8223 82.3621C62.8223 82.3621 68.1549 83.5556 67.6542 88.1372Z" fill="#E0E0E0"/>
<path d="M67.3625 94.0752C66.1516 93.7667 65.7208 93.4174 65.2026 92.3288C64.6787 91.2401 63.887 90.2621 63.887 90.2621C63.887 90.2621 67.7234 91.0538 67.3625 94.0752Z" fill="#E0E0E0"/>
<path d="M66.6413 94.3256C65.6808 95.1231 65.151 95.2687 63.9634 95.0591C62.7758 94.8495 61.5183 94.9194 61.5183 94.9194C61.5183 94.9194 64.4 92.2647 66.6413 94.3256Z" fill="#E0E0E0"/>
<path d="M71.7648 91.9619C72.3877 90.8791 72.4401 90.3318 72.0326 89.1966C71.6192 88.0614 71.4737 86.8098 71.4737 86.8098C71.4737 86.8098 69.3546 90.1106 71.7648 91.9619Z" fill="#E0E0E0"/>
<path d="M72.0371 98.9946C73.2538 98.7268 73.6963 98.395 74.261 97.3296C74.8198 96.2643 75.6465 95.3095 75.6465 95.3095C75.6465 95.3095 71.7809 95.9616 72.0371 98.9946Z" fill="#E0E0E0"/>
<path d="M72.4509 91.6183C73.6909 91.4903 74.1683 91.2167 74.8494 90.2153C75.5306 89.2198 76.462 88.3699 76.462 88.3699C76.462 88.3699 72.5441 88.5795 72.4509 91.6183Z" fill="#E0E0E0"/>
<path d="M68.3356 85.7911C69.2846 84.976 69.5174 84.4754 69.5 83.2703C69.4883 82.0652 69.7677 80.8369 69.7677 80.8369C69.7677 80.8369 66.6765 83.2412 68.3356 85.7911Z" fill="#E0E0E0"/>
<path d="M66.8219 100.124C65.9545 99.2273 65.4363 99.0236 64.2371 99.1109C63.0378 99.1982 61.792 98.9944 61.792 98.9944C61.792 98.9944 64.3768 101.934 66.8219 100.124Z" fill="#E0E0E0"/>
<path d="M70.1582 102.01C69.0288 102.982 68.371 103.163 66.8515 102.901C65.3321 102.639 63.7544 102.72 63.7544 102.72C63.7544 102.72 67.1309 99.4836 70.1582 102.01Z" fill="#E0E0E0"/>
<path d="M69.3546 100.171C69.2032 98.9305 68.9121 98.459 67.8992 97.8069C66.8862 97.1491 66.0188 96.2409 66.0188 96.2409C66.0188 96.2409 66.3157 100.141 69.3546 100.171Z" fill="#E0E0E0"/>
<path d="M71.3809 99.5185C71.2645 98.1795 71.0258 96.8522 70.7231 95.5423C70.4262 94.2732 70.0361 93.0273 69.6053 91.799C69.1804 90.5764 68.6681 89.3714 67.8298 88.3642C67.7424 88.2594 67.6551 88.4807 67.6959 88.5563C69.029 90.7802 69.6694 93.0564 70.1817 95.5656C70.4262 96.759 70.6067 98.7384 70.7115 99.9551C70.7755 100.7 70.7464 101.62 70.7406 102.493L71.4741 102.068C71.5207 101.213 71.4508 100.339 71.3809 99.5185Z" fill="#E0E0E0"/>
<path d="M141.124 90.4128C143.47 90.6127 144.789 91.0587 146.177 93.9963C147.492 96.7763 149.841 100.498 150.537 102.525C150.875 103.513 151.471 104.393 149.664 106.208C147.188 108.692 136.513 112.316 136.513 112.316L142.086 106.496L144.927 103.601L143.554 100.96L141.124 90.4128Z" fill="url(#paint32_linear)"/>
<path d="M144.924 103.605C145.247 104.101 145.974 104.786 146.704 105.016C145.889 105.239 144.959 104.382 144.667 103.87L144.924 103.605Z" fill="url(#paint33_linear)"/>
<rect opacity="0.2" width="40.0672" height="32.7475" transform="matrix(0.866025 0.5 -0.866025 0.5 134.626 143.593)" fill="url(#paint34_linear)"/>
<path fill-rule="evenodd" clip-rule="evenodd" d="M140.974 93.4983C141.267 94.7397 136.735 96.0799 135.182 95.4053L135.15 95.1047C134.749 93.2531 134.356 91.6796 134.079 90.3789C133.357 90.6867 131.585 90.7767 131.428 90.529C136.205 86.7139 141.792 83.8932 142.51 85.8193C142.037 87.2147 140.814 88.2066 140.202 89.1152C140.002 89.5017 139.892 89.9287 139.882 90.3639L139.882 90.364C140.115 91.4497 140.482 92.5024 140.974 93.4983Z" fill="url(#paint35_linear)"/>
<path fill-rule="evenodd" clip-rule="evenodd" d="M131.424 90.3853C131.807 90.6356 134.532 89.7293 134.753 89.7403C136.873 89.8453 139.154 89.6728 139.575 89.0475C140.145 88.2008 141.285 87.2763 141.726 85.976C142.431 83.8979 142.293 81.5539 140.393 79.9221C137.089 77.0849 131.906 79.1642 131.163 82.3776C130.859 83.6958 131.236 83.8052 131.174 84.688C131.059 86.3144 130.875 85.7015 131.025 88.275C131.082 89.2558 131.169 90.2192 131.424 90.3853Z" fill="#FFA698"/>
<path fill-rule="evenodd" clip-rule="evenodd" d="M138.791 158.735C138.525 158.681 137.336 158.323 137.224 158.281C136.258 157.873 135.256 157.57 134.233 157.377C133.358 157.237 132.138 157.512 132.53 158.93C133.053 160.83 134.585 162.216 136.088 162.887C136.621 163.125 137.291 163.18 137.93 163.522C138.425 163.787 138.534 164.225 138.902 164.519C139.244 164.781 139.642 164.949 140.059 165.008C140.477 165.067 140.901 165.015 141.295 164.856C142.088 164.566 142.377 164.209 142.567 163.185C142.74 162.246 142.764 160.546 142.547 159.881L142.519 159.883C142.485 160.53 142.15 160.949 141.408 161.101C140.397 161.308 138.584 160.267 138.752 159.123C138.77 158.997 138.783 158.868 138.791 158.735Z" fill="url(#paint36_linear)"/>
<path fill-rule="evenodd" clip-rule="evenodd" d="M132.673 157.985C132.252 158.485 132.526 159.335 132.769 159.866C133.433 161.313 134.851 162.409 136.156 162.958C136.698 163.186 137.369 163.314 138.018 163.641C138.521 163.895 138.622 164.248 138.996 164.53C139.353 164.784 139.765 164.947 140.198 165.006C140.63 165.066 141.071 165.019 141.482 164.871C142.242 164.609 142.514 164.181 142.703 163.308C142.612 163.524 142.473 163.716 142.297 163.87C142.121 164.023 141.913 164.135 141.687 164.195C141.276 164.343 140.836 164.39 140.403 164.33C139.97 164.271 139.558 164.107 139.201 163.854C138.828 163.572 138.726 163.219 138.223 162.965C137.574 162.638 136.81 162.566 136.268 162.338C134.742 161.697 133.093 160.549 132.561 158.73C132.524 158.606 132.514 158.474 132.533 158.345C132.553 158.216 132.601 158.093 132.673 157.985Z" fill="#E5E5E5"/>
<path fill-rule="evenodd" clip-rule="evenodd" d="M142.703 157.025C142.557 157.874 142.517 158.74 142.585 159.601C142.667 160.446 142.372 160.986 141.531 161.162C140.561 161.365 138.823 160.345 138.984 159.226C139.127 158.238 138.914 157.011 138.86 156.064L142.703 157.025Z" fill="url(#paint37_linear)"/>
<path fill-rule="evenodd" clip-rule="evenodd" d="M138.299 158.929C138.081 159.01 137.851 159.045 137.62 159.032C137.146 160.891 140.877 164.889 142.611 162.217C142.712 161.777 142.764 159.693 142.587 159.232C142.469 158.925 142.251 158.918 141.896 159.026C141.141 159.254 140.908 160.293 140.389 160.399C139.772 160.525 139.381 160.06 139.154 159.559C138.911 159.02 138.981 158.416 138.854 158.148C138.71 157.847 138.443 158.03 138.49 158.171C138.526 158.303 138.527 158.444 138.493 158.577C138.46 158.711 138.393 158.832 138.299 158.929Z" fill="url(#paint38_linear)"/>
<path fill-rule="evenodd" clip-rule="evenodd" d="M141.104 109.999C137.273 109.476 135.879 112.71 135.407 116.75C134.832 121.676 133.635 125.795 135.023 131.577C135.823 134.912 136.876 136.96 137.15 138.862C137.417 140.716 137.601 143.445 137.755 145.596C137.916 147.851 139.078 155.344 139.11 156.914C139.178 158.489 141.82 159.28 142.94 157.955C143.299 155.313 144.131 146.562 143.992 144.154C143.78 140.469 142.761 138.883 142.361 135.167C141.95 131.347 143.074 127.182 143.485 123.357C144.992 120.508 144.827 118.281 144.025 116.312C143.104 114.047 141.917 113.188 141.104 109.999Z" fill="#1D232B"/>
<g style="mix-blend-mode:multiply" opacity="0.3">
<path fill-rule="evenodd" clip-rule="evenodd" d="M135.759 115.068C135.606 115.663 135.494 116.267 135.421 116.877C134.848 121.797 133.617 125.908 135.03 131.682C135.845 135.011 136.917 137.056 137.196 138.956C137.468 140.806 137.655 143.532 137.812 145.68C137.976 147.931 139.252 155.573 139.285 157.14C139.283 157.499 139.413 157.847 139.651 158.12C139.89 158.393 140.22 158.573 140.583 158.626C140.908 153.5 141.165 148.948 140.532 144.167C140.118 141.033 139.214 137.732 139.019 135.335C138.588 130.042 139.829 125.857 142.062 124.162C141.578 124.349 141.058 124.43 140.538 124.398C140.018 124.367 139.512 124.223 139.055 123.979C139.415 120.893 137.585 117.651 135.759 115.068Z" fill="#162932"/>
</g>
<path fill-rule="evenodd" clip-rule="evenodd" d="M136.31 157.985C136.131 156.271 134.712 152.981 134.376 152.04L137.8 150.299C138.381 152.459 138.177 153.983 139.5 154.949L136.31 157.985Z" fill="url(#paint39_linear)"/>
<path fill-rule="evenodd" clip-rule="evenodd" d="M136.691 156.794C137.333 156.129 136.945 155.688 137.19 154.597C137.228 154.373 137.321 154.161 137.46 153.98C137.6 153.798 137.781 153.653 137.99 153.556C138.578 153.35 138.724 153.768 139.172 154.061C139.761 154.446 140.098 154.416 140.491 154.966C142.139 155.38 142.269 156.835 141.879 158.294C141.517 159.648 141.128 159.782 141.103 160.494C141.124 160.812 141.193 161.126 141.307 161.424C141.642 162.548 140.898 163.903 140.38 164.591C139.58 165.654 137.612 166.429 136.165 166.298C135.886 166.273 135.752 166.019 135.728 165.684C135.655 164.675 136.08 162.949 136.202 161.827C136.252 161.125 136.218 160.42 136.101 159.726C135.924 158.609 135.61 157.431 135.663 156.865C135.721 156.235 135.914 157.596 136.691 156.794Z" fill="url(#paint40_linear)"/>
<path fill-rule="evenodd" clip-rule="evenodd" d="M140.136 155.423C142.147 155.526 142.272 157.171 141.893 158.661C141.563 159.954 141.202 160.08 141.179 160.76C141.199 161.064 141.262 161.363 141.367 161.647C141.675 162.72 140.99 164.013 140.514 164.67C139.778 165.685 137.968 166.424 136.638 166.299C136.573 166.292 136.511 166.268 136.456 166.231C136.402 166.194 136.358 166.144 136.326 166.086C136.188 165.86 136.581 164.575 136.74 164.265C137.176 163.516 137.516 162.713 137.752 161.875C137.936 161.13 137.797 159.982 137.94 159.113C138.299 156.926 138.594 155.654 140.136 155.423Z" fill="white"/>
<path fill-rule="evenodd" clip-rule="evenodd" d="M142.061 156.977C142.041 157.408 141.976 157.836 141.866 158.252C141.529 159.614 141.159 159.747 141.136 160.464C141.156 160.783 141.221 161.098 141.328 161.398C141.643 162.528 140.943 163.89 140.454 164.582C139.701 165.651 137.847 166.43 136.485 166.298C136.417 166.292 136.353 166.267 136.298 166.226C136.292 165.925 136.358 165.627 136.49 165.36C137.053 163.991 138.442 162.039 138.591 160.747C138.662 160.125 138.551 159.627 138.576 159.065C138.576 158.088 138.859 157.134 139.387 156.331C140.195 155.186 142.123 154.847 142.061 156.977Z" fill="#EAEAED"/>
<path fill-rule="evenodd" clip-rule="evenodd" d="M133.046 136.611C133.46 133.037 134.642 129.558 135.711 126.174C140.757 123.038 139.986 117.912 137.86 114.355L132.495 112.515C131.951 113.403 131.544 110.715 131.169 111.312C130.342 112.627 128.724 116.561 128.091 118.895C126.785 123.708 126.396 128.306 126.905 134.363C126.95 134.898 127.029 135.723 127.079 136.514C127.082 136.657 127.179 137.59 127.204 137.72C127.393 139.555 133.856 152.365 135.352 155.423C135.487 154.108 137.512 152.781 138.61 153.335C137.935 148.717 137.014 144.431 136.355 142.77C135.008 139.374 133.916 138.326 133.046 136.611Z" fill="#1D232B"/>
<path fill-rule="evenodd" clip-rule="evenodd" d="M130.138 113.065C130.305 112.649 130.343 112.252 130.476 111.805C129.468 108.47 131.785 107.479 129.924 103.334C128.644 100.484 128.295 98.7803 128.898 97.3735C130.226 94.2765 137.817 91.0883 141.042 90.7153C143.27 90.4578 145.284 92.2471 145.266 94.7048C145.217 101.275 143.09 101.935 142.82 108.813C142.72 109.558 142.499 110.28 142.167 110.951C142.149 111.359 142.141 112.016 142.126 112.389C141.217 115.328 130.247 116.263 130.138 113.065Z" fill="url(#paint41_linear)"/>
<path fill-rule="evenodd" clip-rule="evenodd" d="M113.647 89.3634C113.705 89.5397 113.739 89.7251 113.748 89.9132C113.851 90.1817 113.929 90.4611 113.983 90.7472C114.038 91.2021 114.058 91.6616 114.042 92.1204C114.042 92.406 114.007 92.6903 113.937 92.9646C114.239 93.6364 114.715 94.0494 115.16 94.6037L113.72 95.8507C113.112 95.3957 112.637 94.9179 112.114 94.5226C111.853 94.4361 111.613 94.2824 111.413 94.0735C111.08 93.6786 110.097 92.5055 110.041 92.0446C110.017 91.2585 110.07 90.4719 110.201 89.6994C110.461 88.0423 111.017 86.3015 111.112 87.0699C111.251 87.254 111.138 88.7512 111.226 88.9732C111.566 89.419 111.729 89.602 112.156 90.1333C112.337 90.2774 112.527 90.4075 112.724 90.5225C112.871 90.5677 112.952 90.4511 112.957 90.3041C112.92 90.0061 112.865 89.7112 112.794 89.4211C112.795 88.711 112.949 88.3086 113.284 88.3458C113.362 88.3498 113.437 88.3854 113.495 88.4463C113.552 88.5072 113.589 88.5893 113.598 88.678C113.632 88.8438 113.623 89.0731 113.647 89.3634Z" fill="url(#paint42_linear)"/>
<path fill-rule="evenodd" clip-rule="evenodd" d="M131.258 94.8172C130.038 94.5705 122.754 98.8485 119.944 100.077C118.377 97.8981 116.321 95.2876 115.052 94.4089C114.828 94.281 114.617 94.1331 114.421 93.9672C114.237 93.7472 114.058 93.521 113.884 93.2885C113.092 93.3959 111.943 94.3611 111.958 94.8172C112.086 95.0451 112.216 95.2832 112.348 95.5292C112.405 95.768 112.441 96.0108 112.459 96.2554C112.889 97.7805 115.261 101.304 116.367 102.875C117.006 103.784 117.231 104.317 117.664 104.588C118.358 105.023 119.29 104.786 121.085 104.345C122.595 103.975 127.473 103.146 129.716 101.991C131.299 101.177 133.455 98.8563 133.699 97.6658C133.979 96.2982 132.68 95.1045 131.258 94.8172Z" fill="url(#paint43_linear)"/>
<path fill-rule="evenodd" clip-rule="evenodd" d="M139.337 90.7262C139.225 91.5907 133.754 91.8225 133.754 91.8225C133.754 91.8225 133.248 93.0297 133.057 93.5645C134.549 94.794 139.47 93.5948 140.042 92.1547C140.108 92.0215 140.141 91.8784 140.141 91.7339C140.141 91.5894 140.107 91.4464 140.042 91.3133C139.976 91.1802 139.88 91.0596 139.759 90.9588C139.638 90.858 139.494 90.7789 139.337 90.7262Z" fill="url(#paint44_linear)"/>
<path fill-rule="evenodd" clip-rule="evenodd" d="M148.249 86.6845C151.106 89.1136 152.716 93.4881 151.416 95.9697C150.238 98.219 147.363 99.5419 148.248 100.966C148.979 102.143 150.7 103.323 148.653 105.223C147.599 106.201 145.025 108.826 139.771 107.466C134.65 106.141 129.276 101.644 133.59 96.7277C138.131 91.5538 135.475 90.4097 132.87 86.3409C131.493 84.1895 130.262 79.938 131.442 78.3566C133.465 75.6441 134.809 77.5986 136.756 76.6402C140.47 74.8121 143.516 76.119 145.262 78.9772C146.826 81.5361 145.976 84.7528 148.249 86.6845Z" fill="url(#paint45_linear)"/>
<defs>
<linearGradient id="paint0_linear" x1="53.4363" y1="-123.926" x2="64.6608" y2="220.905" gradientUnits="userSpaceOnUse">
<stop stop-color="#F4FAFF"/>
<stop offset="1" stop-color="#007AD3"/>
</linearGradient>
<linearGradient id="paint1_linear" x1="50.5154" y1="133.02" x2="47.7507" y2="136.777" gradientUnits="userSpaceOnUse">
<stop stop-color="#FFDAC1"/>
<stop offset="1" stop-color="#FAB072"/>
</linearGradient>
<linearGradient id="paint2_linear" x1="28.4805" y1="79.6411" x2="31.9279" y2="79.8782" gradientUnits="userSpaceOnUse">
<stop stop-color="#007AD3"/>
<stop offset="0.953125" stop-color="#2FA6F7"/>
</linearGradient>
<linearGradient id="paint3_linear" x1="47.1362" y1="75.4063" x2="50.5836" y2="75.6434" gradientUnits="userSpaceOnUse">
<stop stop-color="#007AD3"/>
<stop offset="0.953125" stop-color="#2FA6F7"/>
</linearGradient>
<linearGradient id="paint4_linear" x1="47.1406" y1="104.802" x2="50.588" y2="105.039" gradientUnits="userSpaceOnUse">
<stop stop-color="#007AD3"/>
<stop offset="0.953125" stop-color="#2FA6F7"/>
</linearGradient>
<linearGradient id="paint5_linear" x1="28.4805" y1="92.7033" x2="31.9279" y2="92.9403" gradientUnits="userSpaceOnUse">
<stop stop-color="#007AD3"/>
<stop offset="0.953125" stop-color="#2FA6F7"/>
</linearGradient>
<linearGradient id="paint6_linear" x1="28.4827" y1="102.5" x2="31.9301" y2="102.737" gradientUnits="userSpaceOnUse">
<stop stop-color="#007AD3"/>
<stop offset="0.953125" stop-color="#2FA6F7"/>
</linearGradient>
<linearGradient id="paint7_linear" x1="28.4805" y1="124.514" x2="31.9279" y2="124.751" gradientUnits="userSpaceOnUse">
<stop stop-color="#007AD3"/>
<stop offset="0.953125" stop-color="#2FA6F7"/>
</linearGradient>
<linearGradient id="paint8_linear" x1="47.1362" y1="120.279" x2="50.5836" y2="120.516" gradientUnits="userSpaceOnUse">
<stop stop-color="#007AD3"/>
<stop offset="0.953125" stop-color="#2FA6F7"/>
</linearGradient>
<linearGradient id="paint9_linear" x1="28.4805" y1="137.58" x2="31.9279" y2="137.817" gradientUnits="userSpaceOnUse">
<stop stop-color="#007AD3"/>
<stop offset="0.953125" stop-color="#2FA6F7"/>
</linearGradient>
<linearGradient id="paint10_linear" x1="28.4827" y1="109.036" x2="31.9301" y2="109.273" gradientUnits="userSpaceOnUse">
<stop stop-color="#007AD3"/>
<stop offset="0.953125" stop-color="#2FA6F7"/>
</linearGradient>
<linearGradient id="paint11_linear" x1="56.571" y1="71.0448" x2="125.813" y2="80.3888" gradientUnits="userSpaceOnUse">
<stop stop-color="#0469B3"/>
<stop offset="0.953125" stop-color="#4894C7"/>
</linearGradient>
<linearGradient id="paint12_linear" x1="89.485" y1="99.2235" x2="86.0438" y2="103.892" gradientUnits="userSpaceOnUse">
<stop stop-color="#FFDAC1"/>
<stop offset="1" stop-color="#FAB072"/>
</linearGradient>
<linearGradient id="paint13_linear" x1="91.6011" y1="97.3262" x2="94.8459" y2="97.5493" gradientUnits="userSpaceOnUse">
<stop stop-color="#1197F9"/>
<stop offset="0.953125" stop-color="#5CBEFF"/>
</linearGradient>
<linearGradient id="paint14_linear" x1="82.396" y1="102.643" x2="85.6408" y2="102.866" gradientUnits="userSpaceOnUse">
<stop stop-color="#1197F9"/>
<stop offset="0.953125" stop-color="#5CBEFF"/>
</linearGradient>
<linearGradient id="paint15_linear" x1="96.2932" y1="66.6935" x2="110.868" y2="67.3698" gradientUnits="userSpaceOnUse">
<stop stop-color="#007AD3"/>
<stop offset="0.953125" stop-color="#2FA6F7"/>
</linearGradient>
<linearGradient id="paint16_linear" x1="103.679" y1="90.0561" x2="103.398" y2="92.6674" gradientUnits="userSpaceOnUse">
<stop stop-color="#0062AA"/>
<stop offset="1" stop-color="#00406F"/>
</linearGradient>
<linearGradient id="paint17_linear" x1="78.624" y1="63.6084" x2="102.722" y2="64.8982" gradientUnits="userSpaceOnUse">
<stop stop-color="#007AD3"/>
<stop offset="0.953125" stop-color="#2FA6F7"/>
</linearGradient>
<linearGradient id="paint18_linear" x1="78.624" y1="63.6084" x2="102.722" y2="64.8982" gradientUnits="userSpaceOnUse">
<stop stop-color="#007AD3"/>
<stop offset="0.953125" stop-color="#2FA6F7"/>
</linearGradient>
<linearGradient id="paint19_linear" x1="99.9702" y1="65.3874" x2="80.7543" y2="113.945" gradientUnits="userSpaceOnUse">
<stop stop-color="#0062AA"/>
<stop offset="1" stop-color="#00406F"/>
</linearGradient>
<linearGradient id="paint20_linear" x1="109.31" y1="92.4584" x2="109.202" y2="94.5073" gradientUnits="userSpaceOnUse">
<stop stop-color="#0062AA"/>
<stop offset="1" stop-color="#00406F"/>
</linearGradient>
<linearGradient id="paint21_linear" x1="105.808" y1="97.4646" x2="105.904" y2="98.8275" gradientUnits="userSpaceOnUse">
<stop stop-color="#0062AA"/>
<stop offset="1" stop-color="#00406F"/>
</linearGradient>
<linearGradient id="paint22_linear" x1="90.9568" y1="102.754" x2="90.848" y2="104.803" gradientUnits="userSpaceOnUse">
<stop stop-color="#0062AA"/>
<stop offset="1" stop-color="#00406F"/>
</linearGradient>
<linearGradient id="paint23_linear" x1="87.562" y1="107.678" x2="87.7246" y2="109.72" gradientUnits="userSpaceOnUse">
<stop stop-color="#0062AA"/>
<stop offset="1" stop-color="#00406F"/>
</linearGradient>
<linearGradient id="paint24_linear" x1="75.4448" y1="69.2721" x2="91.7889" y2="69.9642" gradientUnits="userSpaceOnUse">
<stop stop-color="#007AD3"/>
<stop offset="0.953125" stop-color="#2FA6F7"/>
</linearGradient>
<linearGradient id="paint25_linear" x1="82.45" y1="97.7698" x2="82.4241" y2="98.751" gradientUnits="userSpaceOnUse">
<stop stop-color="#0062AA"/>
<stop offset="1" stop-color="#00406F"/>
</linearGradient>
<linearGradient id="paint26_linear" x1="102.797" y1="90.0683" x2="110.641" y2="90.8106" gradientUnits="userSpaceOnUse">
<stop stop-color="#0469B3"/>
<stop offset="0.953125" stop-color="#4894C7"/>
</linearGradient>
<linearGradient id="paint27_linear" x1="84.8909" y1="99.6845" x2="92.2651" y2="100.262" gradientUnits="userSpaceOnUse">
<stop stop-color="#0469B3"/>
<stop offset="0.953125" stop-color="#4894C7"/>
</linearGradient>
<linearGradient id="paint28_linear" x1="98.1858" y1="73.0608" x2="94.2389" y2="73.2609" gradientUnits="userSpaceOnUse">
<stop stop-color="#007AD3"/>
<stop offset="0.953125" stop-color="#2FA6F7"/>
</linearGradient>
<linearGradient id="paint29_linear" x1="94.7393" y1="71.8144" x2="83.0321" y2="73.1993" gradientUnits="userSpaceOnUse">
<stop stop-color="#007AD3"/>
<stop offset="0.953125" stop-color="#2FA6F7"/>
</linearGradient>
<linearGradient id="paint30_linear" x1="103.309" y1="70.236" x2="120.057" y2="76.6929" gradientUnits="userSpaceOnUse">
<stop stop-color="#FEBBBA"/>
<stop offset="1" stop-color="#FF928E"/>
</linearGradient>
<linearGradient id="paint31_linear" x1="63.1897" y1="60.76" x2="65.2418" y2="60.8743" gradientUnits="userSpaceOnUse">
<stop stop-color="#1197F9"/>
<stop offset="0.953125" stop-color="#5CBEFF"/>
</linearGradient>
<linearGradient id="paint32_linear" x1="147.173" y1="86.6875" x2="132.824" y2="103.225" gradientUnits="userSpaceOnUse">
<stop stop-color="#FEB483"/>
<stop offset="1" stop-color="#F7A058"/>
</linearGradient>
<linearGradient id="paint33_linear" x1="146.176" y1="103.359" x2="145.509" y2="105.005" gradientUnits="userSpaceOnUse">
<stop stop-color="#FFB381"/>
<stop offset="1" stop-color="#EB7F26"/>
</linearGradient>
<linearGradient id="paint34_linear" x1="28.9366" y1="-8.86117" x2="25.3604" y2="44.5289" gradientUnits="userSpaceOnUse">
<stop stop-color="#007AD3"/>
<stop offset="1" stop-color="#F4FAFF"/>
</linearGradient>
<linearGradient id="paint35_linear" x1="-8835.47" y1="6889.47" x2="-8862.99" y2="6976.49" gradientUnits="userSpaceOnUse">
<stop stop-color="#FF8A78"/>
<stop offset="1" stop-color="#FFA799"/>
</linearGradient>
<linearGradient id="paint36_linear" x1="134.931" y1="155.936" x2="135.862" y2="167.623" gradientUnits="userSpaceOnUse">
<stop stop-color="#0062AA"/>
<stop offset="1" stop-color="#00406F"/>
</linearGradient>
<linearGradient id="paint37_linear" x1="-2901.57" y1="4496.28" x2="-2945.21" y2="4496.28" gradientUnits="userSpaceOnUse">
<stop stop-color="#FF8A78"/>
<stop offset="1" stop-color="#FFA799"/>
</linearGradient>
<linearGradient id="paint38_linear" x1="138.817" y1="157.047" x2="139.64" y2="164.8" gradientUnits="userSpaceOnUse">
<stop stop-color="#0062AA"/>
<stop offset="1" stop-color="#00406F"/>
</linearGradient>
<linearGradient id="paint39_linear" x1="-3966.19" y1="6568.2" x2="-4041.97" y2="6568.2" gradientUnits="userSpaceOnUse">
<stop stop-color="#FF8A78"/>
<stop offset="1" stop-color="#FFA799"/>
</linearGradient>
<linearGradient id="paint40_linear" x1="137.205" y1="151.154" x2="141.187" y2="169.91" gradientUnits="userSpaceOnUse">
<stop stop-color="#0062AA"/>
<stop offset="1" stop-color="#00406F"/>
</linearGradient>
<linearGradient id="paint41_linear" x1="132.933" y1="86.5446" x2="148.804" y2="105.559" gradientUnits="userSpaceOnUse">
<stop stop-color="#FFDAC1"/>
<stop offset="1" stop-color="#FAB072"/>
</linearGradient>
<linearGradient id="paint42_linear" x1="-4357.54" y1="6061.82" x2="-4426.38" y2="6009.85" gradientUnits="userSpaceOnUse">
<stop stop-color="#FF8A78"/>
<stop offset="1" stop-color="#FFA799"/>
</linearGradient>
<linearGradient id="paint43_linear" x1="117.61" y1="91.3274" x2="121.832" y2="105.312" gradientUnits="userSpaceOnUse">
<stop stop-color="#FEB483"/>
<stop offset="1" stop-color="#F7A058"/>
</linearGradient>
<linearGradient id="paint44_linear" x1="134.896" y1="90.1566" x2="136.009" y2="94.2882" gradientUnits="userSpaceOnUse">
<stop stop-color="#FEB483"/>
<stop offset="1" stop-color="#F7A058"/>
</linearGradient>
<linearGradient id="paint45_linear" x1="136.02" y1="69.9239" x2="143.797" y2="117.698" gradientUnits="userSpaceOnUse">
<stop stop-color="#0062AA"/>
<stop offset="1" stop-color="#00406F"/>
</linearGradient>
</defs>
</svg>
