<svg width="178" height="48" viewBox="0 0 178 48" fill="none" xmlns="http://www.w3.org/2000/svg">
<path d="M30.8185 17.19C30.888 17.1543 30.9702 17.1531 31.0407 17.1869L45.5668 24.1433C45.7532 24.2326 45.7569 24.4967 45.5731 24.5912L31.1272 32.0117C31.0544 32.0491 30.9679 32.0485 30.8956 32.01L17.1025 24.6751C16.9243 24.5803 16.9261 24.3242 17.1057 24.232L30.8185 17.19Z" fill="#0469B3"/>
<path d="M16.3137 24.2572C16.4802 24.345 16.6803 24.2242 16.6803 24.036V8.98097C16.6803 8.88836 16.6291 8.80334 16.5473 8.76002L0.36697 0.194271C0.20047 0.106127 0 0.226827 0 0.41522V15.5041C0 15.5968 0.0513492 15.682 0.133392 15.7252L16.3137 24.2572Z" fill="#1D232B"/>
<path d="M16.6803 24.8599C16.6803 24.6729 16.4824 24.5521 16.3161 24.6376L0.135761 32.9498C0.0524068 32.9926 0 33.0785 0 33.1722V47.5905C0 47.7775 0.197868 47.8983 0.364239 47.8128L16.5445 39.5006C16.6279 39.4578 16.6803 39.3719 16.6803 39.2782V24.8599Z" fill="#CDCCCC"/>
<path d="M67.2043 34.4806C66.5398 33.1665 65.8703 31.7603 65.2108 30.2969C64.5263 28.7787 63.8792 27.2878 63.2844 25.8642C62.6771 24.4082 62.1246 23.0643 61.6417 21.8746C61.1489 20.66 60.7458 19.6396 60.4496 18.8456C60.3301 18.5296 60.2206 18.2409 60.1186 17.987C60.019 17.7381 59.9294 17.5042 59.8523 17.2926C59.7179 16.9118 59.6258 16.5982 59.5785 16.3618C59.5337 16.1328 59.5088 15.9163 59.5088 15.7147C59.5088 15.4185 59.6059 15.1472 59.8075 14.8859C59.9891 14.6519 60.3251 14.5325 60.8105 14.5325C61.2286 14.5325 61.5521 14.5798 61.7761 14.6743C61.913 14.7316 61.9927 14.7689 62.0375 14.7913C62.4058 15.874 62.8588 17.1532 63.3839 18.5918C63.924 20.0727 64.5039 21.6182 65.1037 23.1862C65.711 24.7691 68.964 32.6314 68.964 32.6314C68.964 32.6314 70.6763 28.5845 71.0322 27.6562C71.3906 26.7204 71.7689 25.7323 72.1671 24.6969C72.5778 23.6317 72.9735 22.5889 73.3493 21.6008C73.7376 20.5754 74.1109 19.5873 74.4718 18.6416C74.8202 17.7182 75.1438 16.8571 75.43 16.083C75.6515 15.4957 75.8954 15.08 76.1567 14.8535C76.4006 14.642 76.8013 14.535 77.3464 14.535C77.7372 14.535 78.0707 14.6046 78.337 14.7415C78.4888 14.8212 78.6157 14.8859 78.7202 14.9357C78.5634 15.3488 78.3444 15.9188 78.0682 16.6455C77.7297 17.5291 77.324 18.5569 76.8586 19.7043C76.4429 20.7297 75.9626 21.9194 75.3479 23.4426C74.8152 24.7641 74.2577 26.1106 73.6903 27.4446C73.1178 28.7886 72.5603 30.0928 72.0327 31.3148C71.53 32.4821 71.0546 33.5448 70.6165 34.4781H67.2043V34.4806Z" fill="#1D232B"/>
<path d="M80.7212 34.4806V16.0159C80.7212 15.5131 80.8506 15.1448 81.1144 14.8884C81.3757 14.6345 81.7939 14.5051 82.3514 14.5051H87.675C89.3077 14.5051 90.801 14.7465 92.1077 15.2219C93.4094 15.6948 94.5343 16.3693 95.4502 17.2254C96.3611 18.0791 97.068 19.1319 97.5483 20.3514C98.0312 21.5784 98.2751 22.9672 98.2751 24.478C98.2751 25.9887 98.0312 27.3775 97.5483 28.6045C97.068 29.8265 96.3611 30.8818 95.4502 31.7479C94.5368 32.614 93.4118 33.2935 92.1102 33.7663C90.8035 34.2417 89.3102 34.4831 87.6775 34.4831H80.7212V34.4806ZM83.3843 16.6306V32.3577H83.668H87.4958C88.7826 32.3577 89.9349 32.1585 90.9205 31.7703C91.9111 31.3795 92.7548 30.822 93.4268 30.1177C94.0988 29.4158 94.6164 28.5721 94.9674 27.6114C95.3158 26.6582 95.4925 25.6029 95.4925 24.478C95.4925 23.353 95.3158 22.3002 94.9674 21.347C94.6164 20.3888 94.0963 19.5451 93.4268 18.8407C92.7523 18.1364 91.9086 17.5838 90.918 17.203C89.9324 16.8222 88.7826 16.6306 87.4983 16.6306H83.6705H83.3843Z" fill="#1D232B"/>
<path d="M110.518 34.9883C109.009 34.9883 107.613 34.7195 106.369 34.1894C105.124 33.6592 104.039 32.9151 103.143 31.9818C102.247 31.0459 101.535 29.926 101.035 28.6492C100.532 27.3724 100.276 25.9687 100.276 24.4779C100.276 22.987 100.532 21.5808 101.035 20.3065C101.538 19.0323 102.245 17.9173 103.143 16.9914C104.039 16.068 105.124 15.3288 106.369 14.7962C107.613 14.2661 109.009 13.9973 110.518 13.9973C112.026 13.9973 113.427 14.2661 114.684 14.7962C115.938 15.3264 117.028 16.0655 117.924 16.9889C118.82 17.9148 119.53 19.0298 120.032 20.3041C120.535 21.5809 120.791 22.9846 120.791 24.4754C120.791 25.9662 120.535 27.3699 120.032 28.6467C119.53 29.9235 118.82 31.0435 117.924 31.9768C117.028 32.9101 115.938 33.6543 114.684 34.1844C113.427 34.7195 112.026 34.9883 110.518 34.9883ZM110.547 16.1825C109.435 16.1825 108.407 16.3916 107.486 16.8047C106.565 17.2179 105.769 17.8077 105.117 18.5519C104.467 19.2936 103.962 20.1796 103.611 21.1876C103.262 22.1881 103.088 23.2957 103.088 24.4804C103.088 25.665 103.265 26.7751 103.611 27.788C103.959 28.806 104.467 29.697 105.117 30.4387C105.769 31.1828 106.565 31.7752 107.484 32.1983C108.402 32.6214 109.435 32.8379 110.547 32.8379C111.66 32.8379 112.688 32.6239 113.596 32.1983C114.505 31.7752 115.296 31.1828 115.948 30.4387C116.598 29.697 117.103 28.806 117.454 27.788C117.802 26.7751 117.977 25.6626 117.977 24.4804C117.977 23.2982 117.8 22.1906 117.454 21.1876C117.103 20.1796 116.598 19.2936 115.948 18.5519C115.296 17.8077 114.505 17.2204 113.596 16.8072C112.683 16.3916 111.657 16.1825 110.547 16.1825Z" fill="#1D232B"/>
<path d="M123.567 34.4807V15.1572C123.567 14.7242 123.681 14.418 123.913 14.2239C124.159 14.0198 124.52 13.9153 124.988 13.9153C125.297 13.9153 125.585 13.9551 125.847 14.0372C126.028 14.0945 126.15 14.1368 126.23 14.1691V31.9545L126.514 32.2382H136.248V34.4832H123.567V34.4807Z" fill="#006AB3"/>
<path d="M140.269 17.198C139.824 17.198 139.448 17.0437 139.122 16.7251C138.796 16.409 138.639 16.0407 138.639 15.5976C138.639 15.1546 138.796 14.7863 139.122 14.4702C139.448 14.1516 139.824 13.9973 140.269 13.9973C140.735 13.9973 141.121 14.1516 141.447 14.4702C141.773 14.7863 141.929 15.1546 141.929 15.5976C141.929 16.0407 141.773 16.409 141.447 16.7251C141.121 17.0437 140.735 17.198 140.269 17.198Z" fill="#006AB3"/>
<path d="M139.027 34.4806V21.1603C139.027 20.7521 139.132 20.4734 139.348 20.3091C139.585 20.1299 139.936 20.0378 140.389 20.0378C140.702 20.0378 140.984 20.0702 141.23 20.1324C141.379 20.1722 141.491 20.2021 141.571 20.227V34.4806H139.027Z" fill="#006AB3"/>
<path d="M157.027 34.4807V26.3322C157.027 24.8115 156.649 23.6293 155.905 22.8204C155.153 22.0066 153.978 21.5934 152.408 21.5934C151.367 21.5934 150.524 21.693 149.901 21.8921C149.284 22.0887 148.898 22.2256 148.724 22.3127L148.567 22.5665V34.4832H146.054V20.7796C146.151 20.7397 146.303 20.68 146.532 20.5904C146.88 20.456 147.353 20.3067 147.938 20.1524C148.525 19.9956 149.22 19.8587 149.999 19.7392C150.778 19.6222 151.649 19.5625 152.587 19.5625C153.647 19.5625 154.625 19.7044 155.491 19.9831C156.348 20.2594 157.084 20.6576 157.682 21.1703C158.274 21.678 158.737 22.2977 159.058 23.0145C159.379 23.7313 159.541 24.5576 159.541 25.471V34.4857H157.027V34.4807Z" fill="#006AB3"/>
<path d="M174.138 34.4806C173.715 33.9131 173.219 33.3208 172.664 32.7185C172.072 32.0764 171.44 31.4342 170.783 30.8071C170.128 30.1824 169.444 29.5701 168.752 28.9852C168.063 28.4053 167.388 27.8777 166.746 27.4172L166.298 27.6487V34.4806H163.784V14.1318C163.784 13.6091 163.939 13.0093 165.146 13.0093C165.434 13.0093 165.706 13.0466 165.947 13.1163C166.089 13.1586 166.206 13.1935 166.298 13.2233V25.6103L166.758 25.8318C166.948 25.68 167.254 25.4386 167.727 25.0727C168.14 24.7517 168.62 24.3759 169.237 23.8905C169.777 23.4674 170.36 23.0145 170.969 22.5466C171.567 22.0886 172.127 21.6605 172.644 21.2598C173.207 20.8118 173.67 20.4957 174.021 20.3166C174.347 20.1498 174.753 20.0627 175.223 20.0627C175.479 20.0627 175.701 20.105 175.882 20.1871C176.084 20.2792 176.266 20.3813 176.42 20.4908C176.564 20.5928 176.674 20.6924 176.746 20.7869C176.754 20.7969 176.759 20.8044 176.766 20.8143C176.627 20.9363 176.437 21.0906 176.201 21.2772C175.833 21.566 175.4 21.9044 174.902 22.2927C174.399 22.6859 173.871 23.0916 173.334 23.5023C172.786 23.9204 172.259 24.3186 171.768 24.682C171.271 25.0503 170.825 25.3789 170.437 25.6701C170.066 25.9463 169.792 26.1479 169.648 26.25V26.7104C170.494 27.3202 171.315 27.9872 172.089 28.694C172.868 29.4033 173.608 30.1276 174.287 30.8469C174.964 31.5662 175.599 32.2854 176.171 32.9848C176.602 33.5124 176.992 34.0152 177.333 34.4806H174.138Z" fill="#006AB3"/>
</svg>
