<svg width="458" height="359" viewBox="0 0 458 359" fill="none" xmlns="http://www.w3.org/2000/svg">
<rect x="11.2837" y="35.712" width="435.054" height="250.611" rx="10" stroke="#E0E0E0" stroke-width="2"/>
<line x1="25.4375" y1="71.5117" x2="428.524" y2="71.5117" stroke="#E0E0E0" stroke-width="2"/>
<ellipse cx="26.7429" cy="54.989" rx="3.88888" ry="3.88669" fill="#E0E0E0"/>
<ellipse cx="42.2976" cy="54.989" rx="3.88888" ry="3.88669" fill="#E0E0E0"/>
<ellipse cx="57.8542" cy="54.989" rx="3.88888" ry="3.88669" fill="#E0E0E0"/>
<g clip-path="url(#clip0)">
<path d="M341.986 98.4463L370.614 91.8074C370.614 91.8074 389.754 90.0931 392.343 107.042C394.931 123.991 394.182 265.613 393.372 286.321H321.106L341.986 98.4463Z" fill="url(#paint0_linear)"/>
<path d="M326.755 294.481C326.755 294.481 332.473 214.594 373.151 165.896C373.681 165.261 374.6 165.42 374.88 166.201C379.313 178.538 404.226 257.868 326.755 294.481Z" fill="url(#paint1_linear)"/>
<path opacity="0.5" d="M371.395 189.079C371.053 193.74 370.375 198.339 369.59 202.93C368.778 207.513 367.824 212.073 366.703 216.595C364.465 225.639 361.663 234.557 358.219 243.235C356.483 247.567 354.641 251.862 352.58 256.055C351.58 258.166 350.466 260.221 349.398 262.297C348.263 264.34 347.155 266.396 345.925 268.386C341.164 276.425 335.586 284.001 329.22 290.819C329.031 291.022 328.711 291.034 328.507 290.844C328.316 290.667 328.294 290.375 328.451 290.172L328.456 290.166C334.12 282.851 339.223 275.162 343.65 267.09C344.791 265.092 345.806 263.024 346.893 260.999C347.902 258.931 348.958 256.887 349.898 254.787C350.37 253.739 350.882 252.708 351.338 251.653L352.732 248.497C353.189 247.441 353.618 246.374 354.062 245.312C354.512 244.254 354.932 243.182 355.345 242.108C356.206 239.974 357.005 237.815 357.811 235.66C358.581 233.49 359.35 231.321 360.07 229.133C361.555 224.773 362.873 220.357 364.145 215.926C365.391 211.488 366.55 207.023 367.59 202.526C368.65 198.038 369.593 193.505 370.392 188.971L370.394 188.956C370.442 188.682 370.704 188.5 370.978 188.548C371.237 188.592 371.413 188.825 371.395 189.079Z" fill="url(#paint2_linear)"/>
<path d="M331.797 285.738C331.797 285.738 373.73 215.471 419.35 214.369C420.159 214.35 420.774 215.09 420.608 215.879C418.665 225.064 405.083 273.146 331.797 285.738Z" fill="url(#paint3_linear)"/>
<path opacity="0.5" d="M409.691 225.517C406.927 228.409 404.08 231.19 401.194 233.945C399.736 235.304 398.278 236.663 396.807 238.008C395.321 239.336 393.853 240.684 392.352 241.997C386.366 247.264 380.193 252.322 373.857 257.168C370.713 259.623 367.457 261.93 364.243 264.293L359.327 267.705C358.506 268.272 357.69 268.846 356.861 269.399L354.351 271.03C347.722 275.475 340.795 279.46 333.819 283.33C333.575 283.464 333.269 283.378 333.133 283.135C332.999 282.896 333.082 282.596 333.317 282.458L333.331 282.45L338.479 279.442L341.052 277.938C341.902 277.424 342.737 276.884 343.581 276.359L348.639 273.205C350.305 272.125 351.951 271.011 353.61 269.916L356.091 268.268L358.536 266.563L363.42 263.149C366.613 260.785 369.849 258.478 372.972 256.022C376.137 253.622 379.233 251.132 382.331 248.645L386.92 244.842L391.452 240.973C392.96 239.681 394.439 238.354 395.933 237.045C397.414 235.723 398.881 234.384 400.349 233.045C403.27 230.356 406.171 227.632 408.961 224.825L408.968 224.818C409.163 224.621 409.483 224.618 409.68 224.814C409.877 225.006 409.881 225.32 409.691 225.517Z" fill="url(#paint4_linear)"/>
<path d="M283.787 99.8255L370.614 91.8074C370.614 91.8074 347.546 90.2324 347.546 143.292C347.546 183.858 353.585 261.286 348.312 275.985C343.039 290.682 323.322 310.44 295.06 293.46C266.798 276.478 283.787 99.8255 283.787 99.8255Z" fill="url(#paint5_linear)"/>
<path d="M269.928 20.2782C269.928 20.2782 322.362 17.6005 334.851 16.8122C334.851 16.8122 328.957 -0.666707 311.454 0.496234C293.952 1.65917 269.928 20.2782 269.928 20.2782Z" fill="url(#paint6_linear)"/>
<path d="M82.8748 39.9406C87.889 96.0909 98.4241 214.859 103.007 272.713C104.028 285.611 114.405 295.798 127.365 296.626C177.72 297.913 271.125 299.479 317.3 299.977C308.166 295.491 302.415 286.195 302.498 276.05L304.616 16.4403C304.69 7.26655 313.861 0.675748 322.485 3.89426C327.918 5.9222 332.031 10.2424 334.852 16.8091C331.087 5.88135 325.167 -2.11507 311.456 0.493137C311.456 0.493137 177.35 1.82908 112.274 5.84891C94.5904 6.94217 81.3034 22.3607 82.8748 39.9406Z" fill="url(#paint7_linear)"/>
<mask id="mask0" mask-type="alpha" maskUnits="userSpaceOnUse" x="87" y="6" width="218" height="293">
<path d="M116.049 13.2826L296.247 6.37219C288.815 61.1878 291.951 172.814 294.788 282.825C294.955 289.348 298.795 295.216 304.716 298.005C304.716 298.005 184.524 299.384 132.881 295.735C120.722 294.876 110.802 285.71 108.995 273.699C101.906 226.566 84.9444 104.804 88.4741 40.3413C89.2833 25.5787 101.22 13.852 116.049 13.2826Z" fill="url(#paint8_linear)"/>
</mask>
<g mask="url(#mask0)">
<path opacity="0.5" d="M118.257 13.2826L296.246 6.37219C288.814 61.1878 291.951 172.814 294.787 282.825C294.955 289.348 298.794 295.216 304.716 298.005C304.716 298.005 184.524 299.384 132.881 295.735C120.722 294.876 110.802 285.71 108.995 273.7C107.777 225.506 87.1524 104.804 90.6822 40.3413C91.4913 25.5787 103.428 13.852 118.257 13.2826Z" fill="url(#paint9_linear)"/>
<path opacity="0.5" d="M209.792 280.684C209.121 280.684 208.451 280.366 207.744 279.715C205.143 277.318 204.471 273.635 204.289 270.132C203.088 271.479 201.86 272.791 200.646 274.089L199.974 273.456C201.4 271.932 202.845 270.389 204.24 268.794C204.124 263.995 204.345 259.145 204.896 254.377C205.234 251.454 205.721 248.359 206.985 245.536C207.388 244.636 208.056 243.346 209.207 242.539C210.407 241.698 211.981 241.606 213.034 242.316C214.218 243.114 214.536 244.626 214.673 245.693C215.478 251.967 213.036 257.719 210.847 261.438C209.222 264.199 207.255 266.726 205.17 269.13C205.278 272.716 205.773 276.644 208.368 279.033C208.914 279.537 209.399 279.782 209.836 279.758C210.567 279.732 211.159 279.02 211.641 278.327C213.835 275.177 215.541 271.761 216.733 268.138C216.872 267.048 217.176 265.98 217.638 264.982L218.503 265.287C218.253 266.32 217.963 267.34 217.635 268.344C217.513 269.37 217.551 270.415 217.753 271.43C217.861 271.97 218.314 273.749 219.625 274C220.6 274.187 221.622 273.443 222.748 271.728L227.361 264.696L226.778 267.213C226.572 268.102 226.227 270.224 227.464 270.734C228.168 271.024 228.913 270.604 229.774 270.117C230.63 269.633 231.516 269.134 232.523 269.267L232.998 269.331L232.916 269.804C232.87 270.075 232.497 272.455 233.728 272.729C234.29 272.854 234.763 272.463 235.474 271.804C236.032 271.286 236.61 270.75 237.37 270.566L237.587 271.465C237.06 271.592 236.594 272.025 236.1 272.483C235.398 273.133 234.603 273.87 233.529 273.632C232.127 273.321 231.782 271.737 231.935 270.19C231.383 270.271 230.817 270.59 230.226 270.924C229.291 271.452 228.231 272.051 227.113 271.59C226.191 271.211 225.692 270.292 225.654 268.979L223.517 272.237C222.653 273.553 221.292 275.259 219.452 274.909C218.185 274.667 217.213 273.435 216.849 271.613C216.798 271.359 216.757 271.103 216.724 270.846C215.593 273.663 214.146 276.344 212.395 278.858C211.817 279.686 211.009 280.642 209.867 280.683C209.843 280.684 209.818 280.684 209.792 280.684ZM211.396 242.758C210.79 242.758 210.179 242.986 209.734 243.297C208.771 243.973 208.184 245.114 207.825 245.915C206.612 248.623 206.14 251.634 205.81 254.484C205.304 258.869 205.078 263.324 205.14 267.745C206.945 265.61 208.636 263.375 210.053 260.968C212.169 257.374 214.53 251.825 213.759 245.81C213.578 244.397 213.184 243.53 212.52 243.082C212.178 242.854 211.788 242.758 211.396 242.758Z" fill="url(#paint10_linear)"/>
<rect opacity="0.65" width="161.461" height="24.302" rx="5" transform="matrix(0.999531 -0.0306151 0.0309035 0.999522 112.34 45.7075)" fill="white"/>
<g opacity="0.65">
<rect width="29.99" height="38.2915" rx="5" transform="matrix(0.999531 -0.0306152 0.0309035 0.999522 112.34 87.1504)" fill="white"/>
<rect width="122.14" height="8.57738" rx="4.28869" transform="matrix(0.999531 -0.0306152 0.0309035 0.999522 149.696 90.6503)" fill="white"/>
<rect width="122.14" height="8.57737" rx="4.28869" transform="matrix(0.999531 -0.0306151 0.0309035 0.999522 149.696 111.032)" fill="white"/>
</g>
<g opacity="0.65">
<rect width="29.99" height="38.2915" rx="5" transform="matrix(0.999531 -0.0306151 0.0309035 0.999522 112.34 142.809)" fill="white"/>
<rect width="122.14" height="8.57737" rx="4.28868" transform="matrix(0.999531 -0.0306151 0.0309036 0.999522 149.696 146.309)" fill="white"/>
<rect width="122.14" height="8.57736" rx="4.28868" transform="matrix(0.999531 -0.0306151 0.0309036 0.999522 149.696 166.692)" fill="white"/>
</g>
<g opacity="0.65">
<rect width="29.99" height="38.2914" rx="5" transform="matrix(0.999531 -0.0306151 0.0309036 0.999522 112.34 196.901)" fill="white"/>
<rect width="122.14" height="8.57737" rx="4.28868" transform="matrix(0.999531 -0.0306151 0.0309036 0.999522 149.696 200.401)" fill="white"/>
<rect width="122.14" height="8.57739" rx="4.28869" transform="matrix(0.999531 -0.0306152 0.0309035 0.999522 149.696 220.783)" fill="white"/>
</g>
</g>
</g>
<path opacity="0.2" d="M347.886 327.073C347.507 326.657 346.971 326.421 346.408 326.421L111.214 326.421C110.651 326.421 110.115 326.657 109.736 327.073L87.6804 351.267C86.5098 352.551 87.4208 354.614 89.1584 354.614H368.464C370.201 354.614 371.112 352.551 369.942 351.267L347.886 327.073Z" fill="url(#paint11_linear)"/>
<path d="M204.43 209.305L212.592 208.903C212.592 208.903 220.165 214.966 219.311 216.111C218.457 217.256 217.235 215.955 217.235 215.955C217.235 215.955 218.524 217.811 216.191 218.186C216.191 218.186 215.553 219.348 214.689 219.174L214.141 219.138C214.141 219.138 213.531 220.623 212.817 220.243C212.104 219.857 210.026 217.724 210.026 217.724L203.538 215.835L204.43 209.305Z" fill="url(#paint12_linear)"/>
<path d="M209.798 215.548C209.798 215.548 208.21 216.026 207.838 216.621C207.472 217.217 207.176 218.668 208.153 219.006C208.527 219.138 209.912 219.081 209.912 219.081L209.652 217.427C209.652 217.427 210.28 216.804 210.648 216.541C210.998 216.297 210.717 215.202 209.798 215.548Z" fill="#F28F8F"/>
<path d="M211.476 216.505C211.476 216.505 209.888 216.982 209.516 217.577C209.15 218.173 209.283 219.231 210.26 219.574C210.634 219.706 211.86 219.637 211.86 219.637L211.723 219.31C211.454 218.677 211.357 218.172 211.939 217.811C211.972 217.792 212.303 217.526 212.326 217.507C212.652 217.241 212.395 216.158 211.476 216.505Z" fill="#F28F8F"/>
<path d="M211.626 219.562C211.362 219.283 211.371 218.816 211.582 218.489C211.793 218.168 212.161 217.972 212.54 217.897C212.788 217.848 213.088 217.86 213.239 218.063C213.333 218.195 213.335 218.377 213.302 218.535C213.214 218.959 212.908 219.3 212.614 219.62C212.456 219.79 212.265 219.973 212.033 219.95C211.796 219.927 211.647 219.698 211.528 219.492" fill="#F28F8F"/>
<path d="M219.129 207.009L210.947 207.01C210.04 206.988 209.277 207.689 209.23 208.594C209.139 210.211 209.247 212.451 210.528 212.334L211.597 208.869L217.09 214.496C217.643 215.077 218.349 215.494 219.129 215.692L221.288 215.692L219.129 207.009Z" fill="#F28F8F"/>
<g clip-path="url(#clip1)">
<path d="M238.754 342.97C242.96 343.333 250.26 343.923 256.015 344.176C259.474 344.329 261.466 343.99 262.612 343.531C262.611 343.66 262.607 343.783 262.602 343.896C262.574 344.501 262.083 344.985 261.471 345.019C250.597 345.627 241.949 345.229 238.87 345.042C238.233 345.002 237.854 344.312 238.179 343.768C238.342 343.499 238.538 343.233 238.754 342.97Z" fill="url(#paint13_linear)"/>
<path d="M256.015 344.176C250.26 343.923 242.96 343.333 238.754 342.97C242.888 337.899 256.015 334.481 256.015 334.481H259.722C262.272 338.155 262.641 341.652 262.612 343.531C261.465 343.99 259.474 344.329 256.015 344.176Z" fill="url(#paint14_linear)"/>
<path d="M260.344 328.432L259.998 335.293C259.96 336.036 259.403 336.66 258.659 336.767C257.918 336.872 256.926 336.887 255.874 336.536C255.227 336.321 254.746 335.777 254.626 335.111L253.428 328.432H260.344Z" fill="url(#paint15_linear)"/>
<path d="M308.495 344.126C310.319 343.871 311.144 342.924 311.49 341.912C311.492 341.921 311.495 341.93 311.496 341.939C311.765 343.008 311.143 344.114 309.899 344.64C308.396 345.276 306.752 345.384 305.476 345.332C304.107 345.276 302.851 344.709 302.161 343.804L302.15 343.789C303.525 344.47 305.453 344.549 308.495 344.126Z" fill="url(#paint16_linear)"/>
<path d="M299.895 328.389H302.952C307.61 328.294 310.533 338.111 311.49 341.912C311.144 342.924 310.319 343.871 308.495 344.126C305.453 344.549 303.524 344.47 302.151 343.789C299.634 340.481 298.388 335.635 297.788 332.807C297.106 329.591 299.895 328.389 299.895 328.389Z" fill="url(#paint17_linear)"/>
<path d="M302.56 322.021L304.258 328.77C304.466 329.597 304.07 330.454 303.305 330.846C302.355 331.333 301.018 331.845 299.789 331.697C299.212 331.628 298.732 331.22 298.54 330.676L296.049 323.577L302.56 322.021Z" fill="url(#paint18_linear)"/>
<path d="M304.585 323.971C302.473 325.843 294.32 326.191 294.32 326.191C268.519 267.611 260.539 250.389 260.539 250.389C264.112 272.795 261.31 330.305 261.31 330.305C257.226 332.106 251.962 330.305 251.962 330.305C246.925 292.869 240.812 250.389 240.812 225.862C257.537 225.485 265.614 224.973 268.519 222.677C282.46 245.14 304.585 323.971 304.585 323.971Z" fill="#1D232B"/>
</g>
<path d="M218.154 206.212L230.418 204.218L238.739 181.797C239.903 178.666 242.4 176.914 245.737 175.199C246.989 174.555 249.812 173.632 249.812 173.632L254.282 229.888H240.234L241.976 204.218C241.976 203.706 241.415 212.477 236.033 213.44C230.65 214.403 221.022 216.085 221.022 216.085L218.154 206.212Z" fill="url(#paint19_linear)"/>
<path d="M266.424 174.393C266.424 174.393 277.057 177.646 278.961 179.723L274.573 209.031L272.703 230.333C272.703 230.333 267.364 232.526 256.08 232.526C241.035 232.526 240.095 230.333 240.095 230.333C240.095 227.221 242.871 187.458 242.871 187.458L243.754 177.308C243.817 176.586 244.266 175.954 244.927 175.657L247.741 174.393C247.741 174.393 249.015 171.82 251.564 171.5C254.112 171.181 263.813 172.223 263.813 172.223L266.424 174.393Z" fill="url(#paint20_linear)"/>
<path d="M255.613 185.966C255.616 185.969 255.643 185.936 255.697 185.867C255.754 185.789 255.829 185.69 255.919 185.571C256.116 185.295 256.392 184.915 256.733 184.442C257.434 183.454 258.407 182.08 259.558 180.461L259.432 180.443C259.869 181.724 260.351 183.14 260.858 184.628L260.89 184.72L260.971 184.667C261.025 184.634 261.082 184.595 261.139 184.559C261.81 184.134 262.403 183.622 262.903 183.068C263.403 182.511 263.82 181.919 264.164 181.326C264.853 180.137 265.269 178.967 265.551 177.976C265.833 176.982 265.979 176.156 266.075 175.59C266.123 175.318 266.159 175.102 266.189 174.938C266.204 174.863 266.219 174.809 266.228 174.77C266.243 174.737 266.249 174.716 266.246 174.716C266.213 174.701 266.126 175.016 266.015 175.581C265.898 176.144 265.737 176.964 265.443 177.949C265.15 178.931 264.727 180.09 264.038 181.257C263.694 181.841 263.284 182.421 262.789 182.969C262.292 183.511 261.711 184.014 261.055 184.43C260.998 184.466 260.941 184.502 260.89 184.535L261.004 184.577C260.492 183.089 260.007 181.676 259.567 180.398L259.522 180.263L259.441 180.38C258.312 182.011 257.353 183.397 256.664 184.394C256.335 184.876 256.074 185.265 255.883 185.547C255.799 185.672 255.733 185.774 255.679 185.855C255.631 185.924 255.61 185.963 255.613 185.966Z" fill="#263238"/>
<path d="M248.245 173.954C248.245 173.954 248.145 174.24 248.094 174.829C248.041 175.415 248.049 176.295 248.176 177.383C248.241 177.927 248.327 178.525 248.457 179.164C248.592 179.804 248.796 180.458 249.027 181.142C249.494 182.51 250.085 183.999 250.765 185.59L250.846 185.777V185.554C250.848 184.505 250.848 183.402 250.85 182.254L250.773 182.31C251.358 183.024 251.971 183.776 252.605 184.552L252.589 184.517C253.013 186.557 253.293 188.828 253.403 191.192C253.582 194.811 253.439 198.273 253.325 201.413C253.229 204.556 253.166 207.39 253.101 209.766C253.038 212.144 252.982 214.065 252.934 215.395C252.909 216.052 252.889 216.566 252.876 216.923C252.868 217.092 252.903 217.36 252.899 217.458C252.895 217.547 253.59 230.578 253.59 230.578C253.59 230.578 253.237 230.668 253.245 230.578C253.251 230.483 252.885 217.095 252.897 216.929C252.919 216.581 252.946 216.064 252.976 215.4C253.035 214.071 253.103 212.15 253.174 209.771C253.244 207.393 253.327 204.562 253.421 201.422C253.539 198.284 253.686 194.814 253.507 191.184C253.395 188.811 253.115 186.527 252.685 184.475L252.681 184.454L252.67 184.439C252.036 183.666 251.42 182.917 250.836 182.203L250.759 182.111V182.26C250.761 183.405 250.761 184.508 250.763 185.56L250.844 185.525C249.496 182.358 248.4 179.604 248.231 177.377C248.096 176.298 248.08 175.426 248.125 174.841C248.145 174.546 248.182 174.329 248.206 174.18C248.231 174.032 248.245 173.954 248.245 173.954Z" fill="#263238"/>
<path d="M251.598 212.792L251.719 212.79C252.202 212.799 252.633 213.092 252.633 213.414C252.633 213.736 252.206 214.032 251.725 214.043C251.241 214.054 250.784 213.778 250.754 213.459C250.721 213.137 251.118 212.823 251.598 212.792Z" fill="white"/>
<path d="M251.969 200.795L252.077 200.792C252.511 200.804 252.897 201.2 252.897 201.634C252.897 202.068 252.514 202.466 252.083 202.481C251.648 202.496 251.238 202.125 251.211 201.694C251.181 201.259 251.538 200.837 251.969 200.795Z" fill="white"/>
<path d="M252.082 190.474C251.648 190.489 251.238 190.118 251.211 189.687C251.181 189.256 251.54 188.833 251.971 188.792L252.079 188.789C252.514 188.801 252.9 189.196 252.9 189.63C252.897 190.061 252.514 190.459 252.082 190.474Z" fill="white"/>
<g opacity="0.3">
<path opacity="0.3" d="M266.141 175.09C266.557 179.153 265.012 183.442 261.753 185.903C261.498 186.098 261.175 186.286 260.875 186.178C260.666 186.103 260.531 185.903 260.42 185.708C259.492 184.101 259.18 182.326 259.447 180.488C259.962 181.847 260.405 183.179 260.926 184.601C263.769 182.88 265.539 179.215 266.141 175.09Z" fill="black"/>
</g>
<path opacity="0.3" d="M252.633 184.621L250.942 183.764L250.663 187.729C250.663 187.729 248.839 183.119 248.084 181.015C247.329 178.911 247.718 175.198 247.718 175.198C247.718 175.198 247.447 178.432 249.275 182.555L250.655 185.666V182.409L252.633 184.621Z" fill="black"/>
<path d="M275.618 188.702C275.66 188.711 275.986 187.286 276.346 185.52C276.705 183.754 276.963 182.317 276.921 182.308C276.879 182.299 276.552 183.724 276.193 185.49C275.834 187.256 275.576 188.693 275.618 188.702Z" fill="#263238"/>
<path d="M271.529 184.577C271.568 184.559 271.158 183.556 270.616 182.335C270.071 181.113 269.597 180.137 269.558 180.155C269.519 180.173 269.93 181.176 270.472 182.398C271.017 183.619 271.49 184.595 271.529 184.577Z" fill="white"/>
<path d="M261.918 191.668C261.951 191.695 262.568 191.007 263.292 190.13C264.02 189.253 264.58 188.519 264.547 188.492C264.514 188.465 263.898 189.154 263.173 190.031C262.445 190.905 261.882 191.638 261.918 191.668Z" fill="white"/>
<path d="M264.129 201.418C264.165 201.394 263.701 200.694 263.093 199.856C262.485 199.017 261.963 198.359 261.93 198.386C261.895 198.41 262.359 199.11 262.967 199.948C263.572 200.784 264.093 201.442 264.129 201.418Z" fill="white"/>
<path d="M267.105 215.188C267.123 215.197 267.261 214.97 267.456 214.586C267.654 214.203 267.908 213.667 268.163 213.066C268.42 212.461 268.627 211.907 268.768 211.5C268.905 211.093 268.977 210.836 268.956 210.83C268.935 210.824 268.828 211.066 268.663 211.461C268.474 211.91 268.259 212.431 268.019 213.006C267.773 213.578 267.549 214.092 267.354 214.541C267.186 214.934 267.084 215.179 267.105 215.188Z" fill="white"/>
<path d="M258.647 209.336C258.656 209.378 259.47 209.255 260.465 209.063C261.462 208.872 262.262 208.68 262.253 208.638C262.244 208.596 261.429 208.719 260.435 208.911C259.44 209.102 258.638 209.294 258.647 209.336Z" fill="white"/>
<path d="M252.087 196.467C252.12 196.437 251.342 195.551 250.353 194.482C249.365 193.417 248.535 192.575 248.505 192.605C248.472 192.635 249.251 193.521 250.239 194.59C251.228 195.656 252.054 196.497 252.087 196.467Z" fill="white"/>
<path d="M245.485 213.629C245.518 213.656 246.486 212.536 247.648 211.126C248.81 209.716 249.723 208.552 249.691 208.525C249.658 208.498 248.69 209.617 247.528 211.027C246.366 212.437 245.452 213.602 245.485 213.629Z" fill="white"/>
<path d="M273.428 178.162C273.407 178.201 273.859 178.491 274.437 178.811C275.016 179.132 275.504 179.362 275.525 179.323C275.546 179.284 275.093 178.994 274.515 178.674C273.934 178.353 273.449 178.123 273.428 178.162Z" fill="white"/>
<path d="M261.686 181.287C261.718 181.314 262.237 180.691 262.842 179.898C263.447 179.105 263.908 178.443 263.872 178.416C263.839 178.389 263.321 179.012 262.716 179.805C262.114 180.598 261.653 181.263 261.686 181.287Z" fill="white"/>
<path d="M246.776 188.732C246.806 188.759 247.351 188.199 247.854 187.385C248.363 186.57 248.624 185.837 248.588 185.822C248.546 185.804 248.223 186.502 247.722 187.304C247.225 188.103 246.74 188.702 246.776 188.732Z" fill="white"/>
<path d="M241.087 190.606C241.048 190.624 241.324 191.318 241.704 192.153C242.085 192.991 242.423 193.656 242.465 193.638C242.504 193.62 242.228 192.926 241.848 192.09C241.468 191.252 241.126 190.588 241.087 190.606Z" fill="white"/>
<path d="M240.292 182.844C240.325 182.87 241.002 182.113 241.805 181.149C242.607 180.185 243.23 179.38 243.197 179.353C243.165 179.326 242.488 180.084 241.685 181.047C240.882 182.011 240.256 182.817 240.292 182.844Z" fill="white"/>
<path d="M248.983 176.539C249.024 176.542 249.087 175.893 249.117 175.087C249.15 174.285 249.138 173.633 249.096 173.63C249.054 173.627 248.992 174.276 248.962 175.081C248.932 175.884 248.941 176.536 248.983 176.539Z" fill="white"/>
<path d="M243.655 178.11C243.649 178.152 244.479 178.299 245.503 178.437C246.53 178.574 247.366 178.649 247.372 178.607C247.378 178.565 246.551 178.419 245.524 178.281C244.5 178.143 243.661 178.065 243.655 178.11Z" fill="white"/>
<path d="M260.692 218.089C260.734 218.095 260.839 217.499 260.926 216.763C261.013 216.026 261.046 215.424 261.004 215.419C260.962 215.413 260.857 216.008 260.77 216.745C260.683 217.481 260.65 218.083 260.692 218.089Z" fill="white"/>
<path d="M261.187 240.856C261.529 241.084 276.281 250.723 276.281 250.723L277.982 249.36L278.787 227.247L263.738 217.022H262.629L261.187 240.856Z" fill="url(#paint21_linear)"/>
<path d="M263.737 217.022L261.889 240.662H261.15L262.628 217.022H263.737Z" fill="url(#paint22_linear)"/>
<path d="M269.005 246.103C269.005 246.103 269.341 247.164 270.705 247.261C270.745 247.267 270.791 247.295 270.831 247.364C271.139 247.888 271.658 248.259 272.263 248.259C272.731 248.259 273.296 248.151 273.884 247.791C274.672 247.312 276.075 244.164 276.075 244.164L279.403 236.755L273.804 235.243L266.693 237.456C266.693 237.588 265.027 244.312 265.027 244.312C265.027 244.312 266.374 244.689 267.024 243.251C267.675 241.814 268.28 240.901 268.28 240.901L268.811 243.93L266.79 244.62C266.79 244.62 266.545 245.738 267.658 246.155L269.005 246.103Z" fill="url(#paint23_linear)"/>
<path d="M271.514 194.074C274.131 200.441 280.833 211.219 280.833 211.219L271.932 235.547L280.367 240.293L292.401 213.438C293.195 211.585 293.16 209.474 292.31 207.643C292.31 207.643 280.328 181.271 279.154 179.824C277.487 177.768 263.954 175.681 271.514 194.074Z" fill="url(#paint24_linear)"/>
<path d="M272.607 233.644C272.601 233.644 280.703 211.294 280.703 211.294C279.619 209.451 278.506 207.506 277.376 205.499C275.322 201.831 273.433 198.295 271.823 195.032C271.024 193.395 270.282 191.827 269.655 190.333C268.97 188.838 268.799 187.27 268.878 185.889C268.97 184.503 269.244 183.26 269.712 182.256C270.174 181.247 270.785 180.494 271.355 179.975C271.932 179.456 272.468 179.159 272.839 178.994C273.21 178.828 273.421 178.788 273.421 178.788C273.45 178.834 272.559 179.016 271.429 180.06C270.882 180.585 270.294 181.338 269.854 182.33C269.415 183.317 269.152 184.549 269.078 185.907C269.015 187.264 269.192 188.787 269.871 190.241C270.505 191.724 271.258 193.281 272.057 194.918C273.684 198.175 275.573 201.7 277.627 205.362C278.751 207.37 279.899 209.372 280.977 211.214L272.607 233.644Z" fill="black"/>
<path d="M287.135 211.06C287.112 211.099 286.781 210.923 286.216 210.734C285.657 210.546 284.847 210.375 283.939 210.404C283.038 210.432 282.239 210.655 281.691 210.877C281.137 211.099 280.823 211.299 280.795 211.259C280.778 211.231 281.057 210.968 281.605 210.689C282.153 210.404 282.986 210.141 283.934 210.107C284.881 210.079 285.731 210.295 286.29 210.541C286.855 210.786 287.152 211.031 287.135 211.06Z" fill="black"/>
<path d="M264.939 160.762C265.816 159.794 266.697 158.813 267.336 157.676C267.975 156.538 268.354 155.208 268.142 153.921C268.02 153.168 267.698 152.452 267.648 151.691C267.578 150.643 268.02 149.548 267.648 148.567C267.066 147.033 264.999 146.796 263.746 145.736C262.77 144.91 262.429 143.747 261.22 142.874C258.398 140.835 253.11 142.3 252.336 142.108C251.562 141.916 250.701 141.866 250.012 142.265C249.323 142.665 248.936 143.643 249.388 144.299C248.105 143.707 246.475 144.708 246.123 146.075C245.771 147.442 246.475 148.922 247.564 149.822C248.652 150.725 250.057 151.144 251.445 151.406C255.377 152.147 259.64 151.728 263.027 149.603" fill="#1D232B"/>
<path fill-rule="evenodd" clip-rule="evenodd" d="M251.839 171.575C251.84 171.938 251.842 172.415 251.842 173.018C251.834 173.076 251.801 173.191 251.754 173.355C251.428 174.501 250.424 178.027 252.469 181.093C253.364 182.434 254.221 184.596 254.221 184.596L260.782 178.331C263.348 177.665 263.603 173.018 263.603 173.018L264.527 163.927C265.606 164.11 267.682 164.047 267.931 161.528C268.214 158.675 265.884 158.722 265.044 158.836L265.414 155.198C266.213 150.017 263.861 145.229 258.654 144.576L258.17 144.543C253.295 144.219 248.979 147.687 248.263 152.517C247.596 157.015 246.915 161.997 246.782 164.424C246.508 169.449 251.842 170.682 251.842 170.682C251.836 170.773 251.837 171.059 251.839 171.575Z" fill="url(#paint25_linear)"/>
<path d="M265.401 162.613C265.416 162.603 265.456 162.66 265.553 162.718C265.648 162.773 265.813 162.82 265.998 162.77C266.372 162.673 266.734 162.129 266.811 161.513C266.851 161.201 266.814 160.899 266.729 160.642C266.649 160.38 266.504 160.19 266.325 160.141C266.147 160.081 266.008 160.178 265.955 160.27C265.9 160.363 265.915 160.432 265.895 160.435C265.885 160.442 265.828 160.37 265.868 160.23C265.888 160.163 265.938 160.088 266.025 160.028C266.115 159.968 266.237 159.948 266.365 159.973C266.627 160.018 266.841 160.285 266.936 160.567C267.046 160.852 267.094 161.193 267.049 161.543C266.959 162.231 266.542 162.842 266.03 162.935C265.783 162.975 265.588 162.882 265.493 162.79C265.401 162.695 265.389 162.618 265.401 162.613Z" fill="#F28F8F"/>
<path d="M248.512 147.836C248.747 149.201 251.515 150.448 253.809 150.384C255.923 150.321 256.969 149.273 258.507 148.527C259.48 148.056 259.48 148.056 260.798 148.27C261.866 148.445 262.418 149.702 263.017 150.603C261.876 153.09 262.338 155.982 262.82 158.676C262.872 158.973 262.94 159.295 263.167 159.494C263.551 159.834 264.178 159.632 264.555 159.285C265.164 158.726 265.441 157.903 265.641 157.104C266.092 155.288 266.267 153.385 265.98 151.534C265.693 149.683 264.927 147.886 263.661 146.504C262.081 144.778 259.77 143.782 257.431 143.663C255.092 143.543 252.743 144.266 250.786 145.549C249.875 146.142 249.026 146.878 248.512 147.836Z" fill="#1D232B"/>
<path d="M254.48 156.92C254.5 156.922 254.478 156.601 254.617 156.052C254.755 155.515 255.114 154.724 255.923 154.111C256.325 153.811 256.829 153.559 257.411 153.457C257.987 153.36 258.641 153.377 259.26 153.614C259.572 153.724 259.874 153.886 260.149 154.093C260.429 154.295 260.683 154.547 260.893 154.839C261.325 155.416 261.569 156.154 261.577 156.915C261.569 157.676 261.327 158.417 260.893 158.993C260.683 159.285 260.429 159.537 260.149 159.741C259.872 159.949 259.572 160.113 259.26 160.22C258.641 160.457 257.987 160.475 257.411 160.378C256.829 160.275 256.325 160.023 255.923 159.724C255.114 159.113 254.755 158.322 254.617 157.783C254.478 157.239 254.5 156.92 254.48 156.92C254.478 156.92 254.478 156.94 254.478 156.977C254.478 157.025 254.48 157.08 254.48 157.147C254.48 157.222 254.483 157.314 254.503 157.424C254.518 157.534 254.53 157.658 254.57 157.798C254.627 158.077 254.755 158.409 254.957 158.764C255.162 159.115 255.459 159.485 255.868 159.799C256.275 160.111 256.792 160.375 257.391 160.485C257.985 160.59 258.659 160.575 259.3 160.335C259.625 160.225 259.937 160.056 260.224 159.844C260.513 159.634 260.778 159.375 260.995 159.073C261.444 158.477 261.699 157.711 261.707 156.92C261.699 156.129 261.444 155.363 260.995 154.767C260.778 154.465 260.513 154.206 260.224 153.996C259.937 153.784 259.625 153.614 259.3 153.505C258.656 153.263 257.985 153.248 257.391 153.355C256.792 153.465 256.275 153.732 255.868 154.041C255.459 154.355 255.162 154.724 254.957 155.076C254.755 155.43 254.627 155.762 254.57 156.042C254.53 156.179 254.518 156.306 254.503 156.416C254.485 156.526 254.48 156.618 254.48 156.693C254.48 156.76 254.478 156.818 254.478 156.862C254.478 156.9 254.478 156.92 254.48 156.92Z" fill="#263238"/>
<path d="M245.934 156.586C245.954 156.588 245.931 156.274 246.068 155.74C246.203 155.216 246.553 154.445 247.341 153.851C247.731 153.559 248.223 153.312 248.789 153.215C249.351 153.12 249.987 153.138 250.591 153.37C250.896 153.475 251.188 153.634 251.458 153.836C251.73 154.033 251.977 154.28 252.181 154.565C252.603 155.126 252.84 155.845 252.848 156.588C252.84 157.331 252.603 158.05 252.184 158.611C251.979 158.896 251.732 159.14 251.46 159.34C251.19 159.542 250.898 159.701 250.594 159.806C249.99 160.036 249.356 160.056 248.792 159.958C248.225 159.859 247.733 159.612 247.344 159.322C246.555 158.726 246.206 157.958 246.073 157.434C245.931 156.895 245.954 156.583 245.934 156.586C245.929 156.586 245.929 156.663 245.931 156.808C245.931 156.88 245.934 156.972 245.951 157.077C245.966 157.184 245.978 157.307 246.016 157.441C246.138 157.975 246.48 158.771 247.281 159.392C247.678 159.697 248.183 159.956 248.767 160.061C249.346 160.163 250.002 160.148 250.629 159.914C250.943 159.806 251.248 159.642 251.527 159.432C251.81 159.227 252.067 158.976 252.279 158.681C252.718 158.1 252.965 157.354 252.97 156.583C252.963 155.812 252.716 155.066 252.276 154.485C252.064 154.191 251.807 153.936 251.525 153.734C251.245 153.527 250.941 153.362 250.626 153.255C250 153.021 249.343 153.006 248.764 153.108C248.18 153.215 247.676 153.475 247.279 153.776C246.478 154.398 246.136 155.191 246.013 155.727C245.976 155.862 245.961 155.984 245.949 156.092C245.931 156.196 245.926 156.289 245.929 156.361C245.929 156.508 245.929 156.586 245.934 156.586Z" fill="#263238"/>
<path d="M252.907 155.795C252.922 155.81 253.005 155.74 253.154 155.668C253.304 155.595 253.529 155.525 253.784 155.53C254.036 155.533 254.26 155.613 254.408 155.69C254.557 155.767 254.635 155.84 254.65 155.827C254.662 155.817 254.605 155.717 254.455 155.613C254.308 155.508 254.068 155.406 253.786 155.401C253.506 155.396 253.262 155.488 253.11 155.588C252.96 155.687 252.897 155.785 252.907 155.795Z" fill="#263238"/>
<path d="M261.424 156.413C261.402 156.443 262.103 157.002 262.989 157.661C263.875 158.322 264.609 158.833 264.632 158.806C264.654 158.776 263.953 158.22 263.067 157.559C262.181 156.895 261.444 156.384 261.424 156.413Z" fill="#263238"/>
<path d="M253.963 158.215L254.292 163.523L251.121 162.761L253.963 158.215Z" fill="#F28F8F"/>
<path d="M258.683 157.731C258.721 158.327 258.268 158.841 257.666 158.879C257.07 158.916 256.555 158.463 256.518 157.862C256.481 157.266 256.934 156.752 257.536 156.714C258.131 156.683 258.646 157.136 258.683 157.731Z" fill="#263238"/>
<path d="M251.511 157.415C251.548 158.011 251.095 158.526 250.493 158.563C249.898 158.6 249.383 158.147 249.346 157.546C249.308 156.95 249.761 156.436 250.363 156.398C250.959 156.361 251.474 156.82 251.511 157.415Z" fill="#263238"/>
<path d="M248.974 155.307L251.015 153.918C251.015 153.918 250.153 153.124 249.371 153.682C248.595 154.24 248.974 155.307 248.974 155.307Z" fill="#263238"/>
<path d="M257.927 155.065L260.129 156.175C260.129 156.175 260.402 155.034 259.54 154.625C258.677 154.215 257.927 155.065 257.927 155.065Z" fill="#263238"/>
<path d="M258.098 164.482L254.324 165.917C254.396 166.175 254.521 166.415 254.69 166.623C254.859 166.83 255.07 167 255.308 167.123C255.546 167.246 255.807 167.318 256.074 167.335C256.342 167.352 256.61 167.314 256.862 167.223C257.376 167.006 257.789 166.603 258.018 166.095C258.248 165.587 258.276 165.011 258.098 164.482Z" fill="#C76668"/>
<path d="M257.933 165.308C257.401 165.321 256.894 165.535 256.514 165.906C256.133 166.278 255.908 166.779 255.882 167.31C256.211 167.37 256.55 167.34 256.862 167.223C257.241 167.069 257.568 166.81 257.805 166.478C258.042 166.145 258.179 165.752 258.201 165.344C258.113 165.325 258.023 165.313 257.933 165.308Z" fill="#FF9090"/>
<path d="M251.841 170.682C251.841 170.682 255.335 171.116 258.853 169.222C258.853 169.222 256.824 172.93 251.841 172.142V170.682Z" fill="#F28F8F"/>
<path d="M233.787 207.747C233.708 207.773 233.435 206.732 232.603 205.742C231.787 204.743 230.813 204.285 230.85 204.211C230.86 204.143 231.945 204.511 232.813 205.569C233.692 206.611 233.856 207.747 233.787 207.747Z" fill="black"/>
<path d="M160.087 204.645C159.36 203.246 175.854 198.192 176.117 212.031C176.117 212.031 207.018 195.344 192.271 178.037C187.165 172.051 187.691 167.09 187.846 162.472C188.001 157.854 184.659 144.45 173.224 145.803C173.224 145.803 170.222 144.575 166.493 146.534C155.466 148.8 130.704 205.585 160.087 204.645Z" fill="url(#paint26_linear)"/>
<path d="M165.311 165.962C164.765 166.013 164.215 165.921 163.716 165.694C163.216 165.467 162.784 165.113 162.461 164.667C160.959 162.811 160.818 160.976 161.517 159.785C162.091 158.806 163.508 158.222 164.502 158.938C165.565 159.705 165.599 160.297 166.001 161.132C166.414 161.988 167.207 161.206 167.574 157.919C167.918 154.852 168.346 152.046 169.729 150.709C170.572 149.306 178.102 149.83 179.516 150.709C180.903 151.572 181.709 153.312 182.201 159.174C182.703 165.151 181.565 169.941 180.311 170.893C179.36 171.616 178.15 171.731 176.096 171.752L176.024 175.684C177.032 176.726 176.239 178.309 176.77 179.662C177.301 181.014 179.145 182.11 179.117 183.564C175.592 182.568 169.203 179.876 166.33 176.93L166.484 165.072C166.484 165.072 166.37 165.788 165.311 165.962Z" fill="url(#paint27_linear)"/>
<rect width="7.66808" height="9.80125" transform="matrix(-0.965962 -0.258683 -0.258955 0.965889 146.614 325.66)" fill="url(#paint28_linear)"/>
<rect width="7.9677" height="9.80084" transform="matrix(-1 0 0 1 174.808 326.739)" fill="url(#paint29_linear)"/>
<path d="M185.533 218.003C185.533 218.003 185.533 225.668 184.614 239.144C184.009 248.021 176.176 327.968 175.727 330.721C175.727 330.721 173.017 331.21 171.264 331.21C165.921 331.21 165.921 330.108 165.921 330.108C165.921 330.108 165.802 271.411 168.494 251.322C171.202 231.216 168.494 218.003 168.494 218.003H183.658H185.533Z" fill="#1D232B"/>
<path d="M174.272 247.562C172.392 261.972 168.734 267.159 159.54 274.816L168.63 244.117C170.775 244.117 175.986 234.422 174.272 247.562Z" fill="black" fill-opacity="0.15"/>
<path d="M163.469 215.254C163.469 215.254 157.34 221.992 154.276 236.694C151.211 251.395 149.276 272.006 147.574 279.61C145.872 287.214 138.034 301.801 138.034 325.514C138.034 325.514 139.259 327.675 141.711 328.577C144.163 329.478 146.174 329.496 146.614 328.577C151.558 318.252 166.412 278.902 172.969 241.9C174.252 234.658 177.872 219.848 177.872 219.848L163.469 215.254Z" fill="#1D232B"/>
<path d="M209.668 190.327C209.668 190.327 210.401 185.295 212.386 184.3C214.371 183.305 217.622 180.549 217.662 181.457C217.703 182.364 215.429 183.49 215.423 184.039C215.398 184.596 219.386 183.618 220.461 183.226C221.536 182.833 223.964 181.637 224.147 182.195C224.312 182.761 220.953 186.967 217.731 188.048C214.509 189.129 211.261 192.097 211.261 192.097L209.668 190.327Z" fill="url(#paint30_linear)"/>
<path d="M211.996 192.902C211.996 192.902 210.534 199.899 206.454 204.499C206.454 204.499 206.454 204.499 206.44 204.505C205.002 206.13 203.229 207.463 201.079 208.08C199.517 208.532 197.927 208.621 196.365 208.476C193.422 208.205 190.612 207.106 188.379 205.967C187.712 205.621 187.079 205.276 186.537 204.941C184.759 203.869 183.654 202.97 183.654 202.97L174.793 180.009C174.793 180.009 179.952 178.985 182.264 180.446C184.582 181.922 195.154 196.829 196.365 196.877C197.576 196.926 209.548 189.008 209.548 189.008C209.548 189.008 211.772 190.015 211.996 192.902Z" fill="url(#paint31_linear)"/>
<path d="M176.031 171.763V172.988C171.942 172.069 170.104 170.538 170.104 170.538L176.031 171.763Z" fill="#F28F8F"/>
<path d="M160.711 179.741C146.612 182.09 161.36 209.839 158.258 218.623C154.58 229.037 166.533 229.037 175.419 229.037C185.838 229.037 186.144 225.055 186.144 225.055C186.144 225.055 184.219 188.486 182.161 180.338C176.032 178.501 177.258 175.453 177.258 175.453C177.258 175.453 168.064 177.276 165.919 175.453C165.919 175.453 166.227 178.822 160.711 179.741Z" fill="url(#paint32_linear)"/>
<path d="M156.414 190.516L171.519 212.07C172.742 213.663 174.616 214.615 176.619 214.665L206.492 217.441L205.451 208.822L182.155 203.135L166.467 182.223C164.083 179.323 159.736 179.033 156.988 181.593C154.463 183.95 154.213 187.861 156.414 190.516Z" fill="url(#paint33_linear)"/>
<path d="M177.224 176.666C177.224 176.666 177.522 173.315 176.331 173.62C175.14 173.925 167.994 173.891 166.803 173.62C165.612 173.349 165.612 176.362 165.612 176.362C165.612 176.362 166.803 177.276 171.567 177.276C175.735 177.276 177.224 176.666 177.224 176.666Z" fill="url(#paint34_linear)"/>
<path d="M166.528 334.145C166.528 334.145 166.221 340.577 166.221 342.415L186.453 343.891L187.673 342.109C187.673 342.109 187.857 339.754 184.731 339.256C181.605 338.759 176.349 338.25 175.421 334.145C170.517 334.145 166.528 334.145 166.528 334.145Z" fill="url(#paint35_linear)"/>
<path d="M171.743 342.053C173.214 342.053 186.453 344.81 187.679 342.053C187.679 342.053 187.88 343.077 187.373 343.584C185.534 345.422 172.662 343.278 171.437 343.278C170.212 343.278 167.596 343.584 166.84 343.584C165.79 343.584 166.227 342.053 166.227 342.053C168.27 342.155 170.272 342.053 171.743 342.053Z" fill="white"/>
<path d="M137.112 331.639C136.193 331.027 134.05 336.234 134.356 337.459C135.037 339.713 138.152 342.338 138.569 345.09C138.987 347.842 141.405 349.71 142.937 349.71C147.84 350.323 149.678 349.404 149.678 349.404C149.678 349.404 149.985 347.293 147.869 346.831C145.161 346.241 144.31 338.575 144.31 338.575V334.09C144.31 334.09 140.764 334.072 137.112 331.639Z" fill="url(#paint36_linear)"/>
<path d="M149.372 350.322C149.986 349.71 149.679 348.791 149.679 348.791C149.372 349.404 148.943 349.71 147.227 349.71C145.838 349.71 143.243 349.71 140.792 348.485C138.815 347.497 138.646 344.503 137.727 342.665C136.808 340.828 134.356 336.846 134.356 336.846C134.356 336.846 133.896 338.378 134.356 338.99C134.816 339.603 136.807 342.359 137.114 342.972C137.503 343.746 138.34 346.035 138.953 347.566C139.872 349.863 142.937 350.527 143.55 350.629C144.163 350.731 148.759 350.935 149.372 350.322Z" fill="white"/>
<path d="M178.484 149.556C178.484 149.556 169.884 160.078 166.436 161.331C164.615 161.993 165.316 152.267 168.37 149.556C171.323 146.935 176.034 146.493 178.484 149.556Z" fill="url(#paint37_linear)"/>
<path d="M177.221 150.391C177.221 150.391 179.542 151.261 180.486 152.956C181.414 154.62 182.219 156.813 182.033 159.518C182.033 159.518 184.385 153.812 181.739 150.593C178.938 147.172 177.221 150.391 177.221 150.391Z" fill="url(#paint38_linear)"/>
<path d="M176.031 159.994C175.995 160.132 175.933 160.261 175.85 160.373C175.767 160.484 175.665 160.575 175.55 160.64C175.435 160.704 175.31 160.741 175.182 160.748C175.055 160.755 174.929 160.731 174.812 160.679C174.573 160.546 174.389 160.317 174.294 160.036C174.199 159.756 174.201 159.442 174.298 159.156C174.334 159.018 174.396 158.889 174.479 158.777C174.561 158.666 174.664 158.575 174.779 158.51C174.894 158.446 175.019 158.409 175.146 158.402C175.274 158.395 175.4 158.419 175.517 158.471C175.755 158.604 175.94 158.833 176.034 159.114C176.129 159.394 176.128 159.708 176.031 159.994Z" fill="#1A2E35"/>
<path d="M174.832 158.354C174.454 158.348 174.143 159.397 173.817 158.947C173.827 159.09 173.853 159.222 173.893 159.335C173.933 159.448 173.987 159.539 174.051 159.603C174.115 159.667 174.187 159.703 174.264 159.707C174.34 159.711 174.419 159.684 174.495 159.628C174.68 159.456 174.832 158.354 174.832 158.354Z" fill="#1A2E35"/>
<path d="M181.515 158.183L180.294 156.908C180.341 156.762 180.406 156.63 180.485 156.522C180.564 156.414 180.655 156.333 180.752 156.284C180.849 156.234 180.949 156.219 181.045 156.238C181.141 156.257 181.231 156.31 181.308 156.394C181.473 156.581 181.584 156.862 181.622 157.19C181.66 157.517 181.622 157.869 181.515 158.183Z" fill="#1A2E35"/>
<path d="M179.575 159.653C179.589 159.795 179.622 159.929 179.672 160.046C179.722 160.163 179.788 160.262 179.866 160.336C179.944 160.41 180.033 160.458 180.127 160.477C180.222 160.496 180.319 160.486 180.415 160.448C180.604 160.331 180.764 160.112 180.86 159.837C180.956 159.561 180.982 159.251 180.931 158.97C180.917 158.828 180.884 158.694 180.834 158.576C180.784 158.459 180.718 158.36 180.64 158.286C180.561 158.212 180.472 158.164 180.378 158.145C180.284 158.126 180.186 158.136 180.09 158.175C179.901 158.291 179.741 158.51 179.645 158.786C179.549 159.061 179.524 159.372 179.575 159.653Z" fill="#1A2E35"/>
<path d="M180.621 158.172C180.977 158.189 181.157 158.945 181.512 158.646C181.487 158.746 181.447 158.838 181.395 158.916C181.344 158.995 181.282 159.057 181.214 159.1C181.146 159.142 181.074 159.163 181.002 159.161C180.931 159.159 180.862 159.134 180.801 159.088C180.645 158.957 180.621 158.172 180.621 158.172Z" fill="#1A2E35"/>
<path d="M175.002 156.888L173.649 157.744C173.543 157.541 173.515 157.298 173.569 157.067C173.623 156.836 173.756 156.636 173.939 156.509C174.033 156.454 174.135 156.421 174.24 156.411C174.344 156.4 174.449 156.413 174.548 156.448C174.647 156.484 174.738 156.541 174.816 156.616C174.894 156.691 174.958 156.784 175.002 156.888Z" fill="#1A2E35"/>
<path d="M175.742 165.253L178.386 166.512C178.327 166.751 178.225 166.974 178.089 167.163C177.953 167.353 177.786 167.505 177.599 167.608C177.412 167.711 177.211 167.763 177.011 167.759C176.81 167.756 176.614 167.698 176.439 167.589C176.101 167.391 175.842 167.041 175.714 166.609C175.585 166.177 175.595 165.693 175.742 165.253Z" fill="#C76668"/>
<path d="M177.296 167.75C177.288 167.222 177.131 166.726 176.853 166.355C176.574 165.984 176.194 165.763 175.783 165.732C175.734 165.735 175.684 165.741 175.636 165.75C175.607 166.142 175.671 166.529 175.82 166.86C175.97 167.19 176.197 167.449 176.472 167.602C176.727 167.744 177.012 167.795 177.296 167.75Z" fill="#FF9A79"/>
<path d="M177.202 159.334L177.505 163.999L180.054 163.276L177.202 159.334Z" fill="#F28F8F"/>
<defs>
<linearGradient id="paint0_linear" x1="376.487" y1="56.1125" x2="298.522" y2="331.741" gradientUnits="userSpaceOnUse">
<stop stop-color="#0062AA"/>
<stop offset="1" stop-color="#00406F"/>
</linearGradient>
<linearGradient id="paint1_linear" x1="367.813" y1="143.567" x2="285.763" y2="205.417" gradientUnits="userSpaceOnUse">
<stop stop-color="#FEB483"/>
<stop offset="1" stop-color="#F7A058"/>
</linearGradient>
<linearGradient id="paint2_linear" x1="360.225" y1="171.117" x2="295.479" y2="218.829" gradientUnits="userSpaceOnUse">
<stop stop-color="#FFDAC1"/>
<stop offset="1" stop-color="#FAB072"/>
</linearGradient>
<linearGradient id="paint3_linear" x1="397.582" y1="202.23" x2="361.816" y2="280.298" gradientUnits="userSpaceOnUse">
<stop stop-color="#FFDAC1"/>
<stop offset="1" stop-color="#FAB072"/>
</linearGradient>
<linearGradient id="paint4_linear" x1="389.912" y1="214.681" x2="361.425" y2="279.973" gradientUnits="userSpaceOnUse">
<stop stop-color="#FEB483"/>
<stop offset="1" stop-color="#F7A058"/>
</linearGradient>
<linearGradient id="paint5_linear" x1="278.724" y1="37.8246" x2="380.102" y2="41.7946" gradientUnits="userSpaceOnUse">
<stop stop-color="#0469B3"/>
<stop offset="0.953125" stop-color="#4894C7"/>
</linearGradient>
<linearGradient id="paint6_linear" x1="269.928" y1="-4.70239" x2="336.086" y2="14.508" gradientUnits="userSpaceOnUse">
<stop stop-color="#0469B3"/>
<stop offset="0.953125" stop-color="#4894C7"/>
</linearGradient>
<linearGradient id="paint7_linear" x1="236.983" y1="-288.548" x2="216.987" y2="464.965" gradientUnits="userSpaceOnUse">
<stop stop-color="#F4FAFF"/>
<stop offset="1" stop-color="#007AD3"/>
</linearGradient>
<linearGradient id="paint8_linear" x1="277.83" y1="61.425" x2="1.65362" y2="416.184" gradientUnits="userSpaceOnUse">
<stop stop-color="white"/>
<stop offset="1"/>
</linearGradient>
<linearGradient id="paint9_linear" x1="277.83" y1="61.425" x2="1.65307" y2="416.184" gradientUnits="userSpaceOnUse">
<stop stop-color="white"/>
<stop offset="1" stop-color="white"/>
</linearGradient>
<linearGradient id="paint10_linear" x1="228.498" y1="234.723" x2="222.059" y2="293.449" gradientUnits="userSpaceOnUse">
<stop stop-color="#0062AA"/>
<stop offset="1" stop-color="#00406F"/>
</linearGradient>
<linearGradient id="paint11_linear" x1="414.994" y1="372.47" x2="418.944" y2="335.269" gradientUnits="userSpaceOnUse">
<stop stop-color="#007AD3"/>
<stop offset="0.771058" stop-color="#F4FAFF"/>
</linearGradient>
<linearGradient id="paint12_linear" x1="205.08" y1="211.991" x2="219.252" y2="227.563" gradientUnits="userSpaceOnUse">
<stop stop-color="#FEBBBA"/>
<stop offset="1" stop-color="#FF928E"/>
</linearGradient>
<linearGradient id="paint13_linear" x1="253.081" y1="340.686" x2="253.068" y2="346.653" gradientUnits="userSpaceOnUse">
<stop stop-color="#F4FAFF"/>
<stop offset="1" stop-color="#007AD3"/>
</linearGradient>
<linearGradient id="paint14_linear" x1="256.848" y1="332.698" x2="256.205" y2="347.56" gradientUnits="userSpaceOnUse">
<stop stop-color="#0062AA"/>
<stop offset="1" stop-color="#00406F"/>
</linearGradient>
<linearGradient id="paint15_linear" x1="253.975" y1="331.13" x2="263.643" y2="336.533" gradientUnits="userSpaceOnUse">
<stop stop-color="#FEBBBA"/>
<stop offset="1" stop-color="#FF928E"/>
</linearGradient>
<linearGradient id="paint16_linear" x1="307.906" y1="338.61" x2="307.836" y2="347.237" gradientUnits="userSpaceOnUse">
<stop stop-color="#F4FAFF"/>
<stop offset="1" stop-color="#007AD3"/>
</linearGradient>
<linearGradient id="paint17_linear" x1="308.153" y1="325.458" x2="305.187" y2="349.569" gradientUnits="userSpaceOnUse">
<stop stop-color="#0062AA"/>
<stop offset="1" stop-color="#00406F"/>
</linearGradient>
<linearGradient id="paint18_linear" x1="296.703" y1="325.137" x2="308.063" y2="331.705" gradientUnits="userSpaceOnUse">
<stop stop-color="#FEBBBA"/>
<stop offset="1" stop-color="#FF928E"/>
</linearGradient>
<linearGradient id="paint19_linear" x1="218.154" y1="159.047" x2="257.944" y2="161.315" gradientUnits="userSpaceOnUse">
<stop stop-color="#007AD3"/>
<stop offset="0.953125" stop-color="#2FA6F7"/>
</linearGradient>
<linearGradient id="paint20_linear" x1="278.961" y1="155.602" x2="236.152" y2="158.019" gradientUnits="userSpaceOnUse">
<stop stop-color="#007AD3"/>
<stop offset="0.953125" stop-color="#2FA6F7"/>
</linearGradient>
<linearGradient id="paint21_linear" x1="274.22" y1="211.29" x2="252.004" y2="231.633" gradientUnits="userSpaceOnUse">
<stop stop-color="#FFDAC1"/>
<stop offset="1" stop-color="#FAB072"/>
</linearGradient>
<linearGradient id="paint22_linear" x1="263.066" y1="213.001" x2="257.275" y2="214.113" gradientUnits="userSpaceOnUse">
<stop stop-color="#FFB381"/>
<stop offset="1" stop-color="#EB7F26"/>
</linearGradient>
<linearGradient id="paint23_linear" x1="266.165" y1="239.424" x2="283.046" y2="252.079" gradientUnits="userSpaceOnUse">
<stop stop-color="#FEBBBA"/>
<stop offset="1" stop-color="#FF928E"/>
</linearGradient>
<linearGradient id="paint24_linear" x1="269.235" y1="162.496" x2="295.434" y2="163.389" gradientUnits="userSpaceOnUse">
<stop stop-color="#007AD3"/>
<stop offset="0.953125" stop-color="#2FA6F7"/>
</linearGradient>
<linearGradient id="paint25_linear" x1="266.278" y1="157.393" x2="231.855" y2="169.743" gradientUnits="userSpaceOnUse">
<stop stop-color="#FEBBBA"/>
<stop offset="1" stop-color="#FF928E"/>
</linearGradient>
<linearGradient id="paint26_linear" x1="184.168" y1="133.219" x2="170.046" y2="233.135" gradientUnits="userSpaceOnUse">
<stop stop-color="#0062AA"/>
<stop offset="1" stop-color="#00406F"/>
</linearGradient>
<linearGradient id="paint27_linear" x1="180.758" y1="160.966" x2="147.083" y2="173.17" gradientUnits="userSpaceOnUse">
<stop stop-color="#FEBBBA"/>
<stop offset="1" stop-color="#FF928E"/>
</linearGradient>
<linearGradient id="paint28_linear" x1="0.607149" y1="3.1478" x2="11.5781" y2="8.97374" gradientUnits="userSpaceOnUse">
<stop stop-color="#FEBBBA"/>
<stop offset="1" stop-color="#FF928E"/>
</linearGradient>
<linearGradient id="paint29_linear" x1="0.630872" y1="3.14767" x2="11.834" y2="9.32958" gradientUnits="userSpaceOnUse">
<stop stop-color="#FEBBBA"/>
<stop offset="1" stop-color="#FF928E"/>
</linearGradient>
<linearGradient id="paint30_linear" x1="209.737" y1="187.309" x2="223.775" y2="196.215" gradientUnits="userSpaceOnUse">
<stop stop-color="#FEBBBA"/>
<stop offset="1" stop-color="#FF928E"/>
</linearGradient>
<linearGradient id="paint31_linear" x1="191.358" y1="165.677" x2="184.366" y2="204.88" gradientUnits="userSpaceOnUse">
<stop stop-color="#FEB483"/>
<stop offset="1" stop-color="#F7A058"/>
</linearGradient>
<linearGradient id="paint32_linear" x1="177.932" y1="166.34" x2="142.496" y2="203.038" gradientUnits="userSpaceOnUse">
<stop stop-color="#FFDAC1"/>
<stop offset="1" stop-color="#FAB072"/>
</linearGradient>
<linearGradient id="paint33_linear" x1="184.662" y1="166.774" x2="167.933" y2="216.814" gradientUnits="userSpaceOnUse">
<stop stop-color="#FFB381"/>
<stop offset="1" stop-color="#EB7F26"/>
</linearGradient>
<linearGradient id="paint34_linear" x1="168.634" y1="172.975" x2="169.482" y2="177.687" gradientUnits="userSpaceOnUse">
<stop stop-color="#FEB483"/>
<stop offset="1" stop-color="#F7A058"/>
</linearGradient>
<linearGradient id="paint35_linear" x1="182.491" y1="332.36" x2="181.773" y2="347.236" gradientUnits="userSpaceOnUse">
<stop stop-color="#0062AA"/>
<stop offset="1" stop-color="#00406F"/>
</linearGradient>
<linearGradient id="paint36_linear" x1="145.98" y1="328.231" x2="142.484" y2="355.835" gradientUnits="userSpaceOnUse">
<stop stop-color="#0062AA"/>
<stop offset="1" stop-color="#00406F"/>
</linearGradient>
<linearGradient id="paint37_linear" x1="175.332" y1="144.867" x2="172.942" y2="165.927" gradientUnits="userSpaceOnUse">
<stop stop-color="#0062AA"/>
<stop offset="1" stop-color="#00406F"/>
</linearGradient>
<linearGradient id="paint38_linear" x1="181.601" y1="147.094" x2="178.611" y2="162.583" gradientUnits="userSpaceOnUse">
<stop stop-color="#0062AA"/>
<stop offset="1" stop-color="#00406F"/>
</linearGradient>
<clipPath id="clip0">
<rect width="337.888" height="318.276" fill="white" transform="translate(82.748)"/>
</clipPath>
<clipPath id="clip1">
<rect width="73.4988" height="122.667" fill="white" transform="translate(238.06 222.677)"/>
</clipPath>
</defs>
</svg>
