<svg width="68" height="68" viewBox="0 0 68 68" fill="none" xmlns="http://www.w3.org/2000/svg">
<path opacity="0.2" d="M34 68C52.7777 68 68 52.7777 68 34C68 15.2223 52.7777 0 34 0C15.2223 0 0 15.2223 0 34C0 52.7777 15.2223 68 34 68Z" fill="#FFB381"/>
<path d="M18.1597 40.5336C18.3642 39.7785 18.686 39.069 19.1054 38.427L29.6449 48.8384C29.0101 49.2668 28.3065 49.5992 27.5548 49.8145L18.1597 40.5336Z" fill="url(#paint0_linear)"/>
<path fill-rule="evenodd" clip-rule="evenodd" d="M22.6432 35.5621L27.5328 40.3925L32.4642 45.264C32.199 45.9744 31.828 46.6344 31.37 47.2239L26.0071 41.9262L26.0071 41.9261L20.6953 36.6787C21.278 36.214 21.9334 35.835 22.6432 35.5621Z" fill="url(#paint1_linear)"/>
<path fill-rule="evenodd" clip-rule="evenodd" d="M28.589 35.0755L30.7236 37.1842L30.7234 37.1844L32.9245 39.3587L32.928 42.4029L29.1979 38.7181L29.198 38.718L25.5073 35.072L28.589 35.0755Z" fill="url(#paint2_linear)"/>
<path fill-rule="evenodd" clip-rule="evenodd" d="M45.0729 22.7566L43.5473 24.2905L38.3496 19.1558C38.985 18.7289 39.6901 18.3978 40.4437 18.1836L45.0729 22.7566ZM49.8391 27.4652C49.6333 28.2202 49.3097 28.928 48.8894 29.5678L43.5473 24.2906L45.0728 22.7567L49.8391 27.4652Z" fill="url(#paint3_linear)"/>
<path fill-rule="evenodd" clip-rule="evenodd" d="M36.6208 20.7673L41.8819 25.9646L40.3563 27.4985L35.5273 22.728C35.7912 22.0172 36.162 21.3569 36.6208 20.7673ZM45.3501 32.4317L40.3563 27.4986L41.8819 25.9647L47.2957 31.3129C46.7116 31.7784 46.0566 32.1578 45.3501 32.4317Z" fill="url(#paint4_linear)"/>
<path fill-rule="evenodd" clip-rule="evenodd" d="M37.1663 30.7066L39.4114 32.9245L42.4931 32.9279L38.6917 29.1726L35.0723 25.5972L35.0757 28.6415L37.1662 30.7066H37.1663Z" fill="url(#paint5_linear)"/>
<path d="M32.9173 32.9173C28.9659 32.9128 25.3179 32.9087 25.3028 32.9087C20.1644 32.8772 15.7993 37.0661 15.7407 42.3519L17.9039 42.3758C17.911 41.7411 17.9994 41.1235 18.1592 40.5336C18.3637 39.7786 18.6855 39.069 19.1049 38.4271C19.5382 37.7638 20.0757 37.1729 20.6952 36.6788C21.2779 36.2141 21.9332 35.8351 22.6431 35.5622C23.4646 35.2462 24.3587 35.072 25.2978 35.072L25.5071 35.0723L28.5888 35.0757L32.816 35.0805L32.9195 34.9764C32.9188 34.2924 32.918 33.6003 32.9173 32.9173Z" fill="url(#paint6_linear)"/>
<path d="M50.0965 25.6243C50.0895 26.2599 50.0004 26.8769 49.84 27.4653C49.6342 28.2202 49.3105 28.9281 48.8902 29.5679C48.4548 30.2305 47.9157 30.8198 47.2968 31.3129C46.7127 31.7783 46.0576 32.1578 45.3511 32.4317C44.5275 32.751 43.6343 32.9271 42.7028 32.9282C42.7008 32.9282 42.6278 32.9281 42.4937 32.928C42.0443 32.9275 40.9042 32.9261 39.412 32.9245C38.1514 32.9231 36.6398 32.9214 35.0811 32.9196C35.0819 33.6374 35.0827 34.3652 35.0835 35.0829L42.7029 35.0915C47.9148 35.0853 52.202 30.8491 52.2598 25.6483L50.0965 25.6243Z" fill="url(#paint7_linear)"/>
<path d="M42.3514 15.7407C37.126 15.7987 32.8899 20.0882 32.9083 25.3001C32.9083 25.3156 32.9124 28.965 32.9168 32.9171C32.9176 33.6002 32.9183 34.2923 32.9192 34.9762L34.9649 32.9195L35.0801 32.8037C35.0784 31.3077 35.0768 29.86 35.0754 28.6413C35.0738 27.2163 35.0725 26.105 35.072 25.597C35.0718 25.4038 35.0717 25.2977 35.0717 25.2952C35.0685 24.3942 35.2301 23.5291 35.5276 22.728C35.7915 22.0172 36.1623 21.3569 36.6211 20.7673C37.1068 20.1431 37.691 19.5983 38.3496 19.1559C38.9851 18.729 39.6901 18.3979 40.4437 18.1837C41.0591 18.0088 41.7066 17.9112 42.3754 17.9039L42.3514 15.7407Z" fill="url(#paint8_linear)"/>
<path d="M35.0827 35.0828C35.0819 34.365 35.0811 33.6373 35.0802 32.9194C35.0418 32.9194 35.0034 32.9194 34.965 32.9193L32.9192 34.9761C32.9192 35.0108 32.9193 35.0456 32.9194 35.0803C32.9211 36.6174 32.9228 38.1087 32.9242 39.3585C32.9258 40.7859 32.9271 41.8978 32.9277 42.4027C32.9279 42.5918 32.928 42.6962 32.928 42.6997C32.9269 43.5995 32.7626 44.4636 32.4639 45.2638C32.1987 45.9741 31.8278 46.6342 31.3698 47.2237C30.8842 47.849 30.301 48.3947 29.644 48.8382C29.0093 49.2666 28.3057 49.599 27.5539 49.8142C26.9388 49.9903 26.2918 50.0885 25.624 50.0959L25.648 52.2591C30.8488 52.2014 35.0851 47.9142 35.0913 42.6997C35.0912 42.6846 35.0871 39.0353 35.0827 35.0828Z" fill="url(#paint9_linear)"/>
<defs>
<linearGradient id="paint0_linear" x1="18.1597" y1="35.4747" x2="30.7494" y2="36.6014" gradientUnits="userSpaceOnUse">
<stop stop-color="#0469B3"/>
<stop offset="0.953125" stop-color="#4894C7"/>
</linearGradient>
<linearGradient id="paint1_linear" x1="20.6953" y1="32.5387" x2="33.5959" y2="33.6938" gradientUnits="userSpaceOnUse">
<stop stop-color="#007AD3"/>
<stop offset="0.953125" stop-color="#2FA6F7"/>
</linearGradient>
<linearGradient id="paint2_linear" x1="25.5073" y1="33.1714" x2="33.6412" y2="33.902" gradientUnits="userSpaceOnUse">
<stop stop-color="#1197F9"/>
<stop offset="0.953125" stop-color="#5CBEFF"/>
</linearGradient>
<linearGradient id="paint3_linear" x1="38.3496" y1="15.2321" x2="50.944" y2="16.3599" gradientUnits="userSpaceOnUse">
<stop stop-color="#0469B3"/>
<stop offset="0.953125" stop-color="#4894C7"/>
</linearGradient>
<linearGradient id="paint4_linear" x1="35.5273" y1="17.7432" x2="48.4274" y2="18.898" gradientUnits="userSpaceOnUse">
<stop stop-color="#007AD3"/>
<stop offset="0.953125" stop-color="#2FA6F7"/>
</linearGradient>
<linearGradient id="paint5_linear" x1="35.0723" y1="23.6966" x2="43.2063" y2="24.4272" gradientUnits="userSpaceOnUse">
<stop stop-color="#1197F9"/>
<stop offset="0.953125" stop-color="#5CBEFF"/>
</linearGradient>
<linearGradient id="paint6_linear" x1="28.4618" y1="31.2984" x2="24.878" y2="42.7016" gradientUnits="userSpaceOnUse">
<stop stop-color="#FFDAC1"/>
<stop offset="1" stop-color="#FAB072"/>
</linearGradient>
<linearGradient id="paint7_linear" x1="47.802" y1="24.0141" x2="44.2181" y2="35.4173" gradientUnits="userSpaceOnUse">
<stop stop-color="#FFDAC1"/>
<stop offset="1" stop-color="#FAB072"/>
</linearGradient>
<linearGradient id="paint8_linear" x1="32.9082" y1="10.7537" x2="43.349" y2="11.2097" gradientUnits="userSpaceOnUse">
<stop stop-color="#0469B3"/>
<stop offset="0.953125" stop-color="#4894C7"/>
</linearGradient>
<linearGradient id="paint9_linear" x1="25.624" y1="27.9053" x2="36.0652" y2="28.3588" gradientUnits="userSpaceOnUse">
<stop stop-color="#0469B3"/>
<stop offset="0.953125" stop-color="#4894C7"/>
</linearGradient>
</defs>
</svg>
