<svg width="68" height="68" viewBox="0 0 68 68" fill="none" xmlns="http://www.w3.org/2000/svg">
<path opacity="0.2" d="M34 68C52.7777 68 68 52.7777 68 34C68 15.2223 52.7777 0 34 0C15.2223 0 0 15.2223 0 34C0 52.7777 15.2223 68 34 68Z" fill="#FFB381"/>
<path d="M35.369 18.9288H32.8105C32.4573 18.9288 32.1709 19.3584 32.1709 19.8883V24.3656C32.1709 24.8955 32.4573 25.3251 32.8105 25.3251H35.369C35.7223 25.3251 36.0086 24.8955 36.0086 24.3656V19.8883C36.0086 19.3584 35.7223 18.9288 35.369 18.9288Z" fill="white"/>
<path d="M43.0444 28.5232C42.8546 28.5232 42.6691 28.4669 42.5113 28.3615C42.3536 28.2561 42.2306 28.1062 42.158 27.9309C42.0854 27.7556 42.0664 27.5627 42.1034 27.3766C42.1404 27.1905 42.2318 27.0195 42.366 26.8854L44.2848 24.9665C44.3736 24.8762 44.4795 24.8044 44.5962 24.7552C44.7129 24.706 44.8382 24.6805 44.9648 24.6799C45.0915 24.6794 45.217 24.704 45.3341 24.7522C45.4512 24.8004 45.5576 24.8714 45.6472 24.9609C45.7367 25.0505 45.8077 25.1569 45.8559 25.274C45.9041 25.3911 45.9287 25.5166 45.9282 25.6433C45.9277 25.7699 45.9021 25.8952 45.8529 26.0119C45.8037 26.1286 45.7319 26.2345 45.6416 26.3233L43.7228 28.2422C43.6338 28.3314 43.528 28.4022 43.4116 28.4504C43.2952 28.4986 43.1704 28.5234 43.0444 28.5232Z" fill="white"/>
<path d="M25.1353 28.5232C25.0093 28.5234 24.8845 28.4986 24.7681 28.4504C24.6516 28.4022 24.5459 28.3314 24.4569 28.2422L22.538 26.3233C22.4477 26.2345 22.3759 26.1286 22.3268 26.0119C22.2776 25.8952 22.252 25.7699 22.2515 25.6433C22.251 25.5166 22.2755 25.3911 22.3238 25.274C22.372 25.1569 22.4429 25.0505 22.5325 24.9609C22.622 24.8714 22.7284 24.8004 22.8455 24.7522C22.9627 24.704 23.0882 24.6794 23.2148 24.6799C23.3415 24.6805 23.4668 24.706 23.5835 24.7552C23.7002 24.8044 23.806 24.8762 23.8948 24.9665L25.8137 26.8854C25.9479 27.0195 26.0392 27.1905 26.0763 27.3766C26.1133 27.5627 26.0943 27.7556 26.0217 27.9309C25.949 28.1062 25.8261 28.2561 25.6683 28.3615C25.5105 28.4669 25.325 28.5232 25.1353 28.5232Z" fill="white"/>
<path d="M34.0903 51.4498C42.0385 51.4498 48.4818 45.0064 48.4818 37.0582C48.4818 29.11 42.0385 22.6667 34.0903 22.6667C26.142 22.6667 19.6987 29.11 19.6987 37.0582C19.6987 45.0064 26.142 51.4498 34.0903 51.4498Z" fill="url(#paint0_linear)"/>
<path opacity="0.4" d="M34.0899 48.0317C40.0952 48.0317 44.9635 43.1634 44.9635 37.1581C44.9635 31.1528 40.0952 26.2845 34.0899 26.2845C28.0846 26.2845 23.2163 31.1528 23.2163 37.1581C23.2163 43.1634 28.0846 48.0317 34.0899 48.0317Z" fill="white"/>
<path d="M37.2883 16.3704H30.8921C30.3622 16.3704 29.9326 16.7999 29.9326 17.3298V19.2487C29.9326 19.7785 30.3622 20.2081 30.8921 20.2081H37.2883C37.8182 20.2081 38.2477 19.7785 38.2477 19.2487V17.3298C38.2477 16.7999 37.8182 16.3704 37.2883 16.3704Z" fill="url(#paint1_linear)"/>
<path d="M34.0903 26.2845V36.6784C34.0903 36.8056 34.1409 36.9276 34.2308 37.0176C34.3208 37.1075 34.4428 37.1581 34.5701 37.1581H44.9639C44.9639 31.1623 40.0861 26.2845 34.0903 26.2845Z" fill="url(#paint2_linear)"/>
<path d="M17.5327 34H12.6894C12.4967 34 12.3119 33.9005 12.1757 33.7234C12.0394 33.5462 11.9629 33.306 11.9629 33.0555C11.9629 32.805 12.0394 32.5648 12.1757 32.3877C12.3119 32.2106 12.4967 32.1111 12.6894 32.1111H17.5327C17.7254 32.1111 17.9102 32.2106 18.0464 32.3877C18.1826 32.5648 18.2592 32.805 18.2592 33.0555C18.2592 33.306 18.1826 33.5462 18.0464 33.7234C17.9102 33.9005 17.7254 34 17.5327 34Z" fill="url(#paint3_linear)"/>
<path d="M17.5327 42.1852H12.6894C12.4967 42.1852 12.3119 42.0857 12.1757 41.9085C12.0394 41.7314 11.9629 41.4912 11.9629 41.2407C11.9629 40.9902 12.0394 40.75 12.1757 40.5729C12.3119 40.3958 12.4967 40.2963 12.6894 40.2963H17.5327C17.7254 40.2963 17.9102 40.3958 18.0464 40.5729C18.1826 40.75 18.2592 40.9902 18.2592 41.2407C18.2592 41.4912 18.1826 41.7314 18.0464 41.9085C17.9102 42.0857 17.7254 42.1852 17.5327 42.1852Z" fill="url(#paint4_linear)"/>
<path d="M16.8034 37.7777H9.64133C9.42216 37.7777 9.21196 37.6782 9.05699 37.5011C8.90201 37.324 8.81494 37.0838 8.81494 36.8333C8.81494 36.5828 8.90201 36.3426 9.05699 36.1655C9.21196 35.9884 9.42216 35.8889 9.64133 35.8889H16.8034C17.0225 35.8889 17.2327 35.9884 17.3877 36.1655C17.5427 36.3426 17.6298 36.5828 17.6298 36.8333C17.6298 37.0838 17.5427 37.324 17.3877 37.5011C17.2327 37.6782 17.0225 37.7777 16.8034 37.7777Z" fill="url(#paint5_linear)"/>
<defs>
<linearGradient id="paint0_linear" x1="19.6987" y1="15.2044" x2="51.2541" y2="18.0042" gradientUnits="userSpaceOnUse">
<stop stop-color="#0469B3"/>
<stop offset="0.953125" stop-color="#4894C7"/>
</linearGradient>
<linearGradient id="paint1_linear" x1="36.2384" y1="15.6672" x2="35.9514" y2="21.525" gradientUnits="userSpaceOnUse">
<stop stop-color="#0062AA"/>
<stop offset="1" stop-color="#00406F"/>
</linearGradient>
<linearGradient id="paint2_linear" x1="42.1424" y1="24.4351" x2="35.9495" y2="35.2942" gradientUnits="userSpaceOnUse">
<stop stop-color="#FFDAC1"/>
<stop offset="1" stop-color="#FAB072"/>
</linearGradient>
<linearGradient id="paint3_linear" x1="11.9629" y1="31.6214" x2="18.3604" y2="33.5134" gradientUnits="userSpaceOnUse">
<stop stop-color="#0469B3"/>
<stop offset="0.953125" stop-color="#4894C7"/>
</linearGradient>
<linearGradient id="paint4_linear" x1="11.9629" y1="39.8066" x2="18.3604" y2="41.6986" gradientUnits="userSpaceOnUse">
<stop stop-color="#007AD3"/>
<stop offset="0.953125" stop-color="#2FA6F7"/>
</linearGradient>
<linearGradient id="paint5_linear" x1="15.4997" y1="35.5428" x2="15.434" y2="38.4313" gradientUnits="userSpaceOnUse">
<stop stop-color="#0062AA"/>
<stop offset="1" stop-color="#00406F"/>
</linearGradient>
</defs>
</svg>
