<svg width="68" height="68" viewBox="0 0 68 68" fill="none" xmlns="http://www.w3.org/2000/svg">
<path opacity="0.2" d="M34 68C52.7777 68 68 52.7777 68 34C68 15.2223 52.7777 0 34 0C15.2223 0 0 15.2223 0 34C0 52.7777 15.2223 68 34 68Z" fill="#FFB381"/>
<path d="M34.0002 54.1482C45.1277 54.1482 54.1483 45.1275 54.1483 34C54.1483 22.8725 45.1277 13.8519 34.0002 13.8519C22.8727 13.8519 13.8521 22.8725 13.8521 34C13.8521 45.1275 22.8727 54.1482 34.0002 54.1482Z" fill="url(#paint0_linear)"/>
<path d="M46.2777 32.7408C47.8425 32.7408 49.111 31.4722 49.111 29.9074C49.111 28.3426 47.8425 27.0741 46.2777 27.0741C44.7129 27.0741 43.4443 28.3426 43.4443 29.9074C43.4443 31.4722 44.7129 32.7408 46.2777 32.7408Z" fill="#FAFAFA"/>
<path d="M32.4258 33.3704L47.2221 18.8889L49.111 20.7778L34.3147 35.5741L32.4258 33.3704Z" fill="white"/>
<path d="M33.6851 41.5556C37.684 41.5556 40.9258 38.3138 40.9258 34.3148C40.9258 30.3159 37.684 27.0741 33.6851 27.0741C29.6861 27.0741 26.4443 30.3159 26.4443 34.3148C26.4443 38.3138 29.6861 41.5556 33.6851 41.5556Z" fill="white"/>
<path d="M49.0679 20.6251L35.3448 34.3482C34.8773 34.8156 34.1195 34.8156 33.652 34.3482C33.1846 33.8808 33.1846 33.1229 33.652 32.6554L35.7831 30.5244C35.1389 30.1641 34.4104 29.9714 33.652 29.9714C31.2386 29.9714 29.2751 31.9348 29.2751 34.3483C29.2751 36.7617 31.2386 38.7252 33.652 38.7252C35.6559 38.7252 37.3495 37.3716 37.8667 35.5307C38.0454 34.8943 38.5648 34.3483 39.2258 34.3483C39.8869 34.3483 40.4339 34.8887 40.3179 35.5395C39.7534 38.7069 36.9791 41.1192 33.652 41.1192C29.9185 41.1192 26.8812 38.0818 26.8812 34.3483C26.8812 30.6147 29.9185 27.5775 33.652 27.5775C35.0548 27.5775 36.3914 28.0029 37.5178 28.7897L41.3329 24.9746C39.1721 23.1974 36.4864 22.2309 33.6519 22.2309C26.9703 22.2309 21.5345 27.6666 21.5345 34.3483C21.5345 41.0299 26.9703 46.4657 33.6519 46.4657C40.3334 46.4657 45.7693 41.0299 45.7693 34.3483H48.1632C48.1632 42.3498 41.6535 48.8597 33.6519 48.8597C25.6504 48.8597 19.1406 42.3498 19.1406 34.3482C19.1406 26.3466 25.6504 19.8369 33.652 19.8369C37.1265 19.8369 40.4138 21.0504 43.0318 23.2756L47.3752 18.9323C43.685 15.6482 38.981 13.8519 34.0002 13.8519C28.6184 13.8519 23.5588 15.9477 19.7533 19.7531C15.9478 23.5586 13.8521 28.6183 13.8521 34C13.8521 39.3818 15.9478 44.4415 19.7533 48.247C23.5588 52.0524 28.6184 54.1482 34.0003 54.1482C39.3821 54.1482 44.4417 52.0524 48.2471 48.247C52.0525 44.4415 54.1483 39.3818 54.1483 34C54.1483 29.0193 52.352 24.3153 49.0679 20.6251ZM46.1949 31.3418C45.3051 31.3418 44.5838 30.6204 44.5838 29.7307C44.5838 28.8408 45.3052 28.1195 46.1949 28.1195C47.0847 28.1195 47.8061 28.8409 47.8061 29.7307C47.8062 30.6204 47.0848 31.3418 46.1949 31.3418Z" fill="url(#paint1_linear)"/>
<defs>
<linearGradient id="paint0_linear" x1="43.6919" y1="6.99829" x2="20.7417" y2="47.241" gradientUnits="userSpaceOnUse">
<stop stop-color="#FFDAC1"/>
<stop offset="1" stop-color="#FAB072"/>
</linearGradient>
<linearGradient id="paint1_linear" x1="13.852" y1="3.4047" x2="58.0296" y2="7.32437" gradientUnits="userSpaceOnUse">
<stop stop-color="#0469B3"/>
<stop offset="0.953125" stop-color="#4894C7"/>
</linearGradient>
</defs>
</svg>
