<svg width="380" height="380" viewBox="0 0 380 380" fill="none" xmlns="http://www.w3.org/2000/svg">
<path d="M380 231.977L137.342 372.078L0 292.767L242.646 152.677L380 231.977Z" fill="#F2F2F2"/>
<rect opacity="0.2" width="60.2343" height="47.3497" transform="matrix(0.866032 0.499988 -0.866033 0.499988 176.11 285.667)" fill="url(#paint0_linear)"/>
<path opacity="0.1" d="M25.6971 287.627C18.4363 291.821 18.4363 298.621 25.6971 302.803C32.9579 306.997 44.728 306.997 51.9888 302.803C59.2497 298.609 59.2497 291.809 51.9888 287.627C44.7401 283.433 32.9579 283.433 25.6971 287.627Z" fill="black"/>
<path opacity="0.2" d="M161.002 197.855L236.995 241.517C238.316 242.28 238.316 243.505 236.995 244.268L136.043 302.61L109.666 317.858C108.344 318.622 106.211 318.622 104.89 317.871L33.5639 276.984C32.2426 276.233 32.2184 274.972 33.5154 274.172L156.263 197.927C157.56 197.127 159.681 197.091 161.002 197.855Z" fill="url(#paint1_linear)"/>
<path d="M99.4155 95.3243L16.7728 143.073V74.8875L99.4155 27.1289V95.3243Z" fill="white"/>
<path d="M16.7731 143.073V145.613L101.579 96.6142L99.4158 95.3245L16.7731 143.073Z" fill="#FAFAFA"/>
<path d="M105.667 98.9753L12.7356 152.667V72.5067L105.667 18.8154V98.9753ZM101.579 25.879L16.7735 74.8778V145.613L101.579 96.6142V25.879Z" fill="#F0F0F0"/>
<path d="M101.579 96.6143L99.4159 95.3246V27.1292L101.579 25.8792V96.6143Z" fill="#E0E0E0"/>
<path d="M105.667 18.8155L103.474 17.5555L10.543 71.2468L12.7356 72.5067L105.667 18.8155Z" fill="#FAFAFA"/>
<path d="M10.5423 71.2467L12.7349 72.5066V152.657L10.5423 151.407V71.2467Z" fill="#E0E0E0"/>
<path d="M54.9587 52.7945L57.1611 51.5345V122.27L54.9587 121.01V52.7945Z" fill="#E0E0E0"/>
<path d="M61.2388 49.1825L57.1614 51.5337V122.269L61.2388 119.908V49.1825Z" fill="#F0F0F0"/>
<path d="M228.438 244.317L222.486 240.874L228.438 239.153V244.317Z" fill="#828282"/>
<path d="M228.437 244.317L231.419 242.595V237.444L228.437 239.153V244.317Z" fill="#455A64"/>
<path d="M198.604 256.378V261.869L155.512 236.995V231.516L198.604 256.378Z" fill="#828282"/>
<path d="M198.606 261.869L201.588 260.147V254.668L198.606 256.377V261.869Z" fill="#455A64"/>
<path d="M152.53 188.533L195.635 213.407V258.099L152.53 233.238V188.533Z" fill="url(#paint2_linear)"/>
<path d="M195.638 213.407L234.403 191.018V235.723L195.638 258.099V213.407Z" fill="#1D232B"/>
<path d="M234.402 191.018L191.296 166.156L152.53 188.533L195.636 213.406L234.402 191.018Z" fill="url(#paint3_linear)"/>
<path d="M198.607 228.874L231.42 209.927V234.001L198.607 252.947V228.874Z" fill="#27DEBF"/>
<path d="M198.607 228.874L231.42 209.927V234.001L198.607 252.947V228.874Z" fill="url(#paint4_linear)"/>
<path opacity="0.05" d="M231.421 234.001L210.718 221.879L231.421 209.927V234.001Z" fill="url(#paint5_linear)"/>
<path d="M198.607 215.116L231.42 196.182V206.497L198.607 225.431V215.116Z" fill="#27DEBF"/>
<path d="M198.607 215.116L231.42 196.182V206.497L198.607 225.431V215.116Z" fill="url(#paint6_linear)"/>
<path d="M208.778 211.419C208.778 211.891 210.196 211.455 211.954 210.449L217.518 207.237C219.275 206.218 220.693 205.018 220.693 204.546V203.685L208.778 210.558C208.778 210.558 208.778 210.946 208.778 211.419Z" fill="#1D232B"/>
<path opacity="0.1" d="M187.577 187.43C184.498 187.43 181.625 186.642 179.479 185.224C177.588 183.963 176.546 182.399 176.546 180.799C176.546 179.199 177.588 177.636 179.479 176.375C181.613 174.957 184.498 174.169 187.577 174.169C190.655 174.169 193.528 174.957 195.674 176.375C197.565 177.636 198.607 179.199 198.607 180.799C198.607 182.399 197.565 183.963 195.674 185.224C193.54 186.642 190.668 187.43 187.577 187.43Z" fill="black"/>
<path d="M200.582 206.182C198.219 206.182 196.013 205.576 194.364 204.485C192.909 203.515 192.109 202.315 192.109 201.091C192.109 199.867 192.909 198.667 194.364 197.697C196.013 196.606 198.219 196 200.582 196C202.946 196 205.152 196.606 206.801 197.697C208.255 198.667 209.055 199.867 209.055 201.091C209.055 202.315 208.255 203.515 206.801 204.485C205.152 205.588 202.946 206.182 200.582 206.182Z" fill="black" fill-opacity="0.1"/>
<path d="M194.812 180.266C194.812 180.072 194.8 179.878 194.751 179.697C194.412 177.551 192.545 175.224 191.248 174.484H183.939C182.642 175.224 180.787 177.551 180.436 179.697C180.399 179.89 180.375 180.084 180.375 180.278C180.375 180.315 180.387 180.375 180.387 180.375C180.46 181.381 181.151 182.388 182.484 183.163C185.296 184.788 189.866 184.788 192.691 183.163C194.024 182.388 194.727 181.394 194.788 180.375C194.812 180.363 194.812 180.303 194.812 180.266Z" fill="#1D232B"/>
<path d="M184.145 174.363C182.23 175.466 182.23 177.26 184.145 178.363C186.061 179.466 189.164 179.466 191.079 178.363C192.994 177.26 192.994 175.466 191.079 174.363C189.164 173.26 186.061 173.26 184.145 174.363Z" fill="#455A64"/>
<path d="M188.605 149.962H186.617V175.599H186.629C186.605 175.757 186.702 175.927 186.908 176.06C187.296 176.29 187.926 176.29 188.314 176.06C188.532 175.939 188.617 175.769 188.593 175.599H188.605V149.962Z" fill="#1D232B"/>
<path d="M202.314 146.132L195.393 128.471H179.829L172.907 146.132H172.92C171.938 148.895 173.283 151.877 177.005 154.023C182.871 157.405 192.387 157.405 198.254 154.023C201.939 151.877 203.296 148.883 202.314 146.132Z" fill="url(#paint7_linear)"/>
<path d="M181.976 132.701C185.091 134.495 190.133 134.495 193.237 132.701C196.352 130.907 196.352 127.998 193.237 126.192C190.121 124.398 185.079 124.398 181.976 126.192C178.86 127.986 178.86 130.895 181.976 132.701Z" fill="url(#paint8_linear)"/>
<path d="M187.613 133.113C185.65 133.113 183.807 132.677 182.438 131.889C181.225 131.198 180.571 130.325 180.571 129.44C180.571 128.555 181.237 127.683 182.438 126.992C183.807 126.204 185.638 125.767 187.613 125.767C189.577 125.767 191.42 126.204 192.789 126.992C194.002 127.683 194.656 128.555 194.656 129.44C194.656 130.325 193.989 131.198 192.789 131.889C191.42 132.689 189.577 133.113 187.613 133.113Z" fill="url(#paint9_linear)"/>
<path opacity="0.15" d="M187.613 133.113C185.65 133.113 183.807 132.677 182.438 131.889C181.225 131.198 180.571 130.325 180.571 129.44C180.571 128.555 181.237 127.683 182.438 126.992C183.807 126.204 185.638 125.767 187.613 125.767C189.577 125.767 191.42 126.204 192.789 126.992C194.002 127.683 194.656 128.555 194.656 129.44C194.656 130.325 193.989 131.198 192.789 131.889C191.42 132.689 189.577 133.113 187.613 133.113Z" fill="black"/>
<path d="M207.65 200.461C208.184 200.485 208.765 200.437 209.347 200.218C210.099 199.94 210.753 199.14 211.347 197.758C211.844 196.594 212.644 194.036 212.087 192.715C211.372 191.042 209.335 190.982 207.99 190.945C207.832 190.945 207.675 190.933 207.529 190.933L207.456 192.533C207.614 192.545 207.868 192.594 208.038 192.594C208.79 192.618 210.462 192.873 210.644 193.309C211.275 194.352 209.675 198.34 208.971 198.776C208.293 199.018 206.656 198.873 206.365 198.764L205.832 200.109C205.953 200.134 206.705 200.424 207.65 200.461Z" fill="#27DEBF"/>
<path d="M207.65 200.461C208.184 200.485 208.765 200.437 209.347 200.218C210.099 199.94 210.753 199.14 211.347 197.758C211.844 196.594 212.644 194.036 212.087 192.715C211.372 191.042 209.335 190.982 207.99 190.945C207.832 190.945 207.675 190.933 207.529 190.933L207.456 192.533C207.614 192.545 207.868 192.594 208.038 192.594C208.79 192.618 210.462 192.873 210.644 193.309C211.275 194.352 209.675 198.34 208.971 198.776C208.293 199.018 206.656 198.873 206.365 198.764L205.832 200.109C205.953 200.134 206.705 200.424 207.65 200.461Z" fill="url(#paint10_linear)"/>
<path d="M193.513 189.006C193.671 188.327 194.338 187.648 195.538 187.115C198.301 185.879 202.799 185.83 205.587 187.006C206.799 187.515 207.478 188.17 207.647 188.849H207.684C208.205 193.334 207.453 198.534 205.89 201.431C205.877 201.455 205.865 201.467 205.853 201.491C205.841 201.503 205.841 201.516 205.829 201.54C205.574 202 205.15 202.425 204.532 202.788C202.435 204.025 199.029 204.061 196.907 202.873C196.277 202.522 195.841 202.097 195.586 201.649C195.574 201.637 195.574 201.625 195.562 201.613C195.55 201.588 195.538 201.564 195.526 201.552C193.901 198.691 193.041 193.503 193.465 189.006H193.513Z" fill="url(#paint11_linear)"/>
<path d="M195.529 187.127C192.765 188.364 192.789 190.315 195.577 191.491C198.365 192.667 202.862 192.618 205.626 191.382C208.39 190.146 208.366 188.194 205.578 187.018C202.79 185.842 198.293 185.891 195.529 187.127Z" fill="url(#paint12_linear)"/>
<path opacity="0.4" d="M196.507 187.867C194.277 188.679 194.289 189.952 196.531 190.715C198.774 191.479 202.41 191.443 204.641 190.63C206.871 189.818 206.859 188.545 204.616 187.782C202.362 187.018 198.737 187.055 196.507 187.867Z" fill="url(#paint13_linear)"/>
<path d="M196.534 189.588C196.061 189.758 195.686 189.952 195.419 190.17C195.698 190.376 196.061 190.558 196.546 190.727C198.789 191.491 202.425 191.455 204.656 190.642C205.128 190.473 205.504 190.279 205.771 190.061C205.492 189.855 205.128 189.673 204.643 189.503C202.389 188.739 198.765 188.788 196.534 189.588Z" fill="#1D232B"/>
<path d="M105.303 299.325H95.812L97.3272 308.574H97.3393C97.4121 308.986 97.703 309.398 98.2606 309.713C99.5212 310.44 101.582 310.44 102.843 309.713C103.4 309.398 103.691 308.986 103.764 308.574H103.776L105.303 299.325Z" fill="#FAFAFA"/>
<path d="M62.7051 274.597H53.2139L54.7291 283.845H54.7412C54.8139 284.257 55.1048 284.67 55.6624 284.985C56.9231 285.712 58.9838 285.712 60.2444 284.985C60.802 284.67 61.0929 284.257 61.1656 283.845H61.1778L62.7051 274.597Z" fill="#FAFAFA"/>
<path d="M185.079 263.154H175.587L177.103 272.403H177.115C177.187 272.815 177.478 273.227 178.036 273.542C179.297 274.27 181.357 274.27 182.618 273.542C183.176 273.227 183.466 272.815 183.539 272.403H183.551L185.079 263.154Z" fill="#FAFAFA"/>
<path d="M136.82 235.092H127.329L128.844 244.341H128.856C128.929 244.753 129.22 245.165 129.777 245.481C131.038 246.208 133.098 246.208 134.359 245.481C134.917 245.165 135.208 244.753 135.28 244.341H135.292L136.82 235.092Z" fill="#FAFAFA"/>
<path d="M192.641 214.534V258.717C192.641 261.639 190.568 265.227 188.046 266.681L184.301 268.851C184.276 268.863 184.264 268.875 184.24 268.887C182.761 269.712 180.397 270.112 178.494 269.881L122.188 299.676C122.054 302.525 120.078 305.895 117.642 307.325C117.63 307.325 117.605 307.337 117.593 307.349L113.86 309.507C113.739 309.58 113.629 309.64 113.508 309.689C113.448 309.737 113.375 309.749 113.314 309.786C113.29 309.798 113.266 309.798 113.266 309.81C111.205 310.755 108.369 310.864 106.126 310.137C105.847 310.052 105.58 309.955 105.326 309.834C105.29 309.81 105.241 309.798 105.193 309.786C104.999 309.701 104.817 309.604 104.647 309.507L50.4618 278.306C47.9283 276.839 45.8676 273.263 45.8676 270.342L45.7827 214.413V193.139C45.7827 190.218 47.8556 186.642 50.3769 185.176L110.975 150.253C113.508 148.787 117.327 148.932 119.848 150.399L123.594 152.556C126.127 154.023 128.515 157.587 128.891 160.484L132.503 184.17L135.837 182.242C138.928 180.448 142.746 180.448 145.85 182.242L188.034 206.594C190.58 208.025 192.641 211.613 192.641 214.534Z" fill="#455A64"/>
<path d="M123.608 152.532L119.862 150.374C117.317 148.908 113.523 148.762 110.989 150.229L50.3914 185.151C50.1247 185.309 49.8338 185.515 49.9186 185.442C47.8215 186.909 46.1244 189.782 45.8335 192.339C46.1729 189.988 48.0882 189.139 50.3792 190.46C50.0762 190.279 54.1249 192.63 54.1249 192.63C56.6706 194.097 60.7799 194.097 63.3255 192.63L123.596 157.853C126.142 156.387 126.142 153.999 123.608 152.532Z" fill="#455A64"/>
<path d="M192.64 214.534V258.717C192.64 261.638 190.567 265.226 188.046 266.681L184.3 268.851C184.276 268.863 184.264 268.875 184.24 268.887C182.761 269.711 180.761 270.051 178.858 269.905C177.488 269.808 176.155 269.445 175.112 268.851L132.529 244.256C129.996 242.801 127.935 239.213 127.935 236.292V192.109C127.935 189.188 129.996 185.6 132.529 184.145L135.863 182.218C138.954 180.424 142.772 180.424 145.875 182.218L188.058 206.57C190.579 208.025 192.64 211.613 192.64 214.534Z" fill="#1D232B"/>
<path d="M135.862 182.206L132.517 184.133C129.983 185.6 129.983 187.988 132.517 189.443L175.1 214.025C177.633 215.492 179.694 219.068 179.694 221.989V266.172C179.694 269.094 181.767 270.294 184.288 268.827L188.034 266.669C190.567 265.203 192.628 261.627 192.628 258.705V214.522C192.628 211.601 190.555 208.013 188.034 206.558L145.851 182.206C142.772 180.424 138.953 180.424 135.862 182.206Z" fill="#455A64"/>
<path opacity="0.2" d="M179.694 222.001V266.184C179.694 269.106 181.767 270.306 184.288 268.839L188.034 266.681C190.567 265.215 192.628 261.639 192.628 258.717V214.522C192.628 213.055 192.107 211.431 191.282 209.989L178.336 217.468C179.185 218.91 179.694 220.534 179.694 222.001Z" fill="black"/>
<path d="M177.78 269.905C177.344 270.814 176.774 271.687 176.095 272.439C175.126 273.53 173.041 274.73 171.768 275.469C155.585 284.815 143.924 291.53 127.741 300.864C126.468 301.591 124.407 301.591 123.146 300.864L108.188 292.221L78.2587 274.948C75.7252 273.481 73.6523 270.063 73.6523 267.311C73.6523 264.56 75.7131 261.141 78.2587 259.675L95.2295 249.868L108.176 242.401L122.249 234.304C123.522 233.577 125.183 233.213 126.844 233.213C128.504 233.213 130.165 233.577 131.438 234.304L174.022 258.899C176.556 260.366 178.617 263.784 178.617 266.536C178.629 267.59 178.314 268.778 177.78 269.905Z" fill="#1D232B"/>
<path d="M127.753 290.888L176.337 262.863C177.609 262.123 178.64 262.729 178.64 264.196V268.851C178.64 270.317 177.609 272.099 176.337 272.839L127.753 300.864C126.481 301.591 125.45 300.997 125.45 299.53V294.876C125.45 293.409 126.481 291.627 127.753 290.888Z" fill="#37474F"/>
<path d="M122.25 211.504L78.2593 236.874C75.7137 238.341 73.665 241.905 73.665 244.838V254.147C73.665 257.081 75.7258 260.645 78.2714 262.111L120.856 286.694C123.402 288.161 127.511 288.161 130.057 286.694L174.047 261.323C176.593 259.857 178.641 256.293 178.641 253.359V244.05C178.641 241.117 176.581 237.553 174.047 236.086L131.463 211.504C128.905 210.037 124.796 210.037 122.25 211.504Z" fill="#37474F"/>
<path d="M125.448 267.869V287.809C123.776 287.809 122.115 287.434 120.854 286.706L78.2712 262.124C75.7378 260.657 73.665 257.093 73.665 254.16V244.85C73.665 242.099 75.4833 238.79 77.7985 237.177C75.7378 238.656 75.8954 240.826 78.2712 242.196L120.854 266.778C122.127 267.506 123.776 267.869 125.448 267.869Z" fill="#1D232B"/>
<path d="M130.044 266.778L174.035 241.408C176.581 239.941 176.581 237.565 174.035 236.098L131.451 211.516C128.905 210.049 124.796 210.049 122.25 211.516L78.2593 236.886C75.7137 238.353 75.7137 240.729 78.2593 242.196L120.844 266.778C123.389 268.245 127.511 268.245 130.044 266.778Z" fill="#455A64"/>
<path d="M153.065 279.688C154.047 282.233 155.587 286.5 156.447 290.573C157.308 294.633 158.508 297.494 160.581 298.597C162.654 299.688 165.745 299.494 164.581 296.73C163.417 293.967 158.993 279.954 158.993 279.954L153.065 279.688Z" fill="#F28F8F"/>
<path d="M127.158 210.691C127.158 210.691 142.758 218.025 150.758 222.328C158.771 226.631 166.383 230.838 167.971 234.304C169.656 237.965 169.219 246.693 168.347 255.081C167.474 263.469 165.631 278.56 165.631 278.56L142.176 243.408L118.612 227.843L127.158 210.691Z" fill="#1D232B"/>
<path opacity="0.1" d="M156.71 247.456C154.395 242.074 149.341 238.498 144.613 235.565C140.855 233.238 131.485 227.783 127.8 225.65C128.358 224.207 129.013 222.049 129.025 219.868C129.025 219.868 127.873 222.51 126.516 224.91L125.534 226.522L149.668 244.535L166.202 274.148C166.214 274.148 159.026 252.838 156.71 247.456Z" fill="black"/>
<path d="M179.436 305.326L171.479 289.889L164.659 292.264L166.932 306.514L173.753 308.889L179.436 305.326Z" fill="url(#paint14_linear)"/>
<path d="M147.714 282.896C147.428 283.083 146.878 283.816 146.709 284.784C146.846 285.45 147.353 286.753 148.409 288.18C149.465 289.607 149.867 290.201 149.828 291.556C149.783 292.908 149.532 294.239 150.391 296.426C151.246 298.619 153.313 300.839 157.048 302.477C160.277 303.897 161.891 303.217 162.304 303.026C163.174 302.624 163.833 301.508 163.833 301.508L147.714 282.896Z" fill="#263238"/>
<path d="M151.562 277.739C151.461 278.093 151.347 278.439 151.185 278.843C150.97 279.451 151.042 279.991 151.166 280.392C151.67 282.035 153.411 283.385 154.126 283.833C154.126 283.833 154.578 283.28 155.629 283.202C157.472 283.065 159.319 283.472 159.679 283.927C160.04 284.383 159.535 287.418 160.079 290.243C160.633 293.064 161.652 294.637 163.028 296.914C163.879 298.321 165.321 300.692 163.269 301.992C162.209 302.681 158.46 302.596 154.411 299.378C150.814 296.523 150.624 293.217 150.686 291.115C150.749 289.014 149.846 288.038 148.584 285.856C148.035 284.906 147.546 284.214 147.708 282.893C148.294 281.436 149.777 280.001 150.362 279.053C150.848 278.284 151.025 277.654 151.562 277.739Z" fill="url(#paint15_linear)"/>
<path d="M152.99 288.956C153.539 288.569 153.819 288.591 153.892 288.754C153.992 288.892 154.177 289.102 154.387 289.194C155.41 289.607 156.49 289.922 158.206 289.656C156.058 290.389 154.973 290.074 154.113 289.507C153.885 289.353 153.687 289.148 153.637 288.971C153.617 288.764 153.494 288.662 152.99 288.956Z" fill="#263238"/>
<path d="M164.862 306.215C164.672 306.569 164.517 307.639 164.888 308.735C165.405 309.348 166.665 310.409 168.564 311.289C170.462 312.169 171.213 312.558 171.938 313.982C172.654 315.405 173.146 316.924 175.269 318.702C177.392 320.488 180.783 321.619 185.572 321.204C189.714 320.851 191 319.237 191.32 318.805C191.993 317.899 192.044 316.372 192.044 316.372L164.862 306.215Z" fill="#263238"/>
<path d="M165.932 298.707C166.027 299.13 166.104 299.553 166.165 300.062C166.285 300.813 166.665 301.331 167.019 301.676C168.469 303.091 171.032 303.505 172.024 303.566C172.024 303.566 172.179 302.737 173.223 302.064C175.053 300.882 177.193 300.261 177.823 300.528C178.453 300.796 179.644 304.222 181.801 306.836C183.967 309.442 185.909 310.495 188.618 312.074C190.292 313.049 193.123 314.689 191.734 317.192C191.026 318.503 187.1 320.531 181.093 319.487C175.761 318.564 173.698 315.25 172.576 313.041C171.454 310.832 169.97 310.331 167.433 308.786C166.329 308.113 165.431 307.673 164.853 306.215C164.637 304.377 165.362 302.055 165.431 300.744C165.5 299.674 165.328 298.923 165.932 298.707Z" fill="url(#paint16_linear)"/>
<path d="M172.024 303.565C172.628 303.479 173.111 303.962 173.362 304.463C173.638 304.946 174.113 305.731 174.535 306.275C176.563 308.829 178.608 311.237 181.249 313.23C178.263 311.694 176.209 309.278 174.328 306.603C173.828 305.887 173.336 305.093 173.111 304.592C172.913 304.066 172.628 303.635 172.024 303.565Z" fill="#263238"/>
<path d="M88.0171 219.88C89.3141 226.934 90.4051 229.844 94.2963 236.001C98.0662 241.953 105.836 246.305 115.946 249.711C124.31 252.523 136.626 256.535 139.063 257.056C141.499 257.578 142.008 258.887 142.578 263.214C143.148 267.542 158.125 292.699 164.659 300.444C164.659 300.444 173.652 299.712 176.27 295.167C176.27 295.167 156.3 250.559 153.258 245.383C150.215 240.207 125.559 226.534 125.559 226.534C125.559 226.534 125.971 217.261 126.298 210.497L88.0171 219.88Z" fill="#1D232B"/>
<path d="M104.372 235.128V235.953C104.372 236.789 104.82 237.565 105.535 237.977L127.803 250.79C128.167 250.996 128.567 251.105 128.967 251.105C129.367 251.105 129.767 251.008 130.131 250.79L170.982 227.201C171.709 226.789 172.146 226.013 172.146 225.177V224.607L128.955 249.541L104.372 235.128Z" fill="#EBEBEB"/>
<path d="M172.158 224.619L147.938 210.631C147.502 210.376 146.98 210.376 146.544 210.631L104.529 234.898C104.323 235.019 104.323 235.31 104.529 235.432L128.979 249.553L172.158 224.619Z" fill="#FAFAFA"/>
<path d="M128.748 247.493L115.693 239.953L153.889 217.904L167.016 225.395L128.748 247.493Z" fill="#E0E0E0"/>
<path d="M122.336 226.534L122.578 226.668L128.979 230.365L140.361 223.795L140.603 223.662L133.961 219.819L122.336 226.534Z" fill="#E0E0E0"/>
<path d="M122.579 226.668L128.979 230.365L140.361 223.795L133.961 220.098L122.579 226.668Z" fill="#E6E6E6"/>
<path opacity="0.1" d="M128.979 249.541V251.093C129.379 251.093 129.779 250.996 130.142 250.778L170.992 227.189C171.719 226.777 172.156 226.001 172.156 225.165V224.595L128.979 249.541Z" fill="black"/>
<path d="M125.603 163.222C125.603 163.222 128.77 162.167 129.825 175.889C130.423 183.666 130.881 194.889 130.881 194.889L139.963 203.01C139.963 203.01 133.916 206.625 132.903 212.188C132.903 212.188 116.956 204.761 116.616 200.55C116.277 196.345 120.096 178.122 120.677 174.772C121.258 171.423 118.858 164.809 125.603 163.222Z" fill="url(#paint17_linear)"/>
<path d="M131.936 195.944C131.936 195.944 128.499 195.405 126.658 195.901C126.658 195.901 128.291 194.889 130.739 194.889L131.936 195.944Z" fill="url(#paint18_linear)"/>
<path d="M141.374 205.834L142.08 203.716L137.845 205.128L141.374 205.834Z" fill="url(#paint19_linear)"/>
<path d="M135.021 213.599V211.481L137.845 212.187L135.021 213.599Z" fill="url(#paint20_linear)"/>
<path d="M138.27 202.278L147.156 208.115C147.156 208.115 150.079 208.38 151.84 208.88C153.608 209.38 158.243 210.978 159.47 211.228C160.698 211.478 159.115 213.455 155.901 212.735C155.901 212.735 162.636 217.06 162.547 218.991C162.458 220.915 155.546 224.202 150.879 220.975C149.942 220.324 148.263 219.059 146.906 218.635C145.549 218.218 141.577 216.772 139.211 213.5L131.937 209.667C131.937 209.667 135.104 204.389 138.27 202.278Z" fill="#FFA8A7"/>
<path d="M135.022 213.599L131.492 211.481C131.492 211.481 131.681 208.084 133.61 205.128C136.159 201.222 139.325 201.222 139.325 201.222L142.081 203.716C141.14 204.187 138.269 206.258 137.14 207.952C136.01 209.646 135.257 212.893 135.022 213.599Z" fill="url(#paint21_linear)"/>
<path d="M129.633 249.893C130.409 250.196 131.282 250.135 132.021 249.711L172.689 226.231C173.404 225.819 173.889 225.116 174.035 224.292L178.483 197.746C178.508 197.6 178.52 197.443 178.52 197.297C178.52 196.558 178.229 195.855 177.708 195.333L135.44 219.734C134.906 220.037 134.543 220.558 134.446 221.165L129.633 249.893Z" fill="#EBEBEB"/>
<path d="M128.979 249.553L129.257 249.711C129.379 249.784 129.512 249.844 129.633 249.893L134.445 221.152C134.542 220.546 134.906 220.025 135.439 219.722L177.707 195.321C177.55 195.164 177.356 195.018 177.138 194.897L134.785 219.346C134.251 219.649 133.888 220.171 133.791 220.777L128.979 249.553Z" fill="#FAFAFA"/>
<path d="M152.542 225.383C152.845 223.601 154.676 221.25 156.639 220.11C158.603 218.971 159.961 219.492 159.658 221.274C159.355 223.056 157.524 225.407 155.561 226.547C153.597 227.674 152.239 227.153 152.542 225.383Z" fill="#455A64"/>
<path d="M95.0443 171.317C95.0443 171.317 102.093 167.522 106.837 165.603C110.558 164.098 116.554 162.253 116.554 162.253C116.554 162.253 132.114 159.805 126.331 170.143C127.968 178.669 128.18 211.078 128.18 211.078L128.006 214.625C128.006 214.625 123.511 227.221 107.451 228.26C91.3911 229.298 88.2685 222.53 88.2685 222.53C88.2685 222.53 86.6466 179.655 95.0443 171.317Z" fill="url(#paint22_linear)"/>
<mask id="mask0" mask-type="alpha" maskUnits="userSpaceOnUse" x="88" y="162" width="41" height="67">
<path d="M95.0443 171.317C95.0443 171.317 102.093 167.522 106.837 165.603C110.558 164.098 116.554 162.253 116.554 162.253C116.554 162.253 132.114 159.805 126.331 170.143C127.968 178.669 128.18 211.078 128.18 211.078L128.006 214.625C128.006 214.625 123.511 227.221 107.451 228.26C91.3911 229.298 88.2685 222.53 88.2685 222.53C88.2685 222.53 86.6466 179.655 95.0443 171.317Z" fill="url(#paint23_linear)"/>
</mask>
<g mask="url(#mask0)">
<path opacity="0.15" d="M129.115 160.361C129.934 176.75 131.573 211.494 131.573 219.361L118.462 227.555L117.643 174.292L113.545 160.361H129.115Z" fill="url(#paint24_linear)"/>
<path d="M117.642 176.75L117.642 217.722" stroke="black" stroke-width="0.25"/>
</g>
<path d="M99.0065 169.897C99.0065 169.897 104.069 173.823 100.954 185.995C97.8468 198.175 96.187 208.672 96.187 208.672L109.448 216.083C109.448 216.083 102.429 220.278 101.254 226.736C101.254 226.736 82.7416 218.116 82.3475 213.227C81.9534 208.346 86.3872 187.193 87.0617 183.305C87.7363 179.416 91.1772 171.739 99.0065 169.897Z" fill="url(#paint25_linear)"/>
<path d="M96.1865 208.672C96.1865 208.672 93.693 208.141 91.5557 208.717C91.5557 208.717 93.4504 207.543 96.2926 207.543L96.1865 208.672Z" fill="url(#paint26_linear)"/>
<path d="M111.087 219.361L111.907 216.903L106.99 218.542L111.087 219.361Z" fill="url(#paint27_linear)"/>
<path d="M103.712 228.375V225.917L106.99 226.736L103.712 228.375Z" fill="url(#paint28_linear)"/>
<path d="M108.474 217.418L117.145 224.285C117.145 224.285 119.888 224.55 121.541 225.051C123.201 225.551 127.551 227.15 128.703 227.4C129.855 227.65 128.37 229.628 125.353 228.908C125.353 228.908 131.674 233.236 131.591 235.169C131.507 237.094 125.02 240.383 120.639 237.154C119.76 236.503 118.183 235.237 116.91 234.812C115.637 234.396 111.908 232.948 109.687 229.674L102.108 225.725C102.108 225.725 99.9705 216.797 108.474 217.418Z" fill="#FFA8A7"/>
<path d="M103.713 228.375L99.6157 225.916C99.6157 225.916 99.6157 221.819 102.074 218.542C104.532 215.264 106.991 214.444 106.991 214.444L111.907 216.903C110.815 217.449 107.482 219.853 106.171 221.819C104.86 223.786 103.986 227.555 103.713 228.375Z" fill="url(#paint29_linear)"/>
<path d="M118.118 176.543C119.01 175.722 120.49 172.347 121.258 172.479C122.859 172.752 123.957 173.82 123.952 173.043C123.948 172.267 122.759 170.618 121.313 168.37C120.203 166.645 118.439 165.226 117.397 165.071L117.644 168.556C118.109 169.506 118.392 170.516 118.482 171.545C118.814 173.213 118.689 174.925 118.118 176.543Z" fill="url(#paint30_linear)"/>
<path d="M117.644 176.75C116.184 175.864 109.917 174.201 109.609 175.196C109.392 175.898 108.768 178.446 107.686 178.388C104.561 177.81 101.75 176.168 99.7546 173.756C98.8531 172.799 98.2382 171.62 97.977 170.347C97.977 170.347 99.2583 167.662 100.048 166.43C100.832 165.207 102.346 163.717 103.235 163.639L103.713 166.917C104.376 168.052 104.269 168.605 105.352 169.375C107.95 171.202 115.02 173.55 117.644 176.75Z" fill="url(#paint31_linear)"/>
<path d="M126.112 140.748C127.234 139.855 128.039 138.624 128.406 137.238C128.848 135.642 128.949 133.971 128.703 132.333C128.609 131.753 128.43 131.19 128.173 130.661C127.957 130.391 127.683 130.173 127.372 130.022C127.061 129.871 126.72 129.791 126.374 129.789C125.951 129.734 125.528 129.687 125.105 129.647C125.871 128.792 126.454 127.788 126.818 126.699C127.044 125.828 127.031 124.911 126.78 124.047C126.725 123.811 126.616 123.591 126.461 123.405C126.261 123.246 126.021 123.146 125.768 123.119C125.514 123.091 125.259 123.137 125.03 123.249C122.138 124.109 119.117 124.447 116.107 124.249C113.715 124.173 112.502 123.895 109.209 123.657C108.035 123.545 106.851 123.67 105.727 124.026C104.603 124.383 103.562 124.962 102.668 125.729C101.773 126.497 101.042 127.437 100.519 128.494C99.996 129.55 99.6917 130.702 99.624 131.879C95.2959 132.779 95.2458 140.428 96.7169 143.611C99.4261 149.475 101.896 153.334 103.35 157.572C103.565 157.392 117.637 147.816 120.83 145.146L124.42 142.145C124.995 141.663 125.575 141.221 126.112 140.748Z" fill="#1D232B"/>
<path d="M98.792 153.98C101.542 156.018 103.107 153.956 103.107 153.956C103.107 153.956 102.382 162.879 103.267 167.736C103.715 170.194 117.646 175.93 117.646 175.93C118.465 175.93 117.646 167.736 117.646 167.736L117.431 163.272C118.767 163.313 120.103 163.218 121.42 162.988C122.234 162.814 123.005 162.477 123.686 161.998C125.228 160.876 126.266 159.191 126.575 157.308C127.212 153.903 127.403 150.429 127.141 146.975C126.892 142.796 126.156 137.409 124.699 134.636C122.242 132.485 115.329 132.429 109.641 134.354C109.635 135.921 109.869 137.284 108.82 139.026C108.29 139.833 107.569 140.496 106.722 140.958C106.76 143.999 106.698 144.821 106.261 146.173C106.02 146.952 105.519 148.121 104.052 147.594C103.359 147.345 102.756 145.743 101.99 144.687C100.959 143.266 97.9635 142.657 96.73 145.814C96.2059 147.224 96.1224 148.759 96.4907 150.218C96.8589 151.676 97.6615 152.988 98.792 153.98Z" fill="#FFAAA8"/>
<path d="M117.446 163.281C114.121 163.025 108.471 162.214 106.63 160.261C104.79 158.307 103.712 154.625 103.712 154.625C103.712 154.625 104.164 158.887 105.609 161.102C107.054 163.316 109.973 164.16 112.099 164.742C113.979 165.162 115.516 165.433 117.446 165.554V163.281Z" fill="#FF9090"/>
<path d="M118.743 147.694L118.341 154.182L122.214 153.25L118.743 147.694Z" fill="#F28F8F"/>
<path d="M113.01 146.711C112.965 147.438 113.518 148.068 114.253 148.113C114.981 148.159 115.61 147.605 115.656 146.87C115.701 146.142 115.148 145.513 114.413 145.468C113.685 145.43 113.056 145.983 113.01 146.711Z" fill="#263238"/>
<path d="M122.338 146.107C122.293 146.834 122.846 147.463 123.581 147.509C124.309 147.554 124.938 147.001 124.983 146.266C125.029 145.538 124.475 144.909 123.74 144.864C123.013 144.818 122.384 145.379 122.338 146.107Z" fill="#263238"/>
<path d="M125.442 143.367L122.948 141.67C122.948 141.67 124.002 140.7 124.957 141.382C125.904 142.064 125.442 143.367 125.442 143.367Z" fill="#263238"/>
<path d="M113.936 143.452L111.245 144.808C111.245 144.808 110.912 143.414 111.965 142.914C113.019 142.413 113.936 143.452 113.936 143.452Z" fill="#263238"/>
<path d="M117.298 144.417H118.937" stroke="black" stroke-width="0.25"/>
<circle cx="112.383" cy="146.055" r="4.79164" stroke="black" stroke-width="0.25"/>
<path d="M128.646 146.055C128.646 148.702 126.5 150.847 123.854 150.847C121.208 150.847 119.062 148.702 119.062 146.055C119.062 143.409 121.208 141.264 123.854 141.264C126.5 141.264 128.646 143.409 128.646 146.055Z" stroke="black" stroke-width="0.25"/>
<path d="M107.465 146.875L103.368 147.694" stroke="black" stroke-width="0.25"/>
<path d="M113.42 154.943L118.029 156.697C117.941 157.012 117.789 157.306 117.582 157.559C117.376 157.813 117.119 158.021 116.828 158.171C116.537 158.321 116.218 158.409 115.891 158.43C115.565 158.451 115.238 158.404 114.93 158.293C114.302 158.028 113.797 157.536 113.517 156.915C113.237 156.293 113.202 155.589 113.42 154.943Z" fill="#C76668"/>
<path d="M113.622 155.953C114.271 155.969 114.891 156.23 115.355 156.684C115.82 157.138 116.096 157.751 116.126 158.4C115.725 158.473 115.311 158.436 114.929 158.293C114.467 158.105 114.068 157.789 113.778 157.382C113.489 156.976 113.321 156.495 113.294 155.996C113.402 155.974 113.512 155.959 113.622 155.953Z" fill="#FF9090"/>
<ellipse rx="0.819437" ry="0.819434" transform="matrix(0.866033 -0.499986 2.20313e-08 1 119.993 191.91)" fill="white"/>
<ellipse rx="0.819438" ry="0.819439" transform="matrix(0.866032 -0.499989 2.20312e-08 1 119.993 205.021)" fill="white"/>
<ellipse rx="0.819438" ry="0.819439" transform="matrix(0.866032 -0.499989 2.20312e-08 1 119.993 179.618)" fill="white"/>
<path d="M109.766 307.723V263.504C109.766 260.581 107.697 256.991 105.18 255.536L62.6113 230.916C60.5905 229.752 60.5905 226.829 62.6113 225.664L63.6519 225.07L60.046 201.372C59.6588 198.473 57.275 194.908 54.7582 193.452L51.0191 191.293C48.4902 189.826 46.4331 191.027 46.4331 193.95V215.234L46.5057 271.193C46.5057 274.116 48.5749 277.706 51.1038 279.161L105.192 310.379C107.709 311.834 109.766 310.646 109.766 307.723Z" fill="#1D232B"/>
<path d="M122.912 255.971V300.167C122.912 300.264 122.912 300.373 122.9 300.47C122.767 303.318 120.791 306.688 118.355 308.118C118.343 308.118 118.318 308.13 118.306 308.143L114.573 310.3C114.452 310.373 114.342 310.434 114.221 310.482C114.161 310.531 114.088 310.543 114.027 310.579C114.003 310.591 113.979 310.591 113.979 310.603C113.845 310.652 113.724 310.712 113.603 310.737C111.591 311.537 108.948 311.597 106.839 310.931C106.56 310.846 106.294 310.749 106.039 310.627C108.245 311.537 109.954 310.3 109.967 307.658C109.967 307.658 109.967 307.658 109.967 307.646V263.45C109.967 260.529 107.894 256.941 105.372 255.486L97.0207 250.662L62.7287 230.867C60.7044 229.704 60.7044 226.782 62.7287 225.619L66.5349 223.425C69.0683 221.97 73.2017 221.97 75.7352 223.425L109.979 243.195L118.318 248.007C120.852 249.474 122.912 253.05 122.912 255.971Z" fill="#455A64"/>
<path d="M122.912 255.971V300.166C122.912 300.263 122.912 300.372 122.9 300.469C122.767 303.318 120.791 306.688 118.355 308.118C118.343 308.118 118.318 308.13 118.306 308.142L114.573 310.3C114.452 310.373 114.342 310.433 114.221 310.482C114.161 310.53 114.088 310.542 114.027 310.579C114.003 310.591 113.979 310.591 113.979 310.603C113.845 310.651 113.724 310.712 113.603 310.736C111.591 311.536 108.948 311.597 106.839 310.93C106.56 310.845 106.294 310.748 106.039 310.627C108.245 311.536 109.954 310.3 109.967 307.657C109.967 307.657 109.967 307.657 109.967 307.645V263.45C109.967 260.529 107.894 256.941 105.372 255.486L97.0207 250.662L62.7287 230.867C60.7044 229.703 60.7044 226.782 62.7287 225.618L66.5349 223.424C69.0683 221.97 73.2017 221.97 75.7352 223.424L109.979 243.195L118.318 248.007C120.852 249.474 122.912 253.05 122.912 255.971Z" fill="black" fill-opacity="0.2"/>
<mask id="mask1" mask-type="alpha" maskUnits="userSpaceOnUse" x="61" y="222" width="62" height="90">
<path d="M122.912 255.971V300.166C122.912 300.263 122.912 300.372 122.9 300.469C122.767 303.318 120.791 306.688 118.355 308.118C118.343 308.118 118.318 308.13 118.306 308.142L114.573 310.3C114.452 310.373 114.342 310.433 114.221 310.482C114.161 310.53 114.088 310.542 114.027 310.579C114.003 310.591 113.979 310.591 113.979 310.603C113.845 310.651 113.724 310.712 113.603 310.736C111.591 311.536 108.948 311.597 106.839 310.93C106.56 310.845 106.294 310.748 106.039 310.627C108.245 311.536 109.954 310.3 109.967 307.657C109.967 307.657 109.967 307.657 109.967 307.645V263.45C109.967 260.529 107.894 256.941 105.372 255.486L97.0207 250.662L62.7287 230.867C60.7044 229.703 60.7044 226.782 62.7287 225.618L66.5349 223.424C69.0683 221.97 73.2017 221.97 75.7352 223.424L109.979 243.195L118.318 248.007C120.852 249.474 122.912 253.05 122.912 255.971Z" fill="#1D232B"/>
</mask>
<g mask="url(#mask1)">
<path opacity="0.4" d="M107.352 268.092V327.686C107.352 331.626 110.108 333.245 113.459 331.267L118.439 328.356C121.807 326.378 124.547 321.555 124.547 317.615V258.004C124.547 256.025 123.854 253.835 122.758 251.889L105.547 261.977C106.675 263.922 107.352 266.113 107.352 268.092Z" fill="#1D232B"/>
</g>
<path d="M50.4847 296.1C56.7031 289.749 60.3638 263.905 54.2909 258.863H23.405C17.3321 263.893 20.9928 289.737 27.2112 296.088C27.2597 296.149 27.3203 296.209 27.3809 296.258C27.4536 296.331 27.5264 296.403 27.5991 296.464C27.7688 296.634 27.9627 296.803 28.1567 296.961C28.2052 296.997 28.2537 297.034 28.3021 297.082C28.4597 297.203 28.6052 297.325 28.7749 297.434C29.0416 297.628 29.3082 297.797 29.5749 297.943C34.6902 300.901 42.9935 300.901 48.121 297.943C48.3998 297.785 48.6664 297.616 48.9331 297.422C49.0907 297.313 49.224 297.203 49.3695 297.094C49.4301 297.046 49.4907 296.997 49.5513 296.949C49.7453 296.791 49.9271 296.634 50.0968 296.464C50.1816 296.391 50.2665 296.306 50.3392 296.222C50.3877 296.197 50.4362 296.149 50.4847 296.1Z" fill="url(#paint32_linear)"/>
<path d="M26.0842 256.838C19.0416 260.911 19.0416 267.505 26.0842 271.578C33.1269 275.651 44.5576 275.651 51.6123 271.578C58.655 267.505 58.655 260.911 51.6123 256.838C44.5576 252.766 33.139 252.766 26.0842 256.838Z" fill="#1D232B"/>
<path d="M38.848 271.845C46.1652 271.845 52.0969 268.421 52.0969 264.196C52.0969 259.972 46.1652 256.548 38.848 256.548C31.5309 256.548 25.5991 259.972 25.5991 264.196C25.5991 268.421 31.5309 271.845 38.848 271.845Z" fill="url(#paint33_linear)"/>
<path d="M48.2181 263.929C43.0422 260.935 34.6541 260.935 29.4781 263.929C28.0357 264.754 27.0174 265.736 26.375 266.778C27.0174 267.821 28.0357 268.79 29.4781 269.627C34.6541 272.621 43.0422 272.621 48.2181 269.627C49.6606 268.802 50.6788 267.821 51.3213 266.778C50.6788 265.736 49.6606 264.754 48.2181 263.929Z" fill="#455A64"/>
<path d="M39.2481 266.124C39.2481 266.124 34.4601 267.142 28.5569 264.911C22.6537 262.693 21.7446 258.741 21.7446 258.741C21.7446 258.741 26.7629 254.875 30.6539 255.202C30.6539 255.202 24.8356 253.299 19.0657 253.711C19.0657 253.711 15.7322 251.881 17.2838 246.087C17.2838 246.087 20.9688 244.159 28.472 246.256C28.472 246.256 25.0416 242.971 18.4475 241.165C17.9141 241.092 19.793 233.516 20.9445 230.195C22.0961 226.874 23.2961 227.589 25.9992 228.292C28.7023 228.995 36.9208 233.153 37.6481 235.274C38.3754 237.395 36.6177 242.232 36.6177 242.232C36.6177 242.232 39.4421 240.535 40.3754 238.111C40.3754 238.111 43.1877 238.656 45.2968 241.068C47.406 243.48 46.509 244.68 45.418 246.596C44.2544 248.644 43.2725 249.893 41.3815 251.856C41.3815 251.856 44.0968 251.311 47.4666 245.553C47.4666 245.553 49.2969 250.632 49.2363 254.063C49.1757 257.517 44.9089 264.172 39.2481 266.124Z" fill="url(#paint34_linear)"/>
<path d="M39.0792 266.427C38.9701 266.366 38.8974 266.233 38.8974 266.099C39.6974 254.535 29.4547 234.753 24.2787 230.304C24.1333 230.183 24.109 229.953 24.2424 229.807C24.3636 229.662 24.5939 229.65 24.7394 229.771C30.0001 234.28 40.4126 254.39 39.6004 266.136C39.5883 266.33 39.4186 266.475 39.2247 266.463C39.1762 266.475 39.1277 266.451 39.0792 266.427Z" fill="white"/>
<path d="M38.1935 268.596C40.4239 270.669 43.5998 271.687 46.6181 271.251C49.7333 270.802 52.5819 268.839 54.1092 266.087C54.3395 265.663 54.5456 265.19 54.4607 264.717C54.3638 264.245 54.0001 263.881 53.6243 263.566C51.7455 261.99 49.4424 260.911 47.0302 260.487C48.3272 260.705 49.9272 260.293 51.2364 260.293C53.1273 260.281 55.0426 260.426 56.8972 260.851C56.8972 260.851 60.0124 259.699 59.4185 254.499C59.4185 254.499 56.485 252.365 49.7333 253.202C49.7333 253.202 53.1152 250.814 59.0548 250.111C59.5276 250.111 58.8851 243.335 58.3275 240.317C57.7578 237.298 56.6426 237.759 54.2183 238.026C51.794 238.292 44.1574 240.801 43.2482 242.547C42.3391 244.292 43.2361 248.693 43.2361 248.693C43.2361 248.693 41.0179 246.862 40.5209 244.644C40.5209 244.644 38.0238 244.741 35.8904 246.559C33.757 248.377 34.3752 249.517 35.0662 251.311C35.8056 253.238 36.4844 254.438 37.8663 256.378C37.6966 256.135 37.0541 255.796 36.7996 255.59C36.2056 255.129 35.5632 254.766 35.0056 254.256C33.9267 253.275 33.0297 252.087 32.4115 250.765C31.163 252.862 30.1084 255.105 29.6963 257.505C29.2842 259.905 29.563 262.487 30.8478 264.572C32.2782 266.899 35.2116 268.73 37.9996 268.39C38.0602 268.463 38.1208 268.524 38.1935 268.596Z" fill="url(#paint35_linear)"/>
<path d="M37.9642 269.239C38.0733 269.203 38.1461 269.093 38.1582 268.984C38.9703 258.899 50.3889 243.141 55.4315 239.977C55.5769 239.892 55.6133 239.699 55.5284 239.553C55.4436 239.408 55.2496 239.371 55.1042 239.456C49.9767 242.668 38.3764 258.681 37.5521 268.936C37.54 269.106 37.6612 269.251 37.8309 269.263C37.8794 269.263 37.9279 269.263 37.9642 269.239Z" fill="white"/>
<g clip-path="url(#clip0)">
<path opacity="0.2" d="M269.432 253.279C273.178 253.262 276.866 251.303 278.979 248.212C279.95 246.793 280.686 245.087 282.191 244.26C284.615 242.927 287.516 244.553 290.003 245.759C295.116 248.247 301.412 248.976 306.415 246.276C309 244.88 311.132 242.652 313.9 241.664C316.417 240.767 319.18 241.003 321.839 241.279C324.499 241.554 327.239 241.853 329.796 241.066C332.352 240.279 334.684 238.096 334.742 235.425C334.799 232.961 332.892 230.778 330.634 229.795C328.377 228.813 325.82 228.79 323.356 228.911C309.615 229.56 296.115 233.891 282.375 233.282C279.686 233.162 276.779 232.909 274.516 234.362C271.563 236.258 270.914 240.25 270.805 243.755C270.702 247.264 270.742 251.119 268.479 253.802" fill="url(#paint36_linear)"/>
<path d="M268.834 220.518C268.633 220.788 267.65 222.73 267.558 223.052C267.018 224.867 265.042 231.324 267.57 234.696C270.425 238.504 286.527 238.395 287.82 238.384C287.877 238.384 287.929 238.378 287.987 238.378L311.39 236.729C311.637 236.712 311.885 236.66 312.12 236.58L332.198 229.669C332.686 229.503 333.117 229.204 333.45 228.813C334.478 227.596 334.306 225.763 333.065 224.758L318.037 212.585C317.727 212.332 317.365 212.149 316.98 212.045C314.182 211.304 301.894 208.438 287.866 211.04C278.358 212.803 273.59 214.171 268.834 220.518Z" fill="url(#paint37_linear)"/>
<path d="M331.389 229.244C330.211 230.025 329.861 231.823 330.665 232.99C331.607 234.357 333.715 234.529 335.128 233.662C336.547 232.794 337.34 231.169 337.662 229.537C337.891 228.394 337.863 227.044 337.001 226.257C336.415 225.717 335.576 225.573 334.789 225.464C332.555 225.165 330.297 225.01 328.04 224.999" fill="url(#paint38_linear)"/>
<g opacity="0.3">
<g opacity="0.3">
<path opacity="0.3" d="M324.15 225.677C325.719 226.222 329.056 227.256 330.711 227.308C332.371 227.36 334.129 226.837 335.186 225.556C335.364 225.344 335.525 225.102 335.76 224.953C335.996 224.804 336.335 224.769 336.536 224.959C336.794 225.206 336.673 225.637 336.513 225.958C335.565 227.785 333.583 229.026 331.532 229.072C329.47 229.129 325.184 227.452 324.15 225.677Z" fill="black"/>
</g>
</g>
<path d="M324.459 206.708C324.459 206.708 314.992 208.052 317.606 218.37C320.22 228.687 330.692 228.222 332.559 227.957C333.025 227.888 333.622 227.647 334.26 227.274C337.109 225.619 338.924 222.626 339.275 219.352L339.326 218.858L344.835 213.676C344.835 213.676 343.244 212.809 337.597 213.452L330.704 208.144C330.704 208.144 331.508 201.722 330.664 201.239C329.819 200.768 324.459 206.708 324.459 206.708Z" fill="url(#paint39_linear)"/>
<path d="M267.421 224.476C265.714 227.492 266.346 231.232 266.99 234.638C267.633 238.045 268.179 241.819 266.358 244.766C265.008 246.949 262.411 248.293 259.849 248.132C257.661 247.994 255.673 246.868 253.634 246.052C251.594 245.237 249.182 244.748 247.275 245.834C245.241 246.989 244.454 249.723 245.103 251.969C245.752 254.215 247.562 255.979 249.618 257.099C253.927 259.443 259.413 259.213 263.756 256.927C268.098 254.64 271.298 250.464 272.861 245.811C274.429 241.158 274.44 236.074 273.401 231.277" fill="url(#paint40_linear)"/>
<path d="M328.165 216.709L328.366 219.547L330.681 218.634C330.675 218.628 329.825 216.888 328.165 216.709Z" fill="#263238"/>
<g opacity="0.3">
<g opacity="0.3">
<path opacity="0.3" d="M298.337 237.792C299.911 237.246 301.003 235.678 301.221 234.024C301.44 232.375 300.877 230.686 299.923 229.319C297.769 226.228 293.529 224.775 289.933 225.889C289.261 226.096 288.532 226.475 288.365 227.165C288.233 227.722 288.526 228.302 288.951 228.687C289.376 229.066 289.916 229.296 290.427 229.549C294.035 231.324 296.769 234.799 297.637 238.728" fill="black"/>
</g>
</g>
<path d="M285.716 225.045C289.255 224.442 293.058 225.682 295.568 228.25C298.078 230.818 299.222 234.655 298.532 238.177C299.986 238.631 301.554 238.286 303.053 238.01C304.553 237.735 306.184 237.551 307.522 238.274C308.861 238.998 309.585 240.992 308.534 242.095C307.994 242.658 307.178 242.83 306.408 242.974C302.18 243.772 297.797 244.57 293.621 243.536C291.139 242.922 288.859 241.687 286.612 240.463C284.119 239.107 284.349 239.607 281.856 238.252" fill="url(#paint41_linear)"/>
<g opacity="0.3">
<g opacity="0.3">
<path opacity="0.3" d="M326.19 231.329C325.426 231.146 324.662 230.962 323.898 230.784C322.823 230.525 321.732 230.261 320.773 229.709C319.813 229.158 318.997 228.262 318.802 227.17C318.641 226.257 319.072 225.16 319.974 224.924C320.686 224.735 321.404 225.125 322.036 225.504C323.823 226.567 325.609 227.624 327.396 228.687C327.787 228.922 328.206 229.181 328.39 229.595C328.637 230.152 328.355 230.841 327.873 231.215C327.39 231.588 326.753 231.703 326.144 231.714" fill="black"/>
</g>
</g>
<path d="M309.265 228.394C309.408 230.87 310.816 233.185 312.798 234.673C314.779 236.161 317.29 236.85 319.771 236.873C322.253 236.89 324.809 236.276 327.176 237.022C328.71 237.505 330.025 238.522 331.542 239.05C333.058 239.579 335.046 239.435 335.885 238.068C336.66 236.81 336.063 235.075 334.948 234.11C333.834 233.139 332.346 232.754 330.916 232.392C328.739 231.846 326.556 231.295 324.378 230.749C323.034 230.41 321.644 230.054 320.541 229.21C319.438 228.365 318.691 226.895 319.117 225.573" fill="url(#paint42_linear)"/>
<path d="M330.968 221.242C330.985 221.265 330.532 221.483 329.768 221.328C329.4 221.242 328.952 221.075 328.59 220.673C328.418 220.472 328.274 220.191 328.297 219.875C328.314 219.576 328.481 219.231 328.826 219.093L328.946 219.369C328.889 219.392 328.831 219.427 328.768 219.45C328.176 219.679 327.539 219.628 327.045 219.409C326.539 219.191 326.206 218.8 326.022 218.444C325.655 217.709 325.815 217.18 325.838 217.198C325.896 217.192 325.827 217.703 326.206 218.341C326.396 218.651 326.712 218.978 327.154 219.157C327.59 219.335 328.153 219.369 328.659 219.174C328.716 219.157 328.762 219.128 328.814 219.105L328.935 219.381C328.734 219.455 328.607 219.679 328.59 219.903C328.567 220.122 328.665 220.34 328.803 220.507C329.084 220.851 329.492 221.035 329.819 221.133C330.509 221.322 330.963 221.19 330.968 221.242Z" fill="#263238"/>
<path d="M335.938 220.857C335.955 220.892 335.748 221.024 335.375 221.116C335.001 221.202 334.444 221.219 333.875 221.007C333.307 220.794 332.905 220.403 332.692 220.076C332.48 219.749 332.439 219.507 332.474 219.496C332.514 219.479 332.623 219.68 332.859 219.95C333.094 220.214 333.473 220.541 333.979 220.725C335.013 221.11 335.921 220.765 335.938 220.857Z" fill="#263238"/>
<path d="M317.716 207.794C317.739 207.771 319.572 209.856 321.812 212.447C324.046 215.038 325.839 217.157 325.816 217.18C325.793 217.203 323.96 215.118 321.72 212.527C319.485 209.931 317.693 207.811 317.716 207.794Z" fill="#263238"/>
<path d="M320.278 204.686C320.307 204.675 321.588 207.266 323.133 210.477C324.678 213.688 325.908 216.302 325.879 216.319C325.85 216.331 324.569 213.74 323.024 210.529C321.478 207.317 320.249 204.704 320.278 204.686Z" fill="#263238"/>
<path d="M308.511 242.244C308.482 242.25 308.499 241.957 308.292 241.566C308.091 241.182 307.632 240.728 307 240.515C306.362 240.303 305.736 240.32 305.294 240.343C304.851 240.372 304.576 240.4 304.57 240.383C304.57 240.377 304.639 240.36 304.759 240.331C304.88 240.308 305.064 240.28 305.288 240.257C305.73 240.211 306.374 240.176 307.04 240.4C307.706 240.624 308.183 241.113 308.373 241.526C308.47 241.733 308.511 241.917 308.522 242.043C308.528 242.17 308.516 242.244 308.511 242.244Z" fill="#263238"/>
<path d="M308.764 240.227C308.741 240.233 308.678 239.98 308.454 239.642C308.236 239.303 307.817 238.883 307.231 238.682C306.645 238.481 306.059 238.55 305.674 238.676C305.283 238.803 305.076 238.964 305.065 238.941C305.059 238.935 305.105 238.889 305.203 238.82C305.3 238.751 305.45 238.665 305.645 238.59C306.036 238.435 306.65 238.349 307.265 238.562C307.885 238.78 308.311 239.228 308.517 239.59C308.627 239.774 308.69 239.929 308.724 240.044C308.764 240.159 308.77 240.222 308.764 240.227Z" fill="#263238"/>
<path d="M274.164 225.826C274.199 225.843 273.647 226.302 273.377 227.348C273.239 227.865 273.182 228.503 273.245 229.209C273.308 229.91 273.504 230.668 273.733 231.455C273.963 232.242 274.199 232.995 274.331 233.696C274.463 234.397 274.497 235.051 274.451 235.591C274.4 236.131 274.273 236.556 274.153 236.838C274.032 237.119 273.934 237.252 273.934 237.252C273.923 237.246 274.009 237.102 274.113 236.821C274.216 236.539 274.331 236.12 274.371 235.586C274.411 235.051 274.365 234.414 274.227 233.719C274.09 233.024 273.854 232.277 273.624 231.49C273.394 230.703 273.199 229.933 273.142 229.221C273.084 228.503 273.153 227.853 273.303 227.331C273.452 226.808 273.67 226.417 273.854 226.176C274.032 225.929 274.164 225.826 274.164 225.826Z" fill="#263238"/>
<path d="M310.734 225.125C310.74 225.125 310.734 225.166 310.729 225.246C310.717 225.355 310.7 225.47 310.688 225.591C310.642 225.889 310.608 226.326 310.602 226.866C310.591 227.406 310.637 228.049 310.74 228.756C310.861 229.462 311.05 230.227 311.337 230.996C311.636 231.766 311.998 232.467 312.371 233.07C312.756 233.667 313.153 234.184 313.52 234.581C313.882 234.983 314.198 235.287 314.428 235.483C314.52 235.563 314.606 235.644 314.687 235.713C314.744 235.764 314.773 235.799 314.773 235.799C314.773 235.799 314.204 235.431 313.451 234.638C313.072 234.248 312.67 233.731 312.274 233.127C311.889 232.519 311.516 231.812 311.217 231.036C310.93 230.255 310.74 229.48 310.625 228.767C310.522 228.055 310.487 227.4 310.51 226.86C310.556 225.78 310.734 225.125 310.734 225.125Z" fill="#263238"/>
<path d="M329.486 232.093C329.481 232.105 329.308 232.024 328.992 231.91C328.671 231.795 328.205 231.645 327.614 231.502C326.436 231.192 324.741 231.048 322.961 230.462C322.076 230.157 321.272 229.732 320.663 229.187C320.054 228.641 319.646 228.009 319.428 227.435C319.209 226.86 319.164 226.349 319.186 226.01C319.209 225.665 319.278 225.487 319.278 225.487C319.319 225.476 319.043 226.268 319.508 227.406C319.732 227.963 320.14 228.578 320.743 229.106C321.341 229.635 322.133 230.048 323.007 230.353C324.764 230.939 326.459 231.094 327.642 231.427C328.234 231.582 328.705 231.743 329.021 231.875C329.32 231.996 329.486 232.093 329.486 232.093Z" fill="#263238"/>
<path d="M335.283 238.947C335.265 238.958 335.145 238.74 334.903 238.424C334.662 238.108 334.283 237.712 333.783 237.378C333.284 237.045 332.767 236.844 332.387 236.746C332.008 236.643 331.761 236.62 331.761 236.597C331.761 236.591 331.824 236.586 331.934 236.597C332.048 236.603 332.209 236.626 332.405 236.666C332.801 236.746 333.335 236.942 333.846 237.281C334.358 237.625 334.743 238.045 334.972 238.378C335.087 238.544 335.168 238.682 335.214 238.786C335.265 238.883 335.288 238.941 335.283 238.947Z" fill="#263238"/>
<path d="M336.513 237.183C336.49 237.189 336.427 236.959 336.231 236.637C336.036 236.316 335.674 235.914 335.157 235.667C334.64 235.42 334.1 235.385 333.727 235.431C333.353 235.471 333.129 235.569 333.123 235.546C333.118 235.54 333.175 235.506 333.273 235.466C333.37 235.425 333.526 235.379 333.715 235.345C334.094 235.276 334.663 235.293 335.209 235.557C335.754 235.822 336.116 236.253 336.3 236.591C336.392 236.764 336.45 236.907 336.478 237.017C336.513 237.12 336.518 237.183 336.513 237.183Z" fill="#263238"/>
<path d="M334.853 228.888C334.847 228.917 334.474 228.773 333.848 228.762C333.233 228.75 332.343 228.905 331.567 229.462C331.177 229.727 330.855 230.054 330.642 230.405C330.43 230.755 330.338 231.117 330.309 231.427C330.252 232.047 330.39 232.432 330.355 232.432C330.355 232.432 330.188 232.059 330.223 231.416C330.24 231.1 330.332 230.715 330.55 230.347C330.769 229.979 331.102 229.641 331.504 229.365C332.308 228.79 333.227 228.647 333.859 228.681C334.175 228.693 334.434 228.75 334.6 228.796C334.767 228.842 334.859 228.882 334.853 228.888Z" fill="#263238"/>
<path d="M334.197 230.525C334.209 230.531 334.076 230.698 333.772 230.841C333.479 230.979 332.991 231.071 332.508 230.876C332.026 230.68 331.738 230.272 331.624 229.968C331.503 229.658 331.532 229.445 331.543 229.445C331.566 229.445 331.572 229.646 331.704 229.933C331.83 230.215 332.112 230.583 332.554 230.761C332.997 230.939 333.456 230.876 333.743 230.761C334.036 230.646 334.186 230.508 334.197 230.525Z" fill="#263238"/>
<path d="M333.779 231.938C333.784 231.95 333.606 232.088 333.262 232.202C332.923 232.317 332.4 232.386 331.86 232.237C331.32 232.088 330.912 231.76 330.677 231.484C330.441 231.209 330.361 230.996 330.372 230.99C330.389 230.979 330.499 231.174 330.74 231.427C330.981 231.68 331.377 231.978 331.889 232.122C332.4 232.266 332.9 232.214 333.233 232.122C333.578 232.036 333.767 231.921 333.779 231.938Z" fill="#263238"/>
<path d="M336.174 235.73C336.146 235.747 335.996 235.299 335.462 234.799C334.939 234.294 334.037 233.817 332.998 233.403C331.958 232.995 330.998 232.668 330.309 232.427C330.022 232.323 329.752 232.226 329.493 232.134C329.298 232.065 329.195 232.019 329.2 232.013C329.2 232.007 329.315 232.03 329.511 232.088C329.775 232.168 330.051 232.254 330.344 232.346C331.044 232.57 332.009 232.886 333.055 233.294C334.095 233.708 335.008 234.202 335.531 234.742C335.795 235.006 335.962 235.259 336.059 235.443C336.14 235.615 336.174 235.73 336.174 235.73Z" fill="#263238"/>
<path d="M327.964 227.038C327.964 227.038 327.292 226.745 326.31 225.999C325.333 225.257 324.058 224.005 323.104 222.207L323.208 222.167C323.432 223.023 323.857 223.913 324.489 224.695L324.69 224.942L324.414 224.786C324.311 224.729 324.196 224.66 324.081 224.597C321.599 223.178 320.071 220.949 319.37 219.26C319.008 218.41 318.819 217.68 318.721 217.175C318.624 216.669 318.601 216.382 318.601 216.382C318.601 216.382 318.618 216.451 318.647 216.583C318.675 216.715 318.698 216.916 318.761 217.163C318.871 217.663 319.077 218.387 319.445 219.226C320.163 220.897 321.685 223.092 324.138 224.493C324.253 224.557 324.362 224.62 324.466 224.677L324.391 224.769C323.748 223.976 323.323 223.069 323.093 222.196L322.972 221.725L323.196 222.155C324.138 223.942 325.391 225.194 326.344 225.947C326.827 226.326 327.235 226.596 327.516 226.774C327.637 226.849 327.746 226.912 327.844 226.975C327.924 227.01 327.964 227.033 327.964 227.038Z" fill="#263238"/>
<path d="M298.66 222.689C298.654 222.695 298.58 222.672 298.436 222.62C298.293 222.569 298.091 222.483 297.844 222.368C297.35 222.138 296.696 221.77 296.035 221.265C295.374 220.759 294.846 220.225 294.495 219.811C294.317 219.605 294.185 219.432 294.099 219.306C294.013 219.179 293.967 219.11 293.973 219.105C293.99 219.093 294.197 219.357 294.559 219.754C294.92 220.15 295.455 220.667 296.11 221.167C296.764 221.667 297.402 222.04 297.885 222.287C298.361 222.54 298.672 222.672 298.66 222.689Z" fill="#263238"/>
<path d="M298.659 221.908C298.636 221.931 298.021 221.443 297.28 220.811C296.539 220.179 295.959 219.651 295.982 219.622C296.005 219.599 296.619 220.087 297.36 220.719C298.096 221.351 298.682 221.885 298.659 221.908Z" fill="#263238"/>
<path d="M299.768 221.61C299.756 221.638 299.291 221.414 298.808 221.012C298.32 220.616 298.01 220.208 298.033 220.191C298.062 220.168 298.406 220.53 298.883 220.92C299.36 221.311 299.785 221.575 299.768 221.61Z" fill="#263238"/>
<g opacity="0.3">
<g opacity="0.3">
<path opacity="0.3" d="M299.377 209.994C301.106 209.959 299.905 212.878 299.176 214.233C298.446 215.589 297.068 216.583 295.54 216.807C294.057 217.025 292.529 216.566 291.053 216.836C287.98 217.399 286.274 220.817 283.419 222.086C281.477 222.948 279.07 222.666 277.381 221.374C275.692 220.081 275.261 216.64 275.595 214.538C275.595 214.532 281.345 210.356 299.377 209.994Z" fill="white"/>
</g>
</g>
<g opacity="0.3">
<g opacity="0.3">
<path opacity="0.3" d="M311.015 228.394C311.756 227.802 312.917 227.957 313.847 228.124C314.778 228.29 315.634 228.761 316.398 229.318C317.139 229.864 317.857 230.576 317.978 231.49C318.116 232.547 317.426 233.518 316.76 234.356C316.49 234.701 316.214 235.046 315.852 235.293C315.496 235.545 315.042 235.689 314.617 235.58C314.158 235.465 313.819 235.074 313.526 234.701C312.641 233.564 311.883 232.323 311.274 231.013C310.895 230.186 310.573 229.192 311.015 228.394Z" fill="white"/>
</g>
</g>
<path d="M298.533 238.177C298.533 238.177 298.539 238.102 298.562 237.964C298.579 237.827 298.631 237.625 298.66 237.361C298.74 236.838 298.809 236.074 298.74 235.132C298.66 234.19 298.413 233.082 297.896 231.944C297.373 230.818 296.672 229.612 295.764 228.503C294.811 227.423 293.616 226.688 292.496 226.154C291.364 225.625 290.284 225.286 289.371 225.045C288.457 224.804 287.705 224.66 287.182 224.568C286.952 224.528 286.751 224.494 286.579 224.465C286.441 224.442 286.372 224.419 286.372 224.419C286.372 224.419 287.55 224.511 289.394 224.965C290.313 225.194 291.399 225.533 292.547 226.056C293.679 226.59 294.891 227.326 295.862 228.429C296.793 229.554 297.482 230.761 298.005 231.904C298.522 233.053 298.769 234.179 298.832 235.127C298.889 236.08 298.803 236.85 298.711 237.373C298.614 237.895 298.533 238.177 298.533 238.177Z" fill="#263238"/>
<path d="M327.781 214.762C327.781 214.796 327.516 214.854 327.091 214.779C326.672 214.71 326.092 214.486 325.609 214.021C325.127 213.556 324.88 212.987 324.799 212.568C324.713 212.148 324.759 211.878 324.794 211.878C324.84 211.878 324.874 212.131 325.006 212.51C325.138 212.883 325.391 213.383 325.822 213.803C326.253 214.216 326.764 214.452 327.143 214.567C327.522 214.693 327.781 214.716 327.781 214.762Z" fill="#263238"/>
<path d="M329.832 220.466C329.752 220.478 329.671 220.398 329.648 220.277C329.631 220.162 329.683 220.053 329.763 220.041C329.844 220.03 329.924 220.11 329.947 220.231C329.964 220.346 329.913 220.449 329.832 220.466Z" fill="#263238"/>
<path d="M330.677 220.202C330.608 220.248 330.504 220.214 330.441 220.122C330.378 220.03 330.384 219.921 330.452 219.875C330.521 219.829 330.625 219.864 330.688 219.955C330.745 220.042 330.74 220.156 330.677 220.202Z" fill="#263238"/>
<path d="M330.659 220.794C330.607 220.857 330.515 220.868 330.458 220.817C330.4 220.765 330.4 220.679 330.452 220.616C330.504 220.552 330.596 220.541 330.653 220.593C330.711 220.639 330.716 220.73 330.659 220.794Z" fill="#263238"/>
<path d="M327.097 218.18C327.051 218.249 326.919 218.243 326.81 218.163C326.695 218.088 326.644 217.968 326.69 217.899C326.736 217.83 326.868 217.836 326.977 217.916C327.086 217.996 327.143 218.111 327.097 218.18Z" fill="#263238"/>
<path d="M327.465 217.33C327.385 217.336 327.31 217.255 327.305 217.146C327.299 217.037 327.356 216.951 327.442 216.945C327.523 216.939 327.598 217.02 327.603 217.129C327.609 217.232 327.552 217.324 327.465 217.33Z" fill="#263238"/>
<path d="M327.631 218.45C327.551 218.439 327.488 218.387 327.494 218.335C327.499 218.284 327.574 218.243 327.654 218.255C327.735 218.266 327.798 218.318 327.792 218.37C327.786 218.421 327.712 218.456 327.631 218.45Z" fill="#263238"/>
<path d="M342.498 228.623C342.481 228.652 340.057 227.09 337.087 225.131C334.117 223.172 331.721 221.569 331.744 221.54C331.762 221.512 334.186 223.074 337.156 225.033C340.126 226.992 342.515 228.595 342.498 228.623Z" fill="#263238"/>
<path d="M346.22 226.498C346.22 226.504 346.169 226.498 346.071 226.481C345.973 226.464 345.836 226.441 345.652 226.406C345.29 226.337 344.767 226.211 344.135 226.027C342.86 225.665 341.159 224.999 339.293 224.235C337.466 223.482 335.811 222.805 334.519 222.27C333.962 222.035 333.479 221.834 333.077 221.661C332.933 221.598 332.807 221.541 332.686 221.489C332.6 221.449 332.554 221.426 332.554 221.42C332.554 221.414 332.606 221.432 332.698 221.466C332.818 221.512 332.951 221.564 333.094 221.615C333.502 221.776 333.985 221.966 334.548 222.19C335.846 222.713 337.5 223.385 339.333 224.12C341.194 224.89 342.889 225.562 344.152 225.947C344.784 226.142 345.301 226.274 345.657 226.36C345.807 226.395 345.945 226.429 346.071 226.458C346.169 226.475 346.22 226.493 346.22 226.498Z" fill="#263238"/>
<g opacity="0.3">
<g opacity="0.3">
<path opacity="0.3" d="M326.673 206.754C327.333 206.697 328.137 206.3 328.614 205.846C329.12 205.364 329.407 204.698 329.551 204.014C329.688 203.33 329.694 202.63 329.694 201.934C329.045 202.555 328.39 203.175 327.741 203.79C327.327 204.186 326.908 204.577 326.535 205.008C326.339 205.232 326.15 205.467 326.064 205.749C325.977 206.03 326.006 206.369 326.213 206.582C326.42 206.794 326.81 206.817 326.994 206.588" fill="black"/>
</g>
</g>
<g opacity="0.3">
<g opacity="0.3">
<path opacity="0.3" d="M339.506 218.433C339.547 217.244 340.052 216.072 340.897 215.233C341.741 214.394 342.913 213.889 344.102 213.86C343.166 215.802 340.828 216.635 339.506 218.341" fill="black"/>
</g>
</g>
</g>
<g clip-path="url(#clip1)">
<path d="M258.411 66.2657V113.06L298.933 136.458V89.6631L258.411 66.2657Z" fill="#F2F2F2"/>
<path d="M260.606 70.0711V111.798L296.738 132.662V90.9347L260.606 70.0711ZM258.411 66.2657L298.933 89.6631V136.458L258.411 113.06V66.2657Z" fill="#E0E0E0"/>
<path d="M264.356 102.36L295.015 120.059L285.954 96.4919L279.69 103.943L273.276 94.8059L264.356 102.36Z" fill="#E0E0E0"/>
<path d="M274.99 87.6568C274.99 89.437 276.243 91.6129 277.788 92.4983C279.333 93.3931 280.585 92.6678 280.585 90.8876C280.585 89.1074 279.333 86.9315 277.788 86.0461C276.243 85.1513 274.99 85.8766 274.99 87.6568Z" fill="#E0E0E0"/>
<path d="M244.885 8.00793V45.2892L277.174 63.9299V26.6486L244.885 8.00793Z" fill="#F2F2F2"/>
<path d="M246.637 11.0315V44.2719L275.422 60.8969V27.6564L246.637 11.0315ZM244.885 8.00793L277.174 26.6486V63.9299L244.885 45.2892V8.00793Z" fill="#E0E0E0"/>
<path d="M249.623 36.7554L274.047 50.856L266.832 32.0835L261.84 38.0176L256.725 30.746L249.623 36.7554Z" fill="#E0E0E0"/>
<path d="M258.099 25.0474C258.099 26.4697 259.098 28.1934 260.332 28.9092C261.566 29.6157 262.564 29.0411 262.564 27.6188C262.564 26.1965 261.566 24.4728 260.332 23.7569C259.098 23.0505 258.099 23.6251 258.099 25.0474Z" fill="#E0E0E0"/>
</g>
<defs>
<linearGradient id="paint0_linear" x1="43.5014" y1="-12.8124" x2="38.5264" y2="64.4102" gradientUnits="userSpaceOnUse">
<stop stop-color="#007AD3"/>
<stop offset="1" stop-color="#F4FAFF"/>
</linearGradient>
<linearGradient id="paint1_linear" x1="180.919" y1="164.528" x2="171.355" y2="362.434" gradientUnits="userSpaceOnUse">
<stop stop-color="#007AD3"/>
<stop offset="1" stop-color="#F4FAFF"/>
</linearGradient>
<linearGradient id="paint2_linear" x1="185.219" y1="175.788" x2="167.501" y2="279.188" gradientUnits="userSpaceOnUse">
<stop stop-color="#0062AA"/>
<stop offset="1" stop-color="#00406F"/>
</linearGradient>
<linearGradient id="paint3_linear" x1="152.53" y1="153.907" x2="240.906" y2="167.493" gradientUnits="userSpaceOnUse">
<stop stop-color="#1197F9"/>
<stop offset="0.953125" stop-color="#5CBEFF"/>
</linearGradient>
<linearGradient id="paint4_linear" x1="218.682" y1="168.548" x2="215.523" y2="276.591" gradientUnits="userSpaceOnUse">
<stop stop-color="#F4FAFF"/>
<stop offset="1" stop-color="#007AD3"/>
</linearGradient>
<linearGradient id="paint5_linear" x1="226.419" y1="205.517" x2="221.94" y2="241.797" gradientUnits="userSpaceOnUse">
<stop stop-color="#0062AA"/>
<stop offset="1" stop-color="#00406F"/>
</linearGradient>
<linearGradient id="paint6_linear" x1="218.682" y1="168.047" x2="217.221" y2="241.541" gradientUnits="userSpaceOnUse">
<stop stop-color="#F4FAFF"/>
<stop offset="1" stop-color="#007AD3"/>
</linearGradient>
<linearGradient id="paint7_linear" x1="172.609" y1="121.188" x2="205.478" y2="124.305" gradientUnits="userSpaceOnUse">
<stop stop-color="#007AD3"/>
<stop offset="0.953125" stop-color="#2FA6F7"/>
</linearGradient>
<linearGradient id="paint8_linear" x1="179.639" y1="122.461" x2="196.839" y2="125.104" gradientUnits="userSpaceOnUse">
<stop stop-color="#1197F9"/>
<stop offset="0.953125" stop-color="#5CBEFF"/>
</linearGradient>
<linearGradient id="paint9_linear" x1="191.252" y1="124.422" x2="190.632" y2="135.626" gradientUnits="userSpaceOnUse">
<stop stop-color="#0062AA"/>
<stop offset="1" stop-color="#00406F"/>
</linearGradient>
<linearGradient id="paint10_linear" x1="210.719" y1="189.187" x2="208.484" y2="203.421" gradientUnits="userSpaceOnUse">
<stop stop-color="#0062AA"/>
<stop offset="1" stop-color="#00406F"/>
</linearGradient>
<linearGradient id="paint11_linear" x1="204.346" y1="182.933" x2="200.936" y2="209.4" gradientUnits="userSpaceOnUse">
<stop stop-color="#0062AA"/>
<stop offset="1" stop-color="#00406F"/>
</linearGradient>
<linearGradient id="paint12_linear" x1="193.471" y1="184.566" x2="208.547" y2="187.645" gradientUnits="userSpaceOnUse">
<stop stop-color="#1197F9"/>
<stop offset="0.953125" stop-color="#5CBEFF"/>
</linearGradient>
<linearGradient id="paint13_linear" x1="203.536" y1="186.494" x2="203.306" y2="192.654" gradientUnits="userSpaceOnUse">
<stop stop-color="#0062AA"/>
<stop offset="1" stop-color="#00406F"/>
</linearGradient>
<linearGradient id="paint14_linear" x1="165.829" y1="295.991" x2="187.026" y2="307.182" gradientUnits="userSpaceOnUse">
<stop stop-color="#FEBBBA"/>
<stop offset="1" stop-color="#FF928E"/>
</linearGradient>
<linearGradient id="paint15_linear" x1="157.21" y1="277.089" x2="146.153" y2="302.005" gradientUnits="userSpaceOnUse">
<stop stop-color="#0062AA"/>
<stop offset="1" stop-color="#00406F"/>
</linearGradient>
<linearGradient id="paint16_linear" x1="171.408" y1="294.847" x2="174.032" y2="326.867" gradientUnits="userSpaceOnUse">
<stop stop-color="#0062AA"/>
<stop offset="1" stop-color="#00406F"/>
</linearGradient>
<linearGradient id="paint17_linear" x1="116.595" y1="150.504" x2="142.369" y2="151.595" gradientUnits="userSpaceOnUse">
<stop stop-color="#007AD3"/>
<stop offset="0.953125" stop-color="#2FA6F7"/>
</linearGradient>
<linearGradient id="paint18_linear" x1="130.661" y1="194.696" x2="130.626" y2="196.31" gradientUnits="userSpaceOnUse">
<stop stop-color="#0062AA"/>
<stop offset="1" stop-color="#00406F"/>
</linearGradient>
<linearGradient id="paint19_linear" x1="141.057" y1="203.328" x2="140.885" y2="206.559" gradientUnits="userSpaceOnUse">
<stop stop-color="#0062AA"/>
<stop offset="1" stop-color="#00406F"/>
</linearGradient>
<linearGradient id="paint20_linear" x1="135.703" y1="211.093" x2="135.96" y2="214.313" gradientUnits="userSpaceOnUse">
<stop stop-color="#0062AA"/>
<stop offset="1" stop-color="#00406F"/>
</linearGradient>
<linearGradient id="paint21_linear" x1="131.492" y1="198.013" x2="143.125" y2="198.896" gradientUnits="userSpaceOnUse">
<stop stop-color="#0469B3"/>
<stop offset="0.953125" stop-color="#4894C7"/>
</linearGradient>
<linearGradient id="paint22_linear" x1="88.1426" y1="144.794" x2="132.256" y2="147.155" gradientUnits="userSpaceOnUse">
<stop stop-color="#007AD3"/>
<stop offset="0.953125" stop-color="#2FA6F7"/>
</linearGradient>
<linearGradient id="paint23_linear" x1="88.1426" y1="144.794" x2="132.256" y2="147.155" gradientUnits="userSpaceOnUse">
<stop stop-color="#007AD3"/>
<stop offset="0.953125" stop-color="#2FA6F7"/>
</linearGradient>
<linearGradient id="paint24_linear" x1="127.217" y1="148.05" x2="92.0412" y2="236.938" gradientUnits="userSpaceOnUse">
<stop stop-color="#0062AA"/>
<stop offset="1" stop-color="#00406F"/>
</linearGradient>
<linearGradient id="paint25_linear" x1="82.3228" y1="155.161" x2="112.241" y2="156.428" gradientUnits="userSpaceOnUse">
<stop stop-color="#007AD3"/>
<stop offset="0.953125" stop-color="#2FA6F7"/>
</linearGradient>
<linearGradient id="paint26_linear" x1="95.148" y1="207.327" x2="95.1007" y2="209.124" gradientUnits="userSpaceOnUse">
<stop stop-color="#0062AA"/>
<stop offset="1" stop-color="#00406F"/>
</linearGradient>
<linearGradient id="paint27_linear" x1="110.719" y1="216.452" x2="110.52" y2="220.203" gradientUnits="userSpaceOnUse">
<stop stop-color="#0062AA"/>
<stop offset="1" stop-color="#00406F"/>
</linearGradient>
<linearGradient id="paint28_linear" x1="104.505" y1="225.466" x2="104.802" y2="229.204" gradientUnits="userSpaceOnUse">
<stop stop-color="#0062AA"/>
<stop offset="1" stop-color="#00406F"/>
</linearGradient>
<linearGradient id="paint29_linear" x1="99.6157" y1="210.833" x2="113.115" y2="211.89" gradientUnits="userSpaceOnUse">
<stop stop-color="#0469B3"/>
<stop offset="0.953125" stop-color="#4894C7"/>
</linearGradient>
<linearGradient id="paint30_linear" x1="123.952" y1="162.097" x2="116.727" y2="162.463" gradientUnits="userSpaceOnUse">
<stop stop-color="#007AD3"/>
<stop offset="0.953125" stop-color="#2FA6F7"/>
</linearGradient>
<linearGradient id="paint31_linear" x1="117.644" y1="159.815" x2="96.213" y2="162.35" gradientUnits="userSpaceOnUse">
<stop stop-color="#007AD3"/>
<stop offset="0.953125" stop-color="#2FA6F7"/>
</linearGradient>
<linearGradient id="paint32_linear" x1="47.7719" y1="251.839" x2="23.0419" y2="290.798" gradientUnits="userSpaceOnUse">
<stop stop-color="#FFDAC1"/>
<stop offset="1" stop-color="#FAB072"/>
</linearGradient>
<linearGradient id="paint33_linear" x1="41.8103" y1="241.833" x2="41.3153" y2="280.279" gradientUnits="userSpaceOnUse">
<stop stop-color="#F4FAFF"/>
<stop offset="1" stop-color="#007AD3"/>
</linearGradient>
<linearGradient id="paint34_linear" x1="16.8721" y1="217.678" x2="52.4382" y2="220.32" gradientUnits="userSpaceOnUse">
<stop stop-color="#0469B3"/>
<stop offset="0.953125" stop-color="#4894C7"/>
</linearGradient>
<linearGradient id="paint35_linear" x1="29.5195" y1="229.14" x2="62.4323" y2="231.751" gradientUnits="userSpaceOnUse">
<stop stop-color="#007AD3"/>
<stop offset="0.953125" stop-color="#2FA6F7"/>
</linearGradient>
<linearGradient id="paint36_linear" x1="316.335" y1="222.111" x2="315.076" y2="262.918" gradientUnits="userSpaceOnUse">
<stop stop-color="#007AD3"/>
<stop offset="1" stop-color="#F4FAFF"/>
</linearGradient>
<linearGradient id="paint37_linear" x1="316.526" y1="205.136" x2="292.022" y2="237.5" gradientUnits="userSpaceOnUse">
<stop stop-color="#FFDAC1"/>
<stop offset="0.608978" stop-color="#FEBF94"/>
<stop offset="1" stop-color="#FAB072"/>
</linearGradient>
<linearGradient id="paint38_linear" x1="335.255" y1="223.435" x2="330.178" y2="232.871" gradientUnits="userSpaceOnUse">
<stop stop-color="#FFDAC1"/>
<stop offset="1" stop-color="#FAB072"/>
</linearGradient>
<linearGradient id="paint39_linear" x1="337.651" y1="196.647" x2="322.607" y2="223.855" gradientUnits="userSpaceOnUse">
<stop stop-color="#FFDAC1"/>
<stop offset="1" stop-color="#FAB072"/>
</linearGradient>
<linearGradient id="paint40_linear" x1="267.052" y1="218.111" x2="245.473" y2="249.831" gradientUnits="userSpaceOnUse">
<stop offset="0.184078" stop-color="#FAB072"/>
<stop offset="0.566575" stop-color="#FEC097"/>
<stop offset="1" stop-color="#FAB072"/>
</linearGradient>
<linearGradient id="paint41_linear" x1="306.106" y1="240.278" x2="282.68" y2="230.69" gradientUnits="userSpaceOnUse">
<stop stop-color="#FFD1B3"/>
<stop offset="1" stop-color="#FAB072"/>
</linearGradient>
<linearGradient id="paint42_linear" x1="329.237" y1="223.233" x2="324.351" y2="240.024" gradientUnits="userSpaceOnUse">
<stop stop-color="#FFDAC1"/>
<stop offset="1" stop-color="#FAB072"/>
</linearGradient>
<clipPath id="clip0">
<rect width="101.337" height="57.5371" fill="white" transform="translate(244.885 201.222)"/>
</clipPath>
<clipPath id="clip1">
<rect width="56.2422" height="129.458" fill="white" transform="matrix(-1 0 0 1 301.126 7)"/>
</clipPath>
</defs>
</svg>
