<svg width="68" height="68" viewBox="0 0 68 68" fill="none" xmlns="http://www.w3.org/2000/svg">
<path opacity="0.2" d="M34 68C52.7777 68 68 52.7777 68 34C68 15.2223 52.7777 0 34 0C15.2223 0 0 15.2223 0 34C0 52.7777 15.2223 68 34 68Z" fill="url(#paint0_linear)"/>
<path fill-rule="evenodd" clip-rule="evenodd" d="M36.2671 13.8519C36.519 13.8519 36.7079 13.8519 36.8968 13.8519V21.4074L35.8264 21.0296C35.5116 20.9037 35.1968 20.9037 34.882 20.9037C33.182 20.9037 31.8597 22.2889 31.8597 23.9259C31.8597 24.2408 31.9227 24.5556 31.9857 24.8704C32.4894 26.4445 34.2523 27.3259 35.8264 26.7593L36.8968 26.3815V33.9371H29.3412L29.719 35.0074C29.8449 35.3222 29.8449 35.6371 29.8449 35.9519C29.8449 37.6519 28.4597 38.9741 26.8227 38.9741C26.5079 38.9741 26.1931 38.9111 25.8783 38.8482C24.3042 38.3445 23.4227 36.5815 23.9894 35.0074L24.3671 33.9371H19.3931L19.9597 32.8667C20.5894 31.6704 20.9042 30.3482 20.9042 29.0259C20.9042 20.7148 27.7042 13.9148 36.0153 13.8519C36.1412 13.8519 36.2042 13.8519 36.2671 13.8519Z" fill="url(#paint1_linear)"/>
<path fill-rule="evenodd" clip-rule="evenodd" d="M19.3929 34H24.304L23.9263 35.0704C23.4226 36.6444 24.2411 38.3444 25.8151 38.9111C26.13 39.037 26.4448 39.037 26.7596 39.037C28.4596 39.037 29.7818 37.7148 29.7818 36.0148C29.7818 35.7 29.7188 35.3852 29.6559 35.0704L29.3411 34H36.8966V41.5556L35.8263 41.1778C34.2522 40.6741 32.5522 41.4926 31.9855 43.0667C31.8596 43.3815 31.8596 43.6963 31.8596 44.0111C31.8596 45.7111 33.1818 47.0333 34.8818 47.0333C35.1966 47.0333 35.5114 46.9704 35.8263 46.9074L36.8966 46.5296V54.0852H29.6559C29.0263 54.0852 28.5226 53.5815 28.5226 52.9519V48.9852H24.1151C22.3522 48.9852 20.904 47.537 20.904 45.7741V40.2963L18.3225 40.2333C17.3151 40.2333 16.6855 39.1 17.1263 38.2185L19.3929 34Z" fill="url(#paint2_linear)"/>
<path fill-rule="evenodd" clip-rule="evenodd" d="M36.8964 13.8519C45.0187 14.2296 51.4409 20.9667 51.3779 29.2148C51.3779 30.9148 51.0631 32.4889 50.5594 34H49.489L49.8668 32.9296C50.3705 31.3556 49.552 29.6556 47.9779 29.0889C47.6631 28.963 47.3483 28.963 47.0335 28.963C45.3335 28.963 44.0113 30.2852 44.0113 31.9852C44.0113 32.3 44.0742 32.6148 44.1372 32.9296L44.515 34H36.9594V26.4445L35.889 26.8222C34.315 27.3259 32.615 26.5074 32.0483 24.9334C31.9224 24.6185 31.9224 24.3037 31.9224 23.9889C31.9224 22.2889 33.2446 20.9667 34.9446 20.9667C35.2594 20.9667 35.5742 21.0296 35.889 21.0926L36.9594 21.4704V13.8519H36.8964Z" fill="url(#paint3_linear)"/>
<path fill-rule="evenodd" clip-rule="evenodd" d="M46.5297 53.0149V48.9852C46.5297 44.4519 47.6001 40.0445 49.6779 35.9519C49.9927 35.3223 50.3075 34.6926 50.4964 34H49.426L49.8038 32.9297C50.3075 31.3556 49.489 29.6556 47.9149 29.0889C47.6001 28.963 47.2853 28.963 46.9705 28.963C45.2705 28.963 43.9483 30.2852 43.9483 31.9852C43.9483 32.3 44.0112 32.6149 44.0742 32.9297L44.452 34H36.8964V41.5556L35.826 41.1778C34.252 40.6741 32.552 41.4926 31.9853 43.0667C31.8594 43.3815 31.8594 43.6963 31.8594 44.0112C31.8594 45.7112 33.1816 47.0334 34.8816 47.0334C35.1964 47.0334 35.5112 46.9704 35.826 46.9075L36.8964 46.5297V54.0852H45.4594C46.089 54.1482 46.5297 53.6445 46.5297 53.0149Z" fill="url(#paint4_linear)"/>
<defs>
<linearGradient id="paint0_linear" x1="1.51112" y1="-4.57685" x2="57.3013" y2="-13.3757" gradientUnits="userSpaceOnUse">
<stop offset="0.0420291" stop-color="#6CC1FF"/>
<stop offset="1" stop-color="#8AD0FF"/>
</linearGradient>
<linearGradient id="paint1_linear" x1="38.1991" y1="26.9088" x2="16.048" y2="25.3366" gradientUnits="userSpaceOnUse">
<stop stop-color="#0469B3"/>
<stop offset="0.9531" stop-color="#4894C7"/>
</linearGradient>
<linearGradient id="paint2_linear" x1="25.6834" y1="58.2739" x2="28.9199" y2="27.7903" gradientUnits="userSpaceOnUse">
<stop stop-color="#0062AA"/>
<stop offset="1" stop-color="#00406F"/>
</linearGradient>
<linearGradient id="paint3_linear" x1="49.2744" y1="34.2492" x2="40.3246" y2="24.3833" gradientUnits="userSpaceOnUse">
<stop offset="0.2294" stop-color="#6FA8FF"/>
<stop offset="0.8004" stop-color="#99C2FF"/>
</linearGradient>
<linearGradient id="paint4_linear" x1="34.5417" y1="56.2425" x2="48.8854" y2="31.091" gradientUnits="userSpaceOnUse">
<stop stop-color="#FFDAC1"/>
<stop offset="1" stop-color="#FAB072"/>
</linearGradient>
</defs>
</svg>
