<svg width="68" height="68" viewBox="0 0 68 68" fill="none" xmlns="http://www.w3.org/2000/svg">
<path opacity="0.2" d="M34 68C52.7777 68 68 52.7777 68 34C68 15.2223 52.7777 0 34 0C15.2223 0 0 15.2223 0 34C0 52.7777 15.2223 68 34 68Z" fill="url(#paint0_linear)"/>
<path d="M38.9167 33.7537C38.6135 33.7537 38.3164 33.6497 38.0775 33.4544C37.7692 33.2026 37.5903 32.8255 37.5903 32.4274V18.5516C37.5903 17.8191 38.1841 17.2253 38.9166 17.2253H51.9106C52.6078 17.2253 53.2523 17.5415 53.6788 18.0929C54.1055 18.6442 54.2499 19.3474 54.075 20.0223L52.5426 25.9343C51.7291 29.0723 49.2718 31.5165 46.1295 32.3131C46.109 32.3183 46.0884 32.323 46.0677 32.3271L39.1808 33.7272C39.0933 33.745 39.0047 33.7537 38.9167 33.7537ZM40.243 19.8779V30.8044L45.5069 29.7344C47.6966 29.1681 49.4071 27.4595 49.975 25.2687L51.3723 19.878H40.243V19.8779Z" fill="url(#paint1_linear)"/>
<path d="M32.4375 33.7537C32.3495 33.7537 32.2611 33.745 32.1733 33.7272L25.2864 32.3271C25.2658 32.323 25.2452 32.3182 25.2248 32.3131C22.0824 31.5165 19.625 29.0723 18.8117 25.9342L17.2792 20.0223C17.1043 19.3475 17.2486 18.6443 17.6753 18.093C18.1019 17.5416 18.7464 17.2253 19.4435 17.2253H32.4375C33.17 17.2253 33.7638 17.8191 33.7638 18.5516V32.4274C33.7638 32.8255 33.585 33.2026 33.2767 33.4544C33.0379 33.6497 32.7407 33.7537 32.4375 33.7537ZM25.8474 29.7343L31.1113 30.8044V19.8779H19.982L21.3794 25.2686C21.9472 27.4595 23.6577 29.168 25.8474 29.7343Z" fill="url(#paint2_linear)"/>
<path fill-rule="evenodd" clip-rule="evenodd" d="M38.3309 35.8376C38.3309 40.3127 41.2918 44.248 45.5916 45.488L46.6072 45.7807V49.0955H42.2124H41.0366H24.7476V45.7807C28.8563 44.5959 31.8923 41.2521 32.7668 37.1967C32.7668 37.1966 32.7668 37.1963 32.7668 37.1961C32.9355 36.4139 33.0237 35.6054 33.0237 34.7806V29.3097H38.3309V35.8376Z" fill="url(#paint3_linear)"/>
<path fill-rule="evenodd" clip-rule="evenodd" d="M22.8448 45.7452H43.4447C43.4456 45.7452 43.4465 45.7452 43.4474 45.7452H48.51C49.3133 45.7452 49.9645 46.3965 49.9646 47.1999V54.5036H44.1445H21.3901V47.1999C21.3901 46.3965 22.0414 45.7452 22.8448 45.7452Z" fill="url(#paint4_linear)"/>
<path fill-rule="evenodd" clip-rule="evenodd" d="M42.9909 13.5905H47.783V21.4709C47.783 27.9359 44.2829 33.8944 38.6362 37.0426C36.8109 38.0601 34.5919 38.0679 32.7607 37.0659C32.7466 37.0582 32.7325 37.0504 32.7185 37.0426C27.0718 33.8944 23.5718 27.9359 23.5718 21.4708V13.5905H42.9909Z" fill="url(#paint5_linear)"/>
<path fill-rule="evenodd" clip-rule="evenodd" d="M45.4347 53.1859H51.2708C52.1615 53.1859 52.8837 53.908 52.8837 54.7988C52.8837 55.6896 52.1615 56.4118 51.2708 56.4118H47.0478L47.0478 56.4118H20.0836C19.1929 56.4118 18.4707 55.6896 18.4707 54.7989C18.4707 53.9081 19.1929 53.186 20.0836 53.186H45.4482C45.4437 53.1859 45.4392 53.1859 45.4347 53.1859Z" fill="url(#paint6_linear)"/>
<path fill-rule="evenodd" clip-rule="evenodd" d="M44.9253 11.6132L44.9253 11.613H22.5107C21.4525 11.613 20.5947 12.4708 20.5947 13.5291C20.5947 14.5872 21.4525 15.445 22.5107 15.445H43.0271C43.0212 15.4451 43.0153 15.4451 43.0094 15.4451H48.8426C49.9008 15.4451 50.7586 14.5873 50.7586 13.5291C50.7586 12.471 49.9007 11.6132 48.8426 11.6132H44.9254H44.9253Z" fill="url(#paint7_linear)"/>
<path opacity="0.8" d="M36.0905 21.248L36.8895 23.374C36.9509 23.5375 37.1084 23.6487 37.2876 23.6549L39.6162 23.736C40.0268 23.7503 40.1955 24.2547 39.872 24.5006L38.0372 25.8957C37.896 26.003 37.8359 26.1828 37.8852 26.3501L38.5253 28.5263C38.6382 28.91 38.1965 29.2217 37.8556 28.9989L35.9226 27.7351C35.7739 27.6379 35.5793 27.6379 35.4306 27.7351L33.4976 28.9989C33.1568 29.2217 32.7151 28.91 32.8279 28.5263L33.4681 26.3501C33.5174 26.1827 33.4572 26.003 33.316 25.8957L31.4813 24.5006C31.1577 24.2546 31.3264 23.7503 31.737 23.736L34.0657 23.6549C34.2448 23.6487 34.4022 23.5376 34.4638 23.374L35.2628 21.248C35.4036 20.8731 35.9496 20.8731 36.0905 21.248Z" fill="#F4FBFF"/>
<defs>
<linearGradient id="paint0_linear" x1="1.51112" y1="-4.57685" x2="57.3013" y2="-13.3757" gradientUnits="userSpaceOnUse">
<stop offset="0.0420291" stop-color="#6CC1FF"/>
<stop offset="1" stop-color="#8AD0FF"/>
</linearGradient>
<linearGradient id="paint1_linear" x1="49.8512" y1="14.4142" x2="40.4461" y2="30.9347" gradientUnits="userSpaceOnUse">
<stop stop-color="#FEB483"/>
<stop offset="1" stop-color="#F7A058"/>
</linearGradient>
<linearGradient id="paint2_linear" x1="29.4674" y1="14.4142" x2="20.0623" y2="30.9347" gradientUnits="userSpaceOnUse">
<stop stop-color="#FEB483"/>
<stop offset="1" stop-color="#F7A058"/>
</linearGradient>
<linearGradient id="paint3_linear" x1="40.9348" y1="25.9445" x2="30.2618" y2="46.6212" gradientUnits="userSpaceOnUse">
<stop stop-color="#FFDAC1"/>
<stop offset="1" stop-color="#FAB072"/>
</linearGradient>
<linearGradient id="paint4_linear" x1="21.3901" y1="43.4745" x2="50.5223" y2="51.9074" gradientUnits="userSpaceOnUse">
<stop stop-color="#0469B3"/>
<stop offset="0.953125" stop-color="#4894C7"/>
</linearGradient>
<linearGradient id="paint5_linear" x1="41.5004" y1="9.47091" x2="27.7027" y2="33.655" gradientUnits="userSpaceOnUse">
<stop stop-color="#FFDAC1"/>
<stop offset="1" stop-color="#FAB072"/>
</linearGradient>
<linearGradient id="paint6_linear" x1="44.5679" y1="52.5949" x2="44.5188" y2="57.53" gradientUnits="userSpaceOnUse">
<stop stop-color="#0062AA"/>
<stop offset="1" stop-color="#00406F"/>
</linearGradient>
<linearGradient id="paint7_linear" x1="42.9314" y1="10.9613" x2="42.5658" y2="16.0064" gradientUnits="userSpaceOnUse">
<stop stop-color="#FFDAC1"/>
<stop offset="1" stop-color="#FAB072"/>
</linearGradient>
</defs>
</svg>
